<svg width="24" height="24" viewBox="0 0 24 24" fill="none" xmlns="http://www.w3.org/2000/svg">
<path d="M12 0C7.3305 0 3.75 3.5805 3.75 8.25V24H20.25V8.25C20.25 3.5805 16.6695 0 12 0Z" fill="white"/>
<path d="M12 0C7.3305 0 3.75 3.5805 3.75 8.25V24H20.25V8.25C20.25 3.5805 16.6695 0 12 0ZM5.25 12H10.5V13.5H5.25V12ZM5.25 15H12V16.5H5.25V15ZM5.25 18H13.5V19.5H5.25V18ZM5.25 21H15V22.5H5.25V21ZM18.75 22.5H17.25V8.25C17.25 5.25 16.5 2.99475 12.75 1.125C17.25 1.875 18.75 4.875 18.75 8.25V22.5Z" fill="black"/>
</svg>
