<svg width="24" height="35" viewBox="0 0 24 35" fill="none" xmlns="http://www.w3.org/2000/svg">
<path d="M12 0C5.208 0 0 5.19648 0 11.9735V32.8319C0 33.9364 0.895431 34.8319 2 34.8319H22C23.1046 34.8319 24 33.9364 24 32.8319V11.9735C24 5.19648 18.792 0 12 0ZM2.18182 18.4159C2.18182 17.8636 2.62953 17.4159 3.18182 17.4159H8.81818C9.37047 17.4159 9.81818 17.8636 9.81818 18.4159V18.5929C9.81818 19.1452 9.37047 19.5929 8.81818 19.5929H3.18182C2.62953 19.5929 2.18182 19.1452 2.18182 18.5929V18.4159ZM2.18182 22.7699C2.18182 22.2176 2.62953 21.7699 3.18182 21.7699H11C11.5523 21.7699 12 22.2176 12 22.7699V22.9469C12 23.4992 11.5523 23.9469 11 23.9469H3.18182C2.62953 23.9469 2.18182 23.4992 2.18182 22.9469V22.7699ZM2.18182 27.1239C2.18182 26.5716 2.62953 26.1239 3.18182 26.1239H13.1818C13.7341 26.1239 14.1818 26.5716 14.1818 27.1239V27.3009C14.1818 27.8532 13.7341 28.3009 13.1818 28.3009H3.18182C2.62953 28.3009 2.18182 27.8532 2.18182 27.3009V27.1239ZM2.18182 31.4779C2.18182 30.9256 2.62953 30.4779 3.18182 30.4779H15.3636C15.9159 30.4779 16.3636 30.9256 16.3636 31.4779V31.6549C16.3636 32.2072 15.9159 32.6549 15.3636 32.6549H3.18182C2.62953 32.6549 2.18182 32.2072 2.18182 31.6549V31.4779ZM21.8182 31.6549C21.8182 32.2072 21.3705 32.6549 20.8182 32.6549H20.6364C20.0841 32.6549 19.6364 32.2072 19.6364 31.6549V11.9735C19.6364 8.31927 18.8679 5.42643 15.3964 2.98672C15.0204 2.7225 15.2469 2.14657 15.6776 2.30688C20.2251 3.99977 21.8182 7.78791 21.8182 11.9735V31.6549Z" fill="#181818"/>
</svg>
