<?xml version="1.0" encoding="UTF-8"?>
<svg width="32px" height="32px" viewBox="0 0 32 32" version="1.1" xmlns="http://www.w3.org/2000/svg" xmlns:xlink="http://www.w3.org/1999/xlink">
    <!-- Generator: Sketch 51.3 (57544) - http://www.bohemiancoding.com/sketch -->
    <title>Artboard</title>
    <desc>Created with Sketch.</desc>
    <defs></defs>
    <g id="Artboard" stroke="none" stroke-width="1" fill="none" fill-rule="evenodd">
        <g id="evernote-logo" transform="translate(6.000000, 4.000000)" fill="#00A82D" fill-rule="nonzero">
            <path d="M6.38725632,5.36129032 C6.38725632,5.59354839 6.36780708,5.98064516 6.13441608,6.23225808 C5.88157577,6.4645161 5.49259072,6.48387096 5.25919969,6.48387096 L2.76969536,6.48387096 C2.05007302,6.48387096 1.62218946,6.48387096 1.33045067,6.52258062 C1.17485665,6.54193548 0.98036412,6.61935486 0.88311786,6.65806452 C0.844219356,6.67741938 0.844219356,6.65806452 0.863668608,6.63870966 L6.54285036,0.890322582 C6.5622996,0.87096774 6.58174884,0.87096774 6.5622996,0.909677418 C6.52340112,1.00645161 6.4456041,1.2 6.42615486,1.35483871 C6.38725632,1.64516129 6.38725632,2.07096774 6.38725632,2.78709677 L6.38725632,5.36129032 Z M11.677453,22.7419355 C11.0161784,22.316129 10.6660919,21.7548387 10.5299471,21.4064516 C10.3938023,21.0774194 10.3160054,20.7096774 10.3160054,20.3419355 C10.3160054,18.7354839 11.6385545,17.4193549 13.2722917,17.4193549 C13.7585231,17.4193549 14.1475081,17.8064516 14.1475081,18.2903226 C14.1475081,18.6193549 13.9724648,18.8903226 13.7001753,19.0451613 C13.602929,19.1032258 13.4667842,19.1419355 13.369538,19.1612903 C13.2722917,19.1806451 12.9027559,19.2193549 12.7277126,19.3741936 C12.5332201,19.5290323 12.3776261,19.7806451 12.3776261,20.0516129 C12.3776261,20.3419355 12.4943216,20.6129032 12.6888142,20.8064516 C13.0389007,21.1548387 13.5056828,21.3483871 14.0113633,21.3483871 C15.3339125,21.3483871 16.4036214,20.283871 16.4036214,18.9677419 C16.4036214,17.7870968 15.606202,16.7419355 14.5559424,16.2774194 C14.4003484,16.2 14.1475081,16.1419355 13.9141171,16.083871 C13.6223783,16.0258064 13.3500887,15.9870968 13.3306395,15.9870968 C12.5137709,15.8903226 10.4715994,15.2516129 10.3354546,13.4516129 C10.3354546,13.4516129 9.73252776,16.1612903 8.5266741,16.8967742 C8.4099786,16.9548387 8.25438456,17.0129032 8.07934128,17.0516129 C7.90429806,17.0903226 7.70980548,17.1096774 7.65145776,17.1096774 C5.68708324,17.2258064 3.60601322,16.6064516 2.16676853,15.1354839 C2.16676853,15.1354839 1.1943059,14.3419355 0.688625334,12.116129 C0.571929819,11.5741936 0.338538788,10.6064516 0.20239402,9.69677418 C0.144046263,9.36774192 0.12459701,9.11612904 0.105147758,8.88387096 C0.105147758,7.9354839 0.688625334,7.29677418 1.42769693,7.2 C1.44714619,7.2 1.50549394,7.2 1.54439245,7.2 C1.99172525,7.2 5.39534446,7.2 5.39534446,7.2 C6.0760683,7.2 6.46505334,7.02580644 6.71789364,6.79354836 C7.0485309,6.48387096 7.12632792,6.03870966 7.12632792,5.51612903 C7.12632792,5.51612903 7.12632792,1.99354839 7.12632792,1.5483871 C7.12632792,1.52903226 7.12632792,1.4516129 7.12632792,1.43225806 C7.22357418,0.716129034 7.86539952,0.116129032 8.81841288,0.116129032 C8.81841288,0.116129032 9.11015172,0.116129032 9.28519494,0.116129032 C9.47968752,0.116129032 9.71307852,0.135483871 9.92702028,0.15483871 C10.0826143,0.174193549 10.2187591,0.212903226 10.4521501,0.270967742 C11.6385545,0.561290323 11.8913948,1.76129032 11.8913948,1.76129032 C11.8913948,1.76129032 14.1280589,2.1483871 15.2561155,2.34193549 C16.3258244,2.53548387 18.9709228,2.70967742 19.4766033,5.36129032 C20.6630077,11.6709677 19.9433854,17.7870968 19.8850376,17.7870968 C19.0487197,23.7483871 14.0697111,23.4580645 14.0697111,23.4580645 C13.0000022,23.4580645 12.2025829,23.1096774 11.677453,22.7419355 Z M16.1507811,10.0645161 C15.5089558,10.0064516 14.9643767,10.2580645 14.7698842,10.7419355 C14.7309857,10.8387097 14.6920872,10.9548387 14.7115364,11.0129032 C14.7309857,11.0709677 14.7698842,11.0903226 14.8087827,11.1096774 C15.0421737,11.2258064 15.4311588,11.283871 15.9951871,11.3419355 C16.5592154,11.4 16.9482005,11.4387097 17.2010408,11.4 C17.2399393,11.4 17.2788377,11.3806451 17.3177363,11.3225806 C17.3566348,11.2645161 17.3371855,11.1483871 17.3371855,11.0516129 C17.2593885,10.5096774 16.7926064,10.1419355 16.1507811,10.0645161 Z" id="Shape"></path>
        </g>
    </g>
</svg>