<?xml version="1.0" encoding="UTF-8"?>
<svg width="24px" height="24px" viewBox="0 0 24 24" version="1.1" xmlns="http://www.w3.org/2000/svg" xmlns:xlink="http://www.w3.org/1999/xlink">
    <!-- Generator: Sketch 51.3 (57544) - http://www.bohemiancoding.com/sketch -->
    <title>Artboard</title>
    <desc>Created with Sketch.</desc>
    <defs></defs>
    <g id="Artboard" stroke="none" stroke-width="1" fill="none" fill-rule="evenodd">
        <g id="evernote-logo" transform="translate(4.000000, 2.000000)" fill="#00A82D" fill-rule="nonzero">
            <path d="M5.3227136,4.46774194 C5.3227136,4.66129033 5.3065059,4.98387097 5.1120134,5.1935484 C4.90131314,5.38709675 4.57715893,5.4032258 4.3826664,5.4032258 L2.30807946,5.4032258 C1.70839418,5.4032258 1.35182455,5.4032258 1.10870889,5.43548385 C0.979047205,5.4516129 0.8169701,5.51612905 0.73593155,5.5483871 C0.70351613,5.56451615 0.70351613,5.5483871 0.71972384,5.53225805 L5.4523753,0.741935485 C5.468583,0.72580645 5.4847907,0.72580645 5.468583,0.758064515 C5.4361676,0.838709675 5.37133675,1 5.35512905,1.12903226 C5.3227136,1.37096774 5.3227136,1.72580645 5.3227136,2.32258064 L5.3227136,4.46774194 Z M9.73121085,18.9516129 C9.1801487,18.5967742 8.8884099,18.1290323 8.77495595,17.8387097 C8.66150195,17.5645161 8.59667115,17.2580645 8.59667115,16.9516129 C8.59667115,15.6129033 9.69879545,14.516129 11.0602431,14.516129 C11.4654359,14.516129 11.7895901,14.8387097 11.7895901,15.2419355 C11.7895901,15.5161291 11.6437207,15.7419355 11.4168128,15.8709678 C11.3357742,15.9193548 11.2223202,15.9516129 11.1412816,15.967742 C11.0602431,15.983871 10.7522966,16.016129 10.6064272,16.1451613 C10.4443501,16.2741935 10.3146885,16.483871 10.3146885,16.7096774 C10.3146885,16.9516129 10.4119347,17.1774194 10.5740118,17.3387097 C10.8657506,17.6290323 11.2547356,17.7903226 11.6761361,17.7903226 C12.7782604,17.7903226 13.6696845,16.9032258 13.6696845,15.8064516 C13.6696845,14.8225807 13.0051683,13.9516129 12.129952,13.5645161 C12.0002903,13.5 11.7895901,13.4516129 11.5950976,13.4032258 C11.3519819,13.3548387 11.1250739,13.3225807 11.1088663,13.3225807 C10.4281424,13.2419355 8.7263328,12.7096774 8.61287885,11.2096774 C8.61287885,11.2096774 8.1104398,13.467742 7.10556175,14.0806452 C7.0083155,14.1290322 6.8786538,14.1774193 6.7327844,14.2096774 C6.58691505,14.2419355 6.4248379,14.2580645 6.3762148,14.2580645 C4.73923603,14.3548387 3.00501101,13.8387097 1.80564044,12.6129033 C1.80564044,12.6129033 0.995254915,11.9516129 0.573854445,10.0967742 C0.476608182,9.6451613 0.282115657,8.8387097 0.168661683,8.08064515 C0.120038552,7.8064516 0.103830842,7.5967742 0.0876231314,7.4032258 C0.0876231314,6.61290325 0.573854445,6.08064515 1.18974744,6 C1.20595515,6 1.25457828,6 1.2869937,6 C1.65977104,6 4.49612038,6 4.49612038,6 C5.06339025,6 5.38754445,5.8548387 5.5982447,5.6612903 C5.87377575,5.4032258 5.9386066,5.03225805 5.9386066,4.5967742 C5.9386066,4.5967742 5.9386066,1.66129032 5.9386066,1.29032258 C5.9386066,1.27419355 5.9386066,1.20967742 5.9386066,1.19354838 C6.01964515,0.596774195 6.5544996,0.0967741935 7.3486774,0.0967741935 C7.3486774,0.0967741935 7.5917931,0.0967741935 7.73766245,0.0967741935 C7.8997396,0.0967741935 8.0942321,0.112903226 8.2725169,0.129032258 C8.4021786,0.14516129 8.51563255,0.177419355 8.7101251,0.225806451 C9.69879545,0.467741935 9.90949565,1.46774194 9.90949565,1.46774194 C9.90949565,1.46774194 11.7733824,1.79032258 12.7134296,1.9516129 C13.6048536,2.11290323 15.8091023,2.25806452 16.2305028,4.46774194 C17.2191731,9.72580645 16.6194878,14.8225807 16.5708647,14.8225807 C15.8739331,19.7903226 11.7247592,19.5483871 11.7247592,19.5483871 C10.8333351,19.5483871 10.168819,19.2580645 9.73121085,18.9516129 Z M13.4589843,8.38709675 C12.9241298,8.3387097 12.4703139,8.5483871 12.3082368,8.9516129 C12.2758214,9.03225805 12.243406,9.12903225 12.2596137,9.17741935 C12.2758214,9.22580645 12.3082368,9.2419355 12.3406522,9.2580645 C12.5351447,9.3548387 12.859299,9.4032258 13.3293226,9.4516129 C13.7993462,9.5 14.1235004,9.53225805 14.3342006,9.5 C14.366616,9.5 14.3990314,9.48387095 14.4314469,9.43548385 C14.4638623,9.38709675 14.4476546,9.2903226 14.4476546,9.2096774 C14.3828238,8.7580645 13.9938387,8.4516129 13.4589843,8.38709675 Z" id="Shape"></path>
        </g>
    </g>
</svg>