<?xml version="1.0" encoding="UTF-8"?>
<svg width="24px" height="24px" viewBox="0 0 24 24" version="1.1" xmlns="http://www.w3.org/2000/svg" xmlns:xlink="http://www.w3.org/1999/xlink">
    <!-- Generator: Sketch 51.3 (57544) - http://www.bohemiancoding.com/sketch -->
    <title>Artboard</title>
    <desc>Created with Sketch.</desc>
    <defs></defs>
    <g id="Artboard" stroke="none" stroke-width="1" fill="none" fill-rule="evenodd">
        <g id="evernote-logo" transform="translate(7.000000, 4.000000)" fill="#00A82D" fill-rule="nonzero">
            <path d="M10.6454272,8.93548387 C10.6454272,9.32258065 10.6130118,9.96774194 10.2240268,10.3870968 C9.80262628,10.7741935 9.15431786,10.8064516 8.76533281,10.8064516 L4.61615893,10.8064516 C3.41678836,10.8064516 2.7036491,10.8064516 2.21741778,10.8709677 C1.95809441,10.9032258 1.6339402,11.0322581 1.4718631,11.0967742 C1.40703226,11.1290323 1.40703226,11.0967742 1.43944768,11.0645161 L10.9047506,1.48387097 C10.937166,1.4516129 10.9695814,1.4516129 10.937166,1.51612903 C10.8723352,1.67741935 10.7426735,2 10.7102581,2.25806452 C10.6454272,2.74193548 10.6454272,3.4516129 10.6454272,4.64516129 L10.6454272,8.93548387 Z M19.4624217,37.9032258 C18.3602974,37.1935484 17.7768198,36.2580645 17.5499119,35.6774194 C17.3230039,35.1290323 17.1933423,34.516129 17.1933423,33.9032258 C17.1933423,31.2258065 19.3975909,29.0322581 22.1204862,29.0322581 C22.9308718,29.0322581 23.5791802,29.6774194 23.5791802,30.483871 C23.5791802,31.0322581 23.2874414,31.483871 22.8336255,31.7419355 C22.6715484,31.8387097 22.4446404,31.9032258 22.2825633,31.9354839 C22.1204862,31.9677419 21.5045932,32.0322581 21.2128544,32.2903226 C20.8887002,32.5483871 20.6293769,32.9677419 20.6293769,33.4193548 C20.6293769,33.9032258 20.8238694,34.3548387 21.1480236,34.6774194 C21.7315012,35.2580645 22.5094713,35.5806452 23.3522722,35.5806452 C25.5565208,35.5806452 27.339369,33.8064516 27.339369,31.6129032 C27.339369,29.6451613 26.0103367,27.9032258 24.259904,27.1290323 C24.0005806,27 23.5791802,26.9032258 23.1901951,26.8064516 C22.7039638,26.7096774 22.2501479,26.6451613 22.2177325,26.6451613 C20.8562848,26.483871 17.4526656,25.4193548 17.2257577,22.4193548 C17.2257577,22.4193548 16.2208796,26.9354839 14.2111235,28.1612903 C14.016631,28.2580645 13.7573076,28.3548387 13.4655688,28.4193548 C13.1738301,28.483871 12.8496758,28.516129 12.7524296,28.516129 C9.47847207,28.7096774 6.01002203,27.6774194 3.61128088,25.2258065 C3.61128088,25.2258065 1.99050983,23.9032258 1.14770889,20.1935484 C0.953216365,19.2903226 0.564231314,17.6774194 0.337323367,16.1612903 C0.240077105,15.6129032 0.207661684,15.1935484 0.175246263,14.8064516 C0.175246263,13.2258065 1.14770889,12.1612903 2.37949489,12 C2.41191031,12 2.50915657,12 2.57398741,12 C3.31954209,12 8.99224076,12 8.99224076,12 C10.1267805,12 10.7750889,11.7096774 11.1964894,11.3225806 C11.7475515,10.8064516 11.8772132,10.0645161 11.8772132,9.19354839 C11.8772132,9.19354839 11.8772132,3.32258065 11.8772132,2.58064516 C11.8772132,2.5483871 11.8772132,2.41935484 11.8772132,2.38709677 C12.0392903,1.19354839 13.1089992,0.193548387 14.6973548,0.193548387 C14.6973548,0.193548387 15.1835862,0.193548387 15.4753249,0.193548387 C15.7994792,0.193548387 16.1884642,0.225806452 16.5450338,0.258064516 C16.8043572,0.290322581 17.0312651,0.35483871 17.4202502,0.451612903 C19.3975909,0.935483871 19.8189913,2.93548387 19.8189913,2.93548387 C19.8189913,2.93548387 23.5467648,3.58064516 25.4268592,3.90322581 C27.2097073,4.22580645 31.6182046,4.51612903 32.4610055,8.93548387 C34.4383462,19.4516129 33.2389756,29.6451613 33.1417293,29.6451613 C31.7478662,39.5806452 23.4495185,39.0967742 23.4495185,39.0967742 C21.6666703,39.0967742 20.3376381,38.516129 19.4624217,37.9032258 Z M26.9179685,16.7741935 C25.8482596,16.6774194 24.9406279,17.0967742 24.6164736,17.9032258 C24.5516428,18.0645161 24.486812,18.2580645 24.5192274,18.3548387 C24.5516428,18.4516129 24.6164736,18.483871 24.6813045,18.516129 C25.0702895,18.7096774 25.718598,18.8064516 26.6586452,18.9032258 C27.5986924,19 28.2470008,19.0645161 28.6684013,19 C28.7332321,19 28.7980629,18.9677419 28.8628938,18.8709677 C28.9277246,18.7741935 28.8953092,18.5806452 28.8953092,18.4193548 C28.7656475,17.516129 27.9876774,16.9032258 26.9179685,16.7741935 Z" id="Shape"></path>
        </g>
    </g>
</svg>