<?xml version="1.0" standalone="no"?>
<!DOCTYPE svg PUBLIC "-//W3C//DTD SVG 1.1//EN" "http://www.w3.org/Graphics/SVG/1.1/DTD/svg11.dtd" >
<svg xmlns="http://www.w3.org/2000/svg" xmlns:xlink="http://www.w3.org/1999/xlink" version="1.1">
<metadata>
Created by FontForge 20150824 at Sun Sep 11 12:51:50 2016
 By Everything Fonts
Copyright (c) 2011 by Wolfgang Homola, distributed by TypeTogether. All rights reserved.
</metadata>
<defs>
<font id="SoleilBold" horiz-adv-x="550" >
  <font-face 
    font-family="SoleilBold"
    font-weight="700"
    font-stretch="normal"
    units-per-em="1000"
    panose-1="2 0 8 3 0 0 0 2 0 4"
    ascent="750"
    descent="-250"
    x-height="526"
    cap-height="700"
    bbox="-210 -321 1327 1129"
    underline-thickness="50"
    underline-position="-150"
    unicode-range="U+000D-FB06"
  />
<missing-glyph 
d="M313 143h-85v83h85v-83zM46 666h459v-666h-459v666zM122 592v-518h306v518h-306zM311 271h-81v85q41 13 61 26.5t20 39.5q0 16 -10 27.5t-28 11.5q-38 0 -38 -44v-12h-77v10q0 49 31.5 81t83.5 32q51 0 83.5 -32.5t32.5 -71.5q0 -42 -20.5 -66.5t-57.5 -43.5v-43z" />
    <glyph glyph-name="ff" unicode="ff" horiz-adv-x="716" 
d="M401 732l-44 -109q-33 17 -73 17q-31 0 -44 -16q-14 -19 -14 -64v-34h108v-118h-108v-408h-142v408h-57v118h57v42q0 94 38 140q43 54 148 54q66 0 131 -30zM759 732l-44 -109q-33 17 -73 17q-31 0 -44 -16q-14 -19 -14 -64v-34h131v-118h-131v-408h-142v408h-57v118h57
v42q0 94 38 140q44 54 148 54q66 0 131 -30z" />
    <glyph glyph-name="fi" unicode="fi" horiz-adv-x="638" 
d="M361 748l-22 -117q-26 9 -55 9q-31 0 -44 -16q-14 -19 -14 -64v-34h131v-118h-131v-408h-142v408h-57v118h57v42q0 94 38 140q43 54 148 54q44 0 91 -14zM569 0h-142v526h142v-526zM569 599h-142v121h142v-121z" />
    <glyph glyph-name="fl" unicode="fl" horiz-adv-x="638" 
d="M569 750v-750h-142v750h142zM361 748l-22 -117q-26 9 -55 9q-31 0 -44 -16q-14 -19 -14 -64v-34h131v-118h-131v-408h-142v408h-57v118h57v42q0 94 38 140q43 54 148 54q44 0 91 -14z" />
    <glyph glyph-name="ffi" unicode="ffi" horiz-adv-x="996" 
d="M927 0h-142v526h142v-526zM927 599h-142v121h142v-121zM401 732l-44 -109q-33 17 -73 17q-31 0 -44 -16q-14 -19 -14 -64v-34h108v-118h-108v-408h-142v408h-57v118h57v42q0 94 38 140q43 54 148 54q66 0 131 -30zM719 748l-22 -117q-25 9 -55 9q-31 0 -44 -16
q-14 -19 -14 -64v-34h131v-118h-131v-408h-142v408h-57v118h57v42q0 94 38 140q44 54 148 54q44 0 91 -14z" />
    <glyph glyph-name="ffl" unicode="ffl" horiz-adv-x="996" 
d="M927 750v-750h-142v750h142zM401 732l-44 -109q-33 17 -73 17q-31 0 -44 -16q-14 -19 -14 -64v-34h108v-118h-108v-408h-142v408h-57v118h57v42q0 94 38 140q43 54 148 54q66 0 131 -30zM719 748l-22 -117q-25 9 -55 9q-31 0 -44 -16q-14 -19 -14 -64v-34h131v-118h-131
v-408h-142v408h-57v118h57v42q0 94 38 140q44 54 148 54q44 0 91 -14z" />
    <glyph glyph-name="f_k" unicode="fk" horiz-adv-x="913" 
d="M361 748l-22 -117q-26 9 -55 9q-31 0 -44 -16q-14 -19 -14 -64v-34h131v-118h-131v-408h-142v408h-57v118h57v42q0 94 38 140q43 54 148 54q44 0 91 -14zM915 0h-174l-121 195l-51 -59v-136h-142v750h142v-438h2l170 214h162l-188 -220z" />
    <glyph glyph-name="f_b" unicode="fb" horiz-adv-x="1002" 
d="M361 748l-22 -117q-26 9 -55 9q-31 0 -44 -16q-14 -19 -14 -64v-34h131v-118h-131v-408h-142v408h-57v118h57v42q0 94 38 140q43 54 148 54q44 0 91 -14zM427 750h142v-279q26 34 69 50.5t86 16.5q104 0 174.5 -80.5t70.5 -196.5q0 -113 -70.5 -193t-175.5 -80
q-47 0 -92 18.5t-71 57.5l-10 -64h-123v750zM569 346v-179q47 -57 122 -57q64 0 98.5 46.5t34.5 108.5t-36 106.5t-95 44.5q-82 0 -124 -70z" />
    <glyph glyph-name="f_h" unicode="fh" horiz-adv-x="976" 
d="M361 748l-22 -117q-26 9 -55 9q-31 0 -44 -16q-14 -19 -14 -64v-34h131v-118h-131v-408h-142v408h-57v118h57v42q0 94 38 140q43 54 148 54q44 0 91 -14zM569 750v-286q61 74 155 74q86 0 140 -69q47 -61 47 -196v-273h-142v266q0 81 -16 113q-19 37 -70 37
q-32 0 -63.5 -18t-50.5 -49v-349h-142v750h142z" />
    <glyph glyph-name="f_t" unicode="ft" horiz-adv-x="736" 
d="M401 732l-44 -109q-33 17 -73 17q-31 0 -44 -16q-14 -19 -14 -64v-34h108v-118h-108v-408h-142v408h-57v118h57v42q0 94 38 140q43 54 148 54q66 0 131 -30zM709 408h-134v-204q0 -30 2 -45q6 -50 46 -50q27 0 57 15l44 -105q-53 -31 -125 -31q-60 0 -100.5 30.5
t-55.5 82.5q-10 33 -10 88v219h-54v118h54l22 116h120v-116h134v-118z" />
    <glyph glyph-name="f_j" unicode="fj" horiz-adv-x="644" 
d="M361 748l-22 -117q-26 9 -55 9q-31 0 -44 -16q-14 -19 -14 -64v-34h131v-118h-131v-408h-142v408h-57v118h57v42q0 94 38 140q43 54 148 54q44 0 91 -14zM575 599h-142v121h142v-121zM575 526v-563q0 -85 -34 -130q-43 -60 -146 -60q-59 0 -114 22l38 113q29 -13 61 -13
q33 0 43 20t10 60v551h142z" />
    <glyph glyph-name="f_f_j" unicode="ffj" horiz-adv-x="1002" 
d="M401 732l-44 -109q-33 17 -73 17q-31 0 -44 -16q-14 -19 -14 -64v-34h108v-118h-108v-408h-142v408h-57v118h57v42q0 94 38 140q43 54 148 54q66 0 131 -30zM719 748l-22 -117q-25 9 -55 9q-31 0 -44 -16q-14 -19 -14 -64v-34h131v-118h-131v-408h-142v408h-57v118h57v42
q0 94 38 140q44 54 148 54q44 0 91 -14zM933 599h-142v121h142v-121zM933 526v-563q0 -85 -34 -130q-43 -60 -146 -60q-59 0 -114 22l38 113q29 -13 61 -13q33 0 43 20t10 60v551h142z" />
    <glyph glyph-name="f_f_k" unicode="ffk" horiz-adv-x="1271" 
d="M401 732l-44 -109q-33 17 -73 17q-31 0 -44 -16q-14 -19 -14 -64v-34h108v-118h-108v-408h-142v408h-57v118h57v42q0 94 38 140q43 54 148 54q66 0 131 -30zM719 748l-22 -117q-25 9 -55 9q-31 0 -44 -16q-14 -19 -14 -64v-34h131v-118h-131v-408h-142v408h-57v118h57v42
q0 94 38 140q44 54 148 54q44 0 91 -14zM1273 0h-174l-121 195l-51 -59v-136h-142v750h142v-438h2l170 214h162l-188 -220z" />
    <glyph glyph-name="f_f_b" unicode="ffb" horiz-adv-x="1360" 
d="M401 732l-44 -109q-33 17 -73 17q-31 0 -44 -16q-14 -19 -14 -64v-34h108v-118h-108v-408h-142v408h-57v118h57v42q0 94 38 140q43 54 148 54q66 0 131 -30zM719 748l-22 -117q-25 9 -55 9q-31 0 -44 -16q-14 -19 -14 -64v-34h131v-118h-131v-408h-142v408h-57v118h57v42
q0 94 38 140q44 54 148 54q44 0 91 -14zM785 750h142v-279q26 34 69 50.5t86 16.5q104 0 174.5 -80.5t70.5 -196.5q0 -113 -70.5 -193t-175.5 -80q-47 0 -92 18.5t-71 57.5l-10 -64h-123v750zM927 346v-179q47 -57 122 -57q64 0 98.5 46.5t34.5 108.5t-36 106.5t-95 44.5
q-82 0 -124 -70z" />
    <glyph glyph-name="f_f_h" unicode="ffh" horiz-adv-x="1334" 
d="M401 732l-44 -109q-33 17 -73 17q-31 0 -44 -16q-14 -19 -14 -64v-34h108v-118h-108v-408h-142v408h-57v118h57v42q0 94 38 140q43 54 148 54q66 0 131 -30zM719 748l-22 -117q-25 9 -55 9q-31 0 -44 -16q-14 -19 -14 -64v-34h131v-118h-131v-408h-142v408h-57v118h57v42
q0 94 38 140q44 54 148 54q44 0 91 -14zM927 750v-286q61 74 155 74q86 0 140 -69q47 -61 47 -196v-273h-142v266q0 81 -16 113q-19 37 -70 37q-32 0 -63.5 -18t-50.5 -49v-349h-142v750h142z" />
    <glyph glyph-name="f_f_t" unicode="fft" horiz-adv-x="1094" 
d="M401 732l-44 -109q-33 17 -73 17q-31 0 -44 -16q-14 -19 -14 -64v-34h108v-118h-108v-408h-142v408h-57v118h57v42q0 94 38 140q43 54 148 54q66 0 131 -30zM759 732l-44 -109q-33 17 -73 17q-31 0 -44 -16q-14 -19 -14 -64v-34h108v-118h-108v-408h-142v408h-57v118h57
v42q0 94 38 140q44 54 148 54q66 0 131 -30zM1067 408h-134v-204q0 -30 2 -45q6 -50 46 -50q27 0 57 15l44 -105q-53 -31 -125 -31q-60 0 -100.5 30.5t-55.5 82.5q-10 33 -10 88v219h-54v118h54l22 116h120v-116h134v-118z" />
    <glyph glyph-name="f_iacute" unicode="f&#xed;" horiz-adv-x="638" 
d="M673 752l-148 -176l-87 67l139 185zM569 0h-142v526h142v-526zM401 732l-44 -109q-33 17 -73 17q-31 0 -44 -16q-14 -19 -14 -64v-34h131v-118h-131v-408h-142v408h-57v118h57v42q0 94 38 140q43 54 148 54q66 0 131 -30z" />
    <glyph glyph-name="t_t" unicode="tt" horiz-adv-x="756" 
d="M346 408h-129v-204q0 -30 2 -45q6 -50 46 -50q27 0 57 15l44 -105q-53 -31 -125 -31q-60 0 -100.5 30.5t-55.5 82.5q-10 33 -10 88v219h-63v118h63l22 116h120v-116h129v-118zM729 408h-134v-204q0 -30 2 -45q6 -50 46 -50q27 0 57 15l44 -105q-53 -31 -125 -31
q-60 0 -100.5 30.5t-55.5 82.5q-10 33 -10 88v219h-58v118h58l22 116h120v-116h134v-118z" />
    <glyph glyph-name=".notdef" 
d="M313 143h-85v83h85v-83zM46 666h459v-666h-459v666zM122 592v-518h306v518h-306zM311 271h-81v85q41 13 61 26.5t20 39.5q0 16 -10 27.5t-28 11.5q-38 0 -38 -44v-12h-77v10q0 49 31.5 81t83.5 32q51 0 83.5 -32.5t32.5 -71.5q0 -42 -20.5 -66.5t-57.5 -43.5v-43z" />
    <glyph glyph-name=".null" horiz-adv-x="0" 
 />
    <glyph glyph-name="nonmarkingreturn" horiz-adv-x="333" 
 />
    <glyph glyph-name="CR" unicode="&#xd;" horiz-adv-x="500" 
 />
    <glyph glyph-name="space" unicode=" " horiz-adv-x="250" 
 />
    <glyph glyph-name="exclam" unicode="!" horiz-adv-x="327" 
d="M242 700v-125l-11 -336h-135l-11 336v125h157zM240 0h-153v149h153v-149z" />
    <glyph glyph-name="quotedbl" unicode="&#x22;" horiz-adv-x="506" 
d="M203 410h-128l-9 290h147zM431 410h-128l-10 290h148z" />
    <glyph glyph-name="numbersign" unicode="#" horiz-adv-x="597" 
d="M14 262h94l27 142h-64v96h83l31 166h110l-32 -166h129l32 166h110l-32 -166h81v-96h-100l-28 -142h71v-96h-89l-31 -166h-110l31 166h-129l-31 -166h-109l31 166h-75v96zM245 404l-28 -142h128l28 142h-128z" />
    <glyph glyph-name="dollar" unicode="$" 
d="M9 101l90 87q86 -82 158 -82q56 0 86.5 22t30.5 64q0 13 -4 24t-14 20.5t-18 15.5t-26 14t-27.5 12t-33 12.5t-32.5 11.5q-36 13 -61 26t-50.5 34t-39 51.5t-13.5 70.5q0 84 52 133.5t136 56.5v96h83v-98q87 -13 173 -74l-79 -97q-73 59 -144 59q-33 0 -58.5 -18.5
t-25.5 -51.5q0 -10 4 -18.5t13 -15.5t18 -13t25 -12.5t28 -10.5t32.5 -11t32.5 -12q37 -14 63.5 -28t54 -37t42 -56t14.5 -75q0 -87 -56.5 -140t-143.5 -67v-100h-82v96q-122 8 -228 111z" />
    <glyph glyph-name="percent" unicode="%" horiz-adv-x="856" 
d="M225 706q73 0 124.5 -48.5t51.5 -122.5q0 -73 -51.5 -121.5t-124.5 -48.5t-125 48.5t-52 121.5q0 74 52 122.5t125 48.5zM225 606q-29 0 -47 -20t-18 -51t18 -50.5t47 -19.5q28 0 46 19.5t18 50.5t-18 51t-46 20zM632 335q73 0 124.5 -48.5t51.5 -121.5
q0 -74 -51.5 -122.5t-124.5 -48.5t-125 48.5t-52 122.5q0 73 52 121.5t125 48.5zM632 235q-29 0 -47 -19.5t-18 -50.5t18 -51t47 -20q28 0 46 20t18 51t-18 50.5t-46 19.5zM642 718l71 -53l-498 -683l-71 53z" />
    <glyph glyph-name="ampersand" unicode="&#x26;" horiz-adv-x="692" 
d="M704 63l-78 -91l-120 107q-72 -91 -202 -91q-103 0 -177.5 66t-74.5 159q0 52 28.5 99.5t81.5 80.5q-33 35 -46.5 65.5t-13.5 70.5q0 79 64.5 131t147.5 52q76 0 127 -39.5t71 -111.5l-128 -37q-12 69 -74 69q-29 0 -49.5 -19.5t-20.5 -47.5q0 -29 23 -59t83 -84l-78 -90
l-22 19q-55 -32 -55 -93q0 -47 34 -79.5t82 -32.5q66 0 107 54l-72 66l77 91z" />
    <glyph glyph-name="quotesingle" unicode="'" horiz-adv-x="279" 
d="M204 410h-129l-9 290h148z" />
    <glyph glyph-name="parenleft" unicode="(" horiz-adv-x="370" 
d="M371 -76l-49 -101q-290 177 -290 484q0 302 288 482l52 -100q-202 -131 -202 -382q0 -255 201 -383z" />
    <glyph glyph-name="parenright" unicode=")" horiz-adv-x="370" 
d="M50 789q288 -180 288 -482q0 -307 -290 -484l-49 101q201 128 201 383q0 251 -202 382z" />
    <glyph glyph-name="asterisk" unicode="*" horiz-adv-x="506" 
d="M448 523l-127 -18l94 -90l-104 -76l-58 118l-58 -118l-104 76l94 90l-127 18l39 122l114 -60l-23 126h129l-23 -127l115 61z" />
    <glyph glyph-name="plus" unicode="+" 
d="M24 371h190v190h120v-190h191v-120h-191v-191h-120v191h-190v120z" />
    <glyph glyph-name="comma" unicode="," horiz-adv-x="250" 
d="M203 149l-72 -275h-135l56 275h151z" />
    <glyph glyph-name="hyphen" unicode="-" horiz-adv-x="447" 
d="M365 231h-283v118h283v-118z" />
    <glyph glyph-name="period" unicode="." horiz-adv-x="250" 
d="M201 0h-153v149h153v-149z" />
    <glyph glyph-name="slash" unicode="/" horiz-adv-x="405" 
d="M405 723l-290 -783l-115 46l290 782z" />
    <glyph glyph-name="zero" unicode="0" horiz-adv-x="562" 
d="M281 676q118 0 183 -91t65 -253t-65 -253t-183 -91t-183 91t-65 253t65 253t183 91zM281 555q-104 0 -104 -223t104 -223t104 223t-104 223z" />
    <glyph glyph-name="one" unicode="1" horiz-adv-x="359" 
d="M281 0h-142v501q-46 -21 -94 -41v128q87 45 143 76h93v-664z" />
    <glyph glyph-name="two" unicode="2" horiz-adv-x="524" 
d="M500 119v-119h-446v105q143 149 226 268q48 70 48 117q0 30 -20.5 49t-52.5 19q-35 0 -55.5 -25.5t-20.5 -68.5l-141 23q7 84 70 136.5t149 52.5q88 0 151.5 -50t63.5 -134q0 -89 -68 -185q-50 -70 -160 -188h256z" />
    <glyph glyph-name="three" unicode="3" horiz-adv-x="536" 
d="M176 279v116q49 0 78 8q32 8 50.5 28.5t18.5 50.5q0 32 -22.5 53t-61.5 21q-31 0 -52.5 -17.5t-27.5 -49.5l-120 52q20 64 75.5 99.5t125.5 35.5q92 0 158.5 -49t66.5 -129q0 -43 -22.5 -82t-59.5 -60q51 -19 81.5 -64t30.5 -100q0 -94 -69 -149t-171 -55
q-73 0 -135.5 37t-91.5 104l119 55q32 -76 109 -76q40 0 67.5 22t27.5 61q0 45 -33.5 69t-88.5 24q-29 0 -53 -5z" />
    <glyph glyph-name="four" unicode="4" horiz-adv-x="553" 
d="M443 0h-140v163h-281v119q107 139 279 382h142v-384h93v-117h-93v-163zM172 280h131v201q-8 -12 -60.5 -94.5t-70.5 -106.5z" />
    <glyph glyph-name="five" unicode="5" horiz-adv-x="516" 
d="M458 664v-119h-230q-3 -73 -10 -137q36 16 77 16q83 0 138 -60.5t55 -143.5q0 -100 -67.5 -166t-167.5 -66q-75 0 -134 34t-91 98l119 60q27 -72 103 -72q42 0 68 30t26 71q0 43 -26 70t-69 27q-51 0 -85 -41l-92 65q16 151 22 334h364z" />
    <glyph glyph-name="six" unicode="6" horiz-adv-x="555" 
d="M385 708l50 -111q-89 -38 -148 -86.5t-87 -117.5q48 40 112 40q90 0 150 -62t60 -151q0 -98 -64.5 -165t-166.5 -67q-117 0 -187.5 80t-70.5 194q0 154 98.5 268.5t253.5 177.5zM175 259q-6 -63 23 -108.5t86 -45.5q43 0 69.5 31t26.5 75q0 49 -29 77t-72 28
q-31 0 -59.5 -15t-44.5 -42z" />
    <glyph glyph-name="seven" unicode="7" horiz-adv-x="477" 
d="M461 664v-89q-157 -328 -273 -606l-127 57q40 94 85.5 192t94.5 198.5t62 128.5h-293v119h451z" />
    <glyph glyph-name="eight" unicode="8" horiz-adv-x="564" 
d="M421 349q49 -29 73.5 -66.5t24.5 -95.5q0 -85 -66.5 -142t-170.5 -57t-170.5 57t-66.5 142q0 58 24.5 95.5t73.5 66.5q-78 49 -78 143q0 83 63.5 133.5t153.5 50.5t153.5 -50.5t63.5 -133.5q0 -94 -78 -143zM282 105q40 0 67 26.5t27 64.5t-27 64.5t-67 26.5t-67 -26.5
t-27 -64.5t27 -64.5t67 -26.5zM282 403q35 0 57 22.5t22 56.5t-22 55.5t-57 21.5t-57 -21.5t-22 -55.5t22 -56.5t57 -22.5z" />
    <glyph glyph-name="nine" unicode="9" horiz-adv-x="555" 
d="M170 -44l-50 111q89 38 148 86.5t87 117.5q-48 -40 -112 -40q-90 0 -150 62t-60 151q0 98 64.5 165t166.5 67q117 0 187.5 -80t70.5 -194q0 -154 -98.5 -268.5t-253.5 -177.5zM380 405q6 63 -23 108.5t-86 45.5q-43 0 -69.5 -31t-26.5 -75q0 -49 29 -77t72 -28
q31 0 59.5 15t44.5 42z" />
    <glyph glyph-name="colon" unicode=":" horiz-adv-x="250" 
d="M201 377h-153v149h153v-149zM201 0h-153v149h153v-149z" />
    <glyph glyph-name="semicolon" unicode=";" horiz-adv-x="250" 
d="M203 149l-72 -275h-135l56 275h151zM199 377h-152v149h152v-149z" />
    <glyph glyph-name="less" unicode="&#x3c;" 
d="M12 362l525 210v-119l-351 -140l351 -140v-118l-525 209v98z" />
    <glyph glyph-name="equal" unicode="=" 
d="M32 472h485v-121h-485v121zM32 271h485v-120h-485v120z" />
    <glyph glyph-name="greater" unicode="&#x3e;" 
d="M12 572l526 -210v-98l-526 -209v118l351 140l-351 140v119z" />
    <glyph glyph-name="question" unicode="?" horiz-adv-x="545" 
d="M340 239h-145v152q39 13 59 21.5t45.5 23.5t36.5 35t11 47q0 32 -19.5 54t-53.5 22q-35 0 -54.5 -22.5t-19.5 -62.5v-21h-139v17q0 92 60.5 149.5t152.5 57.5q93 0 152 -59t59 -132q0 -43 -10.5 -75.5t-33.5 -56t-44.5 -38.5t-56.5 -33v-79zM344 0h-153v149h153v-149z
" />
    <glyph glyph-name="at" unicode="@" horiz-adv-x="798" 
d="M554 -91q-81 -40 -162 -40q-145 0 -246 101t-101 243q0 147 103.5 246.5t249.5 99.5q150 0 252.5 -90t102.5 -237q0 -87 -45 -146t-124 -59q-76 0 -110 67q-32 -46 -105 -46q-61 0 -99.5 47.5t-38.5 113.5q0 62 37 112.5t99 50.5q52 0 82 -35v29h100v-150q0 -46 7.5 -67
t26.5 -21q24 0 39 30t15 64q0 113 -61 175t-177 62q-101 0 -169.5 -70t-68.5 -175q0 -103 67.5 -174t164.5 -71q57 0 109 26zM449 184v71q-27 30 -59 30q-29 0 -44 -23t-15 -54q0 -28 15 -49.5t42 -21.5q43 0 61 47z" />
    <glyph glyph-name="A" unicode="A" horiz-adv-x="689" 
d="M677 0h-165l-45 130h-249l-47 -130h-159l286 700h116zM345 482l-85 -235h167l-81 235h-1z" />
    <glyph glyph-name="B" unicode="B" horiz-adv-x="617" 
d="M78 700h184q121 0 190 -45q82 -53 82 -153q0 -44 -22.5 -80t-65.5 -55q54 -18 85.5 -61t31.5 -98q0 -61 -33.5 -108.5t-91.5 -71.5q-67 -28 -184 -28h-176v700zM221 299v-179h33q86 0 116 15q40 21 40 70q0 44 -28 69t-81 25h-80zM221 580v-165h40q130 0 130 82
q0 42 -30 65q-27 18 -112 18h-28z" />
    <glyph glyph-name="C" unicode="C" horiz-adv-x="675" 
d="M202 350q0 -106 59 -171.5t161 -65.5q82 0 149 58l80 -104q-103 -79 -235 -79q-159 0 -263 101.5t-104 260.5q0 153 109 257.5t264 104.5q106 0 215 -68l-69 -111q-71 54 -146 54q-95 0 -157.5 -68.5t-62.5 -168.5z" />
    <glyph glyph-name="D" unicode="D" horiz-adv-x="715" 
d="M78 0v700h204q71 0 136.5 -19.5t122.5 -58.5t91 -108.5t34 -160.5q0 -93 -34 -163.5t-91.5 -110.5t-124.5 -59.5t-143 -19.5h-195zM221 579v-458h16q276 0 276 223q0 115 -64.5 175t-183.5 60h-44z" />
    <glyph glyph-name="E" unicode="E" horiz-adv-x="580" 
d="M527 0h-449v700h449v-121h-306v-158h306v-121h-306v-179h306v-121z" />
    <glyph glyph-name="F" unicode="F" horiz-adv-x="503" 
d="M466 282h-245v-282h-143v700h388v-121h-245v-176h245v-121z" />
    <glyph glyph-name="G" unicode="G" horiz-adv-x="793" 
d="M584 283h-168v121h311v-273q-107 -143 -305 -143q-161 0 -267 101t-106 261q0 153 109 257.5t264 104.5q175 0 294 -138l-99 -86q-85 99 -195 99q-95 0 -157.5 -68.5t-62.5 -168.5q0 -106 60.5 -171.5t159.5 -65.5q94 0 162 65v105z" />
    <glyph glyph-name="H" unicode="H" horiz-adv-x="739" 
d="M661 0h-143v300h-297v-300h-143v700h143v-279h297v279h143v-700z" />
    <glyph glyph-name="I" unicode="I" horiz-adv-x="299" 
d="M221 0h-143v700h143v-700z" />
    <glyph glyph-name="J" unicode="J" horiz-adv-x="340" 
d="M271 700v-514q0 -103 -45 -151q-44 -47 -139 -47q-67 0 -131 32l45 113q35 -20 69 -20q35 0 48 21q10 18 10 69v497h143z" />
    <glyph glyph-name="K" unicode="K" horiz-adv-x="640" 
d="M630 700l-237 -283l243 -417h-167l-173 303l-75 -89v-214h-143v700h143v-287l236 287h173z" />
    <glyph glyph-name="L" unicode="L" horiz-adv-x="512" 
d="M508 0h-430v700h143v-579h287v-121z" />
    <glyph glyph-name="M" unicode="M" horiz-adv-x="956" 
d="M736 511l-209 -511h-102l-204 513v-513h-143v700h211l188 -488l195 488h207v-700h-143v511z" />
    <glyph glyph-name="N" unicode="N" horiz-adv-x="748" 
d="M671 0h-129l-321 438v-438h-143v700h126l324 -439v439h143v-700z" />
    <glyph glyph-name="O" unicode="O" horiz-adv-x="831" 
d="M629 350q0 100 -60.5 168.5t-152.5 68.5t-153 -68t-61 -169t61 -169t153 -68t152.5 68.5t60.5 168.5zM782 350q0 -151 -106 -256.5t-260 -105.5q-155 0 -261 105.5t-106 256.5t106 256.5t261 105.5q154 0 260 -105.5t106 -256.5z" />
    <glyph glyph-name="P" unicode="P" horiz-adv-x="588" 
d="M78 700h223q47 0 91.5 -12t83.5 -36.5t63 -68t24 -100.5q0 -58 -23.5 -102t-63 -68.5t-83.5 -36.5t-92 -12h-80v-264h-143v700zM221 579v-194h57q133 0 133 95q0 46 -31 72.5t-83 26.5h-76z" />
    <glyph glyph-name="Q" unicode="Q" horiz-adv-x="831" 
d="M775 16l-86 -86l-101 100q-79 -42 -172 -42q-155 0 -261 105.5t-106 256.5t106 256.5t261 105.5q154 0 260 -105.5t106 -256.5q0 -144 -96 -246zM491 298l94 -94q44 63 44 146q0 100 -60.5 168.5t-152.5 68.5t-153 -68t-61 -169t61 -169t153 -68q41 0 74 15l-86 85z" />
    <glyph glyph-name="R" unicode="R" horiz-adv-x="634" 
d="M78 700h222q45 0 88 -12t82 -35.5t62.5 -66t23.5 -96.5q0 -76 -43 -124.5t-109 -70.5q106 -149 214 -295h-180l-192 279h-25v-279h-143v700zM221 579v-179h56q57 0 91.5 21.5t34.5 65.5q0 41 -29.5 66.5t-77.5 25.5h-75z" />
    <glyph glyph-name="S" unicode="S" horiz-adv-x="609" 
d="M468 527q-74 63 -145 63q-38 0 -64.5 -18.5t-26.5 -51.5q0 -11 3.5 -20.5t11.5 -17.5t14.5 -13t21 -11.5t21.5 -9t25 -8.5t23 -8q48 -16 77.5 -30t66.5 -40t55.5 -65.5t18.5 -91.5q0 -72 -42 -123t-100 -72.5t-123 -21.5q-151 0 -268 117l95 93q48 -46 85.5 -67t88.5 -21
q46 0 78.5 22.5t32.5 66.5q0 21 -9.5 37.5t-32.5 30t-40 21t-53 20.5t-56 22t-50 27t-46 37.5t-28.5 51t-12.5 70.5q0 94 67.5 145t161.5 51q123 0 232 -83z" />
    <glyph glyph-name="T" unicode="T" horiz-adv-x="491" 
d="M483 579h-166v-579h-143v579h-166v121h475v-121z" />
    <glyph glyph-name="U" unicode="U" horiz-adv-x="716" 
d="M640 700v-370q0 -169 -68.5 -255.5t-215.5 -86.5q-280 0 -280 342v370h143v-389q0 -98 37 -148t102 -50t102 50t37 148v389h143z" />
    <glyph glyph-name="V" unicode="V" horiz-adv-x="674" 
d="M669 700l-285 -700h-117l-263 700h166l166 -481h1l174 481h158z" />
    <glyph glyph-name="W" unicode="W" horiz-adv-x="944" 
d="M540 700l120 -448h2l118 448h160l-201 -700h-142l-127 460h-2l-131 -460h-137l-196 700h160l115 -448h2l125 448h134z" />
    <glyph glyph-name="X" unicode="X" horiz-adv-x="708" 
d="M700 700l-252 -342l259 -358h-188l-169 239l-169 -239h-180l258 352l-250 348h188l161 -230l163 230h179z" />
    <glyph glyph-name="Y" unicode="Y" horiz-adv-x="608" 
d="M370 0h-143v293l-223 407h178l121 -252h2l132 252h167l-234 -411v-289z" />
    <glyph glyph-name="Z" unicode="Z" horiz-adv-x="562" 
d="M522 627l-296 -506h320v-121h-513v76l295 503h-287v121h481v-73z" />
    <glyph glyph-name="bracketleft" unicode="[" horiz-adv-x="330" 
d="M321 -161h-252v908h252v-113h-121v-682h121v-113z" />
    <glyph glyph-name="backslash" unicode="\" horiz-adv-x="405" 
d="M405 -14l-115 -46l-290 783l115 45z" />
    <glyph glyph-name="bracketright" unicode="]" horiz-adv-x="331" 
d="M261 -161h-252v113h121v682h-121v113h252v-908z" />
    <glyph glyph-name="asciicircum" unicode="^" 
d="M485 330h-130l-80 189l-80 -189h-130l150 366h120z" />
    <glyph glyph-name="underscore" unicode="_" 
d="M550 -221h-550v99h550v-99z" />
    <glyph glyph-name="grave" unicode="`" horiz-adv-x="360" 
d="M171 578l-147 172l96 76l133 -186z" />
    <glyph glyph-name="a" unicode="a" horiz-adv-x="575" 
d="M511 0h-123l-11 45q-46 -57 -143 -57q-78 0 -133.5 45t-55.5 122q0 61 36 101t84.5 54.5t108.5 14.5q43 0 95 -11v8q0 106 -104 106q-71 0 -159 -46l-38 102q110 54 226 54q107 0 162 -58.5t55 -163.5v-316zM369 132v97q-41 9 -72 9q-46 0 -79.5 -19.5t-33.5 -61.5
q0 -33 23.5 -51.5t56.5 -18.5q55 0 105 45z" />
    <glyph glyph-name="b" unicode="b" horiz-adv-x="644" 
d="M69 750h142v-279q26 34 69 50.5t86 16.5q104 0 174.5 -80.5t70.5 -196.5q0 -113 -70.5 -193t-175.5 -80q-47 0 -92 18.5t-71 57.5l-10 -64h-123v750zM211 346v-179q47 -57 122 -57q64 0 98.5 46.5t34.5 108.5t-36 106.5t-95 44.5q-82 0 -124 -70z" />
    <glyph glyph-name="c" unicode="c" horiz-adv-x="511" 
d="M413 150l76 -97q-73 -65 -189 -65q-117 0 -192 76.5t-75 198.5q0 116 76.5 195.5t194.5 79.5q106 0 185 -65l-73 -99q-45 42 -102 42q-59 0 -97.5 -44.5t-38.5 -108.5q0 -66 38.5 -109.5t95.5 -43.5q60 0 101 40z" />
    <glyph glyph-name="d" unicode="d" horiz-adv-x="644" 
d="M575 0h-123l-12 65q-26 -40 -70.5 -58.5t-91.5 -18.5q-104 0 -174.5 81t-70.5 196q0 113 70.5 193t176.5 80q97 0 153 -63v275h142v-750zM433 179v180q-49 57 -122 57q-64 0 -98.5 -46.5t-34.5 -108.5q0 -61 36.5 -106t94.5 -45q83 0 124 69z" />
    <glyph glyph-name="e" unicode="e" horiz-adv-x="588" 
d="M547 228h-370q8 -56 42.5 -91t89.5 -35q48 0 79 19t58 59l93 -63q-46 -67 -101.5 -98t-138.5 -31q-119 0 -192.5 75t-73.5 194t77 200t190 81q110 0 182 -69t72 -174q0 -30 -7 -67zM184 325h225q-2 47 -31.5 74.5t-73.5 27.5q-94 0 -120 -102z" />
    <glyph glyph-name="f" unicode="f" horiz-adv-x="358" 
d="M401 732l-44 -109q-33 17 -73 17q-31 0 -44 -16q-14 -19 -14 -64v-34h131v-118h-131v-408h-142v408h-57v118h57v42q0 94 38 140q43 54 148 54q66 0 131 -30z" />
    <glyph glyph-name="g" unicode="g" horiz-adv-x="640" 
d="M575 526v-498q0 -84 -33 -140q-33 -58 -94.5 -86.5t-137.5 -28.5q-134 0 -243 72l52 117q43 -32 94 -49.5t92 -17.5q58 0 93 31.5t35 92.5v48q-52 -67 -155 -67q-104 0 -174.5 78.5t-70.5 192.5q0 112 70.5 189.5t176.5 77.5q45 0 89.5 -18t70.5 -56l12 62h123zM433 191
v168q-49 57 -122 57q-64 0 -98.5 -44.5t-34.5 -104.5t36 -102.5t95 -42.5q83 0 124 69z" />
    <glyph glyph-name="h" unicode="h" horiz-adv-x="618" 
d="M211 750v-286q61 74 155 74q86 0 140 -69q47 -61 47 -196v-273h-142v266q0 81 -16 113q-19 37 -70 37q-32 0 -63.5 -18t-50.5 -49v-349h-142v750h142z" />
    <glyph glyph-name="i" unicode="i" horiz-adv-x="280" 
d="M211 0h-142v526h142v-526zM211 599h-142v121h142v-121z" />
    <glyph glyph-name="j" unicode="j" horiz-adv-x="286" 
d="M217 599h-142v121h142v-121zM217 526v-563q0 -85 -34 -130q-43 -60 -146 -60q-59 0 -114 22l38 113q29 -13 61 -13q33 0 43 20t10 60v551h142z" />
    <glyph glyph-name="k" unicode="k" horiz-adv-x="555" 
d="M557 0h-174l-121 195l-51 -59v-136h-142v750h142v-438h2l170 214h162l-188 -220z" />
    <glyph glyph-name="l" unicode="l" horiz-adv-x="280" 
d="M211 750v-750h-142v750h142z" />
    <glyph glyph-name="m" unicode="m" horiz-adv-x="928" 
d="M863 0h-142v266q0 81 -16 113q-19 37 -70 37q-62 0 -103 -60q5 -43 5 -83v-273h-142v266q0 84 -16 114q-19 36 -67 36q-56 0 -101 -52v-364h-142v526h123l10 -64q60 76 152 76q45 0 87 -24.5t62 -63.5q62 88 175 88q85 0 138 -68q47 -61 47 -197v-273z" />
    <glyph glyph-name="n" unicode="n" horiz-adv-x="618" 
d="M69 526h123l11 -72q60 84 163 84q86 0 140 -69q47 -61 47 -196v-273h-142v266q0 81 -16 113q-19 37 -70 37q-32 0 -63.5 -18t-50.5 -49v-349h-142v526z" />
    <glyph glyph-name="o" unicode="o" horiz-adv-x="617" 
d="M309 538q119 0 197 -79t78 -196t-78 -196t-197 -79q-120 0 -198 79t-78 196t78 196t198 79zM439 263q0 66 -36 109.5t-94 43.5t-94.5 -44t-36.5 -109t36.5 -109t94.5 -44t94 43.5t36 109.5z" />
    <glyph glyph-name="p" unicode="p" horiz-adv-x="644" 
d="M69 526h123l11 -65q26 39 71.5 58t91.5 19q104 0 174.5 -80.5t70.5 -196.5q0 -113 -70.5 -193t-175.5 -80q-99 0 -154 63v-301h-142v776zM211 346v-179q47 -57 122 -57q64 0 98.5 46.5t34.5 108.5t-36 106.5t-95 44.5q-82 0 -124 -70z" />
    <glyph glyph-name="q" unicode="q" horiz-adv-x="644" 
d="M575 -250h-142v305q-52 -67 -155 -67q-104 0 -174.5 81t-70.5 196q0 113 70.5 193t176.5 80q45 0 89.5 -18t70.5 -56l12 62h123v-776zM433 359q-49 57 -122 57q-64 0 -98.5 -46.5t-34.5 -108.5q0 -61 36.5 -106t94.5 -45q83 0 124 69v180z" />
    <glyph glyph-name="r" unicode="r" horiz-adv-x="374" 
d="M192 526l11 -70q50 82 123 82q35 0 68 -12l-34 -124q-22 12 -50 12q-64 0 -99 -58v-356h-142v526h123z" />
    <glyph glyph-name="s" unicode="s" horiz-adv-x="481" 
d="M433 469l-78 -86q-49 44 -104 44q-21 0 -36 -11t-15 -29q0 -22 20.5 -36.5t62.5 -31.5q29 -12 43 -18.5t39.5 -21.5t38 -30t23 -39t10.5 -53q0 -82 -59.5 -125.5t-142.5 -43.5q-122 0 -212 90l81 84q33 -32 60.5 -47t63.5 -15q25 0 46 12t21 34q0 6 -1.5 11.5t-5.5 10.5
t-7.5 9t-10.5 8.5t-12 7.5t-14.5 7.5t-15 7t-16.5 7t-17 7.5q-61 26 -96.5 59.5t-35.5 95.5q0 76 55.5 118.5t132.5 42.5q109 0 182 -69z" />
    <glyph glyph-name="t" unicode="t" horiz-adv-x="378" 
d="M351 408h-134v-204q0 -30 2 -45q6 -50 46 -50q27 0 57 15l44 -105q-53 -31 -125 -31q-60 0 -100.5 30.5t-55.5 82.5q-10 33 -10 88v219h-63v118h63l22 116h120v-116h134v-118z" />
    <glyph glyph-name="u" unicode="u" horiz-adv-x="618" 
d="M549 0h-123l-11 72q-60 -84 -163 -84q-86 0 -140 69q-47 61 -47 196v273h142v-266q0 -81 16 -113q19 -37 70 -37q32 0 63.5 18t50.5 49v349h142v-526z" />
    <glyph glyph-name="v" unicode="v" horiz-adv-x="539" 
d="M377 526h158l-216 -526h-116l-198 526h157l106 -324h2z" />
    <glyph glyph-name="w" unicode="w" horiz-adv-x="777" 
d="M452 526l86 -325h3l83 325h148l-151 -526h-150l-83 301h-2l-84 -301h-153l-144 526h151l78 -326h2l91 326h125z" />
    <glyph glyph-name="x" unicode="x" horiz-adv-x="597" 
d="M592 526l-203 -262l197 -264h-182l-108 158l-112 -158h-179l208 268l-190 258h181l104 -152l106 152h178z" />
    <glyph glyph-name="y" unicode="y" horiz-adv-x="531" 
d="M3 526h155l106 -313h2l108 313h154l-296 -767l-127 49l84 223z" />
    <glyph glyph-name="z" unicode="z" horiz-adv-x="483" 
d="M50 66l200 342h-211v118h398v-65l-202 -343h219v-118h-404v66z" />
    <glyph glyph-name="braceleft" unicode="{" horiz-adv-x="344" 
d="M7 250l2 107q74 18 74 123v71q0 91 54.5 149t143.5 58q18 0 54 -3v-109h-39q-82 0 -82 -119v-73q0 -106 -63 -150q63 -47 63 -151v-92q0 -120 84 -120h37v-109q-36 -4 -54 -4q-89 0 -143.5 58.5t-54.5 149.5v103q0 43 -19 73.5t-57 37.5z" />
    <glyph glyph-name="bar" unicode="|" horiz-adv-x="324" 
d="M226 -170h-128v1028h128v-1028z" />
    <glyph glyph-name="braceright" unicode="}" horiz-adv-x="344" 
d="M337 357l-2 -107q-74 -18 -74 -123v-92q0 -91 -54.5 -149t-143.5 -58q-18 0 -54 3v109h39q82 0 82 119v94q0 106 63 150q-63 47 -63 151v71q0 120 -84 120h-37v109q36 4 54 4q89 0 143.5 -58.5t54.5 -149.5v-82q0 -43 19 -73.5t57 -37.5z" />
    <glyph glyph-name="asciitilde" unicode="~" 
d="M129 266l-109 -5q-2 10 -2 19q0 67 40.5 109t107.5 42q48 0 89 -22.5t72.5 -44.5t56.5 -22q17 0 28 11.5t11 30.5q0 8 -1 12l108 5q2 -10 2 -19q0 -67 -40.5 -109t-107.5 -42q-48 0 -89 22.5t-72.5 44.5t-56.5 22q-17 0 -27.5 -11.5t-10.5 -30.5q0 -8 1 -12z" />
    <glyph glyph-name="uni00A0" unicode="&#xa0;" horiz-adv-x="250" 
 />
    <glyph glyph-name="exclamdown" unicode="&#xa1;" horiz-adv-x="327" 
d="M85 -174v125l11 336h135l11 -336v-125h-157zM87 526h153v-149h-153v149z" />
    <glyph glyph-name="cent" unicode="&#xa2;" 
d="M435 189l76 -97q-58 -51 -143 -62v-90h-84v89q-102 14 -165 88t-63 185q0 105 63 181t165 91v91h84v-91q80 -10 143 -61l-72 -100q-48 43 -102 43q-59 0 -98 -45t-39 -109q0 -65 39 -109t95 -44q60 0 101 40z" />
    <glyph glyph-name="sterling" unicode="&#xa3;" 
d="M508 0h-436v121h54v177h-54v120h54v29q0 100 61 164.5t156 64.5q90 0 171 -48l-55 -108q-45 36 -100 36q-44 0 -69 -31.5t-25 -88.5v-18h128v-120h-128v-177h243v-121z" />
    <glyph glyph-name="currency" unicode="&#xa4;" 
d="M56 326q0 56 29 109l-58 58l81 81l59 -58q50 29 108 29q56 0 108 -29l59 58l81 -81l-59 -58q30 -52 30 -109t-29 -109l58 -57l-81 -81l-58 58q-48 -30 -109 -30t-110 29l-57 -57l-81 81l58 57q-29 49 -29 109zM162 326q0 -47 33 -80.5t80 -33.5t80 33.5t33 80.5
q0 46 -33 79.5t-80 33.5t-80 -33t-33 -80z" />
    <glyph glyph-name="yen" unicode="&#xa5;" 
d="M41 257v94h127l-176 314h160l126 -229h2l118 229h159l-179 -314h126v-94h-162v-56h162v-93h-162v-108h-139v108h-162v93h162v56h-162z" />
    <glyph glyph-name="brokenbar" unicode="&#xa6;" horiz-adv-x="324" 
d="M226 -193h-128v397h128v-397zM226 353h-128v397h128v-397z" />
    <glyph glyph-name="section" unicode="&#xa7;" 
d="M473 640l-83 -86q-51 45 -118 45q-26 0 -46 -12.5t-20 -35.5q0 -7 2 -13.5t7.5 -12t10.5 -10t14.5 -9.5t16.5 -8.5t20 -8t21 -7t23.5 -7.5t23.5 -8q38 -13 63.5 -25t53.5 -32t42.5 -49t14.5 -67q0 -80 -84 -139q54 -42 54 -111q0 -87 -63.5 -135.5t-156.5 -48.5
q-139 0 -243 93l84 91q69 -68 153 -68q34 0 60 14.5t26 42.5q0 15 -8 27t-27 21t-33.5 14.5t-46 14.5t-45.5 14q-69 23 -109 58t-40 100q0 98 85 145q-54 46 -54 114q0 78 59 124t141 46q121 0 202 -71zM321 211q57 24 57 73q0 7 -2 13t-7 11.5t-10 9.5t-14.5 9t-16.5 8.5
t-20.5 8.5t-22 8t-25 8.5l-25.5 8.5q-54 -21 -54 -72q0 -26 24.5 -41.5t77.5 -32.5q12 -4 38 -12z" />
    <glyph glyph-name="dieresis" unicode="&#xa8;" horiz-adv-x="360" 
d="M131 599h-143v121h143v-121zM372 599h-143v121h143v-121z" />
    <glyph glyph-name="copyright" unicode="&#xa9;" horiz-adv-x="799" 
d="M51 333q0 142 104.5 243.5t249.5 101.5t249.5 -101.5t104.5 -243.5t-104.5 -243.5t-249.5 -101.5t-249.5 101.5t-104.5 243.5zM159 333q0 -102 72 -175t174 -73t174 73t72 175t-72 175t-174 73t-174 -73t-72 -175zM527 474l-50 -69q-27 22 -63 22q-39 0 -63.5 -27.5
t-24.5 -68.5q0 -45 22.5 -71t65.5 -26q33 0 65 26l52 -65q-51 -46 -117 -46q-82 0 -135 50t-53 132q0 77 54.5 129.5t133.5 52.5q58 0 113 -39z" />
    <glyph glyph-name="ordfeminine" unicode="&#xaa;" horiz-adv-x="389" 
d="M46 697q76 37 147 37q69 0 109.5 -36.5t40.5 -109.5v-202h-90l-6 27q-32 -35 -94 -35q-49 0 -85.5 28t-36.5 78q0 59 43.5 85.5t107.5 26.5q23 0 58 -5v4q-3 59 -68 59q-51 0 -100 -32zM240 532q-19 4 -36 4q-28 0 -47.5 -11.5t-19.5 -35.5q0 -39 47 -39q32 0 56 21v61z
" />
    <glyph glyph-name="guillemotleft" unicode="&#xab;" horiz-adv-x="589" 
d="M301 325l161 168l78 -105l-127 -121l127 -120l-78 -106l-161 169v115zM49 325l161 168l77 -105l-126 -121l126 -120l-77 -106l-161 169v115z" />
    <glyph glyph-name="logicalnot" unicode="&#xac;" 
d="M18 436h513v-317h-120v197h-393v120z" />
    <glyph glyph-name="uni00AD" unicode="&#xad;" horiz-adv-x="447" 
d="M365 231h-283v118h283v-118z" />
    <glyph glyph-name="registered" unicode="&#xae;" horiz-adv-x="575" 
d="M43 475q0 100 72 171t173 71t173 -71t72 -171t-72 -170.5t-173 -70.5t-173 70.5t-72 170.5zM123 475q0 -70 48 -119t117 -49t117 49t48 119q0 71 -48 120t-117 49t-117 -49t-48 -120zM400 361h-80l-49 76h-4v-76h-65v234h74q41 0 69 -18.5t28 -55.5q0 -47 -43 -66z
M267 542v-47q40 0 40 23q0 14 -8.5 19t-31.5 5z" />
    <glyph glyph-name="macron" unicode="&#xaf;" horiz-adv-x="360" 
d="M351 609h-342v98h342v-98z" />
    <glyph glyph-name="degree" unicode="&#xb0;" horiz-adv-x="462" 
d="M228 599q-28 0 -46.5 -19.5t-18.5 -47.5t18.5 -47.5t46.5 -19.5t46.5 19.5t18.5 47.5t-18.5 47.5t-46.5 19.5zM228 370q-68 0 -115 47t-47 115t47 115t115 47t115 -47t47 -115t-47 -115t-115 -47z" />
    <glyph glyph-name="plusminus" unicode="&#xb1;" 
d="M18 488h196v196h120v-196h197v-120h-197v-197h-120v197h-196v120zM18 120h513v-120h-513v120z" />
    <glyph glyph-name="twosuperior" unicode="&#xb2;" horiz-adv-x="331" 
d="M26 441q84 73 140 141q32 44 32 74q0 19 -10 29.5t-27 10.5q-18 0 -28 -15.5t-10 -39.5l-104 13q2 55 41.5 88t96.5 33q60 0 103 -31t43 -83q0 -57 -40 -107q-50 -60 -111 -110h163v-77h-289v74z" />
    <glyph glyph-name="threesuperior" unicode="&#xb3;" horiz-adv-x="347" 
d="M114 536v72q5 -1 15 -1q15 0 31 4q39 10 39 42q0 19 -12.5 31t-33.5 12q-39 0 -52 -39l-80 36q15 39 51 60.5t82 21.5q62 0 105.5 -29t43.5 -77q0 -59 -57 -88q39 -12 57.5 -40t18.5 -61q0 -54 -45 -87t-111 -33q-51 0 -93 22.5t-59 64.5l80 37q22 -45 65 -45
q25 0 40.5 13.5t15.5 33.5q0 25 -19.5 38.5t-49.5 13.5q-10 0 -32 -2z" />
    <glyph glyph-name="acute" unicode="&#xb4;" horiz-adv-x="360" 
d="M335 750l-147 -172l-82 62l133 186z" />
    <glyph glyph-name="mu" unicode="&#xb5;" 
d="M33 526h142v-269q0 -33 2 -52.5t9.5 -44.5t26 -37.5t48.5 -12.5q32 0 63 17.5t51 48.5v350h142v-526h-123l-11 72q-61 -84 -163 -84q-22 0 -45 7v-245h-142v776z" />
    <glyph glyph-name="paragraph" unicode="&#xb6;" 
d="M512 -175h-121v875h121v-875zM344 -175h-120v445q-85 15 -140.5 67.5t-55.5 145.5q0 57 23.5 100.5t62.5 68t83 36.5t91 12h56v-875zM224 578q-32 -2 -54.5 -27.5t-22.5 -67.5t22.5 -67.5t54.5 -27.5v190z" />
    <glyph glyph-name="periodcentered" unicode="&#xb7;" horiz-adv-x="250" 
d="M201 245h-153v149h153v-149z" />
    <glyph glyph-name="cedilla" unicode="&#xb8;" horiz-adv-x="400" 
d="M183 8l-27 -69h1q20 15 47 15q37 0 65 -29t28 -72t-33 -76.5t-81 -33.5q-76 0 -116 70l69 33q12 -32 40 -32q16 0 26.5 10.5t10.5 26.5t-11 28t-26 12q-24 0 -37 -20l-73 37l49 113z" />
    <glyph glyph-name="onesuperior" unicode="&#xb9;" horiz-adv-x="229" 
d="M184 367h-103v291q-20 -10 -56 -23v85q31 15 91 48h68v-401z" />
    <glyph glyph-name="ordmasculine" unicode="&#xba;" horiz-adv-x="413" 
d="M206 734q80 0 131.5 -51t51.5 -127t-51.5 -127t-131.5 -51t-131.5 51t-51.5 127t51.5 127t131.5 51zM206 653q-35 0 -56 -27t-21 -70t21 -70t56 -27t56 27t21 70t-21 70t-56 27z" />
    <glyph glyph-name="guillemotright" unicode="&#xbb;" horiz-adv-x="589" 
d="M126 490l161 -165v-116l-161 -165l-77 103l126 120l-126 120zM379 490l161 -165v-116l-161 -165l-78 103l127 120l-127 120z" />
    <glyph glyph-name="onequarter" unicode="&#xbc;" horiz-adv-x="802" 
d="M592 718l71 -53l-498 -683l-71 53zM241 338h-98v258q-29 -16 -57 -26v89q54 27 80 41h75v-362zM424 160q63 80 151 201h100v-204h47v-78h-47v-79h-95v79h-156v81zM580 157v91q-29 -45 -64 -91h64z" />
    <glyph glyph-name="onehalf" unicode="&#xbd;" horiz-adv-x="828" 
d="M94 35l498 683l71 -53l-498 -683zM86 659q54 27 80 41h75v-362h-98v258q-29 -16 -57 -26v89zM484 68q79 66 127 126q29 34 29 66t-34 32q-16 0 -25.5 -12t-9.5 -32l-93 15q3 50 39.5 78t90.5 28q53 0 91.5 -28.5t38.5 -75.5q0 -48 -38 -98q-33 -40 -87 -87h135v-80h-264
v68z" />
    <glyph glyph-name="threequarters" unicode="&#xbe;" horiz-adv-x="880" 
d="M671 718l71 -53l-499 -683l-71 53zM172 487l-1 71h8q21 0 31 3q31 8 31 36q0 15 -10 24.5t-29 9.5q-33 0 -39 -33l-77 36q13 35 46 54.5t73 19.5q54 0 93 -26.5t39 -70.5q0 -23 -13.5 -45t-34.5 -33q29 -10 47 -35.5t18 -55.5q0 -52 -41 -81.5t-97 -29.5q-45 0 -82 20.5
t-54 58.5l77 35q14 -37 55 -37q18 0 31.5 10t13.5 29q0 43 -61 43q-12 0 -24 -3zM502 160q63 80 151 201h100v-204h47v-78h-47v-79h-95v79h-156v81zM658 157v91q-29 -45 -64 -91h64z" />
    <glyph glyph-name="questiondown" unicode="&#xbf;" horiz-adv-x="545" 
d="M205 287h145v-152q-39 -13 -59 -21.5t-45.5 -23.5t-36.5 -35t-11 -47q0 -32 19.5 -54t53.5 -22q35 0 54.5 22.5t19.5 62.5v21h139v-17q0 -92 -60.5 -149.5t-152.5 -57.5q-93 0 -152 59t-59 132q0 43 10.5 75.5t33.5 56t44.5 38.5t56.5 33v79zM201 526h153v-149h-153v149z
" />
    <glyph glyph-name="Agrave" unicode="&#xc0;" horiz-adv-x="689" 
d="M677 0h-165l-45 130h-249l-47 -130h-159l286 700h116zM345 482l-85 -235h167l-81 235h-1zM356 733l-182 128l74 97l172 -144z" />
    <glyph glyph-name="Aacute" unicode="&#xc1;" horiz-adv-x="689" 
d="M677 0h-165l-45 130h-249l-47 -130h-159l286 700h116zM345 482l-85 -235h167l-81 235h-1zM502 861l-182 -128l-64 81l172 144z" />
    <glyph glyph-name="Acircumflex" unicode="&#xc2;" horiz-adv-x="689" 
d="M677 0h-165l-45 130h-249l-47 -130h-159l286 700h116zM345 482l-85 -235h167l-81 235h-1zM279 943h156l113 -149l-82 -60l-111 126l-112 -126l-81 60z" />
    <glyph glyph-name="Atilde" unicode="&#xc3;" horiz-adv-x="689" 
d="M677 0h-165l-45 130h-249l-47 -130h-159l286 700h116zM345 482l-85 -235h167l-81 235h-1zM466 878l82 9q6 -20 6 -39q0 -46 -31.5 -74.5t-83.5 -28.5q-37 0 -85.5 25.5t-60.5 25.5q-23 0 -25 -23q0 -5 1 -7l-81 -9q-7 23 -7 39q0 46 32 74.5t84 28.5q36 0 85 -25.5
t60 -25.5q10 0 17.5 6t7.5 17q0 5 -1 7z" />
    <glyph glyph-name="Adieresis" unicode="&#xc4;" horiz-adv-x="689" 
d="M677 0h-165l-45 130h-249l-47 -130h-159l286 700h116zM345 482l-85 -235h167l-81 235h-1zM292 762h-149v120h149v-120zM569 762h-149v120h149v-120z" />
    <glyph glyph-name="Aring" unicode="&#xc5;" horiz-adv-x="689" 
d="M677 0h-165l-45 130h-249l-47 -130h-159l286 700h116zM345 482l-85 -235h167l-81 235h-1zM357 943q47 0 80 -33t33 -80t-33 -80t-80 -33t-80 33t-33 80t33 80t80 33zM357 876q-19 0 -32.5 -13t-13.5 -33t13.5 -33t32.5 -13t32.5 13t13.5 33t-13.5 33t-32.5 13z" />
    <glyph glyph-name="AE" unicode="&#xc6;" horiz-adv-x="1009" 
d="M956 0h-449v131h-247l-88 -131h-181l516 700h449v-121h-305v-158h305v-121h-305v-179h305v-121zM339 248h168v248z" />
    <glyph glyph-name="Ccedilla" unicode="&#xc7;" horiz-adv-x="675" 
d="M637 644l-69 -111q-71 54 -146 54q-95 0 -157.5 -68.5t-62.5 -168.5q0 -106 59 -171.5t161 -65.5q82 0 149 58l80 -104q-103 -79 -235 -79q-25 0 -49 3l-20 -52h1q19 15 47 15q38 0 65.5 -29t27.5 -72t-33.5 -76.5t-81.5 -33.5q-76 0 -115 70l69 33q12 -32 40 -32
q16 0 26.5 10.5t10.5 26.5t-10.5 28t-25.5 12q-25 0 -38 -20l-73 38l43 95q-114 33 -182.5 126t-68.5 220q0 153 109 257.5t264 104.5q106 0 215 -68z" />
    <glyph glyph-name="Egrave" unicode="&#xc8;" horiz-adv-x="580" 
d="M527 0h-449v700h449v-121h-306v-158h306v-121h-306v-179h306v-121zM349 733l-182 128l74 97l172 -144z" />
    <glyph glyph-name="Eacute" unicode="&#xc9;" horiz-adv-x="580" 
d="M527 0h-449v700h449v-121h-306v-158h306v-121h-306v-179h306v-121zM468 861l-182 -128l-64 81l172 144z" />
    <glyph glyph-name="Ecircumflex" unicode="&#xca;" horiz-adv-x="580" 
d="M527 0h-449v700h449v-121h-306v-158h306v-121h-306v-179h306v-121zM232 943h156l113 -149l-82 -60l-111 126l-112 -126l-81 60z" />
    <glyph glyph-name="Edieresis" unicode="&#xcb;" horiz-adv-x="580" 
d="M265 762h-148v120h148v-120zM502 762h-149v120h149v-120zM527 0h-449v700h449v-121h-306v-158h306v-121h-306v-179h306v-121z" />
    <glyph glyph-name="Igrave" unicode="&#xcc;" horiz-adv-x="299" 
d="M221 0h-143v700h143v-700zM151 733l-182 128l74 97l172 -144z" />
    <glyph glyph-name="Iacute" unicode="&#xcd;" horiz-adv-x="299" 
d="M221 0h-143v700h143v-700zM331 861l-182 -128l-64 81l172 144z" />
    <glyph glyph-name="Icircumflex" unicode="&#xce;" horiz-adv-x="299" 
d="M221 0h-143v700h143v-700zM73 943h156l113 -149l-82 -60l-111 126l-112 -126l-81 60z" />
    <glyph glyph-name="Idieresis" unicode="&#xcf;" horiz-adv-x="299" 
d="M108 762h-149v120h149v-120zM340 762h-149v120h149v-120zM221 0h-143v700h143v-700z" />
    <glyph glyph-name="Eth" unicode="&#xd0;" horiz-adv-x="715" 
d="M78 700h204q71 0 136.5 -19.5t122.5 -58.5t91 -108.5t34 -160.5q0 -93 -34 -163.5t-91.5 -110.5t-124.5 -59.5t-143 -19.5h-195v313h-67v98h67v289zM221 579v-168h113v-98h-113v-192h16q276 0 276 223q0 115 -64.5 175t-183.5 60h-44z" />
    <glyph glyph-name="Ntilde" unicode="&#xd1;" horiz-adv-x="748" 
d="M671 0h-129l-321 438v-438h-143v700h126l324 -439v439h143v-700zM485 878l82 9q6 -20 6 -39q0 -46 -31.5 -74.5t-83.5 -28.5q-37 0 -85.5 25.5t-60.5 25.5q-23 0 -25 -23q0 -5 1 -7l-81 -9q-7 23 -7 39q0 46 32 74.5t84 28.5q36 0 85 -25.5t60 -25.5q10 0 17.5 6t7.5 17
q0 5 -1 7z" />
    <glyph glyph-name="Ograve" unicode="&#xd2;" horiz-adv-x="831" 
d="M629 350q0 100 -60.5 168.5t-152.5 68.5t-153 -68t-61 -169t61 -169t153 -68t152.5 68.5t60.5 168.5zM782 350q0 -151 -106 -256.5t-260 -105.5q-155 0 -261 105.5t-106 256.5t106 256.5t261 105.5q154 0 260 -105.5t106 -256.5zM420 733l-182 128l74 97l172 -144z" />
    <glyph glyph-name="Oacute" unicode="&#xd3;" horiz-adv-x="831" 
d="M629 350q0 100 -60.5 168.5t-152.5 68.5t-153 -68t-61 -169t61 -169t153 -68t152.5 68.5t60.5 168.5zM782 350q0 -151 -106 -256.5t-260 -105.5q-155 0 -261 105.5t-106 256.5t106 256.5t261 105.5q154 0 260 -105.5t106 -256.5zM597 861l-182 -128l-64 81l172 144z" />
    <glyph glyph-name="Ocircumflex" unicode="&#xd4;" horiz-adv-x="831" 
d="M629 350q0 100 -60.5 168.5t-152.5 68.5t-153 -68t-61 -169t61 -169t153 -68t152.5 68.5t60.5 168.5zM782 350q0 -151 -106 -256.5t-260 -105.5q-155 0 -261 105.5t-106 256.5t106 256.5t261 105.5q154 0 260 -105.5t106 -256.5zM341 943h156l113 -149l-82 -60l-111 126
l-112 -126l-81 60z" />
    <glyph glyph-name="Otilde" unicode="&#xd5;" horiz-adv-x="831" 
d="M629 350q0 100 -60.5 168.5t-152.5 68.5t-153 -68t-61 -169t61 -169t153 -68t152.5 68.5t60.5 168.5zM782 350q0 -151 -106 -256.5t-260 -105.5q-155 0 -261 105.5t-106 256.5t106 256.5t261 105.5q154 0 260 -105.5t106 -256.5zM533 878l82 9q6 -20 6 -39
q0 -46 -31.5 -74.5t-83.5 -28.5q-37 0 -85.5 25.5t-60.5 25.5q-23 0 -25 -23q0 -5 1 -7l-81 -9q-7 23 -7 39q0 46 32 74.5t84 28.5q36 0 85 -25.5t60 -25.5q10 0 17.5 6t7.5 17q0 5 -1 7z" />
    <glyph glyph-name="Odieresis" unicode="&#xd6;" horiz-adv-x="831" 
d="M629 350q0 100 -60.5 168.5t-152.5 68.5t-153 -68t-61 -169t61 -169t153 -68t152.5 68.5t60.5 168.5zM782 350q0 -151 -106 -256.5t-260 -105.5q-155 0 -261 105.5t-106 256.5t106 256.5t261 105.5q154 0 260 -105.5t106 -256.5zM352 762h-149v120h149v-120zM629 762
h-149v120h149v-120z" />
    <glyph glyph-name="multiply" unicode="&#xd7;" 
d="M495 177l-85 -85l-136 134l-134 -134l-85 85l135 134l-135 135l86 85l133 -134l135 134l85 -85l-134 -134z" />
    <glyph glyph-name="Oslash" unicode="&#xd8;" horiz-adv-x="831" 
d="M782 350q0 -151 -106 -256.5t-260 -105.5q-84 0 -157 34l-34 -50l-93 61l34 50q-117 107 -117 267q0 151 106 256.5t261 105.5q78 0 152 -32l31 46l93 -61l-30 -45q120 -109 120 -270zM629 350q0 87 -47 151l-250 -370q39 -18 84 -18q92 0 152.5 68.5t60.5 168.5z
M202 350q0 -85 44 -148l249 369q-38 16 -79 16q-92 0 -153 -68t-61 -169z" />
    <glyph glyph-name="Ugrave" unicode="&#xd9;" horiz-adv-x="716" 
d="M640 700v-370q0 -169 -68.5 -255.5t-215.5 -86.5q-280 0 -280 342v370h143v-389q0 -98 37 -148t102 -50t102 50t37 148v389h143zM359 733l-182 128l74 97l172 -144z" />
    <glyph glyph-name="Uacute" unicode="&#xda;" horiz-adv-x="716" 
d="M640 700v-370q0 -169 -68.5 -255.5t-215.5 -86.5q-280 0 -280 342v370h143v-389q0 -98 37 -148t102 -50t102 50t37 148v389h143zM523 861l-182 -128l-64 81l172 144z" />
    <glyph glyph-name="Ucircumflex" unicode="&#xdb;" horiz-adv-x="716" 
d="M640 700v-370q0 -169 -68.5 -255.5t-215.5 -86.5q-280 0 -280 342v370h143v-389q0 -98 37 -148t102 -50t102 50t37 148v389h143zM285 943h156l113 -149l-82 -60l-111 126l-112 -126l-81 60z" />
    <glyph glyph-name="Udieresis" unicode="&#xdc;" horiz-adv-x="716" 
d="M640 700v-370q0 -169 -68.5 -255.5t-215.5 -86.5q-280 0 -280 342v370h143v-389q0 -98 37 -148t102 -50t102 50t37 148v389h143zM295 762h-149v120h149v-120zM572 762h-149v120h149v-120z" />
    <glyph glyph-name="Yacute" unicode="&#xdd;" horiz-adv-x="608" 
d="M370 0h-143v293l-223 407h178l121 -252h2l132 252h167l-234 -411v-289zM475 861l-182 -128l-64 81l172 144z" />
    <glyph glyph-name="Thorn" unicode="&#xde;" horiz-adv-x="594" 
d="M78 700h143v-128h80q47 0 91.5 -12t83.5 -36.5t63 -68t24 -100.5q0 -58 -23.5 -102t-63 -68.5t-83.5 -36.5t-92 -12h-80v-143h-143v707zM411 352q0 46 -31 72.5t-83 26.5h-76v-194h57q133 0 133 95z" />
    <glyph glyph-name="germandbls" unicode="&#xdf;" horiz-adv-x="641" 
d="M204 0h-138v534q0 106 70 167t173 61q98 0 167 -54.5t69 -148.5q0 -90 -68 -140q60 -22 94 -75t34 -122q0 -102 -72 -168t-174 -66q-51 0 -97 20l36 112q26 -13 56 -13q53 0 82 32t29 84q0 60 -37.5 93.5t-97.5 33.5q-26 0 -50 -4v111q10 -1 28 -1q38 0 68 26.5t30 69.5
q0 40 -26.5 65.5t-67.5 25.5q-108 0 -108 -127v-516z" />
    <glyph glyph-name="agrave" unicode="&#xe0;" horiz-adv-x="575" 
d="M511 0h-123l-11 45q-46 -57 -143 -57q-78 0 -133.5 45t-55.5 122q0 61 36 101t84.5 54.5t108.5 14.5q43 0 95 -11v8q0 106 -104 106q-71 0 -159 -46l-38 102q110 54 226 54q107 0 162 -58.5t55 -163.5v-316zM369 132v97q-41 9 -72 9q-46 0 -79.5 -19.5t-33.5 -61.5
q0 -33 23.5 -51.5t56.5 -18.5q55 0 105 45zM272 578l-147 172l96 76l133 -186z" />
    <glyph glyph-name="aacute" unicode="&#xe1;" horiz-adv-x="575" 
d="M511 0h-123l-11 45q-46 -57 -143 -57q-78 0 -133.5 45t-55.5 122q0 61 36 101t84.5 54.5t108.5 14.5q43 0 95 -11v8q0 106 -104 106q-71 0 -159 -46l-38 102q110 54 226 54q107 0 162 -58.5t55 -163.5v-316zM369 132v97q-41 9 -72 9q-46 0 -79.5 -19.5t-33.5 -61.5
q0 -33 23.5 -51.5t56.5 -18.5q55 0 105 45zM460 750l-147 -172l-82 62l133 186z" />
    <glyph glyph-name="acircumflex" unicode="&#xe2;" horiz-adv-x="575" 
d="M511 0h-123l-11 45q-46 -57 -143 -57q-78 0 -133.5 45t-55.5 122q0 61 36 101t84.5 54.5t108.5 14.5q43 0 95 -11v8q0 106 -104 106q-71 0 -159 -46l-38 102q110 54 226 54q107 0 162 -58.5t55 -163.5v-316zM369 132v97q-41 9 -72 9q-46 0 -79.5 -19.5t-33.5 -61.5
q0 -33 23.5 -51.5t56.5 -18.5q55 0 105 45zM211 799h143l112 -168l-80 -48l-105 129l-104 -129l-80 48z" />
    <glyph glyph-name="atilde" unicode="&#xe3;" horiz-adv-x="575" 
d="M511 0h-123l-11 45q-46 -57 -143 -57q-78 0 -133.5 45t-55.5 122q0 61 36 101t84.5 54.5t108.5 14.5q43 0 95 -11v8q0 106 -104 106q-71 0 -159 -46l-38 102q110 54 226 54q107 0 162 -58.5t55 -163.5v-316zM369 132v97q-41 9 -72 9q-46 0 -79.5 -19.5t-33.5 -61.5
q0 -33 23.5 -51.5t56.5 -18.5q55 0 105 45zM187 602l-81 -9q-6 19 -6 38q0 46 31.5 74.5t83.5 28.5q37 0 86 -25.5t60 -25.5q23 0 25 23q0 6 -1 7l81 9q6 -19 6 -38q0 -46 -31.5 -74.5t-83.5 -28.5q-37 0 -86 25.5t-60 25.5q-23 0 -25 -23q0 -6 1 -7z" />
    <glyph glyph-name="adieresis" unicode="&#xe4;" horiz-adv-x="575" 
d="M511 0h-123l-11 45q-46 -57 -143 -57q-78 0 -133.5 45t-55.5 122q0 61 36 101t84.5 54.5t108.5 14.5q43 0 95 -11v8q0 106 -104 106q-71 0 -159 -46l-38 102q110 54 226 54q107 0 162 -58.5t55 -163.5v-316zM369 132v97q-41 9 -72 9q-46 0 -79.5 -19.5t-33.5 -61.5
q0 -33 23.5 -51.5t56.5 -18.5q55 0 105 45zM233 599h-143v121h143v-121zM474 599h-143v121h143v-121z" />
    <glyph glyph-name="aring" unicode="&#xe5;" horiz-adv-x="575" 
d="M511 0h-123l-11 45q-46 -57 -143 -57q-78 0 -133.5 45t-55.5 122q0 61 36 101t84.5 54.5t108.5 14.5q43 0 95 -11v8q0 106 -104 106q-71 0 -159 -46l-38 102q110 54 226 54q107 0 162 -58.5t55 -163.5v-316zM369 132v97q-41 9 -72 9q-46 0 -79.5 -19.5t-33.5 -61.5
q0 -33 23.5 -51.5t56.5 -18.5q55 0 105 45zM182 689q0 47 33 80t80 33t80 -33t33 -80t-33 -80t-80 -33t-80 33t-33 80zM250 689q0 -19 13 -32t32 -13t32 13t13 32t-13 32t-32 13t-32 -13t-13 -32z" />
    <glyph glyph-name="ae" unicode="&#xe6;" horiz-adv-x="921" 
d="M880 228h-370q8 -56 42.5 -91t89.5 -35q48 0 79 19t58 59l93 -63q-46 -67 -101.5 -98t-138.5 -31q-120 0 -195 77q-47 -45 -95.5 -61t-107.5 -16q-78 0 -133.5 45t-55.5 122q0 61 36 101t84.5 54.5t108.5 14.5q43 0 95 -11v8q0 106 -104 106q-71 0 -159 -46l-38 102
q110 54 226 54q114 0 167 -68q71 68 172 68q110 0 182 -69t72 -174q0 -30 -7 -67zM385 149q-13 33 -18 80q-39 9 -70 9q-46 0 -79.5 -19.5t-33.5 -61.5q0 -33 23.5 -51.5t56.5 -18.5q70 0 121 62zM517 325h225q-2 47 -31.5 74.5t-73.5 27.5q-94 0 -120 -102z" />
    <glyph glyph-name="ccedilla" unicode="&#xe7;" horiz-adv-x="511" 
d="M413 150l76 -97q-73 -65 -189 -65q-16 0 -23 1l-19 -50h1q20 15 46 15q37 0 65.5 -29t28.5 -72t-33.5 -76.5t-81.5 -33.5q-76 0 -115 70l68 33q13 -32 40 -32q17 0 27.5 10.5t10.5 26.5t-11 28t-26 12q-25 0 -37 -20l-74 37l41 94q-80 27 -127.5 96.5t-47.5 164.5
q0 116 76.5 195.5t194.5 79.5q106 0 185 -65l-73 -99q-45 42 -102 42q-59 0 -97.5 -44.5t-38.5 -108.5q0 -66 38.5 -109.5t95.5 -43.5q60 0 101 40z" />
    <glyph glyph-name="egrave" unicode="&#xe8;" horiz-adv-x="588" 
d="M547 228h-370q8 -56 42.5 -91t89.5 -35q48 0 79 19t58 59l93 -63q-46 -67 -101.5 -98t-138.5 -31q-119 0 -192.5 75t-73.5 194t77 200t190 81q110 0 182 -69t72 -174q0 -30 -7 -67zM184 325h225q-2 47 -31.5 74.5t-73.5 27.5q-94 0 -120 -102zM279 578l-147 172l96 76
l133 -186z" />
    <glyph glyph-name="eacute" unicode="&#xe9;" horiz-adv-x="588" 
d="M547 228h-370q8 -56 42.5 -91t89.5 -35q48 0 79 19t58 59l93 -63q-46 -67 -101.5 -98t-138.5 -31q-119 0 -192.5 75t-73.5 194t77 200t190 81q110 0 182 -69t72 -174q0 -30 -7 -67zM184 325h225q-2 47 -31.5 74.5t-73.5 27.5q-94 0 -120 -102zM487 750l-147 -172l-82 62
l133 186z" />
    <glyph glyph-name="ecircumflex" unicode="&#xea;" horiz-adv-x="588" 
d="M547 228h-370q8 -56 42.5 -91t89.5 -35q48 0 79 19t58 59l93 -63q-46 -67 -101.5 -98t-138.5 -31q-119 0 -192.5 75t-73.5 194t77 200t190 81q110 0 182 -69t72 -174q0 -30 -7 -67zM184 325h225q-2 47 -31.5 74.5t-73.5 27.5q-94 0 -120 -102zM232 799h143l112 -168
l-80 -48l-105 129l-104 -129l-80 48z" />
    <glyph glyph-name="edieresis" unicode="&#xeb;" horiz-adv-x="588" 
d="M547 228h-370q8 -56 42.5 -91t89.5 -35q48 0 79 19t58 59l93 -63q-46 -67 -101.5 -98t-138.5 -31q-119 0 -192.5 75t-73.5 194t77 200t190 81q110 0 182 -69t72 -174q0 -30 -7 -67zM184 325h225q-2 47 -31.5 74.5t-73.5 27.5q-94 0 -120 -102zM253 599h-143v121h143v-121
zM494 599h-143v121h143v-121z" />
    <glyph glyph-name="igrave" unicode="&#xec;" horiz-adv-x="280" 
d="M211 0h-142v526h142v-526zM114 578l-147 172l96 76l133 -186z" />
    <glyph glyph-name="iacute" unicode="&#xed;" horiz-adv-x="280" 
d="M211 0h-142v526h142v-526zM312 750l-147 -172l-82 62l133 186z" />
    <glyph glyph-name="icircumflex" unicode="&#xee;" horiz-adv-x="280" 
d="M211 0h-142v526h142v-526zM69 799h143l112 -168l-80 -48l-105 129l-104 -129l-80 48z" />
    <glyph glyph-name="idieresis" unicode="&#xef;" horiz-adv-x="280" 
d="M105 599h-143v121h143v-121zM319 599h-143v121h143v-121zM211 0h-142v526h142v-526z" />
    <glyph glyph-name="eth" unicode="&#xf0;" horiz-adv-x="609" 
d="M236 590l-47 -87l-90 49l45 84q-34 16 -79 33l49 114l87 -39l43 80l91 -48l-41 -78q282 -158 282 -436q0 -117 -79 -195.5t-203 -78.5q-109 0 -185 74.5t-76 175.5q0 105 70 171.5t177 66.5q58 0 105 -28q-49 82 -149 142zM424 327q-50 32 -111 32q-57 0 -96 -30.5
t-39 -87.5q0 -56 35 -96t87 -40q67 0 99 43.5t32 110.5q0 31 -7 68z" />
    <glyph glyph-name="ntilde" unicode="&#xf1;" horiz-adv-x="618" 
d="M69 526h123l11 -72q60 84 163 84q86 0 140 -69q47 -61 47 -196v-273h-142v266q0 81 -16 113q-19 37 -70 37q-32 0 -63.5 -18t-50.5 -49v-349h-142v526zM237 602l-81 -9q-6 19 -6 38q0 46 31.5 74.5t83.5 28.5q37 0 86 -25.5t60 -25.5q23 0 25 23q0 6 -1 7l81 9
q6 -19 6 -38q0 -46 -31.5 -74.5t-83.5 -28.5q-37 0 -86 25.5t-60 25.5q-23 0 -25 -23q0 -6 1 -7z" />
    <glyph glyph-name="ograve" unicode="&#xf2;" horiz-adv-x="617" 
d="M309 538q119 0 197 -79t78 -196t-78 -196t-197 -79q-120 0 -198 79t-78 196t78 196t198 79zM439 263q0 66 -36 109.5t-94 43.5t-94.5 -44t-36.5 -109t36.5 -109t94.5 -44t94 43.5t36 109.5zM263 578l-147 172l96 76l133 -186z" />
    <glyph glyph-name="oacute" unicode="&#xf3;" horiz-adv-x="617" 
d="M309 538q119 0 197 -79t78 -196t-78 -196t-197 -79q-120 0 -198 79t-78 196t78 196t198 79zM439 263q0 66 -36 109.5t-94 43.5t-94.5 -44t-36.5 -109t36.5 -109t94.5 -44t94 43.5t36 109.5zM490 750l-147 -172l-82 62l133 186z" />
    <glyph glyph-name="ocircumflex" unicode="&#xf4;" horiz-adv-x="617" 
d="M309 538q119 0 197 -79t78 -196t-78 -196t-197 -79q-120 0 -198 79t-78 196t78 196t198 79zM439 263q0 66 -36 109.5t-94 43.5t-94.5 -44t-36.5 -109t36.5 -109t94.5 -44t94 43.5t36 109.5zM239 799h143l112 -168l-80 -48l-105 129l-104 -129l-80 48z" />
    <glyph glyph-name="otilde" unicode="&#xf5;" horiz-adv-x="617" 
d="M309 538q119 0 197 -79t78 -196t-78 -196t-197 -79q-120 0 -198 79t-78 196t78 196t198 79zM439 263q0 66 -36 109.5t-94 43.5t-94.5 -44t-36.5 -109t36.5 -109t94.5 -44t94 43.5t36 109.5zM226 602l-81 -9q-6 19 -6 38q0 46 31.5 74.5t83.5 28.5q37 0 86 -25.5t60 -25.5
q23 0 25 23q0 6 -1 7l81 9q6 -19 6 -38q0 -46 -31.5 -74.5t-83.5 -28.5q-37 0 -86 25.5t-60 25.5q-23 0 -25 -23q0 -6 1 -7z" />
    <glyph glyph-name="odieresis" unicode="&#xf6;" horiz-adv-x="617" 
d="M309 538q119 0 197 -79t78 -196t-78 -196t-197 -79q-120 0 -198 79t-78 196t78 196t198 79zM439 263q0 66 -36 109.5t-94 43.5t-94.5 -44t-36.5 -109t36.5 -109t94.5 -44t94 43.5t36 109.5zM260 599h-143v121h143v-121zM501 599h-143v121h143v-121z" />
    <glyph glyph-name="divide" unicode="&#xf7;" 
d="M24 257v113h501v-113h-501zM350 38h-153v149h153v-149zM350 440h-153v149h153v-149z" />
    <glyph glyph-name="oslash" unicode="&#xf8;" horiz-adv-x="617" 
d="M309 538q62 0 114 -23l24 35l73 -48l-23 -34q87 -81 87 -205q0 -117 -78 -196t-197 -79q-64 0 -120 25l-28 -42l-73 48l28 43q-83 80 -83 201q0 117 78 196t198 79zM439 263q0 49 -22 87l-156 -231q23 -9 48 -9q58 0 94 43.5t36 109.5zM178 263q0 -45 19 -83l154 229
q-23 7 -42 7q-58 0 -94.5 -44t-36.5 -109z" />
    <glyph glyph-name="ugrave" unicode="&#xf9;" horiz-adv-x="618" 
d="M548 0h-123l-11 72q-60 -84 -163 -84q-86 0 -140 69q-47 61 -47 196v273h142v-266q0 -81 16 -113q18 -37 70 -37q32 0 63.5 18t50.5 49v349h142v-526zM297 578l-147 172l96 76l133 -186z" />
    <glyph glyph-name="uacute" unicode="&#xfa;" horiz-adv-x="618" 
d="M548 0h-123l-11 72q-60 -84 -163 -84q-86 0 -140 69q-47 61 -47 196v273h142v-266q0 -81 16 -113q18 -37 70 -37q32 0 63.5 18t50.5 49v349h142v-526zM480 750l-147 -172l-82 62l133 186z" />
    <glyph glyph-name="ucircumflex" unicode="&#xfb;" horiz-adv-x="618" 
d="M548 0h-123l-11 72q-60 -84 -163 -84q-86 0 -140 69q-47 61 -47 196v273h142v-266q0 -81 16 -113q18 -37 70 -37q32 0 63.5 18t50.5 49v349h142v-526zM240 799h143l112 -168l-80 -48l-105 129l-104 -129l-80 48z" />
    <glyph glyph-name="udieresis" unicode="&#xfc;" horiz-adv-x="618" 
d="M548 0h-123l-11 72q-60 -84 -163 -84q-86 0 -140 69q-47 61 -47 196v273h142v-266q0 -81 16 -113q18 -37 70 -37q32 0 63.5 18t50.5 49v349h142v-526zM258 599h-143v121h143v-121zM499 599h-143v121h143v-121z" />
    <glyph glyph-name="yacute" unicode="&#xfd;" horiz-adv-x="531" 
d="M3 526h155l106 -313h2l108 313h154l-296 -767l-127 49l84 223zM427 750l-147 -172l-82 62l133 186z" />
    <glyph glyph-name="thorn" unicode="&#xfe;" horiz-adv-x="644" 
d="M69 750h142v-279q26 34 69 50.5t86 16.5q104 0 174.5 -80.5t70.5 -196.5q0 -113 -70.5 -193t-175.5 -80q-100 0 -154 62v-300h-142v1000zM211 346v-179q47 -57 122 -57q64 0 98.5 46.5t34.5 108.5t-36 106.5t-95 44.5q-82 0 -124 -70z" />
    <glyph glyph-name="ydieresis" unicode="&#xff;" horiz-adv-x="531" 
d="M3 526h155l106 -313h2l108 313h154l-296 -767l-127 49l84 223zM219 599h-143v121h143v-121zM460 599h-143v121h143v-121z" />
    <glyph glyph-name="Amacron" unicode="&#x100;" horiz-adv-x="689" 
d="M677 0h-165l-45 130h-249l-47 -130h-159l286 700h116zM345 482l-85 -235h167l-81 235h-1zM536 772h-364v95h364v-95z" />
    <glyph glyph-name="amacron" unicode="&#x101;" horiz-adv-x="575" 
d="M511 0h-123l-11 45q-46 -57 -143 -57q-78 0 -133.5 45t-55.5 122q0 61 36 101t84.5 54.5t108.5 14.5q43 0 95 -11v8q0 106 -104 106q-71 0 -159 -46l-38 102q110 54 226 54q107 0 162 -58.5t55 -163.5v-316zM369 132v97q-41 9 -72 9q-46 0 -79.5 -19.5t-33.5 -61.5
q0 -33 23.5 -51.5t56.5 -18.5q55 0 105 45zM452 609h-342v98h342v-98z" />
    <glyph glyph-name="Abreve" unicode="&#x102;" horiz-adv-x="689" 
d="M677 0h-165l-45 130h-249l-47 -130h-159l286 700h116zM345 482l-85 -235h167l-81 235h-1zM190 909h104q-1 -5 -1 -13q0 -27 17 -44.5t45 -17.5t46.5 17.5t18.5 44.5q0 8 -1 13h101v-12q0 -68 -47.5 -112t-117.5 -44t-117.5 44t-47.5 112v12z" />
    <glyph glyph-name="abreve" unicode="&#x103;" horiz-adv-x="575" 
d="M511 0h-123l-11 45q-46 -57 -143 -57q-78 0 -133.5 45t-55.5 122q0 61 36 101t84.5 54.5t108.5 14.5q43 0 95 -11v8q0 106 -104 106q-71 0 -159 -46l-38 102q110 54 226 54q107 0 162 -58.5t55 -163.5v-316zM369 132v97q-41 9 -72 9q-46 0 -79.5 -19.5t-33.5 -61.5
q0 -33 23.5 -51.5t56.5 -18.5q55 0 105 45zM453 767v-17q0 -69 -48 -116.5t-117 -47.5t-117 47.5t-48 116.5v17h102q-1 -5 -1 -19q0 -28 18.5 -48.5t45.5 -20.5t46 20.5t19 48.5q0 14 -1 19h101z" />
    <glyph glyph-name="Aogonek" unicode="&#x104;" horiz-adv-x="689" 
d="M345 482l-85 -235h167l-81 235h-1zM414 700l263 -700q-60 -8 -95.5 -32t-35.5 -60q0 -40 49 -40q22 0 48 13l33 -78q-48 -30 -112 -30q-57 0 -95.5 30t-38.5 77q0 40 21 72.5t59 51.5l-43 126h-249l-47 -130h-159l286 700h116z" />
    <glyph glyph-name="aogonek" unicode="&#x105;" horiz-adv-x="575" 
d="M368 132v97q-40 9 -71 9q-46 0 -79.5 -19.5t-33.5 -61.5q0 -33 23.5 -51.5t56.5 -18.5q54 0 104 45zM511 0q-53 -12 -86 -35.5t-33 -56.5q0 -40 49 -40q24 0 48 13l33 -78q-48 -30 -112 -30q-57 0 -95.5 30t-38.5 77q0 82 110 125l-9 40q-46 -57 -143 -57
q-78 0 -133.5 45t-55.5 122q0 61 36 101t84.5 54.5t108.5 14.5q42 0 94 -11v8q0 106 -103 106q-71 0 -159 -46l-38 102q110 54 226 54q107 0 162 -58.5t55 -163.5v-316z" />
    <glyph glyph-name="Cacute" unicode="&#x106;" horiz-adv-x="675" 
d="M202 350q0 -106 59 -171.5t161 -65.5q82 0 149 58l80 -104q-103 -79 -235 -79q-159 0 -263 101.5t-104 260.5q0 153 109 257.5t264 104.5q106 0 215 -68l-69 -111q-71 54 -146 54q-95 0 -157.5 -68.5t-62.5 -168.5zM595 861l-182 -128l-64 81l172 144z" />
    <glyph glyph-name="cacute" unicode="&#x107;" horiz-adv-x="511" 
d="M413 150l76 -97q-73 -65 -189 -65q-117 0 -192 76.5t-75 198.5q0 116 76.5 195.5t194.5 79.5q106 0 185 -65l-73 -99q-45 42 -102 42q-59 0 -97.5 -44.5t-38.5 -108.5q0 -66 38.5 -109.5t95.5 -43.5q60 0 101 40zM491 750l-147 -172l-82 62l133 186z" />
    <glyph glyph-name="Ccircumflex" unicode="&#x108;" horiz-adv-x="675" 
d="M202 350q0 -106 59 -171.5t161 -65.5q82 0 149 58l80 -104q-103 -79 -235 -79q-159 0 -263 101.5t-104 260.5q0 153 109 257.5t264 104.5q106 0 215 -68l-69 -111q-71 54 -146 54q-95 0 -157.5 -68.5t-62.5 -168.5zM343 943h156l113 -149l-82 -60l-111 126l-112 -126
l-81 60z" />
    <glyph glyph-name="ccircumflex" unicode="&#x109;" horiz-adv-x="511" 
d="M413 150l76 -97q-73 -65 -189 -65q-117 0 -192 76.5t-75 198.5q0 116 76.5 195.5t194.5 79.5q106 0 185 -65l-73 -99q-45 42 -102 42q-59 0 -97.5 -44.5t-38.5 -108.5q0 -66 38.5 -109.5t95.5 -43.5q60 0 101 40zM231 799h143l112 -168l-80 -48l-105 129l-104 -129
l-80 48z" />
    <glyph glyph-name="Cdotaccent" unicode="&#x10a;" horiz-adv-x="675" 
d="M202 350q0 -106 59 -171.5t161 -65.5q82 0 149 58l80 -104q-103 -79 -235 -79q-159 0 -263 101.5t-104 260.5q0 153 109 257.5t264 104.5q106 0 215 -68l-69 -111q-71 54 -146 54q-95 0 -157.5 -68.5t-62.5 -168.5zM488 762h-146v120h146v-120z" />
    <glyph glyph-name="cdotaccent" unicode="&#x10b;" horiz-adv-x="511" 
d="M413 150l76 -97q-73 -65 -189 -65q-117 0 -192 76.5t-75 198.5q0 116 76.5 195.5t194.5 79.5q106 0 185 -65l-73 -99q-45 42 -102 42q-59 0 -97.5 -44.5t-38.5 -108.5q0 -66 38.5 -109.5t95.5 -43.5q60 0 101 40zM364 599h-142v121h142v-121z" />
    <glyph glyph-name="Ccaron" unicode="&#x10c;" horiz-adv-x="675" 
d="M202 350q0 -106 59 -171.5t161 -65.5q82 0 149 58l80 -104q-103 -79 -235 -79q-159 0 -263 101.5t-104 260.5q0 153 109 257.5t264 104.5q106 0 215 -68l-69 -111q-71 54 -146 54q-95 0 -157.5 -68.5t-62.5 -168.5zM495 746h-156l-113 149l83 60l111 -126l112 126l80 -60
z" />
    <glyph glyph-name="ccaron" unicode="&#x10d;" horiz-adv-x="511" 
d="M413 150l76 -97q-73 -65 -189 -65q-117 0 -192 76.5t-75 198.5q0 116 76.5 195.5t194.5 79.5q106 0 185 -65l-73 -99q-45 42 -102 42q-59 0 -97.5 -44.5t-38.5 -108.5q0 -66 38.5 -109.5t95.5 -43.5q60 0 101 40zM373 594h-143l-112 168l81 48l105 -129l104 129l79 -48z
" />
    <glyph glyph-name="Dcaron" unicode="&#x10e;" horiz-adv-x="715" 
d="M78 0v700h204q71 0 136.5 -19.5t122.5 -58.5t91 -108.5t34 -160.5q0 -93 -34 -163.5t-91.5 -110.5t-124.5 -59.5t-143 -19.5h-195zM221 579v-458h16q276 0 276 223q0 115 -64.5 175t-183.5 60h-44zM399 746h-156l-113 149l83 60l111 -126l112 126l80 -60z" />
    <glyph glyph-name="dcaron" unicode="&#x10f;" horiz-adv-x="717" 
d="M575 0h-123l-12 65q-26 -40 -70.5 -58.5t-91.5 -18.5q-104 0 -174.5 81t-70.5 196q0 113 70.5 193t176.5 80q97 0 153 -63v275h142v-750zM433 179v180q-49 57 -122 57q-64 0 -98.5 -46.5t-34.5 -108.5q0 -61 36.5 -106t94.5 -45q83 0 124 69zM725 533h-119l44 217h132z
" />
    <glyph glyph-name="Dcroat" unicode="&#x110;" horiz-adv-x="715" 
d="M78 0v313h-67v98h67v289h204q71 0 136.5 -19.5t122.5 -58.5t91 -108.5t34 -160.5q0 -93 -34 -163.5t-91.5 -110.5t-124.5 -59.5t-143 -19.5h-195zM513 344q0 115 -64.5 175t-183.5 60h-44v-168h113v-98h-113v-192h16q276 0 276 223z" />
    <glyph glyph-name="dcroat" unicode="&#x111;" horiz-adv-x="644" 
d="M575 0h-123l-12 65q-26 -40 -70.5 -58.5t-91.5 -18.5q-104 0 -174.5 81t-70.5 196q0 113 70.5 193t176.5 80q97 0 153 -63v111h-160v96h160v68h142v-68h68v-96h-68v-586zM433 179v180q-49 57 -122 57q-64 0 -98.5 -46.5t-34.5 -108.5q0 -61 36.5 -106t94.5 -45
q83 0 124 69z" />
    <glyph glyph-name="Emacron" unicode="&#x112;" horiz-adv-x="580" 
d="M527 0h-449v700h449v-121h-306v-158h306v-121h-306v-179h306v-121zM491 772h-364v95h364v-95z" />
    <glyph glyph-name="emacron" unicode="&#x113;" horiz-adv-x="588" 
d="M547 228h-370q8 -56 42.5 -91t89.5 -35q48 0 79 19t58 59l93 -63q-46 -67 -101.5 -98t-138.5 -31q-119 0 -192.5 75t-73.5 194t77 200t190 81q110 0 182 -69t72 -174q0 -30 -7 -67zM184 325h225q-2 47 -31.5 74.5t-73.5 27.5q-94 0 -120 -102zM476 609h-342v98h342v-98z
" />
    <glyph glyph-name="Ebreve" unicode="&#x114;" horiz-adv-x="580" 
d="M527 0h-449v700h449v-121h-306v-158h306v-121h-306v-179h306v-121zM146 909h104q-1 -5 -1 -13q0 -27 17 -44.5t45 -17.5t46.5 17.5t18.5 44.5q0 8 -1 13h101v-12q0 -68 -47.5 -112t-117.5 -44t-117.5 44t-47.5 112v12z" />
    <glyph glyph-name="ebreve" unicode="&#x115;" horiz-adv-x="588" 
d="M547 228h-370q8 -56 42.5 -91t89.5 -35q48 0 79 19t58 59l93 -63q-46 -67 -101.5 -98t-138.5 -31q-119 0 -192.5 75t-73.5 194t77 200t190 81q110 0 182 -69t72 -174q0 -30 -7 -67zM184 325h225q-2 47 -31.5 74.5t-73.5 27.5q-94 0 -120 -102zM468 767v-17
q0 -69 -48 -116.5t-117 -47.5t-117 47.5t-48 116.5v17h102q-1 -5 -1 -19q0 -28 18.5 -48.5t45.5 -20.5t46 20.5t19 48.5q0 14 -1 19h101z" />
    <glyph glyph-name="Edotaccent" unicode="&#x116;" horiz-adv-x="580" 
d="M527 0h-449v700h449v-121h-306v-158h306v-121h-306v-179h306v-121zM384 762h-146v120h146v-120z" />
    <glyph glyph-name="edotaccent" unicode="&#x117;" horiz-adv-x="588" 
d="M547 228h-370q8 -56 42.5 -91t89.5 -35q48 0 79 19t58 59l93 -63q-46 -67 -101.5 -98t-138.5 -31q-119 0 -192.5 75t-73.5 194t77 200t190 81q110 0 182 -69t72 -174q0 -30 -7 -67zM184 325h225q-2 47 -31.5 74.5t-73.5 27.5q-94 0 -120 -102zM370 599h-142v121h142v-121
z" />
    <glyph glyph-name="Eogonek" unicode="&#x118;" horiz-adv-x="580" 
d="M78 700h449v-121h-306v-158h306v-121h-306v-179h306v-121q-54 -10 -86 -34t-32 -58q0 -40 50 -40q23 0 47 13l33 -78q-46 -30 -111 -30q-57 0 -96 30t-39 77q0 81 89 120h-304v700z" />
    <glyph glyph-name="eogonek" unicode="&#x119;" horiz-adv-x="588" 
d="M184 325h225q-2 47 -31.5 74.5t-73.5 27.5q-94 0 -120 -102zM539 117q-51 -74 -132 -112q-81 -37 -81 -88q0 -22 13 -35.5t37 -13.5q23 0 47 13l33 -78q-46 -30 -112 -30q-56 0 -95 30t-39 77q0 69 54 110q-105 11 -168 84t-63 183q0 119 77 200t190 81q110 0 182 -69
t72 -174q0 -30 -7 -67h-370q8 -56 42.5 -91t89.5 -35q48 0 79 19t58 59z" />
    <glyph glyph-name="Ecaron" unicode="&#x11a;" horiz-adv-x="580" 
d="M527 0h-449v700h449v-121h-306v-158h306v-121h-306v-179h306v-121zM381 746h-156l-113 149l83 60l111 -126l112 126l80 -60z" />
    <glyph glyph-name="ecaron" unicode="&#x11b;" horiz-adv-x="588" 
d="M547 228h-370q8 -56 42.5 -91t89.5 -35q48 0 79 19t58 59l93 -63q-46 -67 -101.5 -98t-138.5 -31q-119 0 -192.5 75t-73.5 194t77 200t190 81q110 0 182 -69t72 -174q0 -30 -7 -67zM184 325h225q-2 47 -31.5 74.5t-73.5 27.5q-94 0 -120 -102zM373 594h-143l-112 168
l81 48l105 -129l104 129l79 -48z" />
    <glyph glyph-name="Gcircumflex" unicode="&#x11c;" horiz-adv-x="793" 
d="M584 283h-168v121h311v-273q-107 -143 -305 -143q-161 0 -267 101t-106 261q0 153 109 257.5t264 104.5q175 0 294 -138l-99 -86q-85 99 -195 99q-95 0 -157.5 -68.5t-62.5 -168.5q0 -106 60.5 -171.5t159.5 -65.5q94 0 162 65v105zM353 943h156l113 -149l-82 -60
l-111 126l-112 -126l-81 60z" />
    <glyph glyph-name="gcircumflex" unicode="&#x11d;" horiz-adv-x="640" 
d="M575 526v-498q0 -84 -33 -140q-33 -58 -94.5 -86.5t-137.5 -28.5q-134 0 -243 72l52 117q43 -32 94 -49.5t92 -17.5q58 0 93 31.5t35 92.5v48q-52 -67 -155 -67q-104 0 -174.5 78.5t-70.5 192.5q0 112 70.5 189.5t176.5 77.5q45 0 89.5 -18t70.5 -56l12 62h123zM433 191
v168q-49 57 -122 57q-64 0 -98.5 -44.5t-34.5 -104.5t36 -102.5t95 -42.5q83 0 124 69zM235 799h143l112 -168l-80 -48l-105 129l-104 -129l-80 48z" />
    <glyph glyph-name="Gbreve" unicode="&#x11e;" horiz-adv-x="793" 
d="M584 283h-168v121h311v-273q-107 -143 -305 -143q-161 0 -267 101t-106 261q0 153 109 257.5t264 104.5q175 0 294 -138l-99 -86q-85 99 -195 99q-95 0 -157.5 -68.5t-62.5 -168.5q0 -106 60.5 -171.5t159.5 -65.5q94 0 162 65v105zM264 909h104q-1 -5 -1 -13
q0 -27 17 -44.5t45 -17.5t46.5 17.5t18.5 44.5q0 8 -1 13h101v-12q0 -68 -47.5 -112t-117.5 -44t-117.5 44t-47.5 112v12z" />
    <glyph glyph-name="gbreve" unicode="&#x11f;" horiz-adv-x="640" 
d="M575 526v-498q0 -84 -33 -140q-33 -58 -94.5 -86.5t-137.5 -28.5q-134 0 -243 72l52 117q43 -32 94 -49.5t92 -17.5q58 0 93 31.5t35 92.5v48q-52 -67 -155 -67q-104 0 -174.5 78.5t-70.5 192.5q0 112 70.5 189.5t176.5 77.5q45 0 89.5 -18t70.5 -56l12 62h123zM433 191
v168q-49 57 -122 57q-64 0 -98.5 -44.5t-34.5 -104.5t36 -102.5t95 -42.5q83 0 124 69zM474 767v-17q0 -69 -48 -116.5t-117 -47.5t-117 47.5t-48 116.5v17h102q-1 -5 -1 -19q0 -28 18.5 -48.5t45.5 -20.5t46 20.5t19 48.5q0 14 -1 19h101z" />
    <glyph glyph-name="Gdotaccent" unicode="&#x120;" horiz-adv-x="793" 
d="M584 283h-168v121h311v-273q-107 -143 -305 -143q-161 0 -267 101t-106 261q0 153 109 257.5t264 104.5q175 0 294 -138l-99 -86q-85 99 -195 99q-95 0 -157.5 -68.5t-62.5 -168.5q0 -106 60.5 -171.5t159.5 -65.5q94 0 162 65v105zM488 762h-146v120h146v-120z" />
    <glyph glyph-name="gdotaccent" unicode="&#x121;" horiz-adv-x="640" 
d="M575 526v-498q0 -84 -33 -140q-33 -58 -94.5 -86.5t-137.5 -28.5q-134 0 -243 72l52 117q43 -32 94 -49.5t92 -17.5q58 0 93 31.5t35 92.5v48q-52 -67 -155 -67q-104 0 -174.5 78.5t-70.5 192.5q0 112 70.5 189.5t176.5 77.5q45 0 89.5 -18t70.5 -56l12 62h123zM433 191
v168q-49 57 -122 57q-64 0 -98.5 -44.5t-34.5 -104.5t36 -102.5t95 -42.5q83 0 124 69zM375 599h-142v121h142v-121z" />
    <glyph glyph-name="Gcommaaccent" unicode="&#x122;" horiz-adv-x="793" 
d="M584 283h-168v121h311v-273q-107 -143 -305 -143q-161 0 -267 101t-106 261q0 153 109 257.5t264 104.5q175 0 294 -138l-99 -86q-85 99 -195 99q-95 0 -157.5 -68.5t-62.5 -168.5q0 -106 60.5 -171.5t159.5 -65.5q94 0 162 65v105zM409 -249h-108l36 191h127z" />
    <glyph glyph-name="gcommaaccent" unicode="&#x123;" horiz-adv-x="640" 
d="M575 526v-498q0 -84 -33 -140q-33 -58 -94.5 -86.5t-137.5 -28.5q-134 0 -243 72l52 117q43 -32 94 -49.5t92 -17.5q58 0 93 31.5t35 92.5v48q-52 -67 -155 -67q-104 0 -174.5 78.5t-70.5 192.5q0 112 70.5 189.5t176.5 77.5q45 0 89.5 -18t70.5 -56l12 62h123zM433 191
v168q-49 57 -122 57q-64 0 -98.5 -44.5t-34.5 -104.5t36 -102.5t95 -42.5q83 0 124 69zM299 771h109l-37 -192h-128z" />
    <glyph glyph-name="Hcircumflex" unicode="&#x124;" horiz-adv-x="739" 
d="M661 0h-143v300h-297v-300h-143v700h143v-279h297v279h143v-700zM294 943h156l113 -149l-82 -60l-111 126l-112 -126l-81 60z" />
    <glyph glyph-name="hcircumflex" unicode="&#x125;" horiz-adv-x="618" 
d="M211 750v-286q61 74 155 74q86 0 140 -69q47 -61 47 -196v-273h-142v266q0 81 -16 113q-19 37 -70 37q-32 0 -63.5 -18t-50.5 -49v-349h-142v750h142zM63 968h156l113 -149l-82 -60l-111 126l-112 -126l-81 60z" />
    <glyph glyph-name="Hbar" unicode="&#x126;" horiz-adv-x="739" 
d="M661 0h-143v300h-297v-300h-143v501h-85v97h85v102h143v-102h297v102h143v-102h85v-97h-85v-501zM221 421h297v80h-297v-80z" />
    <glyph glyph-name="hbar" unicode="&#x127;" horiz-adv-x="618" 
d="M211 750v-68h159v-97h-159v-121q61 74 155 74q86 0 140 -69q47 -61 47 -196v-273h-142v266q0 81 -16 113q-19 37 -70 37q-32 0 -63.5 -18t-50.5 -49v-349h-142v585h-69v97h69v68h142z" />
    <glyph glyph-name="Itilde" unicode="&#x128;" horiz-adv-x="299" 
d="M221 0h-143v700h143v-700zM251 878l82 9q6 -20 6 -39q0 -46 -31.5 -74.5t-83.5 -28.5q-37 0 -85.5 25.5t-60.5 25.5q-23 0 -25 -23q0 -5 1 -7l-81 -9q-7 23 -7 39q0 46 32 74.5t84 28.5q36 0 85 -25.5t60 -25.5q10 0 17.5 6t7.5 17q0 5 -1 7z" />
    <glyph glyph-name="itilde" unicode="&#x129;" horiz-adv-x="280" 
d="M211 0h-142v526h142v-526zM41 602l-81 -9q-6 19 -6 38q0 46 31.5 74.5t83.5 28.5q37 0 86 -25.5t60 -25.5q23 0 25 23q0 6 -1 7l81 9q6 -19 6 -38q0 -46 -31.5 -74.5t-83.5 -28.5q-37 0 -86 25.5t-60 25.5q-23 0 -25 -23q0 -6 1 -7z" />
    <glyph glyph-name="Imacron" unicode="&#x12a;" horiz-adv-x="299" 
d="M221 0h-143v700h143v-700zM332 772h-364v95h364v-95z" />
    <glyph glyph-name="imacron" unicode="&#x12b;" horiz-adv-x="280" 
d="M211 0h-142v526h142v-526zM311 609h-342v98h342v-98z" />
    <glyph glyph-name="Ibreve" unicode="&#x12c;" horiz-adv-x="299" 
d="M221 0h-143v700h143v-700zM-15 909h104q-1 -5 -1 -13q0 -27 17 -44.5t45 -17.5t46.5 17.5t18.5 44.5q0 8 -1 13h101v-12q0 -68 -47.5 -112t-117.5 -44t-117.5 44t-47.5 112v12z" />
    <glyph glyph-name="ibreve" unicode="&#x12d;" horiz-adv-x="280" 
d="M211 0h-142v526h142v-526zM305 767v-17q0 -69 -48 -116.5t-117 -47.5t-117 47.5t-48 116.5v17h102q-1 -5 -1 -19q0 -28 18.5 -48.5t45.5 -20.5t46 20.5t19 48.5q0 14 -1 19h101z" />
    <glyph glyph-name="Iogonek" unicode="&#x12e;" horiz-adv-x="299" 
d="M78 5v695h143v-700q-111 -25 -111 -92q0 -40 50 -40q23 0 47 13l33 -78q-46 -30 -111 -30q-57 0 -96 30t-39 77q0 40 22.5 73t61.5 52z" />
    <glyph glyph-name="iogonek" unicode="&#x12f;" horiz-adv-x="280" 
d="M211 599h-142v121h142v-121zM69 5v521h142v-526q-109 -25 -109 -92q0 -40 49 -40q23 0 47 13l33 -78q-46 -30 -111 -30q-57 0 -96 30t-39 77q0 40 22.5 73t61.5 52z" />
    <glyph glyph-name="Idotaccent" unicode="&#x130;" horiz-adv-x="299" 
d="M222 762h-145v120h145v-120zM221 0h-143v700h143v-700z" />
    <glyph glyph-name="dotlessi" unicode="&#x131;" horiz-adv-x="280" 
d="M211 0h-142v526h142v-526z" />
    <glyph glyph-name="IJ" unicode="&#x132;" horiz-adv-x="674" 
d="M221 0h-143v700h143v-700zM605 700v-514q0 -103 -45 -151q-44 -47 -139 -47q-67 0 -131 32l45 113q35 -20 69 -20q35 0 48 21q10 18 10 69v497h143z" />
    <glyph glyph-name="ij" unicode="&#x133;" horiz-adv-x="566" 
d="M211 0h-142v526h142v-526zM211 599h-142v121h142v-121zM497 599h-142v121h142v-121zM497 526v-563q0 -85 -34 -130q-43 -60 -146 -60q-59 0 -114 22l38 113q29 -13 61 -13q33 0 43 20t10 60v551h142z" />
    <glyph glyph-name="Jcircumflex" unicode="&#x134;" horiz-adv-x="340" 
d="M271 700v-514q0 -103 -45 -151q-44 -47 -139 -47q-67 0 -131 32l45 113q35 -20 69 -20q35 0 48 21q10 18 10 69v497h143zM123 943h156l113 -149l-82 -60l-111 126l-112 -126l-81 60z" />
    <glyph glyph-name="jcircumflex" unicode="&#x135;" horiz-adv-x="287" 
d="M218 526v-563q0 -85 -34 -130q-43 -60 -147 -60q-59 0 -114 22l38 112q29 -13 61 -13q33 0 43 20t10 60v552h143zM75 799h143l112 -168l-80 -48l-105 129l-104 -129l-80 48z" />
    <glyph glyph-name="Kcommaaccent" unicode="&#x136;" horiz-adv-x="640" 
d="M630 700l-237 -283l243 -417h-167l-173 303l-75 -89v-214h-143v700h143v-287l236 287h173zM328 -249h-108l36 191h127z" />
    <glyph glyph-name="kcommaaccent" unicode="&#x137;" horiz-adv-x="555" 
d="M557 0h-174l-121 195l-51 -59v-136h-142v750h142v-438h2l170 214h162l-188 -220zM282 -249h-108l36 191h127z" />
    <glyph glyph-name="kgreenlandic" unicode="&#x138;" horiz-adv-x="555" 
d="M69 526h142v-214h2l170 214h162l-188 -220l200 -306h-174l-121 195l-51 -59v-136h-142v526z" />
    <glyph glyph-name="Lacute" unicode="&#x139;" horiz-adv-x="512" 
d="M508 0h-430v700h143v-579h287v-121zM328 861l-182 -128l-64 81l172 144z" />
    <glyph glyph-name="lacute" unicode="&#x13a;" horiz-adv-x="280" 
d="M211 750v-750h-142v750h142zM306 905l-182 -128l-64 81l172 144z" />
    <glyph glyph-name="Lcommaaccent" unicode="&#x13b;" horiz-adv-x="512" 
d="M508 0h-430v700h143v-579h287v-121zM307 -249h-108l36 191h127z" />
    <glyph glyph-name="lcommaaccent" unicode="&#x13c;" horiz-adv-x="280" 
d="M211 750v-750h-142v750h142zM142 -249h-108l36 191h127z" />
    <glyph glyph-name="Lcaron" unicode="&#x13d;" horiz-adv-x="512" 
d="M508 0h-430v700h143v-579h287v-121zM435 483h-119l44 217h132z" />
    <glyph glyph-name="lcaron" unicode="&#x13e;" horiz-adv-x="353" 
d="M211 750v-750h-142v750h142zM361 533h-119l44 217h132z" />
    <glyph glyph-name="Ldot" unicode="&#x13f;" horiz-adv-x="525" 
d="M508 0h-430v700h143v-579h287v-121zM520 312h-146v120h146v-120z" />
    <glyph glyph-name="ldot" unicode="&#x140;" horiz-adv-x="408" 
d="M211 750v-750h-142v750h142zM415 316h-146v120h146v-120z" />
    <glyph glyph-name="Lslash" unicode="&#x141;" horiz-adv-x="512" 
d="M508 0h-430v230l-85 -55v136l85 55v334h143v-246l141 92v-136l-141 -92v-197h287v-121z" />
    <glyph glyph-name="lslash" unicode="&#x142;" horiz-adv-x="280" 
d="M211 750v-249l69 44v-138l-69 -44v-363h-142v277l-68 -44v138l68 43v336h142z" />
    <glyph glyph-name="Nacute" unicode="&#x143;" horiz-adv-x="748" 
d="M671 0h-129l-321 438v-438h-143v700h126l324 -439v439h143v-700zM539 861l-182 -128l-64 81l172 144z" />
    <glyph glyph-name="nacute" unicode="&#x144;" horiz-adv-x="618" 
d="M69 526h123l11 -72q60 84 163 84q86 0 140 -69q47 -61 47 -196v-273h-142v266q0 81 -16 113q-19 37 -70 37q-32 0 -63.5 -18t-50.5 -49v-349h-142v526zM486 750l-147 -172l-82 62l133 186z" />
    <glyph glyph-name="Ncommaaccent" unicode="&#x145;" horiz-adv-x="748" 
d="M671 0h-129l-321 438v-438h-143v700h126l324 -439v439h143v-700zM393 -249h-108l36 191h127z" />
    <glyph glyph-name="ncommaaccent" unicode="&#x146;" horiz-adv-x="618" 
d="M69 526h123l11 -72q60 84 163 84q86 0 140 -69q47 -61 47 -196v-273h-142v266q0 81 -16 113q-19 37 -70 37q-32 0 -63.5 -18t-50.5 -49v-349h-142v526zM308 -249h-108l36 191h127z" />
    <glyph glyph-name="Ncaron" unicode="&#x147;" horiz-adv-x="748" 
d="M671 0h-129l-321 438v-438h-143v700h126l324 -439v439h143v-700zM459 746h-156l-113 149l83 60l111 -126l112 126l80 -60z" />
    <glyph glyph-name="ncaron" unicode="&#x148;" horiz-adv-x="618" 
d="M69 526h123l11 -72q60 84 163 84q86 0 140 -69q47 -61 47 -196v-273h-142v266q0 81 -16 113q-19 37 -70 37q-32 0 -63.5 -18t-50.5 -49v-349h-142v526zM400 594h-143l-112 168l81 48l105 -129l104 129l79 -48z" />
    <glyph glyph-name="napostrophe" unicode="&#x149;" horiz-adv-x="662" 
d="M95 548h-122l47 230h136zM113 526h123l11 -72q60 84 163 84q86 0 140 -69q47 -61 47 -196v-273h-142v266q0 81 -16 113q-19 37 -70 37q-32 0 -63.5 -18t-50.5 -49v-349h-142v526z" />
    <glyph glyph-name="Eng" unicode="&#x14a;" horiz-adv-x="748" 
d="M671 -28q0 -103 -45 -151q-44 -47 -139 -47q-67 0 -131 32l45 113q35 -20 69 -20t47 21q10 18 10 69v31l-306 418v-438h-143v700h126l323 -439v439h144v-728z" />
    <glyph glyph-name="eng" unicode="&#x14b;" horiz-adv-x="618" 
d="M69 526h123l11 -72q60 84 163 84q86 0 140 -69q47 -61 47 -196v-310q0 -85 -34 -130q-43 -60 -146 -60q-59 0 -114 22l38 113q29 -13 61 -13q33 0 43 20t10 60v291q0 81 -16 113q-19 37 -70 37q-32 0 -63.5 -18t-50.5 -49v-349h-142v526z" />
    <glyph glyph-name="Omacron" unicode="&#x14c;" horiz-adv-x="831" 
d="M629 350q0 100 -60.5 168.5t-152.5 68.5t-153 -68t-61 -169t61 -169t153 -68t152.5 68.5t60.5 168.5zM782 350q0 -151 -106 -256.5t-260 -105.5q-155 0 -261 105.5t-106 256.5t106 256.5t261 105.5q154 0 260 -105.5t106 -256.5zM598 772h-364v95h364v-95z" />
    <glyph glyph-name="omacron" unicode="&#x14d;" horiz-adv-x="617" 
d="M309 538q119 0 197 -79t78 -196t-78 -196t-197 -79q-120 0 -198 79t-78 196t78 196t198 79zM439 263q0 66 -36 109.5t-94 43.5t-94.5 -44t-36.5 -109t36.5 -109t94.5 -44t94 43.5t36 109.5zM480 609h-342v98h342v-98z" />
    <glyph glyph-name="Obreve" unicode="&#x14e;" horiz-adv-x="831" 
d="M629 350q0 100 -60.5 168.5t-152.5 68.5t-153 -68t-61 -169t61 -169t153 -68t152.5 68.5t60.5 168.5zM782 350q0 -151 -106 -256.5t-260 -105.5q-155 0 -261 105.5t-106 256.5t106 256.5t261 105.5q154 0 260 -105.5t106 -256.5zM251 909h104q-1 -5 -1 -13
q0 -27 17 -44.5t45 -17.5t46.5 17.5t18.5 44.5q0 8 -1 13h101v-12q0 -68 -47.5 -112t-117.5 -44t-117.5 44t-47.5 112v12z" />
    <glyph glyph-name="obreve" unicode="&#x14f;" horiz-adv-x="617" 
d="M309 538q119 0 197 -79t78 -196t-78 -196t-197 -79q-120 0 -198 79t-78 196t78 196t198 79zM439 263q0 66 -36 109.5t-94 43.5t-94.5 -44t-36.5 -109t36.5 -109t94.5 -44t94 43.5t36 109.5zM474 767v-17q0 -69 -48 -116.5t-117 -47.5t-117 47.5t-48 116.5v17h102
q-1 -5 -1 -19q0 -28 18.5 -48.5t45.5 -20.5t46 20.5t19 48.5q0 14 -1 19h101z" />
    <glyph glyph-name="Ohungarumlaut" unicode="&#x150;" horiz-adv-x="831" 
d="M629 350q0 100 -60.5 168.5t-152.5 68.5t-153 -68t-61 -169t61 -169t153 -68t152.5 68.5t60.5 168.5zM782 350q0 -151 -106 -256.5t-260 -105.5q-155 0 -261 105.5t-106 256.5t106 256.5t261 105.5q154 0 260 -105.5t106 -256.5zM713 858l-178 -125l-64 81l168 141z
M469 861l-182 -128l-62 77l172 144z" />
    <glyph glyph-name="ohungarumlaut" unicode="&#x151;" horiz-adv-x="617" 
d="M309 538q119 0 197 -79t78 -196t-78 -196t-197 -79q-120 0 -198 79t-78 196t78 196t198 79zM439 263q0 66 -36 109.5t-94 43.5t-94.5 -44t-36.5 -109t36.5 -109t94.5 -44t94 43.5t36 109.5zM394 757l-147 -172l-80 57l132 188zM594 747l-144 -169l-82 62l130 183z" />
    <glyph glyph-name="OE" unicode="&#x152;" horiz-adv-x="1056" 
d="M1002 0h-449v19q-70 -31 -137 -31q-155 0 -261 105.5t-106 256.5t106 256.5t261 105.5q68 0 137 -31v19h449v-121h-305v-158h305v-121h-305v-179h305v-121zM416 113q81 0 137 48v378q-56 48 -137 48q-92 0 -153 -68t-61 -169t61 -169t153 -68z" />
    <glyph glyph-name="oe" unicode="&#x153;" horiz-adv-x="991" 
d="M950 228h-370q8 -56 42.5 -91t89.5 -35q48 0 79 19t58 59l93 -63q-46 -67 -101.5 -98t-138.5 -31q-126 0 -196 84q-76 -84 -197 -84q-120 0 -198 79t-78 196t78 196t198 79q127 0 201 -90q74 90 193 90q110 0 182 -69t72 -174q0 -30 -7 -67zM439 263q0 66 -36 109.5
t-94 43.5t-94.5 -44t-36.5 -109t36.5 -109t94.5 -44t94 43.5t36 109.5zM587 325h225q-2 47 -31.5 74.5t-73.5 27.5q-94 0 -120 -102z" />
    <glyph glyph-name="Racute" unicode="&#x154;" horiz-adv-x="634" 
d="M78 700h222q45 0 88 -12t82 -35.5t62.5 -66t23.5 -96.5q0 -76 -43 -124.5t-109 -70.5q106 -149 214 -295h-180l-192 279h-25v-279h-143v700zM221 579v-179h56q57 0 91.5 21.5t34.5 65.5q0 41 -29.5 66.5t-77.5 25.5h-75zM455 861l-182 -128l-64 81l172 144z" />
    <glyph glyph-name="racute" unicode="&#x155;" horiz-adv-x="374" 
d="M192 526l11 -70q50 82 123 82q35 0 68 -12l-34 -124q-22 12 -50 12q-64 0 -99 -58v-356h-142v526h123zM384 750l-147 -172l-82 62l133 186z" />
    <glyph glyph-name="Rcommaaccent" unicode="&#x156;" horiz-adv-x="634" 
d="M78 700h222q45 0 88 -12t82 -35.5t62.5 -66t23.5 -96.5q0 -76 -43 -124.5t-109 -70.5q106 -149 214 -295h-180l-192 279h-25v-279h-143v700zM221 579v-179h56q57 0 91.5 21.5t34.5 65.5q0 41 -29.5 66.5t-77.5 25.5h-75zM321 -249h-108l36 191h127z" />
    <glyph glyph-name="rcommaaccent" unicode="&#x157;" horiz-adv-x="374" 
d="M192 526l11 -70q50 82 123 82q35 0 68 -12l-34 -124q-22 12 -50 12q-64 0 -99 -58v-356h-142v526h123zM142 -249h-108l36 191h127z" />
    <glyph glyph-name="Rcaron" unicode="&#x158;" horiz-adv-x="634" 
d="M78 700h222q45 0 88 -12t82 -35.5t62.5 -66t23.5 -96.5q0 -76 -43 -124.5t-109 -70.5q106 -149 214 -295h-180l-192 279h-25v-279h-143v700zM221 579v-179h56q57 0 91.5 21.5t34.5 65.5q0 41 -29.5 66.5t-77.5 25.5h-75zM360 746h-156l-113 149l83 60l111 -126l112 126
l80 -60z" />
    <glyph glyph-name="rcaron" unicode="&#x159;" horiz-adv-x="374" 
d="M192 526l11 -70q50 82 123 82q35 0 68 -12l-34 -124q-22 12 -50 12q-64 0 -99 -58v-356h-142v526h123zM300 594h-143l-112 168l81 48l105 -129l104 129l79 -48z" />
    <glyph glyph-name="Sacute" unicode="&#x15a;" horiz-adv-x="623" 
d="M468 527q-74 63 -145 63q-38 0 -64.5 -18.5t-26.5 -51.5q0 -11 3.5 -20.5t11.5 -17.5t14.5 -13t21 -11.5t21.5 -9t25 -8.5t23 -8q48 -16 77.5 -30t66.5 -40t55.5 -65.5t18.5 -91.5q0 -72 -42 -123t-100 -72.5t-123 -21.5q-151 0 -268 117l95 93q48 -46 85.5 -67t88.5 -21
q46 0 78.5 22.5t32.5 66.5q0 21 -9.5 37.5t-32.5 30t-40 21t-53 20.5t-56 22t-50 27t-46 37.5t-28.5 51t-12.5 70.5q0 94 67.5 145t161.5 51q123 0 232 -83zM507 861l-182 -128l-64 81l172 144z" />
    <glyph glyph-name="sacute" unicode="&#x15b;" horiz-adv-x="481" 
d="M433 469l-78 -86q-49 44 -104 44q-21 0 -36 -11t-15 -29q0 -22 20.5 -36.5t62.5 -31.5q29 -12 43 -18.5t39.5 -21.5t38 -30t23 -39t10.5 -53q0 -82 -59.5 -125.5t-142.5 -43.5q-122 0 -212 90l81 84q33 -32 60.5 -47t63.5 -15q25 0 46 12t21 34q0 6 -1.5 11.5t-5.5 10.5
t-7.5 9t-10.5 8.5t-12 7.5t-14.5 7.5t-15 7t-16.5 7t-17 7.5q-61 26 -96.5 59.5t-35.5 95.5q0 76 55.5 118.5t132.5 42.5q109 0 182 -69zM436 750l-147 -172l-82 62l133 186z" />
    <glyph glyph-name="Scircumflex" unicode="&#x15c;" horiz-adv-x="623" 
d="M468 527q-74 63 -145 63q-38 0 -64.5 -18.5t-26.5 -51.5q0 -11 3.5 -20.5t11.5 -17.5t14.5 -13t21 -11.5t21.5 -9t25 -8.5t23 -8q48 -16 77.5 -30t66.5 -40t55.5 -65.5t18.5 -91.5q0 -72 -42 -123t-100 -72.5t-123 -21.5q-151 0 -268 117l95 93q48 -46 85.5 -67t88.5 -21
q46 0 78.5 22.5t32.5 66.5q0 21 -9.5 37.5t-32.5 30t-40 21t-53 20.5t-56 22t-50 27t-46 37.5t-28.5 51t-12.5 70.5q0 94 67.5 145t161.5 51q123 0 232 -83zM248 943h156l113 -149l-82 -60l-111 126l-112 -126l-81 60z" />
    <glyph glyph-name="scircumflex" unicode="&#x15d;" horiz-adv-x="481" 
d="M433 469l-78 -86q-49 44 -104 44q-21 0 -36 -11t-15 -29q0 -22 20.5 -36.5t62.5 -31.5q29 -12 43 -18.5t39.5 -21.5t38 -30t23 -39t10.5 -53q0 -82 -59.5 -125.5t-142.5 -43.5q-122 0 -212 90l81 84q33 -32 60.5 -47t63.5 -15q25 0 46 12t21 34q0 6 -1.5 11.5t-5.5 10.5
t-7.5 9t-10.5 8.5t-12 7.5t-14.5 7.5t-15 7t-16.5 7t-17 7.5q-61 26 -96.5 59.5t-35.5 95.5q0 76 55.5 118.5t132.5 42.5q109 0 182 -69zM182 799h143l112 -168l-80 -48l-105 129l-104 -129l-80 48z" />
    <glyph glyph-name="Scedilla" unicode="&#x15e;" horiz-adv-x="609" 
d="M468 527q-74 63 -145 63q-38 0 -64.5 -18.5t-26.5 -51.5q0 -11 3.5 -20.5t11.5 -17.5t14.5 -13t21 -11.5t21.5 -9t25 -8.5t23 -8q48 -16 77.5 -30t66.5 -40t55.5 -65.5t18.5 -91.5q0 -70 -39.5 -120t-95 -72.5t-118.5 -24.5l-19 -49h1q19 15 46 15q39 0 66.5 -28.5
t27.5 -72.5q0 -43 -33.5 -76.5t-81.5 -33.5q-76 0 -115 70l68 33q13 -32 41 -32q16 0 26.5 10.5t10.5 26.5t-10.5 28t-26.5 12q-24 0 -37 -20l-74 38l38 84q-115 17 -208 112l95 93q48 -46 85.5 -67t88.5 -21q46 0 78.5 22.5t32.5 66.5q0 21 -9.5 37.5t-32.5 30t-40 21
t-53 20.5t-56 22t-50 27t-46 37.5t-28.5 51t-12.5 70.5q0 94 67 144.5t162 50.5q124 0 232 -82z" />
    <glyph glyph-name="scedilla" unicode="&#x15f;" horiz-adv-x="481" 
d="M433 469l-78 -86q-49 44 -104 44q-21 0 -36 -11t-15 -29q0 -22 20.5 -36.5t62.5 -31.5q29 -12 43 -18.5t39.5 -21.5t38 -30t23 -39t10.5 -53q0 -80 -56 -123.5t-137 -45.5l-18 -49h1q20 15 46 15q37 0 65.5 -29t28.5 -72t-33.5 -76.5t-81.5 -33.5q-76 0 -116 70l69 33
q13 -32 40 -32q17 0 27 10.5t10 26.5t-10.5 28t-26.5 12q-24 0 -36 -20l-74 37l38 87q-83 16 -150 83l81 84q33 -32 60.5 -47t63.5 -15q25 0 46 12t21 34q0 6 -1.5 11.5t-5.5 10.5t-7.5 9t-10.5 8.5t-12 7.5t-14.5 7.5t-15 7t-16.5 7t-17 7.5q-61 26 -96.5 59.5t-35.5 95.5
q0 76 55.5 118.5t132.5 42.5q109 0 182 -69z" />
    <glyph glyph-name="Scaron" unicode="&#x160;" horiz-adv-x="623" 
d="M468 527q-74 63 -145 63q-38 0 -64.5 -18.5t-26.5 -51.5q0 -11 3.5 -20.5t11.5 -17.5t14.5 -13t21 -11.5t21.5 -9t25 -8.5t23 -8q48 -16 77.5 -30t66.5 -40t55.5 -65.5t18.5 -91.5q0 -72 -42 -123t-100 -72.5t-123 -21.5q-151 0 -268 117l95 93q48 -46 85.5 -67t88.5 -21
q46 0 78.5 22.5t32.5 66.5q0 21 -9.5 37.5t-32.5 30t-40 21t-53 20.5t-56 22t-50 27t-46 37.5t-28.5 51t-12.5 70.5q0 94 67.5 145t161.5 51q123 0 232 -83zM401 746h-156l-113 149l83 60l111 -126l112 126l80 -60z" />
    <glyph glyph-name="scaron" unicode="&#x161;" horiz-adv-x="481" 
d="M433 469l-78 -86q-49 44 -104 44q-21 0 -36 -11t-15 -29q0 -22 20.5 -36.5t62.5 -31.5q29 -12 43 -18.5t39.5 -21.5t38 -30t23 -39t10.5 -53q0 -82 -59.5 -125.5t-142.5 -43.5q-122 0 -212 90l81 84q33 -32 60.5 -47t63.5 -15q25 0 46 12t21 34q0 6 -1.5 11.5t-5.5 10.5
t-7.5 9t-10.5 8.5t-12 7.5t-14.5 7.5t-15 7t-16.5 7t-17 7.5q-61 26 -96.5 59.5t-35.5 95.5q0 76 55.5 118.5t132.5 42.5q109 0 182 -69zM328 594h-143l-112 168l81 48l105 -129l104 129l79 -48z" />
    <glyph glyph-name="uni0162" unicode="&#x162;" horiz-adv-x="491" 
d="M483 579h-166v-579h-36l-24 -61h1q21 15 47 15q38 0 65.5 -29t27.5 -72t-33 -76.5t-81 -33.5q-76 0 -116 70l69 33q12 -32 40 -32q16 0 26.5 10.5t10.5 26.5t-10.5 28t-25.5 12q-25 0 -38 -20l-73 38l40 91h-33v579h-166v121h475v-121z" />
    <glyph glyph-name="uni0163" unicode="&#x163;" horiz-adv-x="378" 
d="M351 408h-134v-204q0 -30 2 -45q6 -50 46 -50q27 0 57 15l44 -105q-53 -31 -125 -31q-3 0 -10 0.5t-10 0.5l-19 -50h1q20 15 47 15q37 0 65 -29t28 -72t-33 -76.5t-81 -33.5q-76 0 -116 70l69 33q12 -32 40 -32q16 0 26.5 10.5t10.5 26.5t-11 28t-26 12q-24 0 -37 -20
l-73 37l43 100q-53 30 -70 93q-10 33 -10 88v219h-63v118h63l22 116h120v-116h134v-118z" />
    <glyph glyph-name="Tcaron" unicode="&#x164;" horiz-adv-x="491" 
d="M483 579h-166v-579h-143v579h-166v121h475v-121zM322 746h-156l-113 149l83 60l111 -126l112 126l80 -60z" />
    <glyph glyph-name="tcaron" unicode="&#x165;" horiz-adv-x="378" 
d="M351 408h-134v-204q0 -30 2 -45q6 -50 46 -50q27 0 57 15l44 -105q-53 -31 -125 -31q-60 0 -100.5 30.5t-55.5 82.5q-10 33 -10 88v219h-63v118h63l22 116h120v-116h134v-118zM373 588h-119l44 217h132z" />
    <glyph glyph-name="Tbar" unicode="&#x166;" horiz-adv-x="491" 
d="M483 579h-166v-162h103v-114h-103v-303h-143v303h-103v114h103v162h-166v121h475v-121z" />
    <glyph glyph-name="tbar" unicode="&#x167;" horiz-adv-x="340" 
d="M352 222h-134v-18q0 -30 2 -45q6 -50 46 -50q27 0 57 15l44 -105q-51 -30 -125 -30q-61 0 -101.5 30t-55.5 82q-10 33 -10 88v33h-64v112h64v74h-63v118h63l22 116h121v-116h134v-118h-134v-74h134v-112z" />
    <glyph glyph-name="Utilde" unicode="&#x168;" horiz-adv-x="716" 
d="M640 700v-370q0 -169 -68.5 -255.5t-215.5 -86.5q-280 0 -280 342v370h143v-389q0 -98 37 -148t102 -50t102 50t37 148v389h143zM457 878l82 9q6 -20 6 -39q0 -46 -31.5 -74.5t-83.5 -28.5q-37 0 -85.5 25.5t-60.5 25.5q-23 0 -25 -23q0 -5 1 -7l-81 -9q-7 23 -7 39
q0 46 32 74.5t84 28.5q36 0 85 -25.5t60 -25.5q10 0 17.5 6t7.5 17q0 5 -1 7z" />
    <glyph glyph-name="utilde" unicode="&#x169;" horiz-adv-x="618" 
d="M548 0h-123l-11 72q-60 -84 -163 -84q-86 0 -140 69q-47 61 -47 196v273h142v-266q0 -81 16 -113q18 -37 70 -37q32 0 63.5 18t50.5 49v349h142v-526zM219 602l-81 -9q-6 19 -6 38q0 46 31.5 74.5t83.5 28.5q37 0 86 -25.5t60 -25.5q23 0 25 23q0 6 -1 7l81 9
q6 -19 6 -38q0 -46 -31.5 -74.5t-83.5 -28.5q-37 0 -86 25.5t-60 25.5q-23 0 -25 -23q0 -6 1 -7z" />
    <glyph glyph-name="Umacron" unicode="&#x16a;" horiz-adv-x="716" 
d="M640 700v-370q0 -169 -68.5 -255.5t-215.5 -86.5q-280 0 -280 342v370h143v-389q0 -98 37 -148t102 -50t102 50t37 148v389h143zM540 772h-364v95h364v-95z" />
    <glyph glyph-name="umacron" unicode="&#x16b;" horiz-adv-x="618" 
d="M548 0h-123l-11 72q-60 -84 -163 -84q-86 0 -140 69q-47 61 -47 196v273h142v-266q0 -81 16 -113q18 -37 70 -37q32 0 63.5 18t50.5 49v349h142v-526zM478 609h-342v98h342v-98z" />
    <glyph glyph-name="Ubreve" unicode="&#x16c;" horiz-adv-x="716" 
d="M640 700v-370q0 -169 -68.5 -255.5t-215.5 -86.5q-280 0 -280 342v370h143v-389q0 -98 37 -148t102 -50t102 50t37 148v389h143zM193 909h104q-1 -5 -1 -13q0 -27 17 -44.5t45 -17.5t46.5 17.5t18.5 44.5q0 8 -1 13h101v-12q0 -68 -47.5 -112t-117.5 -44t-117.5 44
t-47.5 112v12z" />
    <glyph glyph-name="ubreve" unicode="&#x16d;" horiz-adv-x="618" 
d="M548 0h-123l-11 72q-60 -84 -163 -84q-86 0 -140 69q-47 61 -47 196v273h142v-266q0 -81 16 -113q18 -37 70 -37q32 0 63.5 18t50.5 49v349h142v-526zM473 767v-17q0 -69 -48 -116.5t-117 -47.5t-117 47.5t-48 116.5v17h102q-1 -5 -1 -19q0 -28 18.5 -48.5t45.5 -20.5
t46 20.5t19 48.5q0 14 -1 19h101z" />
    <glyph glyph-name="Uring" unicode="&#x16e;" horiz-adv-x="716" 
d="M640 700v-370q0 -169 -68.5 -255.5t-215.5 -86.5q-280 0 -280 342v370h143v-389q0 -98 37 -148t102 -50t102 50t37 148v389h143zM358 943q47 0 80 -33t33 -80t-33 -80t-80 -33t-80 33t-33 80t33 80t80 33zM358 876q-20 0 -33 -13t-13 -33t13 -33t33 -13t33 13t13 33
t-13 33t-33 13z" />
    <glyph glyph-name="uring" unicode="&#x16f;" horiz-adv-x="618" 
d="M548 0h-123l-11 72q-60 -84 -163 -84q-86 0 -140 69q-47 61 -47 196v273h142v-266q0 -81 16 -113q18 -37 70 -37q32 0 63.5 18t50.5 49v349h142v-526zM195 687q0 47 33 80t80 33t80 -33t33 -80t-33 -80t-80 -33t-80 33t-33 80zM263 687q0 -19 13 -32t32 -13t32 13t13 32
t-13 32t-32 13t-32 -13t-13 -32z" />
    <glyph glyph-name="Uhungarumlaut" unicode="&#x170;" horiz-adv-x="716" 
d="M640 700v-370q0 -169 -68.5 -255.5t-215.5 -86.5q-280 0 -280 342v370h143v-389q0 -98 37 -148t102 -50t102 50t37 148v389h143zM645 858l-178 -125l-64 81l168 141zM401 861l-182 -128l-62 77l172 144z" />
    <glyph glyph-name="uhungarumlaut" unicode="&#x171;" horiz-adv-x="618" 
d="M548 0h-123l-11 72q-60 -84 -163 -84q-86 0 -140 69q-47 61 -47 196v273h142v-266q0 -81 16 -113q18 -37 70 -37q32 0 63.5 18t50.5 49v349h142v-526zM384 757l-147 -172l-80 57l132 188zM584 747l-144 -169l-82 62l130 183z" />
    <glyph glyph-name="Uogonek" unicode="&#x172;" horiz-adv-x="716" 
d="M640 700v-370q0 -269 -172 -326q-33 -11 -55.5 -35t-22.5 -52q0 -22 13 -35.5t36 -13.5t47 13l33 -78q-46 -30 -111 -30q-57 0 -95.5 30t-38.5 77q0 70 53 109q-251 17 -251 341v370h143v-389q0 -98 37 -148t102 -50t102 50t37 148v389h143z" />
    <glyph glyph-name="uogonek" unicode="&#x173;" horiz-adv-x="618" 
d="M549 526v-526q-118 -27 -118 -92q0 -40 49 -40q24 0 48 13l33 -78q-48 -30 -112 -30q-57 0 -95.5 30t-38.5 77q0 84 110 125l-10 67q-60 -84 -163 -84q-86 0 -140 69q-47 61 -47 196v273h142v-266q0 -81 16 -113q19 -37 70 -37q32 0 63.5 18t50.5 49v349h142z" />
    <glyph glyph-name="Wcircumflex" unicode="&#x174;" horiz-adv-x="944" 
d="M540 700l120 -448h2l118 448h160l-201 -700h-142l-127 460h-2l-131 -460h-137l-196 700h160l115 -448h2l125 448h134zM397 943h156l113 -149l-82 -60l-111 126l-112 -126l-81 60z" />
    <glyph glyph-name="wcircumflex" unicode="&#x175;" horiz-adv-x="777" 
d="M452 526l86 -325h3l83 325h148l-151 -526h-150l-83 301h-2l-84 -301h-153l-144 526h151l78 -326h2l91 326h125zM320 799h143l112 -168l-80 -48l-105 129l-104 -129l-80 48z" />
    <glyph glyph-name="Ycircumflex" unicode="&#x176;" horiz-adv-x="608" 
d="M370 0h-143v293l-223 407h178l121 -252h2l132 252h167l-234 -411v-289zM229 943h156l113 -149l-82 -60l-111 126l-112 -126l-81 60z" />
    <glyph glyph-name="ycircumflex" unicode="&#x177;" horiz-adv-x="531" 
d="M3 526h155l106 -313h2l108 313h154l-296 -767l-127 49l84 223zM198 799h143l112 -168l-80 -48l-105 129l-104 -129l-80 48z" />
    <glyph glyph-name="Ydieresis" unicode="&#x178;" horiz-adv-x="608" 
d="M370 0h-144v295l-222 405h177l122 -252h2l132 252h167l-234 -411v-289zM251 762h-149v120h149v-120zM516 762h-148v120h148v-120z" />
    <glyph glyph-name="Zacute" unicode="&#x179;" horiz-adv-x="562" 
d="M522 627l-296 -506h320v-121h-513v76l295 503h-287v121h481v-73zM437 861l-182 -128l-64 81l172 144z" />
    <glyph glyph-name="zacute" unicode="&#x17a;" horiz-adv-x="483" 
d="M50 66l200 342h-211v118h398v-65l-202 -343h219v-118h-404v66zM390 750l-147 -172l-82 62l133 186z" />
    <glyph glyph-name="Zdotaccent" unicode="&#x17b;" horiz-adv-x="562" 
d="M522 627l-296 -506h320v-121h-513v76l295 503h-287v121h481v-73zM341 762h-146v120h146v-120z" />
    <glyph glyph-name="zdotaccent" unicode="&#x17c;" horiz-adv-x="483" 
d="M50 66l200 342h-211v118h398v-65l-202 -343h219v-118h-404v66zM306 599h-142v121h142v-121z" />
    <glyph glyph-name="Zcaron" unicode="&#x17d;" horiz-adv-x="562" 
d="M522 627l-296 -506h320v-121h-513v76l295 503h-287v121h481v-73zM358 746h-156l-113 149l83 60l111 -126l112 126l80 -60z" />
    <glyph glyph-name="zcaron" unicode="&#x17e;" horiz-adv-x="483" 
d="M50 66l200 342h-211v118h398v-65l-202 -343h219v-118h-404v66zM313 594h-143l-112 168l81 48l105 -129l104 129l79 -48z" />
    <glyph glyph-name="longs" unicode="&#x17f;" horiz-adv-x="316" 
d="M372 731l-37 -106q-36 19 -70 19q-37 0 -48.5 -21.5t-11.5 -66.5v-556h-139v563q0 96 43.5 147.5t129.5 51.5q62 0 133 -31z" />
    <glyph glyph-name="florin" unicode="&#x192;" 
d="M426 417v-119h-126l-36 -324q-10 -83 -56.5 -128.5t-119.5 -45.5q-44 0 -95 14l28 114q24 -9 51 -9q20 0 32 11.5t15.5 25.5t6.5 40l34 302h-73v119h86l10 86q10 83 57.5 128t123.5 45q75 0 151 -36l-46 -111q-45 29 -90 29q-31 0 -42.5 -19t-15.5 -58l-7 -64h112z" />
    <glyph glyph-name="Aringacute" unicode="&#x1fa;" horiz-adv-x="689" 
d="M356 928q45 0 76.5 -31.5t31.5 -76.5t-31.5 -76.5t-76.5 -31.5t-76.5 31.5t-31.5 76.5t31.5 76.5t76.5 31.5zM356 861q-18 0 -29.5 -12t-11.5 -29q0 -18 11.5 -29.5t29.5 -11.5q17 0 29 11.5t12 29.5q0 17 -12 29t-29 12zM508 1043l-193 -111l-45 69l184 128zM677 0h-165
l-45 130h-249l-47 -130h-159l286 700h116zM345 482l-85 -235h167l-81 235h-1z" />
    <glyph glyph-name="aringacute" unicode="&#x1fb;" horiz-adv-x="575" 
d="M453 896l-195 -115l-46 71l187 130zM190 665q0 44 31 75.5t76 31.5t76 -31.5t31 -75.5t-31 -75.5t-76 -31.5t-76 31.5t-31 75.5zM256 665q0 -17 12 -29t29 -12t29 12t12 29t-12 29t-29 12t-29 -12t-12 -29zM511 0h-123l-11 45q-46 -57 -143 -57q-78 0 -133.5 45
t-55.5 122q0 61 36 101t84.5 54.5t108.5 14.5q43 0 95 -11v8q0 106 -104 106q-71 0 -159 -46l-38 102q110 54 226 54q107 0 162 -58.5t55 -163.5v-316zM369 132v97q-41 9 -72 9q-46 0 -79.5 -19.5t-33.5 -61.5q0 -33 23.5 -51.5t56.5 -18.5q55 0 105 45z" />
    <glyph glyph-name="AEacute" unicode="&#x1fc;" horiz-adv-x="1009" 
d="M956 0h-449v131h-247l-88 -131h-181l516 700h449v-121h-305v-158h305v-121h-305v-179h305v-121zM339 248h168v248zM767 861l-182 -128l-64 81l172 144z" />
    <glyph glyph-name="aeacute" unicode="&#x1fd;" horiz-adv-x="921" 
d="M880 228h-370q8 -56 42.5 -91t89.5 -35q48 0 79 19t58 59l93 -63q-46 -67 -101.5 -98t-138.5 -31q-120 0 -195 77q-47 -45 -95.5 -61t-107.5 -16q-78 0 -133.5 45t-55.5 122q0 61 36 101t84.5 54.5t108.5 14.5q43 0 95 -11v8q0 106 -104 106q-71 0 -159 -46l-38 102
q110 54 226 54q114 0 167 -68q71 68 172 68q110 0 182 -69t72 -174q0 -30 -7 -67zM385 149q-13 33 -18 80q-39 9 -70 9q-46 0 -79.5 -19.5t-33.5 -61.5q0 -33 23.5 -51.5t56.5 -18.5q70 0 121 62zM517 325h225q-2 47 -31.5 74.5t-73.5 27.5q-94 0 -120 -102zM637 750
l-147 -172l-82 62l133 186z" />
    <glyph glyph-name="Oslashacute" unicode="&#x1fe;" horiz-adv-x="831" 
d="M782 350q0 -151 -106 -256.5t-260 -105.5q-84 0 -157 34l-34 -50l-93 61l34 50q-117 107 -117 267q0 151 106 256.5t261 105.5q78 0 152 -32l31 46l93 -61l-30 -45q120 -109 120 -270zM629 350q0 87 -47 151l-250 -370q39 -18 84 -18q92 0 152.5 68.5t60.5 168.5z
M202 350q0 -85 44 -148l249 369q-38 16 -79 16q-92 0 -153 -68t-61 -169zM597 861l-182 -128l-64 81l172 144z" />
    <glyph glyph-name="oslashacute" unicode="&#x1ff;" horiz-adv-x="617" 
d="M490 750l-147 -172l-82 62l133 186zM309 538q62 0 114 -23l24 35l73 -48l-23 -34q87 -81 87 -205q0 -117 -78 -196t-197 -79q-64 0 -120 25l-28 -42l-73 48l28 43q-83 80 -83 201q0 117 78 196t198 79zM439 263q0 49 -22 87l-156 -231q23 -9 48 -9q58 0 94 43.5t36 109.5
zM178 263q0 -45 19 -83l154 229q-23 7 -42 7q-58 0 -94.5 -44t-36.5 -109z" />
    <glyph glyph-name="Scommaaccent" unicode="&#x218;" horiz-adv-x="623" 
d="M468 527q-74 63 -145 63q-38 0 -64.5 -18.5t-26.5 -51.5q0 -11 3.5 -20.5t11.5 -17.5t14.5 -13t21 -11.5t21.5 -9t25 -8.5t23 -8q48 -16 77.5 -30t66.5 -40t55.5 -65.5t18.5 -91.5q0 -72 -42 -123t-100 -72.5t-123 -21.5q-151 0 -268 117l95 93q48 -46 85.5 -67t88.5 -21
q46 0 78.5 22.5t32.5 66.5q0 21 -9.5 37.5t-32.5 30t-40 21t-53 20.5t-56 22t-50 27t-46 37.5t-28.5 51t-12.5 70.5q0 94 67.5 145t161.5 51q123 0 232 -83zM283 -249h-108l36 191h127z" />
    <glyph glyph-name="scommaaccent" unicode="&#x219;" horiz-adv-x="481" 
d="M433 469l-78 -86q-49 44 -104 44q-21 0 -36 -11t-15 -29q0 -22 20.5 -36.5t62.5 -31.5q29 -12 43 -18.5t39.5 -21.5t38 -30t23 -39t10.5 -53q0 -82 -59.5 -125.5t-142.5 -43.5q-122 0 -212 90l81 84q33 -32 60.5 -47t63.5 -15q25 0 46 12t21 34q0 6 -1.5 11.5t-5.5 10.5
t-7.5 9t-10.5 8.5t-12 7.5t-14.5 7.5t-15 7t-16.5 7t-17 7.5q-61 26 -96.5 59.5t-35.5 95.5q0 76 55.5 118.5t132.5 42.5q109 0 182 -69zM222 -249h-108l36 191h127z" />
    <glyph glyph-name="uni021A" unicode="&#x21a;" horiz-adv-x="492" 
d="M483 579h-166v-579h-143v579h-166v121h475v-121zM247 -249h-108l36 191h127z" />
    <glyph glyph-name="uni021B" unicode="&#x21b;" horiz-adv-x="378" 
d="M351 408h-134v-204q0 -30 2 -45q6 -50 46 -50q27 0 57 15l44 -105q-53 -31 -125 -31q-60 0 -100.5 30.5t-55.5 82.5q-10 33 -10 88v219h-63v118h63l22 116h120v-116h134v-118zM199 -249h-108l36 191h127z" />
    <glyph glyph-name="dotlessj" unicode="&#x237;" horiz-adv-x="287" 
d="M218 526v-563q0 -85 -34 -130q-43 -60 -147 -60q-59 0 -114 22l38 112q29 -13 61 -13q33 0 43 20t10 60v552h143z" />
    <glyph glyph-name="apostrophe" unicode="&#x2bc;" horiz-adv-x="360" 
d="M140 750h145l-67 -244h-119z" />
    <glyph glyph-name="circumflex" unicode="&#x2c6;" horiz-adv-x="360" 
d="M109 799h143l112 -168l-80 -48l-105 129l-104 -129l-80 48z" />
    <glyph glyph-name="caron" unicode="&#x2c7;" horiz-adv-x="360" 
d="M250 594h-143l-112 168l81 48l105 -129l104 129l79 -48z" />
    <glyph glyph-name="uni02C9" unicode="&#x2c9;" horiz-adv-x="360" 
d="M351 609h-342v98h342v-98z" />
    <glyph glyph-name="breve" unicode="&#x2d8;" horiz-adv-x="360" 
d="M345 767v-17q0 -69 -48 -116.5t-117 -47.5t-117 47.5t-48 116.5v17h102q-1 -5 -1 -19q0 -28 18.5 -48.5t45.5 -20.5t46 20.5t19 48.5q0 14 -1 19h101z" />
    <glyph glyph-name="dotaccent" unicode="&#x2d9;" horiz-adv-x="360" 
d="M251 599h-142v121h142v-121z" />
    <glyph glyph-name="ring" unicode="&#x2da;" horiz-adv-x="360" 
d="M67 693q0 47 33 80t80 33t80 -33t33 -80t-33 -80t-80 -33t-80 33t-33 80zM135 693q0 -19 13 -32t32 -13t32 13t13 32t-13 32t-32 13t-32 -13t-13 -32z" />
    <glyph glyph-name="ogonek" unicode="&#x2db;" horiz-adv-x="360" 
d="M166 9l117 -2v-7q-112 -26 -112 -92q0 -40 49 -40q22 0 48 13l32 -78q-46 -30 -111 -30q-57 0 -95.5 30t-38.5 77q0 91 111 129z" />
    <glyph glyph-name="tilde" unicode="&#x2dc;" horiz-adv-x="360" 
d="M81 602l-81 -9q-6 19 -6 38q0 46 31.5 74.5t83.5 28.5q37 0 86 -25.5t60 -25.5q23 0 25 23q0 6 -1 7l81 9q6 -19 6 -38q0 -46 -31.5 -74.5t-83.5 -28.5q-37 0 -86 25.5t-60 25.5q-23 0 -25 -23q0 -6 1 -7z" />
    <glyph glyph-name="hungarumlaut" unicode="&#x2dd;" horiz-adv-x="360" 
d="M232 757l-147 -172l-80 57l132 188zM432 747l-144 -169l-82 62l130 183z" />
    <glyph glyph-name="uni0394" unicode="&#x394;" 
d="M560 0h-571l224 577h126zM364 117l-92 249h-2l-90 -249h184z" />
    <glyph glyph-name="uni03A9" unicode="&#x3a9;" horiz-adv-x="794" 
d="M15 111h172q-69 51 -105.5 123.5t-36.5 151.5q0 146 102.5 236t249.5 90t249.5 -90t102.5 -236q0 -79 -36.5 -151.5t-105.5 -123.5h172v-111h-341v122q74 28 118 100t44 155q0 94 -57.5 151.5t-145.5 57.5t-145.5 -57.5t-57.5 -151.5q0 -83 44 -155t118 -100v-122h-341
v111z" />
    <glyph glyph-name="uni03BC" unicode="&#x3bc;" 
d="M33 526h142v-269q0 -33 2 -52.5t9.5 -44.5t26 -37.5t48.5 -12.5q32 0 63 17.5t51 48.5v350h142v-526h-123l-11 72q-61 -84 -163 -84q-22 0 -45 7v-245h-142v776z" />
    <glyph glyph-name="pi" unicode="&#x3c0;" 
d="M16 526h532v-115h-89v-225q0 -22 1 -31q1 -51 53 -61l-53 -114q-63 15 -97.5 57t-40.5 103q-1 10 -1 37v234h-109v-333q0 -37 -7 -78h-142q10 38 10 83v328h-57v115z" />
    <glyph glyph-name="Wgrave" unicode="&#x1e80;" horiz-adv-x="944" 
d="M540 700l120 -448h2l118 448h160l-201 -700h-142l-127 460h-2l-131 -460h-137l-196 700h160l115 -448h2l125 448h134zM489 733l-182 128l74 97l172 -144z" />
    <glyph glyph-name="wgrave" unicode="&#x1e81;" horiz-adv-x="777" 
d="M452 526l86 -325h3l83 325h148l-151 -526h-150l-83 301h-2l-84 -301h-153l-144 526h151l78 -326h2l91 326h125zM363 578l-147 172l96 76l133 -186z" />
    <glyph glyph-name="Wacute" unicode="&#x1e82;" horiz-adv-x="944" 
d="M540 700l120 -448h2l118 448h160l-201 -700h-142l-127 460h-2l-131 -460h-137l-196 700h160l115 -448h2l125 448h134zM654 861l-182 -128l-64 81l172 144z" />
    <glyph glyph-name="wacute" unicode="&#x1e83;" horiz-adv-x="777" 
d="M452 526l86 -325h3l83 325h148l-151 -526h-150l-83 301h-2l-84 -301h-153l-144 526h151l78 -326h2l91 326h125zM560 750l-147 -172l-82 62l133 186z" />
    <glyph glyph-name="Wdieresis" unicode="&#x1e84;" horiz-adv-x="944" 
d="M540 700l120 -448h2l118 448h160l-201 -700h-142l-127 460h-2l-131 -460h-137l-196 700h160l115 -448h2l125 448h134zM409 762h-149v120h149v-120zM686 762h-149v120h149v-120z" />
    <glyph glyph-name="wdieresis" unicode="&#x1e85;" horiz-adv-x="777" 
d="M452 526l86 -325h3l83 325h148l-151 -526h-150l-83 301h-2l-84 -301h-153l-144 526h151l78 -326h2l91 326h125zM341 599h-143v121h143v-121zM582 599h-143v121h143v-121z" />
    <glyph glyph-name="Ygrave" unicode="&#x1ef2;" horiz-adv-x="608" 
d="M370 0h-143v293l-223 407h178l121 -252h2l132 252h167l-234 -411v-289zM332 733l-182 128l74 97l172 -144z" />
    <glyph glyph-name="ygrave" unicode="&#x1ef3;" horiz-adv-x="531" 
d="M3 526h155l106 -313h2l108 313h154l-296 -767l-127 49l84 223zM282 578l-147 172l96 76l133 -186z" />
    <glyph glyph-name="thinspace" unicode="&#x2009;" horiz-adv-x="125" 
 />
    <glyph glyph-name="endash" unicode="&#x2013;" horiz-adv-x="600" 
d="M550 259h-500v119h500v-119z" />
    <glyph glyph-name="emdash" unicode="&#x2014;" horiz-adv-x="900" 
d="M850 259h-800v119h800v-119z" />
    <glyph glyph-name="quoteleft" unicode="&#x2018;" horiz-adv-x="306" 
d="M257 700l-57 -276h-151l73 276h135z" />
    <glyph glyph-name="quoteright" unicode="&#x2019;" horiz-adv-x="306" 
d="M49 424l57 276h151l-73 -276h-135z" />
    <glyph glyph-name="quotesinglbase" unicode="&#x201a;" horiz-adv-x="306" 
d="M49 -127l57 276h151l-73 -276h-135z" />
    <glyph glyph-name="quotedblleft" unicode="&#x201c;" horiz-adv-x="571" 
d="M274 700l-57 -276h-151l73 276h135zM505 700l-57 -276h-151l73 276h135z" />
    <glyph glyph-name="quotedblright" unicode="&#x201d;" horiz-adv-x="571" 
d="M297 424l57 276h151l-73 -276h-135zM66 424l57 276h151l-73 -276h-135z" />
    <glyph glyph-name="quotedblbase" unicode="&#x201e;" horiz-adv-x="571" 
d="M297 -127l57 276h151l-73 -276h-135zM66 -127l57 276h151l-73 -276h-135z" />
    <glyph glyph-name="dagger" unicode="&#x2020;" horiz-adv-x="425" 
d="M155 138v161l3 147l-59 -2h-41v102h41l59 -3l-3 109v48h115v-48l-3 -109l59 3h41v-102h-41l-59 2l3 -147v-161h-115z" />
    <glyph glyph-name="daggerdbl" unicode="&#x2021;" horiz-adv-x="425" 
d="M58 433l99 -2v20v30v26l-99 -2v101l99 -2l-2 96h115l-2 -96l99 2v-101l-99 2v-26v-30v-20l99 2v-101l-99 2l2 -53v-143h-115v143l2 53l-99 -2v101z" />
    <glyph glyph-name="bullet" unicode="&#x2022;" horiz-adv-x="355" 
d="M35 289q0 59 42 101t101 42t100.5 -42t41.5 -101t-41.5 -101t-100.5 -42t-101 42t-42 101z" />
    <glyph glyph-name="ellipsis" unicode="&#x2026;" horiz-adv-x="750" 
d="M207 0h-152v149h152v-149zM694 0h-152v149h152v-149zM451 0h-153v149h153v-149z" />
    <glyph glyph-name="perthousand" unicode="&#x2030;" horiz-adv-x="1248" 
d="M1023 335q73 0 125 -48.5t52 -121.5q0 -74 -52 -122.5t-125 -48.5t-124.5 48.5t-51.5 122.5q0 73 51.5 121.5t124.5 48.5zM1024 235q-29 0 -47 -19.5t-18 -50.5t18 -51t47 -20q27 0 45.5 20t18.5 51q0 30 -18.5 50t-45.5 20zM225 706q73 0 124.5 -48.5t51.5 -122.5
q0 -73 -51.5 -121.5t-124.5 -48.5t-125 48.5t-52 121.5q0 74 52 122.5t125 48.5zM225 606q-29 0 -47 -20t-18 -51t18 -50.5t47 -19.5q28 0 46 19.5t18 50.5t-18 51t-46 20zM632 335q73 0 124.5 -48.5t51.5 -121.5q0 -74 -51.5 -122.5t-124.5 -48.5t-125 48.5t-52 122.5
q0 73 52 121.5t125 48.5zM632 235q-29 0 -47 -19.5t-18 -50.5t18 -51t47 -20q28 0 46 20t18 51t-18 50.5t-46 19.5zM642 718l71 -53l-498 -683l-71 53z" />
    <glyph glyph-name="guilsinglleft" unicode="&#x2039;" horiz-adv-x="337" 
d="M49 325l161 168l77 -105l-126 -121l126 -120l-77 -106l-161 169v115z" />
    <glyph glyph-name="guilsinglright" unicode="&#x203a;" horiz-adv-x="337" 
d="M126 493l161 -168v-116l-161 -168l-77 106l126 120l-126 120z" />
    <glyph glyph-name="fraction" unicode="&#x2044;" horiz-adv-x="149" 
d="M288 718l71 -53l-498 -683l-71 53z" />
    <glyph glyph-name="zerosuperior" unicode="&#x2070;" horiz-adv-x="352" 
d="M176 439q52 0 52 128q0 129 -52 129q-51 0 -51 -129q0 -128 51 -128zM176 775q75 0 116.5 -55.5t41.5 -152.5t-41.5 -152t-116.5 -55t-116 55t-41 152q0 98 41 153t116 55z" />
    <glyph glyph-name="Euro" unicode="&#x20ac;" horiz-adv-x="650" 
d="M14 362v95h85q26 71 81 122.5t117 74t125 22.5q107 0 211 -64l-61 -103q-66 53 -145 53q-125 0 -181 -105h236v-95h-265q-2 -10 -2 -30q0 -23 2 -33h265v-93h-239q28 -54 78 -79t106 -25q85 0 147 56l73 -94q-101 -76 -229 -76q-102 0 -192.5 55.5t-127.5 162.5h-84v93
h66q-2 22 -2 33q0 10 2 30h-66z" />
    <glyph glyph-name="afii61352" unicode="&#x2116;" horiz-adv-x="1143" 
d="M671 0h-129l-321 438v-438h-143v700h126l324 -439v439h143v-700zM936 728q80 0 131.5 -51t51.5 -127t-51.5 -127t-131.5 -51t-131.5 51t-51.5 127t51.5 127t131.5 51zM936 647q-35 0 -56 -27t-21 -70t21 -70t56 -27t56 27t21 70t-21 70t-56 27z" />
    <glyph glyph-name="trademark" unicode="&#x2122;" horiz-adv-x="983" 
d="M363 615h-97v-341h-103v341h-97v85h297v-85zM816 570l-121 -296h-62l-119 298v-298h-101v426h153l99 -258l103 258h150v-426h-102v296z" />
    <glyph glyph-name="Omega" unicode="&#x2126;" horiz-adv-x="794" 
d="M15 111h172q-69 51 -105.5 123.5t-36.5 151.5q0 146 102.5 236t249.5 90t249.5 -90t102.5 -236q0 -79 -36.5 -151.5t-105.5 -123.5h172v-111h-341v122q74 28 118 100t44 155q0 94 -57.5 151.5t-145.5 57.5t-145.5 -57.5t-57.5 -151.5q0 -83 44 -155t118 -100v-122h-341
v111z" />
    <glyph glyph-name="onethird" unicode="&#x2153;" horiz-adv-x="831" 
d="M592 718l71 -53l-498 -683l-71 53zM241 338h-98v258q-29 -16 -57 -26v89q54 27 80 41h75v-362zM569 148l-1 71h8q20 0 31 3q31 8 31 36q0 15 -10 24.5t-29 9.5q-33 0 -39 -33l-77 36q13 35 46 54.5t73 19.5q54 0 93 -26.5t39 -70.5q0 -23 -13.5 -45t-34.5 -33
q29 -10 47 -35.5t18 -55.5q0 -52 -41 -81.5t-97 -29.5q-45 0 -82 20.5t-54 58.5l77 35q14 -37 55 -37q18 0 31.5 10t13.5 29q0 43 -61 43q-12 0 -24 -3z" />
    <glyph glyph-name="twothirds" unicode="&#x2154;" horiz-adv-x="931" 
d="M693 718l71 -53l-499 -683l-71 53zM86 406q80 70 127 127q29 37 29 66q0 15 -9.5 23.5t-24.5 8.5q-16 0 -25.5 -12t-9.5 -32l-93 15q2 50 38.5 78t91.5 28q52 0 91 -28.5t39 -75.5q0 -50 -38 -98q-34 -42 -88 -87h136v-80h-264v67zM669 148l-1 71h8q20 0 31 3q31 8 31 36
q0 15 -10 24.5t-29 9.5q-33 0 -39 -33l-77 36q13 35 46 54.5t73 19.5q54 0 93 -26.5t39 -70.5q0 -23 -13.5 -45t-34.5 -33q29 -10 47 -35.5t18 -55.5q0 -52 -41 -81.5t-97 -29.5q-45 0 -82 20.5t-54 58.5l77 35q14 -37 55 -37q18 0 31.5 10t13.5 29q0 43 -61 43
q-12 0 -24 -3z" />
    <glyph glyph-name="oneeighth" unicode="&#x215b;" horiz-adv-x="841" 
d="M592 718l71 -53l-498 -683l-71 53zM241 338h-98v258q-29 -16 -57 -26v89q54 27 80 41h75v-362zM761 103q0 -50 -41.5 -80t-98.5 -30q-56 0 -97.5 30t-41.5 80q0 59 55 87q-44 30 -44 77q0 43 35.5 73t92.5 30t93 -30t36 -73q0 -47 -45 -77q56 -27 56 -87zM586 263
q0 -15 10 -25t25 -10t25.5 10t10.5 25q0 14 -10.5 24t-25.5 10t-25 -10t-10 -24zM580 106q0 -17 12 -28.5t29 -11.5q18 0 30 11.5t12 28.5t-12 29t-30 12q-17 0 -29 -12t-12 -29z" />
    <glyph glyph-name="threeeighths" unicode="&#x215c;" horiz-adv-x="920" 
d="M671 718l71 -53l-499 -683l-71 53zM172 487l-1 71h8q21 0 31 3q31 8 31 36q0 15 -10 24.5t-29 9.5q-33 0 -39 -33l-77 36q13 35 46 54.5t73 19.5q54 0 93 -26.5t39 -70.5q0 -23 -13.5 -45t-34.5 -33q29 -10 47 -35.5t18 -55.5q0 -52 -41 -81.5t-97 -29.5q-45 0 -82 20.5
t-54 58.5l77 35q14 -37 55 -37q18 0 31.5 10t13.5 29q0 43 -61 43q-12 0 -24 -3zM840 103q0 -50 -41.5 -80t-98.5 -30q-56 0 -97.5 30t-41.5 80q0 59 55 87q-44 30 -44 77q0 43 35.5 73t92.5 30t93 -30t36 -73q0 -47 -45 -77q56 -27 56 -87zM665 263q0 -15 10 -25t25 -10
t25.5 10t10.5 25q0 14 -10.5 24t-25.5 10t-25 -10t-10 -24zM659 106q0 -17 12 -28.5t29 -11.5q18 0 30 11.5t12 28.5t-12 29t-30 12q-17 0 -29 -12t-12 -29z" />
    <glyph glyph-name="fiveeighths" unicode="&#x215d;" horiz-adv-x="910" 
d="M661 718l71 -53l-499 -683l-71 53zM330 620h-133q-1 -24 -5 -60q20 12 48 12q47 0 77 -34t30 -79q0 -54 -38.5 -91t-94.5 -37q-96 0 -134 74l77 37q13 -34 49 -34q20 0 31.5 12.5t11.5 32.5q0 19 -11.5 31t-32.5 12q-24 0 -40 -20l-63 38q8 86 12 186h216v-80zM830 103
q0 -50 -41.5 -80t-98.5 -30q-56 0 -97.5 30t-41.5 80q0 59 55 87q-44 30 -44 77q0 43 35.5 73t92.5 30t93 -30t36 -73q0 -47 -45 -77q56 -27 56 -87zM655 263q0 -15 10 -25t25 -10t25.5 10t10.5 25q0 14 -10.5 24t-25.5 10t-25 -10t-10 -24zM649 106q0 -17 12 -28.5
t29 -11.5q18 0 30 11.5t12 28.5t-12 29t-30 12q-17 0 -29 -12t-12 -29z" />
    <glyph glyph-name="seveneighths" unicode="&#x215e;" horiz-adv-x="846" 
d="M597 718l71 -53l-499 -683l-71 53zM349 644q-61 -116 -150 -326l-90 39q47 111 128 263h-154v80h266v-56zM766 103q0 -50 -41.5 -80t-98.5 -30q-56 0 -97.5 30t-41.5 80q0 59 55 87q-44 30 -44 77q0 43 35.5 73t92.5 30t93 -30t36 -73q0 -47 -45 -77q56 -27 56 -87z
M591 263q0 -15 10 -25t25 -10t25.5 10t10.5 25q0 14 -10.5 24t-25.5 10t-25 -10t-10 -24zM585 106q0 -17 12 -28.5t29 -11.5q18 0 30 11.5t12 28.5t-12 29t-30 12q-17 0 -29 -12t-12 -29z" />
    <glyph glyph-name="uni2192" unicode="&#x2192;" horiz-adv-x="972" 
d="M59 210v108h649l-165 163l77 75l293 -292l-293 -292l-77 75l165 163h-649z" />
    <glyph glyph-name="uni2194" unicode="&#x2194;" horiz-adv-x="1206" 
d="M264 210l165 -163l-77 -75l-293 292l293 292l77 -75l-165 -163h678l-165 163l77 75l293 -292l-293 -292l-77 75l165 163h-678z" />
    <glyph glyph-name="uni21D2" unicode="&#x21d2;" horiz-adv-x="1045" 
d="M59 134v106h751l26 24l-26 24h-751v106h645l-88 87l76 75l294 -292l-294 -292l-76 75l88 87h-645z" />
    <glyph glyph-name="uni21D4" unicode="&#x21d4;" horiz-adv-x="1238" 
d="M897 394l-88 87l76 75l294 -292l-294 -292l-76 75l88 87h-556l88 -87l-76 -75l-294 292l294 292l76 -75l-88 -87h556zM235 288l-26 -24l26 -24h768l26 24l-26 24h-768z" />
    <glyph glyph-name="uni21FD" unicode="&#x21fd;" horiz-adv-x="971" 
d="M396 -64l-337 328l337 327v-273h516v-108h-516v-274zM292 346l-83 -82l83 -83v165z" />
    <glyph glyph-name="uni21FE" unicode="&#x21fe;" horiz-adv-x="971" 
d="M912 264l-337 -328v274h-516v108h516v273zM762 264l-83 82v-165z" />
    <glyph glyph-name="uni21FF" unicode="&#x21ff;" horiz-adv-x="1237" 
d="M396 -64l-337 328l337 327v-273h445v273l337 -327l-337 -328v274h-445v-274zM1028 264l-83 82v-165zM292 346l-83 -82l83 -83v165z" />
    <glyph glyph-name="uni2200" unicode="&#x2200;" horiz-adv-x="689" 
d="M12 700h165l45 -130h249l47 130h159l-286 -700h-116zM344 218l85 235h-167l81 -235h1z" />
    <glyph glyph-name="partialdiff" unicode="&#x2202;" 
d="M25 682l46 113q484 -205 484 -531q0 -121 -79.5 -198.5t-204.5 -77.5q-114 0 -194 82.5t-80 196.5q0 105 75.5 182t182.5 77q14 0 34 -4q-85 84 -264 160zM387 387q-42 21 -87 21q-71 0 -117 -37.5t-46 -102.5q0 -64 39.5 -112.5t101.5 -48.5t99 43.5t37 106.5
q0 68 -27 130z" />
    <glyph glyph-name="uni2203" unicode="&#x2203;" horiz-adv-x="580" 
d="M53 700h449v-700h-449v121h306v158h-306v121h306v179h-306v121z" />
    <glyph glyph-name="uni2204" unicode="&#x2204;" horiz-adv-x="580" 
d="M404 762l-18 -62h116v-700h-317l-23 -82l-95 25l16 57h-30v121h65l45 158h-110v121h145l51 179h-196v121h231l25 87zM359 279h-94l-45 -158h139v158zM359 579h-8l-51 -179h59v179z" />
    <glyph glyph-name="Delta" unicode="&#x2206;" horiz-adv-x="633" 
d="M645 0h-657l271 700h118zM440 121l-125 346h-2l-126 -346h253z" />
    <glyph glyph-name="uni2208" unicode="&#x2208;" 
d="M501 0h-130q-170 0 -251.5 71t-81.5 192t81.5 192t251.5 71h130v-116h-150q-132 0 -169 -89h319v-116h-319q37 -89 169 -89h150v-116z" />
    <glyph glyph-name="uni2209" unicode="&#x2209;" 
d="M165 -100l36 125q-163 59 -163 238q0 116 75 186t231 76l36 126l96 -25l-29 -100h54v-116h-87l-26 -89h113v-116h-146l-26 -89h22h150v-116h-130q-43 0 -74 4l-37 -129zM310 407q-97 -13 -128 -86h103zM252 205h-70q16 -39 53 -62z" />
    <glyph glyph-name="product" unicode="&#x220f;" 
d="M555 461h-87v-461h-140v461h-106v-461h-139v461h-88v116h560v-116z" />
    <glyph glyph-name="summation" unicode="&#x2211;" 
d="M419 365l-190 -244h315v-121h-537v73l235 288l-225 265v74h503v-121h-283z" />
    <glyph glyph-name="minus" unicode="&#x2212;" 
d="M32 371h485v-120h-485v120z" />
    <glyph glyph-name="uni2215" unicode="&#x2215;" horiz-adv-x="405" 
d="M405 723l-290 -783l-115 46l290 782z" />
    <glyph glyph-name="uni2219" unicode="&#x2219;" 
d="M351 239h-153v149h153v-149z" />
    <glyph glyph-name="radical" unicode="&#x221a;" 
d="M569 750l-242 -750h-131l-120 410h-80v116h197l74 -295h2l153 519h147z" />
    <glyph glyph-name="infinity" unicode="&#x221e;" horiz-adv-x="778" 
d="M395 324q50 54 90.5 81t86.5 27q73 0 123 -52.5t50 -127.5t-50 -127t-123 -52q-89 0 -189 108q-50 -54 -90.5 -81t-86.5 -27q-73 0 -123 52.5t-50 128.5q0 74 50 126t123 52q88 0 189 -108zM471 253q61 -63 87 -63q22 0 36.5 19t14.5 44t-14.5 44t-36.5 19q-26 0 -87 -63
zM307 254q-60 62 -87 62q-22 0 -36.5 -18.5t-14.5 -43.5t14.5 -44.5t36.5 -19.5q27 0 87 64z" />
    <glyph glyph-name="uni2229" unicode="&#x2229;" 
d="M500 244v-244h-116v279q0 73 -30 108t-79 35t-79 -35t-30 -108v-279h-116v244q0 150 60 222t166 72q105 0 164.5 -72t59.5 -222z" />
    <glyph glyph-name="uni222A" unicode="&#x222a;" 
d="M50 282v244h116v-279q0 -73 30 -108t79 -35t79 35t30 108v279h116v-244q0 -150 -60 -222t-166 -72q-105 0 -164.5 72t-59.5 222z" />
    <glyph glyph-name="integral" unicode="&#x222b;" 
d="M38 -190l37 110q35 -22 63 -22q21 0 32 14q12 17 14 73l23 584q5 105 51 151q42 42 120 42q66 0 133 -31l-37 -110q-33 21 -68 21q-30 0 -42 -13q-14 -15 -17 -73l-25 -584q-5 -107 -54 -155q-39 -38 -114 -38q-49 0 -116 31z" />
    <glyph glyph-name="uni2234" unicode="&#x2234;" 
d="M204 0h-153v149h153v-149zM352 251h-153v149h153v-149zM500 0h-153v149h153v-149z" />
    <glyph glyph-name="approxequal" unicode="&#x2248;" 
d="M110 131l-81 63q20 48 60.5 77t92.5 29q39 0 98.5 -27t84.5 -27q47 0 75 49l81 -63q-20 -49 -60 -77.5t-93 -28.5q-39 0 -98.5 27t-84.5 27q-47 0 -75 -49zM29 394q21 49 60.5 77.5t92.5 28.5q39 0 98.5 -27t84.5 -27q46 0 75 48l81 -62q-20 -49 -60 -77.5t-93 -28.5
q-39 0 -98.5 27t-84.5 27q-46 0 -75 -49z" />
    <glyph glyph-name="notequal" unicode="&#x2260;" 
d="M32 464h277l90 134l85 -59l-51 -75h84v-113h-160l-54 -80h214v-113h-291l-88 -130l-85 58l48 72h-69v113h145l55 80h-200v113z" />
    <glyph glyph-name="lessequal" unicode="&#x2264;" 
d="M12 447l525 209v-118l-351 -140l351 -140v-119l-525 210v98zM12 113h525v-113h-525v113z" />
    <glyph glyph-name="greaterequal" unicode="&#x2265;" 
d="M12 656l525 -209v-98l-525 -210v119l351 140l-351 140v118zM12 113h525v-113h-525v113z" />
    <glyph glyph-name="uni2282" unicode="&#x2282;" 
d="M501 0h-130q-170 0 -251.5 71t-81.5 192t81.5 192t251.5 71h130v-116h-150q-91 0 -135.5 -41.5t-44.5 -105.5t44.5 -105.5t135.5 -41.5h150v-116z" />
    <glyph glyph-name="uni2283" unicode="&#x2283;" 
d="M179 0h-130v116h150q91 0 135.5 41.5t44.5 105.5t-44.5 105.5t-135.5 41.5h-150v116h130q170 0 251.5 -71t81.5 -192t-81.5 -192t-251.5 -71z" />
    <glyph glyph-name="uni2284" unicode="&#x2284;" 
d="M165 -100l36 125q-163 59 -163 238q0 116 75 186t231 76l36 126l96 -25l-29 -100h54v-116h-87l-85 -294h22h150v-116h-130q-43 0 -74 4l-37 -129zM310 407q-70 -9 -104.5 -48.5t-34.5 -95.5q0 -82 64 -120z" />
    <glyph glyph-name="uni2285" unicode="&#x2285;" 
d="M385 626l-36 -126q163 -59 163 -237q0 -116 -75.5 -186.5t-230.5 -76.5l-36 -125l-96 25l29 100h-54v116h87l84 293q-7 1 -21 1h-150v116h130q28 0 74 -4l37 129zM315 382l-75 -264q70 9 104.5 49t34.5 96q0 79 -64 119z" />
    <glyph glyph-name="uni2286" unicode="&#x2286;" 
d="M501 191h-130q-170 0 -251.5 71t-81.5 192t81.5 192t251.5 71h130v-116h-150q-91 0 -135.5 -41.5t-44.5 -105.5t44.5 -105.5t135.5 -41.5h150v-116zM58 0v116h443v-116h-443z" />
    <glyph glyph-name="uni2287" unicode="&#x2287;" 
d="M179 191h-130v116h150q91 0 135.5 41.5t44.5 105.5t-44.5 105.5t-135.5 41.5h-150v116h130q170 0 251.5 -71t81.5 -192t-81.5 -192t-251.5 -71zM492 116v-116h-443v116h443z" />
    <glyph glyph-name="uni22C4" unicode="&#x22c4;" 
d="M275 -75l-210 325l210 325l210 -325zM189 250l86 -135l86 135l-86 135z" />
    <glyph glyph-name="triangle" unicode="&#x25b3;" horiz-adv-x="398" 
d="M368 286l-308 -175v348z" />
    <glyph glyph-name="lozenge" unicode="&#x25ca;" 
d="M21 350l196 350h116l196 -350l-196 -350h-116zM160 350l114 -208l116 208l-116 208z" />
    <glyph glyph-name="circle" unicode="&#x25cb;" horiz-adv-x="366" 
d="M35 289q0 61 43.5 104.5t104.5 43.5t104.5 -43.5t43.5 -104.5t-43.5 -104.5t-104.5 -43.5t-104.5 43.5t-43.5 104.5z" />
    <glyph glyph-name="uni25FB" unicode="&#x25fb;" 
d="M88 401h374v-374h-374v374zM197 292v-156h156v156h-156z" />
    <glyph glyph-name="commainferior" unicode="&#xf6e1;" horiz-adv-x="164" 
d="M136 -83l-44 -167h-86l34 167h96z" />
    <glyph glyph-name="commasuperior" unicode="&#xf6e2;" horiz-adv-x="164" 
d="M136 462l-44 -167h-86l34 167h96z" />
    <glyph glyph-name="hypheninferior" unicode="&#xf6e5;" horiz-adv-x="277" 
d="M220 -42h-163v74h163v-74z" />
    <glyph glyph-name="hyphensuperior" unicode="&#xf6e6;" horiz-adv-x="277" 
d="M220 503h-163v74h163v-74z" />
    <glyph glyph-name="periodinferior" unicode="&#xf6e7;" horiz-adv-x="153" 
d="M125 -178h-97v94h97v-94z" />
    <glyph glyph-name="periodsuperior" unicode="&#xf6e8;" horiz-adv-x="153" 
d="M125 367h-97v94h97v-94z" />
    <glyph glyph-name="s_t" unicode="&#xfb06;" horiz-adv-x="859" 
d="M433 469l-78 -86q-49 44 -104 44q-21 0 -36 -11t-15 -29q0 -22 20.5 -36.5t62.5 -31.5q29 -12 43 -18.5t39.5 -21.5t38 -30t23 -39t10.5 -53q0 -82 -59.5 -125.5t-142.5 -43.5q-122 0 -212 90l81 84q33 -32 60.5 -47t63.5 -15q25 0 46 12t21 34q0 6 -1.5 11.5t-5.5 10.5
t-7.5 9t-10.5 8.5t-12 7.5t-14.5 7.5t-15 7t-16.5 7t-17 7.5q-61 26 -96.5 59.5t-35.5 95.5q0 76 55.5 118.5t132.5 42.5q109 0 182 -69zM832 408h-134v-204q0 -30 2 -45q6 -50 46 -50q27 0 57 15l44 -105q-53 -31 -125 -31q-60 0 -100.5 30.5t-55.5 82.5q-10 33 -10 88v219
h-63v118h63l22 116h120v-116h134v-118z" />
    <glyph glyph-name="M.salt" horiz-adv-x="847" 
d="M468 142h-91l-159 323v-465h-140v700h172l173 -359h2l173 359h171v-700h-140v469z" />
    <glyph glyph-name="trademark.salt" horiz-adv-x="881" 
d="M413 700h118l95 -199l96 199h117v-426h-101v245l-80 -163h-65l-79 160v-242h-101v426zM363 615h-97v-341h-103v341h-97v85h297v-85z" />
    <glyph glyph-name="hyphen.case" horiz-adv-x="447" 
d="M365 286h-283v118h283v-118z" />
    <glyph glyph-name="zero.lf" horiz-adv-x="562" 
d="M281 676q118 0 183 -91t65 -253t-65 -253t-183 -91t-183 91t-65 253t65 253t183 91zM281 555q-104 0 -104 -223t104 -223t104 223t-104 223z" />
    <glyph glyph-name="one.lf" horiz-adv-x="359" 
d="M281 0h-142v501q-46 -21 -94 -41v128q87 45 143 76h93v-664z" />
    <glyph glyph-name="two.lf" horiz-adv-x="524" 
d="M500 119v-119h-446v105q143 149 226 268q48 70 48 117q0 30 -20.5 49t-52.5 19q-35 0 -55.5 -25.5t-20.5 -68.5l-141 23q7 84 70 136.5t149 52.5q88 0 151.5 -50t63.5 -134q0 -89 -68 -185q-50 -70 -160 -188h256z" />
    <glyph glyph-name="three.lf" horiz-adv-x="536" 
d="M176 279v116q49 0 78 8q32 8 50.5 28.5t18.5 50.5q0 32 -22.5 53t-61.5 21q-31 0 -52.5 -17.5t-27.5 -49.5l-120 52q20 64 75.5 99.5t125.5 35.5q92 0 158.5 -49t66.5 -129q0 -43 -22.5 -82t-59.5 -60q51 -19 81.5 -64t30.5 -100q0 -94 -69 -149t-171 -55
q-73 0 -135.5 37t-91.5 104l119 55q32 -76 109 -76q40 0 67.5 22t27.5 61q0 45 -33.5 69t-88.5 24q-29 0 -53 -5z" />
    <glyph glyph-name="four.lf" horiz-adv-x="553" 
d="M443 0h-140v163h-281v119q107 139 279 382h142v-384h93v-117h-93v-163zM172 280h131v201q-8 -12 -60.5 -94.5t-70.5 -106.5z" />
    <glyph glyph-name="five.lf" horiz-adv-x="516" 
d="M458 664v-119h-230q-3 -73 -10 -137q36 16 77 16q83 0 138 -60.5t55 -143.5q0 -100 -67.5 -166t-167.5 -66q-75 0 -134 34t-91 98l119 60q27 -72 103 -72q42 0 68 30t26 71q0 43 -26 70t-69 27q-51 0 -85 -41l-92 65q16 151 22 334h364z" />
    <glyph glyph-name="six.lf" horiz-adv-x="555" 
d="M385 708l50 -111q-89 -38 -148 -86.5t-87 -117.5q48 40 112 40q90 0 150 -62t60 -151q0 -98 -64.5 -165t-166.5 -67q-117 0 -187.5 80t-70.5 194q0 154 98.5 268.5t253.5 177.5zM175 259q-6 -63 23 -108.5t86 -45.5q43 0 69.5 31t26.5 75q0 49 -29 77t-72 28
q-31 0 -59.5 -15t-44.5 -42z" />
    <glyph glyph-name="seven.lf" horiz-adv-x="477" 
d="M461 664v-89q-157 -328 -273 -606l-127 57q40 94 85.5 192t94.5 198.5t62 128.5h-293v119h451z" />
    <glyph glyph-name="eight.lf" horiz-adv-x="564" 
d="M421 349q49 -29 73.5 -66.5t24.5 -95.5q0 -85 -66.5 -142t-170.5 -57t-170.5 57t-66.5 142q0 58 24.5 95.5t73.5 66.5q-78 49 -78 143q0 83 63.5 133.5t153.5 50.5t153.5 -50.5t63.5 -133.5q0 -94 -78 -143zM282 105q40 0 67 26.5t27 64.5t-27 64.5t-67 26.5t-67 -26.5
t-27 -64.5t27 -64.5t67 -26.5zM282 403q35 0 57 22.5t22 56.5t-22 55.5t-57 21.5t-57 -21.5t-22 -55.5t22 -56.5t57 -22.5z" />
    <glyph glyph-name="nine.lf" horiz-adv-x="555" 
d="M170 -44l-50 111q89 38 148 86.5t87 117.5q-48 -40 -112 -40q-90 0 -150 62t-60 151q0 98 64.5 165t166.5 67q117 0 187.5 -80t70.5 -194q0 -154 -98.5 -268.5t-253.5 -177.5zM380 405q6 63 -23 108.5t-86 45.5q-43 0 -69.5 -31t-26.5 -75q0 -49 29 -77t72 -28
q31 0 59.5 15t44.5 42z" />
    <glyph glyph-name="dollar.lf" 
d="M9 101l90 87q86 -82 158 -82q56 0 86.5 22t30.5 64q0 13 -4 24t-14 20.5t-18 15.5t-26 14t-27.5 12t-33 12.5t-32.5 11.5q-36 13 -61 26t-50.5 34t-39 51.5t-13.5 70.5q0 84 52 133.5t136 56.5v96h83v-98q87 -13 173 -74l-79 -97q-73 59 -144 59q-33 0 -58.5 -18.5
t-25.5 -51.5q0 -10 4 -18.5t13 -15.5t18 -13t25 -12.5t28 -10.5t32.5 -11t32.5 -12q37 -14 63.5 -28t54 -37t42 -56t14.5 -75q0 -87 -56.5 -140t-143.5 -67v-100h-82v96q-122 8 -228 111z" />
    <glyph glyph-name="Euro.lf" horiz-adv-x="650" 
d="M14 362v95h85q26 71 81 122.5t117 74t125 22.5q107 0 211 -64l-61 -103q-66 53 -145 53q-125 0 -181 -105h236v-95h-265q-2 -10 -2 -30q0 -23 2 -33h265v-93h-239q28 -54 78 -79t106 -25q85 0 147 56l73 -94q-101 -76 -229 -76q-102 0 -192.5 55.5t-127.5 162.5h-84v93
h66q-2 22 -2 33q0 10 2 30h-66z" />
    <glyph glyph-name="cent.lf" 
d="M435 189l76 -97q-58 -51 -143 -62v-90h-84v89q-102 14 -165 88t-63 185q0 105 63 181t165 91v91h84v-91q80 -10 143 -61l-72 -100q-48 43 -102 43q-59 0 -98 -45t-39 -109q0 -65 39 -109t95 -44q60 0 101 40z" />
    <glyph glyph-name="sterling.lf" 
d="M508 0h-436v121h54v177h-54v120h54v29q0 100 61 164.5t156 64.5q90 0 171 -48l-55 -108q-45 36 -100 36q-44 0 -69 -31.5t-25 -88.5v-18h128v-120h-128v-177h243v-121z" />
    <glyph glyph-name="yen.lf" 
d="M41 257v94h127l-176 314h160l126 -229h2l118 229h159l-179 -314h126v-94h-162v-56h162v-93h-162v-108h-139v108h-162v93h162v56h-162z" />
    <glyph glyph-name="florin.lf" 
d="M426 417v-119h-126l-36 -324q-10 -83 -56.5 -128.5t-119.5 -45.5q-44 0 -95 14l28 114q24 -9 51 -9q20 0 32 11.5t15.5 25.5t6.5 40l34 302h-73v119h86l10 86q10 83 57.5 128t123.5 45q75 0 151 -36l-46 -111q-45 29 -90 29q-31 0 -42.5 -19t-15.5 -58l-7 -64h112z" />
    <glyph glyph-name="afii61352.lf" horiz-adv-x="1143" 
d="M671 0h-129l-321 438v-438h-143v700h126l324 -439v439h143v-700zM936 728q80 0 131.5 -51t51.5 -127t-51.5 -127t-131.5 -51t-131.5 51t-51.5 127t51.5 127t131.5 51zM936 647q-35 0 -56 -27t-21 -70t21 -70t56 -27t56 27t21 70t-21 70t-56 27z" />
    <glyph glyph-name="percent.lf" horiz-adv-x="856" 
d="M225 706q73 0 124.5 -48.5t51.5 -122.5q0 -73 -51.5 -121.5t-124.5 -48.5t-125 48.5t-52 121.5q0 74 52 122.5t125 48.5zM225 606q-29 0 -47 -20t-18 -51t18 -50.5t47 -19.5q28 0 46 19.5t18 50.5t-18 51t-46 20zM632 335q73 0 124.5 -48.5t51.5 -121.5
q0 -74 -51.5 -122.5t-124.5 -48.5t-125 48.5t-52 122.5q0 73 52 121.5t125 48.5zM632 235q-29 0 -47 -19.5t-18 -50.5t18 -51t47 -20q28 0 46 20t18 51t-18 50.5t-46 19.5zM642 718l71 -53l-498 -683l-71 53z" />
    <glyph glyph-name="perthousand.lf" horiz-adv-x="1248" 
d="M1023 335q73 0 125 -48.5t52 -121.5q0 -74 -52 -122.5t-125 -48.5t-124.5 48.5t-51.5 122.5q0 73 51.5 121.5t124.5 48.5zM1024 235q-29 0 -47 -19.5t-18 -50.5t18 -51t47 -20q27 0 45.5 20t18.5 51q0 30 -18.5 50t-45.5 20zM225 706q73 0 124.5 -48.5t51.5 -122.5
q0 -73 -51.5 -121.5t-124.5 -48.5t-125 48.5t-52 121.5q0 74 52 122.5t125 48.5zM225 606q-29 0 -47 -20t-18 -51t18 -50.5t47 -19.5q28 0 46 19.5t18 50.5t-18 51t-46 20zM632 335q73 0 124.5 -48.5t51.5 -121.5q0 -74 -51.5 -122.5t-124.5 -48.5t-125 48.5t-52 122.5
q0 73 52 121.5t125 48.5zM632 235q-29 0 -47 -19.5t-18 -50.5t18 -51t47 -20q28 0 46 20t18 51t-18 50.5t-46 19.5zM642 718l71 -53l-498 -683l-71 53z" />
    <glyph glyph-name="zero.osf" horiz-adv-x="635" 
d="M317 538q117 0 201 -79t84 -196q0 -118 -84 -196.5t-201 -78.5q-116 0 -200 78.5t-84 196.5t84 196.5t200 78.5zM317 418q-60 0 -100 -43.5t-40 -111.5t40 -111.5t100 -43.5q61 0 101 43.5t40 111.5t-40 111.5t-101 43.5z" />
    <glyph glyph-name="one.osf" horiz-adv-x="359" 
d="M281 0h-142v367q-13 -7 -94 -41v128q73 36 143 75h93v-529z" />
    <glyph glyph-name="two.osf" horiz-adv-x="521" 
d="M181 332l-141 19q1 85 61 136t147 51q89 0 148.5 -46t59.5 -128q0 -76 -92 -159q-45 -39 -121 -86h251v-119h-438v121q136 90 194 141q62 54 62 101q0 27 -18 41.5t-47 14.5q-30 0 -50 -22.5t-16 -64.5z" />
    <glyph glyph-name="three.osf" horiz-adv-x="536" 
d="M176 141v116q49 0 78 8q32 8 50.5 28.5t18.5 50.5q0 32 -22.5 53t-61.5 21q-31 0 -52.5 -17.5t-27.5 -49.5l-120 52q20 64 75.5 99.5t125.5 35.5q92 0 158.5 -49t66.5 -129q0 -43 -22.5 -82t-59.5 -60q51 -19 81.5 -64t30.5 -100q0 -94 -69 -149t-171 -55
q-73 0 -135.5 37t-91.5 104l119 55q32 -76 109 -76q40 0 67.5 22t27.5 61q0 45 -33.5 69t-88.5 24q-29 0 -53 -5z" />
    <glyph glyph-name="four.osf" horiz-adv-x="567" 
d="M551 0h-82v-153h-140v153h-309v120q145 181 321 406h128v-409h82v-117zM172 117h157v205q-32 -44 -157 -205z" />
    <glyph glyph-name="five.osf" horiz-adv-x="516" 
d="M458 526v-119h-230q-3 -73 -10 -137q36 16 77 16q83 0 138 -60.5t55 -143.5q0 -100 -67.5 -166t-167.5 -66q-75 0 -134 34t-91 98l119 60q27 -72 103 -72q42 0 68 30t26 71q0 43 -26 70t-69 27q-51 0 -85 -41l-92 65q16 151 22 334h364z" />
    <glyph glyph-name="six.osf" horiz-adv-x="555" 
d="M385 708l50 -111q-89 -38 -148 -86.5t-87 -117.5q48 40 112 40q90 0 150 -62t60 -151q0 -98 -64.5 -165t-166.5 -67q-117 0 -187.5 80t-70.5 194q0 154 98.5 268.5t253.5 177.5zM175 259q-6 -63 23 -108.5t86 -45.5q43 0 69.5 31t26.5 75q0 49 -29 77t-72 28
q-31 0 -59.5 -15t-44.5 -42z" />
    <glyph glyph-name="seven.osf" horiz-adv-x="477" 
d="M461 526v-89q-157 -328 -273 -606l-127 57q40 94 85.5 192t94.5 198.5t62 128.5h-293v119h451z" />
    <glyph glyph-name="eight.osf" horiz-adv-x="564" 
d="M421 349q49 -29 73.5 -66.5t24.5 -95.5q0 -85 -66.5 -142t-170.5 -57t-170.5 57t-66.5 142q0 58 24.5 95.5t73.5 66.5q-78 49 -78 143q0 83 63.5 133.5t153.5 50.5t153.5 -50.5t63.5 -133.5q0 -94 -78 -143zM282 105q40 0 67 26.5t27 64.5t-27 64.5t-67 26.5t-67 -26.5
t-27 -64.5t27 -64.5t67 -26.5zM282 403q35 0 57 22.5t22 56.5t-22 55.5t-57 21.5t-57 -21.5t-22 -55.5t22 -56.5t57 -22.5z" />
    <glyph glyph-name="nine.osf" horiz-adv-x="555" 
d="M170 -182l-50 111q89 38 148 86.5t87 117.5q-48 -40 -112 -40q-90 0 -150 62t-60 151q0 98 64.5 165t166.5 67q117 0 187.5 -80t70.5 -194q0 -154 -98.5 -268.5t-253.5 -177.5zM380 267q6 63 -23 108.5t-86 45.5q-43 0 -69.5 -31t-26.5 -75q0 -49 29 -77t72 -28
q31 0 59.5 15t44.5 42z" />
    <glyph glyph-name="dollar.osf" 
d="M9 101l90 87q86 -82 158 -82q56 0 86.5 22t30.5 64q0 13 -4 24t-14 20.5t-18 15.5t-26 14t-27.5 12t-33 12.5t-32.5 11.5q-36 13 -61 26t-50.5 34t-39 51.5t-13.5 70.5q0 84 52 133.5t136 56.5v96h83v-98q87 -13 173 -74l-79 -97q-73 59 -144 59q-33 0 -58.5 -18.5
t-25.5 -51.5q0 -10 4 -18.5t13 -15.5t18 -13t25 -12.5t28 -10.5t32.5 -11t32.5 -12q37 -14 63.5 -28t54 -37t42 -56t14.5 -75q0 -87 -56.5 -140t-143.5 -67v-100h-82v96q-122 8 -228 111z" />
    <glyph glyph-name="Euro.osf" horiz-adv-x="650" 
d="M14 362v95h85q26 71 81 122.5t117 74t125 22.5q107 0 211 -64l-61 -103q-66 53 -145 53q-125 0 -181 -105h236v-95h-265q-2 -10 -2 -30q0 -23 2 -33h265v-93h-239q28 -54 78 -79t106 -25q85 0 147 56l73 -94q-101 -76 -229 -76q-102 0 -192.5 55.5t-127.5 162.5h-84v93
h66q-2 22 -2 33q0 10 2 30h-66z" />
    <glyph glyph-name="cent.osf" 
d="M435 189l76 -97q-58 -51 -143 -62v-90h-84v89q-102 14 -165 88t-63 185q0 105 63 181t165 91v91h84v-91q80 -10 143 -61l-72 -100q-48 43 -102 43q-59 0 -98 -45t-39 -109q0 -65 39 -109t95 -44q60 0 101 40z" />
    <glyph glyph-name="sterling.osf" 
d="M508 0h-436v121h54v177h-54v120h54v29q0 100 61 164.5t156 64.5q90 0 171 -48l-55 -108q-45 36 -100 36q-44 0 -69 -31.5t-25 -88.5v-18h128v-120h-128v-177h243v-121z" />
    <glyph glyph-name="yen.osf" 
d="M41 257v94h127l-176 314h160l126 -229h2l118 229h159l-179 -314h126v-94h-162v-56h162v-93h-162v-108h-139v108h-162v93h162v56h-162z" />
    <glyph glyph-name="florin.osf" 
d="M426 417v-119h-126l-36 -324q-10 -83 -56.5 -128.5t-119.5 -45.5q-44 0 -95 14l28 114q24 -9 51 -9q20 0 32 11.5t15.5 25.5t6.5 40l34 302h-73v119h86l10 86q10 83 57.5 128t123.5 45q75 0 151 -36l-46 -111q-45 29 -90 29q-31 0 -42.5 -19t-15.5 -58l-7 -64h112z" />
    <glyph glyph-name="afii61352.osf" horiz-adv-x="1143" 
d="M671 0h-129l-321 438v-438h-143v700h126l324 -439v439h143v-700zM936 728q80 0 131.5 -51t51.5 -127t-51.5 -127t-131.5 -51t-131.5 51t-51.5 127t51.5 127t131.5 51zM936 647q-35 0 -56 -27t-21 -70t21 -70t56 -27t56 27t21 70t-21 70t-56 27z" />
    <glyph glyph-name="percent.osf" horiz-adv-x="856" 
d="M225 706q73 0 124.5 -48.5t51.5 -122.5q0 -73 -51.5 -121.5t-124.5 -48.5t-125 48.5t-52 121.5q0 74 52 122.5t125 48.5zM225 606q-29 0 -47 -20t-18 -51t18 -50.5t47 -19.5q28 0 46 19.5t18 50.5t-18 51t-46 20zM632 335q73 0 124.5 -48.5t51.5 -121.5
q0 -74 -51.5 -122.5t-124.5 -48.5t-125 48.5t-52 122.5q0 73 52 121.5t125 48.5zM632 235q-29 0 -47 -19.5t-18 -50.5t18 -51t47 -20q28 0 46 20t18 51t-18 50.5t-46 19.5zM642 718l71 -53l-498 -683l-71 53z" />
    <glyph glyph-name="perthousand.osf" horiz-adv-x="1248" 
d="M1023 335q73 0 125 -48.5t52 -121.5q0 -74 -52 -122.5t-125 -48.5t-124.5 48.5t-51.5 122.5q0 73 51.5 121.5t124.5 48.5zM1024 235q-29 0 -47 -19.5t-18 -50.5t18 -51t47 -20q27 0 45.5 20t18.5 51q0 30 -18.5 50t-45.5 20zM225 706q73 0 124.5 -48.5t51.5 -122.5
q0 -73 -51.5 -121.5t-124.5 -48.5t-125 48.5t-52 121.5q0 74 52 122.5t125 48.5zM225 606q-29 0 -47 -20t-18 -51t18 -50.5t47 -19.5q28 0 46 19.5t18 50.5t-18 51t-46 20zM632 335q73 0 124.5 -48.5t51.5 -121.5q0 -74 -51.5 -122.5t-124.5 -48.5t-125 48.5t-52 122.5
q0 73 52 121.5t125 48.5zM632 235q-29 0 -47 -19.5t-18 -50.5t18 -51t47 -20q28 0 46 20t18 51t-18 50.5t-46 19.5zM642 718l71 -53l-498 -683l-71 53z" />
    <glyph glyph-name="zero.slash" 
d="M275 676q118 0 183 -91t65 -253t-65 -253t-183 -91t-183 91t-65 253t65 253t183 91zM275 109q90 0 102 173h-205q12 -173 103 -173zM275 555q-90 0 -102 -170h204q-12 170 -102 170z" />
    <glyph glyph-name="zero.tf" 
d="M275 676q118 0 183 -91t65 -253t-65 -253t-183 -91t-183 91t-65 253t65 253t183 91zM275 555q-104 0 -104 -223t104 -223t104 223t-104 223z" />
    <glyph glyph-name="one.tf" 
d="M97 119h145v396q-100 -46 -163 -74v126q108 55 210 108h95v-556h142v-119h-429v119z" />
    <glyph glyph-name="two.tf" 
d="M502 119v-119h-446v105q143 149 226 268q48 70 48 117q0 30 -20.5 49t-52.5 19q-35 0 -55.5 -25.5t-20.5 -68.5l-141 23q7 84 70 136.5t149 52.5q88 0 151.5 -50t63.5 -134q0 -89 -68 -185q-50 -70 -160 -188h256z" />
    <glyph glyph-name="three.tf" 
d="M170 279v116q49 0 78 8q32 8 50.5 28.5t18.5 50.5q0 32 -22.5 53t-61.5 21q-31 0 -52.5 -17.5t-27.5 -49.5l-120 52q20 64 75.5 99.5t125.5 35.5q92 0 158.5 -49t66.5 -129q0 -43 -22.5 -82t-59.5 -60q51 -19 81.5 -64t30.5 -100q0 -94 -69 -149t-171 -55
q-73 0 -135.5 37t-91.5 104l119 55q32 -76 109 -76q40 0 67.5 22t27.5 61q0 45 -33.5 69t-88.5 24q-29 0 -53 -5z" />
    <glyph glyph-name="four.tf" 
d="M434 0h-140v163h-281v119q107 139 279 382h142v-384h93v-117h-93v-163zM163 280h131v201q-8 -12 -60.5 -94.5t-70.5 -106.5z" />
    <glyph glyph-name="five.tf" 
d="M465 664v-119h-230q-3 -73 -10 -137q36 16 77 16q83 0 138 -60.5t55 -143.5q0 -100 -67.5 -166t-167.5 -66q-75 0 -134 34t-91 98l119 60q27 -72 103 -72q42 0 68 30t26 71q0 43 -26 70t-69 27q-51 0 -85 -41l-92 65q16 151 22 334h364z" />
    <glyph glyph-name="six.tf" 
d="M382 708l50 -111q-89 -38 -148 -86.5t-87 -117.5q48 40 112 40q90 0 150 -62t60 -151q0 -98 -64.5 -165t-166.5 -67q-117 0 -187.5 80t-70.5 194q0 154 98.5 268.5t253.5 177.5zM172 259q-6 -63 23 -108.5t86 -45.5q43 0 69.5 31t26.5 75q0 49 -29 77t-72 28
q-31 0 -59.5 -15t-44.5 -42z" />
    <glyph glyph-name="seven.tf" 
d="M501 664v-89q-157 -328 -273 -606l-127 57q40 94 85.5 192t94.5 198.5t62 128.5h-293v119h451z" />
    <glyph glyph-name="eight.tf" 
d="M414 349q49 -29 73.5 -66.5t24.5 -95.5q0 -85 -66.5 -142t-170.5 -57t-170.5 57t-66.5 142q0 58 24.5 95.5t73.5 66.5q-78 49 -78 143q0 83 63.5 133.5t153.5 50.5t153.5 -50.5t63.5 -133.5q0 -94 -78 -143zM275 105q40 0 67 26.5t27 64.5t-27 64.5t-67 26.5t-67 -26.5
t-27 -64.5t27 -64.5t67 -26.5zM275 403q35 0 57 22.5t22 56.5t-22 55.5t-57 21.5t-57 -21.5t-22 -55.5t22 -56.5t57 -22.5z" />
    <glyph glyph-name="nine.tf" 
d="M168 -44l-50 111q89 38 148 86.5t87 117.5q-48 -40 -112 -40q-90 0 -150 62t-60 151q0 98 64.5 165t166.5 67q117 0 187.5 -80t70.5 -194q0 -154 -98.5 -268.5t-253.5 -177.5zM378 405q6 63 -23 108.5t-86 45.5q-43 0 -69.5 -31t-26.5 -75q0 -49 29 -77t72 -28
q31 0 59.5 15t44.5 42z" />
    <glyph glyph-name="dollar.tf" 
d="M9 101l90 87q86 -82 158 -82q56 0 86.5 22t30.5 64q0 13 -4 24t-14 20.5t-18 15.5t-26 14t-27.5 12t-33 12.5t-32.5 11.5q-36 13 -61 26t-50.5 34t-39 51.5t-13.5 70.5q0 84 52 133.5t136 56.5v96h83v-98q87 -13 173 -74l-79 -97q-73 59 -144 59q-33 0 -58.5 -18.5
t-25.5 -51.5q0 -10 4 -18.5t13 -15.5t18 -13t25 -12.5t28 -10.5t32.5 -11t32.5 -12q37 -14 63.5 -28t54 -37t42 -56t14.5 -75q0 -87 -56.5 -140t-143.5 -67v-100h-82v96q-122 8 -228 111z" />
    <glyph glyph-name="Euro.tf" 
d="M16 362v95h75q45 220 235 220q74 0 130.5 -40t77.5 -111l-111 -39q-12 32 -37.5 51t-56.5 19q-72 0 -95 -100h133v-95h-144v-31v-32h144v-93h-134q22 -97 96 -97q37 0 65 27.5t39 70.5l113 -37q-54 -182 -220 -182q-95 0 -154 57.5t-81 160.5h-75v93h63v32v31h-63z" />
    <glyph glyph-name="cent.tf" 
d="M435 189l76 -97q-58 -51 -143 -62v-90h-84v89q-102 14 -165 88t-63 185q0 105 63 181t165 91v91h84v-91q80 -10 143 -61l-72 -100q-48 43 -102 43q-59 0 -98 -45t-39 -109q0 -65 39 -109t95 -44q60 0 101 40z" />
    <glyph glyph-name="sterling.tf" 
d="M508 0h-436v121h54v177h-54v120h54v29q0 100 61 164.5t156 64.5q90 0 171 -48l-55 -108q-45 36 -100 36q-44 0 -69 -31.5t-25 -88.5v-18h128v-120h-128v-177h243v-121z" />
    <glyph glyph-name="yen.tf" 
d="M41 257v94h127l-176 314h160l126 -229h2l118 229h159l-179 -314h126v-94h-162v-56h162v-93h-162v-108h-139v108h-162v93h162v56h-162z" />
    <glyph glyph-name="florin.tf" 
d="M426 417v-119h-126l-36 -324q-10 -83 -56.5 -128.5t-119.5 -45.5q-44 0 -95 14l28 114q24 -9 51 -9q20 0 32 11.5t15.5 25.5t6.5 40l34 302h-73v119h86l10 86q10 83 57.5 128t123.5 45q75 0 151 -36l-46 -111q-45 29 -90 29q-31 0 -42.5 -19t-15.5 -58l-7 -64h112z" />
    <glyph glyph-name="afii61352.tf" horiz-adv-x="1143" 
d="M671 0h-129l-321 438v-438h-143v700h126l324 -439v439h143v-700zM936 728q80 0 131.5 -51t51.5 -127t-51.5 -127t-131.5 -51t-131.5 51t-51.5 127t51.5 127t131.5 51zM936 647q-35 0 -56 -27t-21 -70t21 -70t56 -27t56 27t21 70t-21 70t-56 27z" />
    <glyph glyph-name="percent.tf" horiz-adv-x="856" 
d="M225 706q73 0 124.5 -48.5t51.5 -122.5q0 -73 -51.5 -121.5t-124.5 -48.5t-125 48.5t-52 121.5q0 74 52 122.5t125 48.5zM225 606q-29 0 -47 -20t-18 -51t18 -50.5t47 -19.5q28 0 46 19.5t18 50.5t-18 51t-46 20zM632 335q73 0 124.5 -48.5t51.5 -121.5
q0 -74 -51.5 -122.5t-124.5 -48.5t-125 48.5t-52 122.5q0 73 52 121.5t125 48.5zM632 235q-29 0 -47 -19.5t-18 -50.5t18 -51t47 -20q28 0 46 20t18 51t-18 50.5t-46 19.5zM642 718l71 -53l-498 -683l-71 53z" />
    <glyph glyph-name="perthousand.tf" horiz-adv-x="1248" 
d="M1023 335q73 0 125 -48.5t52 -121.5q0 -74 -52 -122.5t-125 -48.5t-124.5 48.5t-51.5 122.5q0 73 51.5 121.5t124.5 48.5zM1024 235q-29 0 -47 -19.5t-18 -50.5t18 -51t47 -20q27 0 45.5 20t18.5 51q0 30 -18.5 50t-45.5 20zM225 706q73 0 124.5 -48.5t51.5 -122.5
q0 -73 -51.5 -121.5t-124.5 -48.5t-125 48.5t-52 121.5q0 74 52 122.5t125 48.5zM225 606q-29 0 -47 -20t-18 -51t18 -50.5t47 -19.5q28 0 46 19.5t18 50.5t-18 51t-46 20zM632 335q73 0 124.5 -48.5t51.5 -121.5q0 -74 -51.5 -122.5t-124.5 -48.5t-125 48.5t-52 122.5
q0 73 52 121.5t125 48.5zM632 235q-29 0 -47 -19.5t-18 -50.5t18 -51t47 -20q28 0 46 20t18 51t-18 50.5t-46 19.5zM642 718l71 -53l-498 -683l-71 53z" />
    <glyph glyph-name="zeroslash.tosf" 
d="M275 538q115 0 182 -76.5t67 -198.5t-67 -198.5t-182 -76.5t-182 76.5t-67 198.5t67 198.5t182 76.5zM275 108q83 0 101 105h-203q8 -50 34.5 -77.5t67.5 -27.5zM275 418q-41 0 -67 -27t-34 -76h202q-19 103 -101 103z" />
    <glyph glyph-name="zero.tosf" 
d="M275 538q115 0 182 -76.5t67 -198.5t-67 -198.5t-182 -76.5t-182 76.5t-67 198.5t67 198.5t182 76.5zM275 418q-51 0 -78.5 -41t-27.5 -114t27.5 -114t78.5 -41t78.5 41t27.5 114t-27.5 114t-78.5 41z" />
    <glyph glyph-name="one.tosf" 
d="M97 120h145v249q-75 -37 -163 -74v126q117 56 210 108h95v-409h142v-120h-429v120z" />
    <glyph glyph-name="two.tosf" 
d="M188 332l-141 19q1 85 61 136t147 51q89 0 148.5 -46t59.5 -128q0 -76 -92 -159q-45 -39 -121 -86h251v-119h-438v121q136 90 194 141q62 54 62 101q0 27 -18 41.5t-47 14.5q-30 0 -50 -22.5t-16 -64.5z" />
    <glyph glyph-name="three.tosf" 
d="M170 141v116q49 0 78 8q32 8 50.5 28.5t18.5 50.5q0 32 -22.5 53t-61.5 21q-31 0 -52.5 -17.5t-27.5 -49.5l-120 52q20 64 75.5 99.5t125.5 35.5q92 0 158.5 -49t66.5 -129q0 -43 -22.5 -82t-59.5 -60q51 -19 81.5 -64t30.5 -100q0 -94 -69 -149t-171 -55
q-73 0 -135.5 37t-91.5 104l119 55q32 -76 109 -76q40 0 67.5 22t27.5 61q0 45 -33.5 69t-88.5 24q-29 0 -53 -5z" />
    <glyph glyph-name="four.tosf" 
d="M542 0h-82v-153h-140v153h-309v120q145 181 321 406h128v-409h82v-117zM163 117h157v205q-32 -44 -157 -205z" />
    <glyph glyph-name="five.tosf" 
d="M465 526v-119h-230q-3 -73 -10 -137q36 16 77 16q83 0 138 -60.5t55 -143.5q0 -100 -67.5 -166t-167.5 -66q-75 0 -134 34t-91 98l119 60q27 -72 103 -72q42 0 68 30t26 71q0 43 -26 70t-69 27q-51 0 -85 -41l-92 65q16 151 22 334h364z" />
    <glyph glyph-name="six.tosf" 
d="M382 708l50 -111q-89 -38 -148 -86.5t-87 -117.5q48 40 112 40q90 0 150 -62t60 -151q0 -98 -64.5 -165t-166.5 -67q-117 0 -187.5 80t-70.5 194q0 154 98.5 268.5t253.5 177.5zM172 259q-6 -63 23 -108.5t86 -45.5q43 0 69.5 31t26.5 75q0 49 -29 77t-72 28
q-31 0 -59.5 -15t-44.5 -42z" />
    <glyph glyph-name="seven.tosf" 
d="M501 526v-89q-157 -328 -273 -606l-127 57q40 94 85.5 192t94.5 198.5t62 128.5h-293v119h451z" />
    <glyph glyph-name="eight.tosf" 
d="M414 349q49 -29 73.5 -66.5t24.5 -95.5q0 -85 -66.5 -142t-170.5 -57t-170.5 57t-66.5 142q0 58 24.5 95.5t73.5 66.5q-78 49 -78 143q0 83 63.5 133.5t153.5 50.5t153.5 -50.5t63.5 -133.5q0 -94 -78 -143zM275 105q40 0 67 26.5t27 64.5t-27 64.5t-67 26.5t-67 -26.5
t-27 -64.5t27 -64.5t67 -26.5zM275 403q35 0 57 22.5t22 56.5t-22 55.5t-57 21.5t-57 -21.5t-22 -55.5t22 -56.5t57 -22.5z" />
    <glyph glyph-name="nine.tosf" 
d="M168 -182l-50 111q89 38 148 86.5t87 117.5q-48 -40 -112 -40q-90 0 -150 62t-60 151q0 98 64.5 165t166.5 67q117 0 187.5 -80t70.5 -194q0 -154 -98.5 -268.5t-253.5 -177.5zM378 267q6 63 -23 108.5t-86 45.5q-43 0 -69.5 -31t-26.5 -75q0 -49 29 -77t72 -28
q31 0 59.5 15t44.5 42z" />
    <glyph glyph-name="dollar.tosf" 
d="M9 101l90 87q86 -82 158 -82q56 0 86.5 22t30.5 64q0 13 -4 24t-14 20.5t-18 15.5t-26 14t-27.5 12t-33 12.5t-32.5 11.5q-36 13 -61 26t-50.5 34t-39 51.5t-13.5 70.5q0 84 52 133.5t136 56.5v96h83v-98q87 -13 173 -74l-79 -97q-73 59 -144 59q-33 0 -58.5 -18.5
t-25.5 -51.5q0 -10 4 -18.5t13 -15.5t18 -13t25 -12.5t28 -10.5t32.5 -11t32.5 -12q37 -14 63.5 -28t54 -37t42 -56t14.5 -75q0 -87 -56.5 -140t-143.5 -67v-100h-82v96q-122 8 -228 111z" />
    <glyph glyph-name="Euro.tosf" 
d="M16 362v95h75q45 220 235 220q74 0 130.5 -40t77.5 -111l-111 -39q-12 32 -37.5 51t-56.5 19q-72 0 -95 -100h133v-95h-144v-31v-32h144v-93h-134q22 -97 96 -97q37 0 65 27.5t39 70.5l113 -37q-54 -182 -220 -182q-95 0 -154 57.5t-81 160.5h-75v93h63v32v31h-63z" />
    <glyph glyph-name="cent.tosf" 
d="M435 189l76 -97q-58 -51 -143 -62v-90h-84v89q-102 14 -165 88t-63 185q0 105 63 181t165 91v91h84v-91q80 -10 143 -61l-72 -100q-48 43 -102 43q-59 0 -98 -45t-39 -109q0 -65 39 -109t95 -44q60 0 101 40z" />
    <glyph glyph-name="sterling.tosf" 
d="M508 0h-436v121h54v177h-54v120h54v29q0 100 61 164.5t156 64.5q90 0 171 -48l-55 -108q-45 36 -100 36q-44 0 -69 -31.5t-25 -88.5v-18h128v-120h-128v-177h243v-121z" />
    <glyph glyph-name="yen.tosf" 
d="M41 257v94h127l-176 314h160l126 -229h2l118 229h159l-179 -314h126v-94h-162v-56h162v-93h-162v-108h-139v108h-162v93h162v56h-162z" />
    <glyph glyph-name="florin.tosf" 
d="M426 417v-119h-126l-36 -324q-10 -83 -56.5 -128.5t-119.5 -45.5q-44 0 -95 14l28 114q24 -9 51 -9q20 0 32 11.5t15.5 25.5t6.5 40l34 302h-73v119h86l10 86q10 83 57.5 128t123.5 45q75 0 151 -36l-46 -111q-45 29 -90 29q-31 0 -42.5 -19t-15.5 -58l-7 -64h112z" />
    <glyph glyph-name="afii61352.tosf" horiz-adv-x="1143" 
d="M671 0h-129l-321 438v-438h-143v700h126l324 -439v439h143v-700zM936 728q80 0 131.5 -51t51.5 -127t-51.5 -127t-131.5 -51t-131.5 51t-51.5 127t51.5 127t131.5 51zM936 647q-35 0 -56 -27t-21 -70t21 -70t56 -27t56 27t21 70t-21 70t-56 27z" />
    <glyph glyph-name="percent.tosf" horiz-adv-x="856" 
d="M225 706q73 0 124.5 -48.5t51.5 -122.5q0 -73 -51.5 -121.5t-124.5 -48.5t-125 48.5t-52 121.5q0 74 52 122.5t125 48.5zM225 606q-29 0 -47 -20t-18 -51t18 -50.5t47 -19.5q28 0 46 19.5t18 50.5t-18 51t-46 20zM632 335q73 0 124.5 -48.5t51.5 -121.5
q0 -74 -51.5 -122.5t-124.5 -48.5t-125 48.5t-52 122.5q0 73 52 121.5t125 48.5zM632 235q-29 0 -47 -19.5t-18 -50.5t18 -51t47 -20q28 0 46 20t18 51t-18 50.5t-46 19.5zM642 718l71 -53l-498 -683l-71 53z" />
    <glyph glyph-name="perthousand.tosf" horiz-adv-x="1248" 
d="M1023 335q73 0 125 -48.5t52 -121.5q0 -74 -52 -122.5t-125 -48.5t-124.5 48.5t-51.5 122.5q0 73 51.5 121.5t124.5 48.5zM1024 235q-29 0 -47 -19.5t-18 -50.5t18 -51t47 -20q27 0 45.5 20t18.5 51q0 30 -18.5 50t-45.5 20zM225 706q73 0 124.5 -48.5t51.5 -122.5
q0 -73 -51.5 -121.5t-124.5 -48.5t-125 48.5t-52 121.5q0 74 52 122.5t125 48.5zM225 606q-29 0 -47 -20t-18 -51t18 -50.5t47 -19.5q28 0 46 19.5t18 50.5t-18 51t-46 20zM632 335q73 0 124.5 -48.5t51.5 -121.5q0 -74 -51.5 -122.5t-124.5 -48.5t-125 48.5t-52 122.5
q0 73 52 121.5t125 48.5zM632 235q-29 0 -47 -19.5t-18 -50.5t18 -51t47 -20q28 0 46 20t18 51t-18 50.5t-46 19.5zM642 718l71 -53l-498 -683l-71 53z" />
    <glyph glyph-name="germandbls.cap" horiz-adv-x="1218" 
d="M468 527q-74 63 -145 63q-38 0 -64.5 -18.5t-26.5 -51.5q0 -11 3.5 -20.5t11.5 -17.5t14.5 -13t21 -11.5t21.5 -9t25 -8.5t23 -8q48 -16 77.5 -30t66.5 -40t55.5 -65.5t18.5 -91.5q0 -72 -42 -123t-100 -72.5t-123 -21.5q-151 0 -268 117l95 93q48 -46 85.5 -67t88.5 -21
q46 0 78.5 22.5t32.5 66.5q0 21 -9.5 37.5t-32.5 30t-40 21t-53 20.5t-56 22t-50 27t-46 37.5t-28.5 51t-12.5 70.5q0 94 67.5 145t161.5 51q123 0 232 -83zM1077 527q-74 63 -145 63q-38 0 -64.5 -18.5t-26.5 -51.5q0 -11 3.5 -20.5t11.5 -17.5t14.5 -13t21 -11.5t21.5 -9
t25 -8.5t23 -8q48 -16 77.5 -30t66.5 -40t55.5 -65.5t18.5 -91.5q0 -72 -42 -123t-100 -72.5t-123 -21.5q-151 0 -268 117l95 93q48 -46 85.5 -67t88.5 -21q46 0 78.5 22.5t32.5 66.5q0 21 -9.5 37.5t-32.5 30t-40 21t-53 20.5t-56 22t-50 27t-46 37.5t-28.5 51t-12.5 70.5
q0 94 67.5 145t161.5 51q123 0 232 -83z" />
    <glyph glyph-name="idotaccent" horiz-adv-x="280" 
d="M211 0h-142v526h142v-526zM211 599h-142v121h142v-121z" />
    <glyph glyph-name="s_p" horiz-adv-x="1125" 
d="M433 469l-78 -86q-49 44 -104 44q-21 0 -36 -11t-15 -29q0 -22 20.5 -36.5t62.5 -31.5q29 -12 43 -18.5t39.5 -21.5t38 -30t23 -39t10.5 -53q0 -82 -59.5 -125.5t-142.5 -43.5q-122 0 -212 90l81 84q33 -32 60.5 -47t63.5 -15q25 0 46 12t21 34q0 6 -1.5 11.5t-5.5 10.5
t-7.5 9t-10.5 8.5t-12 7.5t-14.5 7.5t-15 7t-16.5 7t-17 7.5q-61 26 -96.5 59.5t-35.5 95.5q0 76 55.5 118.5t132.5 42.5q109 0 182 -69zM550 526h123l11 -65q26 39 71.5 58t91.5 19q104 0 174.5 -80.5t70.5 -196.5q0 -113 -70.5 -193t-175.5 -80q-99 0 -154 63v-301h-142
v776zM692 346v-179q48 -57 122 -57q64 0 98.5 46.5t34.5 108.5t-36 106.5t-95 44.5q-82 0 -124 -70z" />
    <glyph glyph-name="c_t" horiz-adv-x="909" 
d="M413 150l76 -97q-73 -65 -189 -65q-117 0 -192 76.5t-75 198.5q0 116 76.5 195.5t194.5 79.5q106 0 185 -65l-73 -99q-45 42 -102 42q-59 0 -97.5 -44.5t-38.5 -108.5q0 -66 38.5 -109.5t95.5 -43.5q60 0 101 40zM882 408h-134v-204q0 -30 2 -45q6 -50 46 -50q27 0 57 15
l44 -105q-53 -31 -125 -31q-60 0 -100.5 30.5t-55.5 82.5q-10 33 -10 88v219h-63v118h63l22 116h120v-116h134v-118z" />
    <glyph glyph-name="c_h" horiz-adv-x="1129" 
d="M413 150l76 -97q-73 -65 -189 -65q-117 0 -192 76.5t-75 198.5q0 116 76.5 195.5t194.5 79.5q106 0 185 -65l-73 -99q-45 42 -102 42q-59 0 -97.5 -44.5t-38.5 -108.5q0 -66 38.5 -109.5t95.5 -43.5q60 0 101 40zM722 750v-286q61 74 155 74q86 0 140 -69q47 -61 47 -196
v-273h-142v266q0 81 -16 113q-18 37 -70 37q-32 0 -63.5 -18t-50.5 -49v-349h-142v750h142z" />
    <glyph glyph-name="c_k" horiz-adv-x="1066" 
d="M413 150l76 -97q-73 -65 -189 -65q-117 0 -192 76.5t-75 198.5q0 116 76.5 195.5t194.5 79.5q106 0 185 -65l-73 -99q-45 42 -102 42q-59 0 -97.5 -44.5t-38.5 -108.5q0 -66 38.5 -109.5t95.5 -43.5q60 0 101 40zM1068 0h-174l-121 195l-51 -59v-136h-142v750h142v-438h2
l170 214h162l-188 -220z" />
    <glyph glyph-name="T_h" horiz-adv-x="1109" 
d="M483 579h-166v-579h-143v579h-166v121h475v-121zM702 750v-286q61 74 155 74q86 0 140 -69q47 -61 47 -196v-273h-142v266q0 81 -16 113q-18 37 -70 37q-32 0 -63.5 -18t-50.5 -49v-349h-142v750h142z" />
    <glyph glyph-name="foursuperior" horiz-adv-x="351" 
d="M16 545q72 90 168 223h107v-227h52v-77h-52v-97h-102v97h-173v81zM189 541v103q-49 -73 -72 -103h72z" />
    <glyph glyph-name="fivesuperior" horiz-adv-x="332" 
d="M291 691h-148q0 -39 -5 -76q28 13 53 13q52 0 85.5 -37.5t33.5 -88.5q0 -61 -42.5 -101.5t-104.5 -40.5q-105 0 -147 82l76 38q17 -41 59 -41q23 0 37.5 15.5t14.5 37.5q0 23 -14.5 37.5t-38.5 14.5q-29 0 -47 -24l-63 43q7 72 12 205h239v-77z" />
    <glyph glyph-name="sixsuperior" horiz-adv-x="353" 
d="M239 796l31 -80q-104 -34 -132 -105q28 18 64 18q57 0 95 -37t38 -94q0 -62 -42.5 -100t-105.5 -38q-75 0 -121.5 46t-46.5 122q0 100 60.5 168.5t159.5 99.5zM124 522q0 -36 14 -60t43 -24q22 0 35 16t13 38q0 24 -13.5 41t-35.5 17q-33 0 -56 -28z" />
    <glyph glyph-name="sevensuperior" horiz-adv-x="300" 
d="M291 768v-55q-64 -132 -163 -369l-94 44q64 147 145 302h-174v78h286z" />
    <glyph glyph-name="eightsuperior" horiz-adv-x="357" 
d="M317 662q0 -54 -49 -85q61 -37 61 -96q0 -52 -44 -86.5t-107 -34.5t-106.5 34t-43.5 87q0 62 59 96q-48 32 -48 85q0 48 39.5 80.5t99.5 32.5q61 0 100 -32.5t39 -80.5zM178 536q-19 0 -31.5 -14t-12.5 -36q0 -21 12.5 -35t31.5 -14t32 14t13 35q0 22 -13 36t-32 14z
M178 696q-16 0 -26 -11.5t-10 -29.5t10 -30t26 -12t26 12t10 30t-10 29.5t-26 11.5z" />
    <glyph glyph-name="ninesuperior" horiz-adv-x="353" 
d="M115 339l-31 80q104 34 132 105q-28 -18 -64 -18q-57 0 -95 37t-38 94q0 62 42.5 100t105.5 38q75 0 121.5 -46t46.5 -122q0 -100 -60.5 -168.5t-159.5 -99.5zM230 613q0 36 -14 60t-43 24q-22 0 -35 -16t-13 -38q0 -24 13.5 -41t35.5 -17q33 0 56 28z" />
    <glyph glyph-name="parenleftsuperior" horiz-adv-x="232" 
d="M233 324l-38 -63q-177 105 -177 290q0 183 177 291l39 -63q-120 -78 -120 -228q0 -151 119 -227z" />
    <glyph glyph-name="parenrightsuperior" horiz-adv-x="232" 
d="M37 261l-38 63q120 77 120 227q0 149 -120 228l39 63q176 -108 176 -291q0 -185 -177 -290z" />
    <glyph glyph-name="minussuperior" horiz-adv-x="342" 
d="M24 597h294v-80h-294v80z" />
    <glyph glyph-name="plussuperior" horiz-adv-x="341" 
d="M130 407v110h-109v80h109v110h80v-110h110v-80h-110v-110h-80z" />
    <glyph glyph-name="equalsuperior" horiz-adv-x="342" 
d="M24 656h294v-75h-294v75zM24 532h294v-75h-294v75z" />
    <glyph glyph-name="a.sup" horiz-adv-x="349" 
d="M312 367h-85l-5 23q-31 -30 -84 -30q-47 0 -80 25.5t-33 71.5q0 53 39.5 77t98.5 24q27 0 51 -4v5q0 24 -15.5 38t-43.5 14q-47 0 -90 -30l-25 68q65 35 134 35q63 0 100.5 -33.5t37.5 -99.5v-184zM214 500q-16 3 -30 3q-60 0 -60 -42q0 -36 44 -36q23 0 46 18v57z" />
    <glyph glyph-name="b.sup" horiz-adv-x="387" 
d="M39 816h100v-172q36 40 91 40q63 0 100.5 -47.5t37.5 -113.5t-39 -114.5t-105 -48.5q-54 0 -94 37l-4 -30h-87v449zM139 570v-103q24 -27 60 -27q32 0 49.5 24.5t17.5 58.5q0 33 -17.5 57t-48.5 24q-40 0 -61 -34z" />
    <glyph glyph-name="c.sup" horiz-adv-x="309" 
d="M243 464l54 -62q-43 -42 -113 -42t-117.5 44t-47.5 118q0 70 47.5 116t118.5 46q66 0 113 -44l-53 -62q-26 26 -55 26q-32 0 -50.5 -24.5t-18.5 -58.5t18.5 -57.5t49.5 -23.5q28 0 54 24z" />
    <glyph glyph-name="d.sup" horiz-adv-x="387" 
d="M260 367l-4 36q-32 -43 -94 -43q-64 0 -103.5 47.5t-39.5 114.5q0 65 39.5 113.5t101.5 48.5q50 0 89 -34v168h100v-451h-89zM249 578q-26 26 -61 26q-30 0 -48.5 -23.5t-18.5 -59.5q0 -35 18.5 -58t46.5 -23q40 0 63 33v105z" />
    <glyph glyph-name="e.sup" horiz-adv-x="352" 
d="M258 476l63 -43q-51 -73 -142 -73q-70 0 -115 44t-45 114t46.5 118t114.5 48q63 0 108 -41.5t45 -103.5q0 -17 -5 -40h-208q8 -65 66 -65q44 0 72 42zM123 559h108q-2 23 -16.5 37.5t-35.5 14.5q-43 0 -56 -52z" />
    <glyph glyph-name="f.sup" horiz-adv-x="223" 
d="M16 676h32v35q0 114 112 114q43 0 87 -21l-28 -68q-17 12 -40 12q-19 0 -25 -9.5t-6 -31.5v-31h74v-73h-74v-236h-100v236h-32v73z" />
    <glyph glyph-name="g.sup" horiz-adv-x="386" 
d="M349 676v-301q0 -74 -45 -111t-115 -37q-80 0 -149 43l34 74q53 -40 108 -40q31 0 49 17.5t18 49.5v31q-34 -35 -87 -35q-64 0 -103.5 46.5t-39.5 112.5q0 64 39.5 111t101.5 47q57 0 94 -40l6 32h89zM249 480v98q-26 26 -61 26q-30 0 -48.5 -22t-18.5 -57t18.5 -56.5
t46.5 -21.5q40 0 63 33z" />
    <glyph glyph-name="h.sup" horiz-adv-x="378" 
d="M139 816v-176q41 44 90 44q112 0 112 -145v-172h-100v163q0 16 -1 26t-4.5 22.5t-12.5 19t-23 6.5q-32 0 -61 -36v-201h-100v449h100z" />
    <glyph glyph-name="i.sup" horiz-adv-x="178" 
d="M139 367h-100v309h100v-309zM139 720h-100v75h100v-75z" />
    <glyph glyph-name="j.sup" horiz-adv-x="185" 
d="M-41 241l24 72q16 -10 33 -10q30 0 30 40v333h100v-337q0 -58 -28 -85t-87 -27q-36 0 -72 14zM146 720h-100v75h100v-75z" />
    <glyph glyph-name="k.sup" horiz-adv-x="341" 
d="M139 816v-246h1l83 106h111l-110 -129l118 -180h-120l-64 104l-19 -23v-81h-100v449h100z" />
    <glyph glyph-name="l.sup" horiz-adv-x="178" 
d="M139 816v-449h-100v449h100z" />
    <glyph glyph-name="m.sup" horiz-adv-x="555" 
d="M139 367h-100v309h88l4 -37q41 45 87 45q61 0 90 -46q45 46 100 46q111 0 111 -145v-172h-100v163q0 21 -1.5 34.5t-11 26.5t-27.5 13q-27 0 -53 -27q3 -18 3 -38v-172h-100v163q0 22 -1.5 35t-11 26t-27.5 13q-25 0 -50 -25v-212z" />
    <glyph glyph-name="n.sup" horiz-adv-x="378" 
d="M139 367h-100v309h88l5 -44q45 52 96 52q113 0 113 -145v-172h-100v164q0 16 -1 26t-4.5 22.5t-12.5 18.5t-23 6q-32 0 -61 -36v-201z" />
    <glyph glyph-name="o.sup" horiz-adv-x="372" 
d="M186 684q73 0 120 -46.5t47 -115.5q0 -70 -46.5 -116t-120.5 -46t-120.5 46t-46.5 116q0 69 47 115.5t120 46.5zM251 522q0 36 -18 60t-47 24t-47 -24t-18 -60t18 -60t47 -24q30 0 47.5 23.5t17.5 60.5z" />
    <glyph glyph-name="p.sup" horiz-adv-x="387" 
d="M39 676h88l5 -36q32 44 93 44q63 0 103 -48t40 -114q0 -65 -39.5 -113.5t-101.5 -48.5q-52 0 -88 33v-169h-100v452zM139 570v-104q23 -26 60 -26q30 0 48.5 23.5t18.5 59.5q0 35 -18.5 58t-46.5 23q-39 0 -62 -34z" />
    <glyph glyph-name="q.sup" horiz-adv-x="387" 
d="M348 676v-452h-100v175q-36 -39 -92 -39q-63 0 -100 47.5t-37 113.5t38.5 114.5t104.5 48.5q53 0 93 -37l5 29h88zM248 577q-26 27 -61 27q-32 0 -49 -25t-17 -58t17 -57t48 -24q40 0 62 33v104z" />
    <glyph glyph-name="r.sup" horiz-adv-x="240" 
d="M139 367h-100v309h88l4 -38q30 46 73 46q23 0 47 -11l-22 -78q-13 8 -33 8q-34 0 -57 -35v-201z" />
    <glyph glyph-name="s.sup" horiz-adv-x="292" 
d="M266 641l-49 -57q-27 27 -61 27q-24 0 -24 -22q0 -3 1 -5.5t3 -5t4 -4.5t6 -4t7 -4t8 -4t8.5 -3.5t9.5 -4t10 -4.5q35 -15 56.5 -35t21.5 -53q0 -50 -36.5 -76t-87.5 -26q-75 0 -130 54l53 58q39 -39 74 -39q28 0 28 21q0 4 -1.5 7.5t-5 7t-6.5 6t-10 6t-10.5 5t-12 5.5
t-12.5 6q-35 15 -54.5 34t-19.5 53q0 47 34.5 73.5t81.5 26.5q68 0 114 -43z" />
    <glyph glyph-name="t.sup" horiz-adv-x="237" 
d="M202 448l28 -67q-39 -21 -80 -21q-105 0 -105 118v125h-35v73h40l14 70h81v-70h76v-73h-76v-115q0 -17 1 -25t6 -16.5t16 -8.5q15 0 34 10z" />
    <glyph glyph-name="u.sup" horiz-adv-x="378" 
d="M239 676h100v-309h-88l-5 44q-45 -52 -96 -52q-113 0 -113 145v172h100v-164q0 -16 1 -26t4.5 -22.5t12.5 -18.5t23 -6q32 0 61 36v201z" />
    <glyph glyph-name="v.sup" horiz-adv-x="330" 
d="M163 504h2l52 172h110l-126 -309h-83l-115 309h109z" />
    <glyph glyph-name="w.sup" horiz-adv-x="467" 
d="M233 522h-1l-39 -155h-106l-84 309h106l38 -169h2l42 169h87l41 -169h2l40 169h103l-88 -309h-104z" />
    <glyph glyph-name="x.sup" horiz-adv-x="368" 
d="M13 676h123l53 -80l55 80h121l-120 -155l115 -154h-123l-55 83l-58 -83h-121l123 157z" />
    <glyph glyph-name="y.sup" horiz-adv-x="326" 
d="M162 508h2l53 168h107l-174 -450l-89 33l49 130l-107 287h107z" />
    <glyph glyph-name="z.sup" horiz-adv-x="294" 
d="M29 409l112 194h-118v73h246v-40l-116 -196h125v-73h-249v42z" />
    <glyph glyph-name="zeroinferior" horiz-adv-x="352" 
d="M176 -105q52 0 52 128q0 129 -52 129q-51 0 -51 -129q0 -128 51 -128zM176 231q75 0 116.5 -55.5t41.5 -152.5t-41.5 -152t-116.5 -55t-116 55t-41 152q0 98 41 153t116 55z" />
    <glyph glyph-name="oneinferior" horiz-adv-x="229" 
d="M184 -178h-103v291q-20 -10 -56 -23v85q31 15 91 48h68v-401z" />
    <glyph glyph-name="twoinferior" horiz-adv-x="331" 
d="M26 -104q84 73 140 141q32 44 32 74q0 19 -10 29.5t-27 10.5q-18 0 -28 -15.5t-10 -39.5l-104 13q2 55 41.5 88t96.5 33q60 0 103 -31t43 -83q0 -57 -40 -107q-50 -60 -111 -110h163v-77h-289v74z" />
    <glyph glyph-name="threeinferior" horiz-adv-x="347" 
d="M114 -9v72q5 -1 15 -1q15 0 31 4q39 10 39 42q0 19 -12.5 31t-33.5 12q-39 0 -52 -39l-80 36q15 39 51 60.5t82 21.5q62 0 105.5 -29t43.5 -77q0 -59 -57 -88q39 -12 57.5 -40t18.5 -61q0 -54 -45 -87t-111 -33q-51 0 -93 22.5t-59 64.5l80 37q22 -45 65 -45
q25 0 40.5 13.5t15.5 33.5q0 25 -19.5 38.5t-49.5 13.5q-10 0 -32 -2z" />
    <glyph glyph-name="fourinferior" horiz-adv-x="351" 
d="M16 0q72 90 168 223h107v-227h52v-77h-52v-97h-102v97h-173v81zM189 -4v103q-49 -73 -72 -103h72z" />
    <glyph glyph-name="fiveinferior" horiz-adv-x="332" 
d="M291 146h-148q0 -39 -5 -76q28 13 53 13q52 0 85.5 -37.5t33.5 -88.5q0 -61 -42.5 -101.5t-104.5 -40.5q-105 0 -147 82l76 38q17 -41 59 -41q23 0 37.5 15.5t14.5 37.5q0 23 -14.5 37.5t-38.5 14.5q-29 0 -47 -24l-63 43q7 72 12 205h239v-77z" />
    <glyph glyph-name="sixinferior" horiz-adv-x="353" 
d="M239 251l31 -80q-104 -34 -132 -105q28 18 64 18q57 0 95 -37t38 -94q0 -62 -42.5 -100t-105.5 -38q-75 0 -121.5 46t-46.5 122q0 100 60.5 168.5t159.5 99.5zM124 -23q0 -36 14 -60t43 -24q22 0 35 16t13 38q0 24 -13.5 41t-35.5 17q-33 0 -56 -28z" />
    <glyph glyph-name="seveninferior" horiz-adv-x="300" 
d="M291 223v-55q-64 -132 -163 -369l-94 44q64 147 145 302h-174v78h286z" />
    <glyph glyph-name="eightinferior" horiz-adv-x="357" 
d="M317 117q0 -54 -49 -85q61 -37 61 -96q0 -52 -44 -86.5t-107 -34.5t-106.5 34t-43.5 87q0 62 59 96q-48 32 -48 85q0 48 39.5 80.5t99.5 32.5q61 0 100 -32.5t39 -80.5zM178 -9q-19 0 -31.5 -14t-12.5 -36q0 -21 12.5 -35t31.5 -14t32 14t13 35q0 22 -13 36t-32 14z
M178 151q-16 0 -26 -11.5t-10 -29.5t10 -30t26 -12t26 12t10 30t-10 29.5t-26 11.5z" />
    <glyph glyph-name="nineinferior" horiz-adv-x="353" 
d="M115 -206l-31 80q104 34 132 105q-29 -18 -64 -18q-57 0 -95 37t-38 94q0 62 42.5 100t105.5 38q75 0 121.5 -46t46.5 -122q0 -100 -60.5 -168.5t-159.5 -99.5zM230 68q0 36 -14 60t-43 24q-22 0 -35 -16t-13 -38q0 -24 13.5 -41t35.5 -17q33 0 56 28z" />
    <glyph glyph-name="parenleftinferior" horiz-adv-x="232" 
d="M233 -221l-38 -63q-177 105 -177 290q0 183 177 291l39 -63q-120 -78 -120 -228q0 -151 119 -227z" />
    <glyph glyph-name="parenrightinferior" horiz-adv-x="232" 
d="M37 -284l-38 63q120 77 120 227q0 149 -120 228l39 63q176 -108 176 -291q0 -185 -177 -290z" />
    <glyph glyph-name="minusinferior" horiz-adv-x="342" 
d="M24 52h294v-80h-294v80z" />
    <glyph glyph-name="plusinferior" horiz-adv-x="341" 
d="M130 -138v110h-109v80h109v110h80v-110h110v-80h-110v-110h-80z" />
    <glyph glyph-name="equalinferior" horiz-adv-x="342" 
d="M24 111h294v-75h-294v75zM24 -13h294v-75h-294v75z" />
    <glyph glyph-name="a.sinf" horiz-adv-x="349" 
d="M312 -178h-85l-5 23q-31 -30 -84 -30q-47 0 -80 25.5t-33 71.5q0 53 39.5 77t98.5 24q27 0 51 -4v5q0 24 -15.5 38t-43.5 14q-47 0 -90 -30l-25 68q65 35 134 35q63 0 100.5 -33.5t37.5 -99.5v-184zM214 -45q-16 3 -30 3q-60 0 -60 -42q0 -36 44 -36q23 0 46 18v57z" />
    <glyph glyph-name="b.sinf" horiz-adv-x="387" 
d="M39 271h100v-172q36 40 91 40q63 0 100.5 -47.5t37.5 -113.5t-39 -114.5t-105 -48.5q-54 0 -94 37l-4 -30h-87v449zM139 25v-103q24 -27 60 -27q32 0 49.5 24.5t17.5 58.5q0 33 -17.5 57t-48.5 24q-40 0 -61 -34z" />
    <glyph glyph-name="c.sinf" horiz-adv-x="309" 
d="M243 -81l54 -62q-43 -42 -113 -42t-117.5 44t-47.5 118q0 70 47.5 116t118.5 46q66 0 113 -44l-53 -62q-26 26 -55 26q-32 0 -50.5 -24.5t-18.5 -58.5t18.5 -57.5t49.5 -23.5q28 0 54 24z" />
    <glyph glyph-name="d.sinf" horiz-adv-x="387" 
d="M260 -178l-4 36q-32 -43 -94 -43q-64 0 -103.5 47.5t-39.5 114.5q0 65 39.5 113.5t101.5 48.5q50 0 89 -34v168h100v-451h-89zM249 33q-26 26 -61 26q-30 0 -48.5 -23.5t-18.5 -59.5q0 -35 18.5 -58t46.5 -23q40 0 63 33v105z" />
    <glyph glyph-name="e.sinf" horiz-adv-x="353" 
d="M259 -69l63 -43q-51 -73 -142 -73q-70 0 -115 44t-45 114t46.5 118t114.5 48q63 0 108 -41.5t45 -103.5q0 -17 -5 -40h-208q8 -65 66 -65q44 0 72 42zM124 14h108q-2 23 -16.5 37.5t-35.5 14.5q-43 0 -56 -52z" />
    <glyph glyph-name="f.sinf" horiz-adv-x="223" 
d="M16 131h32v35q0 114 112 114q43 0 87 -21l-28 -68q-17 12 -40 12q-19 0 -25 -9.5t-6 -31.5v-31h74v-73h-74v-236h-100v236h-32v73z" />
    <glyph glyph-name="g.sinf" horiz-adv-x="385" 
d="M349 131v-301q0 -74 -45 -111t-115 -37q-80 0 -149 43l34 74q53 -40 108 -40q31 0 49 17.5t18 49.5v31q-34 -35 -87 -35q-64 0 -103.5 47t-39.5 112q0 64 39.5 111t101.5 47q57 0 94 -40l6 32h89zM249 -65v98q-26 26 -61 26q-30 0 -48.5 -22t-18.5 -57t18.5 -56.5
t46.5 -21.5q40 0 63 33z" />
    <glyph glyph-name="h.sinf" horiz-adv-x="378" 
d="M139 271v-176q41 44 90 44q112 0 112 -145v-172h-100v163q0 16 -1 26t-4.5 22.5t-12.5 19t-23 6.5q-32 0 -61 -36v-201h-100v449h100z" />
    <glyph glyph-name="i.sinf" horiz-adv-x="178" 
d="M139 -178h-100v309h100v-309zM139 175h-100v75h100v-75z" />
    <glyph glyph-name="j.sinf" horiz-adv-x="185" 
d="M-41 -304l24 72q16 -10 33 -10q30 0 30 40v333h100v-337q0 -58 -28 -85t-87 -27q-36 0 -72 14zM146 175h-100v75h100v-75z" />
    <glyph glyph-name="k.sinf" horiz-adv-x="341" 
d="M139 271v-246h1l83 106h111l-110 -129l118 -180h-120l-64 104l-19 -23v-81h-100v449h100z" />
    <glyph glyph-name="l.sinf" horiz-adv-x="178" 
d="M139 271v-449h-100v449h100z" />
    <glyph glyph-name="m.sinf" horiz-adv-x="555" 
d="M139 -178h-100v309h88l4 -37q41 45 87 45q61 0 90 -46q45 46 100 46q111 0 111 -145v-172h-100v163q0 21 -1.5 34.5t-11 26.5t-27.5 13q-27 0 -53 -27q3 -18 3 -38v-172h-100v163q0 22 -1.5 35t-11 26t-27.5 13q-25 0 -50 -25v-212z" />
    <glyph glyph-name="n.sinf" horiz-adv-x="378" 
d="M139 -178h-100v309h88l5 -44q45 52 96 52q113 0 113 -145v-172h-100v164q0 16 -1 26t-4.5 22.5t-12.5 18.5t-23 6q-32 0 -61 -36v-201z" />
    <glyph glyph-name="o.sinf" horiz-adv-x="372" 
d="M186 139q73 0 120 -46.5t47 -115.5q0 -70 -46.5 -116t-120.5 -46t-120.5 46t-46.5 116q0 69 47 115.5t120 46.5zM251 -23q0 36 -18 60t-47 24t-47 -24t-18 -60t18 -60t47 -24q30 0 47.5 23.5t17.5 60.5z" />
    <glyph glyph-name="p.sinf" horiz-adv-x="387" 
d="M39 131h88l5 -36q32 44 93 44q63 0 103 -48t40 -114q0 -65 -39.5 -113.5t-101.5 -48.5q-52 0 -88 33v-169h-100v452zM139 25v-104q23 -26 60 -26q30 0 48.5 23.5t18.5 59.5q0 35 -18.5 58t-46.5 23q-39 0 -62 -34z" />
    <glyph glyph-name="q.sinf" horiz-adv-x="387" 
d="M349 131v-452h-100v175q-36 -39 -92 -39q-63 0 -100 47.5t-37 113.5t38.5 114.5t104.5 48.5q53 0 93 -37l5 29h88zM249 32q-26 27 -61 27q-32 0 -49 -25t-17 -58t17 -57t48 -24q40 0 62 33v104z" />
    <glyph glyph-name="r.sinf" horiz-adv-x="240" 
d="M139 -178h-100v309h88l4 -38q30 46 73 46q23 0 47 -11l-22 -78q-13 8 -33 8q-34 0 -57 -35v-201z" />
    <glyph glyph-name="s.sinf" horiz-adv-x="292" 
d="M266 96l-49 -57q-27 27 -61 27q-24 0 -24 -22q0 -3 1 -5.5t3 -5t4 -4.5t6 -4t7 -4t8 -4t8.5 -3.5t9.5 -4t10 -4.5q35 -15 56.5 -35t21.5 -53q0 -51 -36.5 -76.5t-87.5 -25.5q-75 0 -130 54l53 58q39 -39 74 -39q28 0 28 21q0 4 -1.5 7.5t-5 7t-6.5 6t-10 6t-10.5 5
t-12 5.5t-12.5 6q-35 15 -54.5 34t-19.5 53q0 47 34.5 73.5t81.5 26.5q68 0 114 -43z" />
    <glyph glyph-name="t.sinf" horiz-adv-x="237" 
d="M202 -97l28 -67q-39 -21 -80 -21q-105 0 -105 118v125h-35v73h40l14 70h81v-70h76v-73h-76v-115q0 -17 1 -25t6 -16.5t16 -8.5q15 0 34 10z" />
    <glyph glyph-name="u.sinf" horiz-adv-x="378" 
d="M239 131h100v-309h-88l-5 44q-45 -52 -96 -52q-113 0 -113 145v172h100v-164q0 -16 1 -26t4.5 -22.5t12.5 -18.5t23 -6q32 0 61 36v201z" />
    <glyph glyph-name="v.sinf" horiz-adv-x="330" 
d="M163 -41h2l52 172h110l-126 -309h-83l-115 309h109z" />
    <glyph glyph-name="w.sinf" horiz-adv-x="467" 
d="M233 -23h-1l-39 -155h-106l-84 309h106l38 -169h2l42 169h87l41 -169h2l40 169h103l-88 -309h-104z" />
    <glyph glyph-name="x.sinf" horiz-adv-x="368" 
d="M13 131h123l53 -80l55 80h121l-120 -155l115 -154h-123l-55 83l-58 -83h-121l123 157z" />
    <glyph glyph-name="y.sinf" horiz-adv-x="326" 
d="M162 -37h2l53 168h107l-174 -450l-89 33l49 130l-107 287h107z" />
    <glyph glyph-name="z.sinf" horiz-adv-x="294" 
d="M29 -136l112 194h-118v73h246v-40l-116 -196h125v-73h-249v42z" />
    <glyph glyph-name="zero.num" horiz-adv-x="339" 
d="M170 626q-47 0 -47 -106q0 -107 47 -107q46 0 46 107q0 106 -46 106zM315 520q0 -88 -38.5 -138.5t-106.5 -50.5q-70 0 -108 50.5t-38 138.5q0 87 38 137.5t108 50.5q68 0 106.5 -50.5t38.5 -137.5z" />
    <glyph glyph-name="one.num" horiz-adv-x="256" 
d="M199 338h-98v258q-26 -14 -57 -26v89q54 27 80 41h75v-362z" />
    <glyph glyph-name="two.num" horiz-adv-x="321" 
d="M36 406q80 70 127 127q29 37 29 66q0 15 -9.5 23.5t-24.5 8.5q-16 0 -25.5 -12t-9.5 -32l-93 15q2 50 38.5 78t91.5 28q52 0 91 -28.5t39 -75.5q0 -50 -38 -98q-34 -42 -88 -87h136v-80h-264v67z" />
    <glyph glyph-name="three.num" horiz-adv-x="326" 
d="M108 487l-1 71h8q21 0 31 3q31 8 31 36q0 15 -10 24.5t-29 9.5q-33 0 -39 -33l-77 36q13 35 46 54.5t73 19.5q54 0 93 -26.5t39 -70.5q0 -23 -13.5 -45t-34.5 -33q29 -10 47 -35.5t18 -55.5q0 -52 -41 -81.5t-97 -29.5q-45 0 -82 20.5t-54 58.5l77 35q14 -37 55 -37
q18 0 31.5 10t13.5 29q0 43 -61 43q-12 0 -24 -3z" />
    <glyph glyph-name="four.num" horiz-adv-x="331" 
d="M21 499q63 80 151 201h101v-204h46v-78h-46v-79h-96v79h-156v81zM177 496v91q-36 -55 -63 -91h63z" />
    <glyph glyph-name="five.num" horiz-adv-x="315" 
d="M268 620h-133q-1 -24 -5 -60q20 12 48 12q47 0 77 -34t30 -79q0 -54 -38.5 -91t-94.5 -37q-96 0 -134 74l77 37q14 -34 49 -34q20 0 32 13t12 32t-12 31t-33 12q-24 0 -39 -20l-64 38q8 86 12 186h216v-80z" />
    <glyph glyph-name="six.num" horiz-adv-x="336" 
d="M226 725l31 -75q-91 -30 -119 -93q24 16 54 16q52 0 86 -33t34 -84q0 -56 -38 -90.5t-95 -34.5q-69 0 -112 42t-43 109q0 91 55.5 152.5t146.5 90.5zM122 476q0 -68 50 -68q21 0 31.5 13.5t10.5 32.5q0 22 -12.5 34.5t-32.5 12.5q-31 0 -47 -25z" />
    <glyph glyph-name="seven.num" horiz-adv-x="284" 
d="M272 644q-61 -116 -150 -326l-90 39q47 111 128 263h-154v80h266v-56z" />
    <glyph glyph-name="eight.num" horiz-adv-x="351" 
d="M315 441q0 -50 -41.5 -80t-98.5 -30q-56 0 -97.5 30t-41.5 80q0 59 55 87q-44 30 -44 77q0 43 35.5 73t92.5 30t93 -30t36 -73q0 -47 -45 -77q56 -27 56 -87zM140 601q0 -15 10 -25t25 -10t25.5 10t10.5 25q0 14 -10.5 24t-25.5 10t-25 -10t-10 -24zM134 444
q0 -17 12 -28.5t29 -11.5q18 0 30 11.5t12 28.5t-12 29t-30 12q-17 0 -29 -12t-12 -29z" />
    <glyph glyph-name="nine.num" horiz-adv-x="336" 
d="M110 314l-31 75q91 30 119 93q-24 -16 -54 -16q-52 0 -86 33t-34 84q0 56 38 90.5t95 34.5q69 0 112 -42t43 -109q0 -91 -55.5 -152.5t-146.5 -90.5zM214 563q0 68 -50 68q-21 0 -31.5 -13.5t-10.5 -32.5q0 -22 12.5 -34.5t32.5 -12.5q31 0 47 25z" />
    <glyph glyph-name="parenleft.ordn" horiz-adv-x="260" 
d="M259 334l-42 -69q-195 119 -195 323q0 205 194 322l44 -69q-134 -84 -134 -253t133 -254z" />
    <glyph glyph-name="parenright.ordn" horiz-adv-x="260" 
d="M43 265l-43 69q134 86 134 254q0 169 -134 253l43 69q195 -118 195 -322q0 -203 -195 -323z" />
    <glyph glyph-name="hyphen.ordn" horiz-adv-x="308" 
d="M245 535h-182v81h182v-81z" />
    <glyph glyph-name="comma.ordn" horiz-adv-x="181" 
d="M149 488l-49 -185h-93l37 185h105z" />
    <glyph glyph-name="period.ordn" horiz-adv-x="173" 
d="M140 385h-107v103h107v-103z" />
    <glyph glyph-name="minus.ordn" horiz-adv-x="381" 
d="M28 637h324v-86h-324v86z" />
    <glyph glyph-name="plus.ordn" horiz-adv-x="377" 
d="M145 428v123h-123v86h123v123h87v-123h123v-86h-123v-123h-87z" />
    <glyph glyph-name="equal.ordn" horiz-adv-x="381" 
d="M28 703h324v-82h-324v82zM28 567h324v-82h-324v82z" />
    <glyph glyph-name="a.ordn" horiz-adv-x="389" 
d="M46 697q76 37 147 37q69 0 109.5 -36.5t40.5 -109.5v-202h-90l-6 27q-32 -35 -94 -35q-49 0 -85.5 28t-36.5 78q0 59 43.5 85.5t107.5 26.5q23 0 58 -5v4q-3 59 -68 59q-51 0 -100 -32zM240 532q-19 4 -36 4q-28 0 -47.5 -11.5t-19.5 -35.5q0 -39 47 -39q32 0 56 21v61z
" />
    <glyph glyph-name="b.ordn" horiz-adv-x="434" 
d="M49 886h104v-199q41 47 104 47q70 0 111.5 -52t41.5 -125q0 -72 -43 -125.5t-116 -53.5q-59 0 -106 42l-3 -34h-93v500zM153 612v-121q31 -32 72 -32q37 0 58 29t21 68t-21 68t-57 29q-48 0 -73 -41z" />
    <glyph glyph-name="c.ordn" horiz-adv-x="342" 
d="M328 687l-53 -65q-28 31 -64 31q-38 0 -60 -29t-22 -69q0 -41 22 -68.5t59 -27.5q32 0 63 28l56 -63q-49 -46 -124 -46q-79 0 -130.5 48.5t-51.5 129.5q0 77 52.5 127.5t130.5 50.5q75 0 122 -47z" />
    <glyph glyph-name="d.ordn" horiz-adv-x="434" 
d="M281 886h104v-500h-93l-5 40q-39 -48 -109 -48q-69 0 -112 51.5t-43 125.5q0 72 43.5 125.5t113.5 53.5q57 0 101 -41v193zM281 499v121q-30 33 -72 33q-38 0 -59 -29t-21 -68t21 -68t57 -29q47 0 74 40z" />
    <glyph glyph-name="e.ordn" horiz-adv-x="391" 
d="M287 505l69 -47q-58 -80 -156 -80q-77 0 -127 48.5t-50 126.5q0 77 51 129t127 52q69 0 118 -45.5t49 -113.5q0 -19 -5 -44h-230q4 -34 23 -53.5t51 -19.5q49 0 80 47zM137 597h121q-2 26 -18 42.5t-41 16.5q-49 0 -62 -59z" />
    <glyph glyph-name="f.ordn" horiz-adv-x="245" 
d="M20 726h38v43q0 125 120 125q49 0 95 -23l-30 -71q-23 13 -46 13q-20 0 -27.5 -11t-7.5 -35v-41h83v-76h-83v-264h-104v264h-38v76z" />
    <glyph glyph-name="g.ordn" horiz-adv-x="430" 
d="M293 726h92v-328q0 -81 -49.5 -122t-125.5 -41q-86 0 -164 47l37 77q58 -43 119 -43q36 0 57.5 19.5t21.5 55.5v36q-40 -41 -103 -41q-69 0 -112 50.5t-43 122.5q0 70 43.5 122.5t113.5 52.5q62 0 105 -46zM281 507v113q-30 33 -72 33q-37 0 -58.5 -28t-21.5 -65t21 -65
t57 -28q48 0 74 40z" />
    <glyph glyph-name="h.ordn" horiz-adv-x="426" 
d="M49 886h104v-206q47 54 104 54q123 0 123 -159v-189h-104v185q0 17 -1 28.5t-5 25.5t-14 21t-26 7q-41 0 -77 -46v-221h-104v500z" />
    <glyph glyph-name="i.ordn" horiz-adv-x="202" 
d="M49 726h104v-340h-104v340zM49 858h104v-82h-104v82z" />
    <glyph glyph-name="j.ordn" horiz-adv-x="201" 
d="M48 726h104v-369q0 -62 -30.5 -92t-94.5 -30q-41 0 -80 15l27 76q17 -10 36 -10q23 0 30.5 11.5t7.5 33.5v365zM48 858h104v-82h-104v82z" />
    <glyph glyph-name="k.ordn" horiz-adv-x="375" 
d="M49 886h104v-283l98 123h120l-122 -143l128 -197h-126l-71 118l-27 -33v-85h-104v500z" />
    <glyph glyph-name="l.ordn" horiz-adv-x="202" 
d="M49 886h104v-500h-104v500z" />
    <glyph glyph-name="m.ordn" horiz-adv-x="633" 
d="M49 726h93l5 -50q52 58 110 58q70 0 97 -63q51 63 111 63q122 0 122 -159v-189h-104v185q0 17 -1 28.5t-5 25.5t-14 21t-25 7q-33 0 -70 -43q2 -11 2 -35v-189h-104v185q0 23 -2 38t-11.5 29.5t-28.5 14.5q-34 0 -71 -44v-223h-104v340z" />
    <glyph glyph-name="n.ordn" horiz-adv-x="426" 
d="M49 726h93l5 -52q53 60 110 60q123 0 123 -159v-189h-104v185q0 17 -1 28.5t-5 25.5t-14 21t-26 7q-41 0 -77 -46v-221h-104v340z" />
    <glyph glyph-name="o.ordn" horiz-adv-x="413" 
d="M206 734q80 0 131.5 -51t51.5 -127t-51.5 -127t-131.5 -51t-131.5 51t-51.5 127t51.5 127t131.5 51zM206 653q-35 0 -56 -27t-21 -70t21 -70t56 -27t56 27t21 70t-21 70t-56 27z" />
    <glyph glyph-name="p.ordn" horiz-adv-x="434" 
d="M49 726h93l4 -41q42 49 109 49q69 0 112 -51.5t43 -125.5q0 -73 -43 -126t-114 -53q-57 0 -100 40v-198h-104v506zM153 612v-121q31 -32 72 -32q37 0 58 29t21 68t-21 68t-57 29q-48 0 -73 -41z" />
    <glyph glyph-name="q.ordn" horiz-adv-x="434" 
d="M292 726h93v-506h-104v205q-43 -47 -105 -47q-69 0 -111 52t-42 125q0 72 43.5 125.5t116.5 53.5q59 0 105 -43zM281 499v121q-30 33 -72 33q-38 0 -59 -29t-21 -68t21 -68t57 -29q47 0 74 40z" />
    <glyph glyph-name="r.ordn" horiz-adv-x="270" 
d="M49 726h93l5 -53q38 61 86 61q22 0 48 -12l-25 -79q-18 9 -33 9q-39 0 -70 -49v-217h-104v340z" />
    <glyph glyph-name="s.ordn" horiz-adv-x="325" 
d="M17 436l51 61q43 -45 91 -45q36 0 36 27q0 6 -3 11t-12 10.5t-14.5 8.5t-20 9.5t-20.5 9.5q-38 17 -60 39.5t-22 60.5q0 51 37.5 78.5t89.5 27.5q76 0 122 -45l-48 -60q-41 31 -73 31q-33 0 -33 -24q0 -6 3.5 -10.5t11.5 -9.5t14 -7.5t20 -8t20 -8.5q39 -17 61.5 -39.5
t22.5 -60.5q0 -55 -39.5 -84.5t-94.5 -29.5q-82 0 -140 58z" />
    <glyph glyph-name="t.ordn" horiz-adv-x="253" 
d="M10 726h42l15 78h83v-78h84v-76h-84v-131q0 -18 1 -28t7 -19t18 -9q20 0 37 11l31 -74q-43 -22 -86 -22q-112 0 -112 130v142h-36v76z" />
    <glyph glyph-name="u.ordn" horiz-adv-x="426" 
d="M46 726h104v-185q0 -17 1 -28.5t5 -25.5t14 -21t26 -7q41 0 77 46v221h104v-340h-93l-5 52q-53 -60 -110 -60q-123 0 -123 159v189z" />
    <glyph glyph-name="v.ordn" horiz-adv-x="386" 
d="M4 726h116l73 -234h1l73 234h115l-136 -340h-114z" />
    <glyph glyph-name="w.ordn" horiz-adv-x="529" 
d="M4 726h113l43 -207h1l46 207h115l44 -207h2l44 207h113l-104 -340h-109l-47 194h-1l-47 -194h-118z" />
    <glyph glyph-name="x.ordn" horiz-adv-x="404" 
d="M12 726h131l65 -101l63 101h130l-124 -166l124 -174h-131l-68 107l-68 -107h-130l128 171z" />
    <glyph glyph-name="y.ordn" horiz-adv-x="383" 
d="M3 726h116l72 -231h2l73 231h113l-196 -513l-95 36l47 127z" />
    <glyph glyph-name="z.ordn" horiz-adv-x="329" 
d="M28 726h269v-43l-129 -221h140v-76h-273v46l126 218h-133v76z" />
    <glyph glyph-name="zero.denom" horiz-adv-x="339" 
d="M170 287q-47 0 -47 -106q0 -107 47 -107q46 0 46 107q0 106 -46 106zM315 181q0 -88 -38.5 -138.5t-106.5 -50.5q-70 0 -108 50.5t-38 138.5q0 87 38 137.5t108 50.5q68 0 106.5 -50.5t38.5 -137.5z" />
    <glyph glyph-name="one.denom" horiz-adv-x="256" 
d="M199 0h-98v258q-26 -14 -57 -26v89q54 27 80 41h75v-362z" />
    <glyph glyph-name="two.denom" horiz-adv-x="321" 
d="M36 67q80 70 127 127q29 37 29 66q0 15 -9.5 23.5t-24.5 8.5q-16 0 -25.5 -12t-9.5 -32l-93 15q2 50 38.5 78t91.5 28q52 0 91 -28.5t39 -75.5q0 -50 -38 -98q-34 -42 -88 -87h136v-80h-264v67z" />
    <glyph glyph-name="three.denom" horiz-adv-x="326" 
d="M108 148l-1 71h8q21 0 31 3q31 8 31 36q0 15 -10 24.5t-29 9.5q-33 0 -39 -33l-77 36q13 35 46 54.5t73 19.5q54 0 93 -26.5t39 -70.5q0 -23 -13.5 -45t-34.5 -33q29 -10 47 -35.5t18 -55.5q0 -52 -41 -81.5t-97 -29.5q-45 0 -82 20.5t-54 58.5l77 35q14 -37 55 -37
q18 0 31.5 10t13.5 29q0 43 -61 43q-12 0 -24 -3z" />
    <glyph glyph-name="four.denom" horiz-adv-x="331" 
d="M21 160q63 80 151 201h101v-204h46v-78h-46v-79h-96v79h-156v81zM177 157v91q-36 -55 -63 -91h63z" />
    <glyph glyph-name="five.denom" horiz-adv-x="315" 
d="M268 281h-133q-1 -24 -5 -60q20 12 48 12q47 0 77 -34t30 -79q0 -54 -38.5 -91t-94.5 -37q-96 0 -134 74l77 37q14 -34 49 -34q20 0 32 13t12 32t-12 31t-33 12q-24 0 -39 -20l-64 38q8 86 12 186h216v-80z" />
    <glyph glyph-name="six.denom" horiz-adv-x="336" 
d="M226 386l31 -75q-91 -30 -119 -93q24 16 54 16q52 0 86 -33t34 -84q0 -56 -38 -90.5t-95 -34.5q-69 0 -112 42t-43 109q0 91 55.5 152.5t146.5 90.5zM122 137q0 -68 50 -68q21 0 31.5 13.5t10.5 32.5q0 22 -12.5 34.5t-32.5 12.5q-31 0 -47 -25z" />
    <glyph glyph-name="seven.denom" horiz-adv-x="284" 
d="M272 305q-61 -116 -150 -326l-90 39q47 111 128 263h-154v80h266v-56z" />
    <glyph glyph-name="eight.denom" horiz-adv-x="351" 
d="M315 102q0 -50 -41.5 -80t-98.5 -30q-56 0 -97.5 30t-41.5 80q0 60 55 87q-44 30 -44 77q0 43 35.5 73t92.5 30t93 -30t36 -73q0 -47 -45 -77q56 -27 56 -87zM140 262q0 -15 10 -25t25 -10t25.5 10t10.5 25q0 14 -10.5 24t-25.5 10t-25 -10t-10 -24zM134 105
q0 -17 12 -28.5t29 -11.5q18 0 30 11.5t12 28.5t-12 29t-30 12q-17 0 -29 -12t-12 -29z" />
    <glyph glyph-name="nine.denom" horiz-adv-x="336" 
d="M110 -25l-31 75q91 30 119 93q-24 -16 -54 -16q-52 0 -86 33t-34 84q0 56 38 90.5t95 34.5q69 0 112 -42t43 -109q0 -91 -55.5 -152.5t-146.5 -90.5zM214 224q0 68 -50 68q-21 0 -31.5 -13.5t-10.5 -32.5q0 -22 12.5 -34.5t32.5 -12.5q31 0 47 25z" />
    <glyph glyph-name="onefifth" horiz-adv-x="833" 
d="M592 718l71 -53l-498 -683l-71 53zM735 281h-133q-1 -23 -5 -60q20 12 48 12q48 0 78 -34t30 -79q0 -55 -39 -91.5t-95 -36.5q-96 0 -134 74l77 37q14 -34 49 -34q20 0 32 13t12 32q0 18 -12 30.5t-32 12.5q-23 0 -40 -20l-63 38q6 66 11 186h216v-80zM241 338h-98v258
q-29 -16 -57 -26v89q54 27 80 41h75v-362z" />
    <glyph glyph-name="twofifths" horiz-adv-x="933" 
d="M693 718l71 -53l-499 -683l-71 53zM835 281h-133q-2 -40 -4 -60q20 12 47 12q48 0 78 -34t30 -79q0 -55 -38.5 -91.5t-94.5 -36.5q-96 0 -134 74l77 37q13 -34 49 -34q20 0 31.5 13t11.5 32q0 18 -12 30.5t-32 12.5q-23 0 -40 -20l-63 38q6 66 11 186h216v-80zM86 406
q80 70 127 127q29 37 29 66q0 15 -9.5 23.5t-24.5 8.5q-16 0 -25.5 -12t-9.5 -32l-93 15q2 50 38.5 78t91.5 28q52 0 91 -28.5t39 -75.5q0 -50 -38 -98q-34 -42 -88 -87h136v-80h-264v67z" />
    <glyph glyph-name="threefifths" horiz-adv-x="911" 
d="M671 718l71 -53l-499 -683l-71 53zM814 281h-133q-1 -23 -5 -60q20 12 48 12q47 0 77 -34t30 -79q0 -55 -38.5 -91.5t-94.5 -36.5q-96 0 -134 74l77 37q13 -34 49 -34q20 0 31.5 12.5t11.5 32.5q0 19 -12 31t-32 12q-23 0 -40 -20l-63 38q8 86 12 186h216v-80zM172 487
l-1 71h8q21 0 31 3q31 8 31 36q0 15 -10 24.5t-29 9.5q-33 0 -39 -33l-77 36q13 35 46 54.5t73 19.5q54 0 93 -26.5t39 -70.5q0 -23 -13.5 -45t-34.5 -33q29 -10 47 -35.5t18 -55.5q0 -52 -41 -81.5t-97 -29.5q-45 0 -82 20.5t-54 58.5l77 35q14 -37 55 -37q18 0 31.5 10
t13.5 29q0 43 -61 43q-12 0 -24 -3z" />
    <glyph glyph-name="fourfifths" horiz-adv-x="945" 
d="M705 718l70 -53l-498 -683l-71 53zM847 281h-133q-2 -40 -4 -60q19 12 47 12q48 0 78 -34t30 -79q0 -55 -38.5 -91.5t-94.5 -36.5q-96 0 -134 74l76 37q14 -34 50 -34q20 0 31.5 13t11.5 32q0 18 -12 30.5t-32 12.5q-23 0 -40 -20l-63 38q6 66 11 186h216v-80zM80 499
q63 80 151 201h100v-204h47v-78h-47v-79h-95v79h-156v81zM236 496v91q-29 -45 -64 -91h64z" />
    <glyph glyph-name="onesixth" horiz-adv-x="826" 
d="M592 718l71 -53l-498 -683l-71 53zM241 338h-98v258q-29 -16 -57 -26v89q54 27 80 41h75v-362zM660 386l30 -75q-90 -30 -119 -93q26 16 55 16q52 0 86 -33t34 -84q0 -56 -38 -90.5t-96 -34.5q-69 0 -111.5 41.5t-42.5 109.5q0 91 55.5 152.5t146.5 90.5zM555 137
q0 -68 51 -68q20 0 31 13.5t11 32.5q0 22 -13 34t-33 12q-30 0 -47 -24z" />
    <glyph glyph-name="fivesixths" horiz-adv-x="894" 
d="M661 718l71 -53l-499 -683l-71 53zM330 620h-133q-1 -24 -5 -60q20 12 48 12q47 0 77 -34t30 -79q0 -54 -38.5 -91t-94.5 -37q-96 0 -134 74l77 37q13 -34 49 -34q20 0 31.5 12.5t11.5 32.5q0 19 -11.5 31t-32.5 12q-24 0 -40 -20l-63 38q8 86 12 186h216v-80zM728 386
l31 -75q-91 -30 -119 -93q26 16 55 16q52 0 85.5 -33t33.5 -84q0 -56 -38 -90.5t-95 -34.5q-69 0 -112 42t-43 109q0 91 55.5 152.5t146.5 90.5zM624 137q0 -68 50 -68q21 0 32 13.5t11 32.5q0 22 -13 34t-33 12q-31 0 -47 -24z" />
    <glyph glyph-name="oneseventh" horiz-adv-x="859" 
d="M592 718l71 -53l-498 -683l-71 53zM241 338h-98v258q-29 -16 -57 -26v89q54 27 80 41h75v-362zM779 305q-61 -116 -150 -326l-89 39q50 116 128 263h-155v80h266v-56z" />
    <glyph glyph-name="twosevenths" horiz-adv-x="959" 
d="M693 718l71 -53l-499 -683l-71 53zM86 406q80 70 127 127q29 37 29 66q0 15 -9.5 23.5t-24.5 8.5q-16 0 -25.5 -12t-9.5 -32l-93 15q2 50 38.5 78t91.5 28q52 0 91 -28.5t39 -75.5q0 -50 -38 -98q-34 -42 -88 -87h136v-80h-264v67zM879 305q-61 -119 -149 -326l-90 39
q50 116 128 263h-154v80h265v-56z" />
    <glyph glyph-name="threesevenths" horiz-adv-x="938" 
d="M671 718l71 -53l-499 -683l-71 53zM858 305q-61 -116 -150 -326l-90 39q50 116 128 263h-154v80h266v-56zM172 487l-1 71h8q21 0 31 3q31 8 31 36q0 15 -10 24.5t-29 9.5q-33 0 -39 -33l-77 36q13 35 46 54.5t73 19.5q54 0 93 -26.5t39 -70.5q0 -23 -13.5 -45t-34.5 -33
q29 -10 47 -35.5t18 -55.5q0 -52 -41 -81.5t-97 -29.5q-45 0 -82 20.5t-54 58.5l77 35q14 -37 55 -37q18 0 31.5 10t13.5 29q0 43 -61 43q-12 0 -24 -3z" />
    <glyph glyph-name="foursevenths" horiz-adv-x="971" 
d="M705 718l70 -53l-498 -683l-71 53zM891 305q-61 -119 -149 -326l-90 39q50 116 128 263h-154v80h265v-56zM80 499q63 80 151 201h100v-204h47v-78h-47v-79h-95v79h-156v81zM236 496v91q-29 -45 -64 -91h64z" />
    <glyph glyph-name="fivesevenths" horiz-adv-x="928" 
d="M661 718l71 -53l-499 -683l-71 53zM330 620h-133q-1 -24 -5 -60q20 12 48 12q47 0 77 -34t30 -79q0 -54 -38.5 -91t-94.5 -37q-96 0 -134 74l77 37q13 -34 49 -34q20 0 31.5 12.5t11.5 32.5q0 19 -11.5 31t-32.5 12q-24 0 -40 -20l-63 38q8 86 12 186h216v-80zM848 305
q-61 -116 -150 -326l-90 39q50 116 128 263h-154v80h266v-56z" />
    <glyph glyph-name="sixsevenths" horiz-adv-x="947" 
d="M681 718l71 -53l-499 -683l-71 53zM282 725l31 -75q-91 -30 -119 -93q24 16 54 16q52 0 86 -33t34 -84q0 -56 -38 -90.5t-95 -34.5q-69 0 -112 42t-43 109q0 91 55.5 152.5t146.5 90.5zM178 476q0 -68 50 -68q21 0 31.5 13.5t10.5 32.5q0 22 -12.5 34.5t-32.5 12.5
q-31 0 -47 -25zM867 305q-61 -119 -149 -326l-90 39q50 116 128 263h-154v80h265v-56z" />
    <glyph glyph-name="oneninth" horiz-adv-x="858" 
d="M592 718l71 -53l-498 -683l-71 53zM241 338h-98v258q-29 -16 -57 -26v89q54 27 80 41h75v-362zM576 -25l-30 75q90 29 118 93q-25 -17 -54 -17q-52 0 -86 33.5t-34 84.5q0 55 38 90t95 35q70 0 112.5 -42t42.5 -110q0 -90 -55.5 -151.5t-146.5 -90.5zM681 223v1
q0 68 -51 68q-20 0 -31 -13.5t-11 -32.5q0 -22 13 -34.5t33 -12.5q29 0 47 24z" />
    <glyph glyph-name="twoninths" horiz-adv-x="939" 
d="M686 718l71 -53l-498 -683l-71 53zM80 406q80 70 127 127q28 35 28 66q0 32 -33 32q-16 0 -25.5 -12t-9.5 -32l-93 15q2 50 38.5 78t90.5 28q53 0 92 -28.5t39 -75.5q0 -49 -39 -98q-32 -42 -87 -87h135v-80h-263v67zM670 -25l-30 75q90 29 118 93q-25 -17 -54 -17
q-52 0 -86 33.5t-34 84.5q0 55 38 90t95 35q70 0 112.5 -42t42.5 -110q0 -90 -55.5 -151.5t-146.5 -90.5zM775 223v1q0 68 -51 68q-20 0 -31 -13.5t-11 -32.5q0 -22 13 -34.5t33 -12.5q29 0 47 24z" />
    <glyph glyph-name="fourninths" horiz-adv-x="949" 
d="M696 718l71 -53l-499 -683l-70 53zM680 -25l-31 75q91 29 119 93q-25 -17 -55 -17q-52 0 -85.5 33.5t-33.5 84.5q0 55 38 90t95 35q69 0 112 -42t43 -110q0 -90 -55.5 -151.5t-146.5 -90.5zM785 223v1q0 68 -51 68q-20 0 -31 -13.5t-11 -32.5q0 -22 13 -34.5t32 -12.5
q29 0 48 24zM71 499q63 80 151 201h100v-204h47v-78h-47v-79h-95v79h-156v81zM227 496v91q-29 -45 -64 -91h64z" />
    <glyph glyph-name="fiveninths" horiz-adv-x="908" 
d="M654 718l71 -53l-498 -683l-71 53zM639 -25l-31 75q90 29 118 93q-23 -17 -54 -17q-52 0 -86 33.5t-34 84.5q0 56 38 90.5t96 34.5q69 0 111.5 -42t42.5 -110q0 -90 -55.5 -151.5t-145.5 -90.5zM743 223v1q0 68 -50 68q-21 0 -32 -13.5t-11 -32.5q0 -22 13 -34.5
t33 -12.5q29 0 47 24zM324 620h-133q-1 -24 -5 -60q20 12 48 12q47 0 77 -34t30 -79q0 -54 -38.5 -91t-94.5 -37q-96 0 -134 74l77 37q13 -34 49 -34q20 0 31.5 12.5t11.5 32.5q0 19 -11.5 31t-32.5 12q-24 0 -40 -20l-63 38q8 86 12 186h216v-80z" />
    <glyph glyph-name="sevenninths" horiz-adv-x="847" 
d="M594 718l71 -53l-499 -683l-71 53zM578 -25l-31 75q91 29 119 93q-25 -17 -55 -17q-52 0 -85.5 33.5t-33.5 84.5q0 55 38 90t95 35q69 0 112 -42t43 -110q0 -90 -55.5 -151.5t-146.5 -90.5zM682 223v1q0 68 -50 68q-20 0 -31.5 -13.5t-11.5 -32.5q0 -22 13 -34.5
t33 -12.5q29 0 47 24zM346 644q-61 -116 -150 -326l-90 39q47 111 128 263h-154v80h266v-56z" />
    <glyph glyph-name="eightninths" horiz-adv-x="918" 
d="M664 718l71 -53l-498 -683l-71 53zM648 -25l-30 75q90 29 118 93q-23 -17 -54 -17q-52 0 -86 33.5t-34 84.5q0 56 38 90.5t96 34.5q69 0 111.5 -42t42.5 -110q0 -90 -55.5 -151.5t-146.5 -90.5zM753 223v1q0 68 -51 68q-20 0 -31 -13.5t-11 -32.5q0 -22 13 -34.5
t33 -12.5q29 0 47 24zM347 441q0 -50 -41.5 -80t-98.5 -30q-56 0 -97.5 30t-41.5 80q0 59 55 87q-44 30 -44 77q0 43 35.5 73t92.5 30t93 -30t36 -73q0 -47 -45 -77q56 -27 56 -87zM172 601q0 -15 10 -25t25 -10t25.5 10t10.5 25q0 14 -10.5 24t-25.5 10t-25 -10t-10 -24z
M166 444q0 -17 12 -28.5t29 -11.5q18 0 30 11.5t12 28.5t-12 29t-30 12q-17 0 -29 -12t-12 -29z" />
    <glyph glyph-name="commaaccent" horiz-adv-x="360" 
d="M186 -249h-108l36 191h127z" />
    <glyph glyph-name="revcommaaccent" horiz-adv-x="360" 
d="M157 771h109l-37 -192h-128z" />
    <glyph glyph-name="tilde.cap" horiz-adv-x="360" 
d="M278 878l82 9q6 -20 6 -39q0 -46 -31.5 -74.5t-83.5 -28.5q-37 0 -85.5 25.5t-60.5 25.5q-23 0 -25 -23q0 -5 1 -7l-81 -9q-7 23 -7 39q0 46 32 74.5t84 28.5q36 0 85 -25.5t60 -25.5q10 0 17.5 6t7.5 17q0 5 -1 7z" />
    <glyph glyph-name="ring.cap" horiz-adv-x="360" 
d="M180 943q47 0 80 -33t33 -80t-33 -80t-80 -33t-80 33t-33 80t33 80t80 33zM180 876q-20 0 -33 -13t-13 -33t13 -33t33 -13t33 13t13 33t-13 33t-33 13z" />
    <glyph glyph-name="circumflex.cap" horiz-adv-x="360" 
d="M103 943h156l113 -149l-82 -60l-111 126l-112 -126l-81 60z" />
    <glyph glyph-name="acute.cap" horiz-adv-x="360" 
d="M341 861l-182 -128l-64 81l172 144z" />
    <glyph glyph-name="grave.cap" horiz-adv-x="360" 
d="M193 733l-182 128l74 97l172 -144z" />
    <glyph glyph-name="dieresis.cap" horiz-adv-x="360" 
d="M116 762h-149v120h149v-120zM393 762h-149v120h149v-120z" />
    <glyph glyph-name="caron.cap" horiz-adv-x="360" 
d="M255 746h-156l-113 149l83 60l111 -126l112 126l80 -60z" />
    <glyph glyph-name="macron.cap" horiz-adv-x="360" 
d="M362 772h-364v95h364v-95z" />
    <glyph glyph-name="dotaccent.cap" horiz-adv-x="360" 
d="M253 762h-146v120h146v-120z" />
    <glyph glyph-name="cedilla.cap" horiz-adv-x="360" 
d="M202 9l-28 -70h1q21 15 47 15q38 0 65.5 -29t27.5 -72t-33 -76.5t-81 -33.5q-76 0 -116 70l69 33q12 -32 40 -32q16 0 26.5 10.5t10.5 26.5t-10.5 28t-25.5 12q-25 0 -38 -20l-73 38l50 112z" />
    <glyph glyph-name="hungarumlaut.cap" horiz-adv-x="360" 
d="M457 858l-178 -125l-64 81l168 141zM213 861l-182 -128l-62 77l172 144z" />
    <glyph glyph-name="commaaccent.cap" horiz-adv-x="360" 
d="M186 -249h-108l36 191h127z" />
    <glyph glyph-name="breve.cap" horiz-adv-x="360" 
d="M15 909h104q-1 -5 -1 -13q0 -27 17 -44.5t45 -17.5t46.5 17.5t18.5 44.5q0 8 -1 13h101v-12q0 -68 -47.5 -112t-117.5 -44t-117.5 44t-47.5 112v12z" />
    <glyph glyph-name="caron.alt" horiz-adv-x="360" 
d="M186 533h-119l44 217h132z" />
    <glyph glyph-name="ogonek.cap" horiz-adv-x="360" 
d="M166 9l117 -2v-7q-112 -26 -112 -92q0 -40 49 -40q22 0 48 13l32 -78q-46 -30 -111 -30q-57 0 -95.5 30t-38.5 77q0 91 111 129z" />
    <glyph glyph-name="square" horiz-adv-x="388" 
d="M60 155v268h268v-268h-268z" />
    <glyph glyph-name="square.open" horiz-adv-x="388" 
d="M60 155v268h268v-268h-268zM138 345v-112h112v112h-112z" />
    <glyph glyph-name="circle.open" horiz-adv-x="366" 
d="M35 289q0 61 43.5 104.5t104.5 43.5t104.5 -43.5t43.5 -104.5t-43.5 -104.5t-104.5 -43.5t-104.5 43.5t-43.5 104.5zM121 289q0 -25 18.5 -43.5t43.5 -18.5t43.5 18.5t18.5 43.5t-18.5 43.5t-43.5 18.5t-43.5 -18.5t-18.5 -43.5z" />
    <glyph glyph-name="doublecircle" horiz-adv-x="366" 
d="M39 283q0 59 42.5 101.5t101.5 42.5t101.5 -42.5t42.5 -101.5t-42.5 -101.5t-101.5 -42.5t-101.5 42.5t-42.5 101.5zM128 283q0 23 16 39t39 16t39 -16t16 -39t-16 -39t-39 -16t-39 16t-16 39zM75 283q0 -44 32 -76t76 -32t76 32t32 76t-32 76t-76 32t-76 -32t-32 -76z
" />
    <glyph glyph-name="triangle.left" horiz-adv-x="398" 
d="M338 111l-308 175l308 173v-348z" />
    <glyph glyph-name="raute" horiz-adv-x="356" 
d="M178 512l148 -236l-148 -236l-148 236z" />
    <glyph glyph-name="triangleWhiteLeft" horiz-adv-x="512" 
d="M452 531v-492l-422 246zM217 285l138 -79v157z" />
    <glyph glyph-name="triangleWhiteRight" horiz-adv-x="542" 
d="M60 39v492l422 -246zM157 206l138 79l-138 78v-157z" />
    <glyph glyph-name="arrow.right" horiz-adv-x="1000" 
d="M981 360l-367 -364l-96 93l207 204h-685v135h685l-207 204l96 93z" />
    <glyph glyph-name="arrow.left" horiz-adv-x="1000" 
d="M407 -4l-367 364l367 365l96 -93l-207 -204h685v-135h-685l207 -204z" />
    <glyph glyph-name="arrow.up" horiz-adv-x="900" 
d="M450 841l364 -367l-93 -96l-204 207v-685h-135v685l-204 -207l-93 96z" />
    <glyph glyph-name="arrow.down" horiz-adv-x="900" 
d="M814 248l-364 -367l-365 367l93 96l204 -207v685h135v-685l204 207z" />
    <glyph glyph-name="arrow.leftup" horiz-adv-x="1000" 
d="M861 76l-96 -96l-484 484l2 -289h-134l-1 518l518 -1v-134l-290 2z" />
    <glyph glyph-name="arrow.rightup" horiz-adv-x="1000" 
d="M235 -20l-96 96l485 484l-290 -2v134l518 1l-1 -518h-134l2 289z" />
    <glyph glyph-name="arrowleft.down" horiz-adv-x="1000" 
d="M765 713l96 -96l-485 -484l290 2v-134l-518 -1l1 518h134l-2 -289z" />
    <glyph glyph-name="arrowright.down" horiz-adv-x="1000" 
d="M139 617l96 96l484 -484l-2 289h134l1 -518l-518 1v134l290 -2z" />
    <glyph glyph-name="arrowright.alt" horiz-adv-x="523" 
d="M443 287l-285 -212l-78 109l156 103l-156 103l78 109z" />
    <glyph glyph-name="arrowleft.alt" horiz-adv-x="523" 
d="M365 75l-285 212l285 212l78 -109l-156 -103l156 -103z" />
    <glyph glyph-name="arrowup.alt" horiz-adv-x="584" 
d="M292 479l212 -285l-109 -78l-103 156l-103 -156l-109 78z" />
    <glyph glyph-name="arrowdown.alt" horiz-adv-x="584" 
d="M292 95l-212 286l109 78l103 -156l103 156l109 -78z" />
    <glyph glyph-name="arrowleftup.alt" horiz-adv-x="512" 
d="M132 74l-52 352l352 -52l-22 -132l-183 37l37 -183z" />
    <glyph glyph-name="arrowrightup.alt" horiz-adv-x="512" 
d="M432 426l-52 -352l-132 22l37 183l-183 -37l-22 132z" />
    <glyph glyph-name="arrowleftdown.alt" horiz-adv-x="512" 
d="M80 74l52 352l132 -22l-37 -183l183 37l22 -132z" />
    <glyph glyph-name="arrowrightdown.alt" horiz-adv-x="512" 
d="M380 426l52 -352l-352 52l22 132l183 -37l-37 183z" />
    <glyph glyph-name="arrowlong.left" horiz-adv-x="1216" 
d="M1146 318v-108h-871l165 -163l-76 -75l-294 292l294 292l76 -75l-165 -163h871z" />
    <glyph glyph-name="arrowlong.right" horiz-adv-x="1216" 
d="M70 210v108h871l-165 163l76 75l294 -292l-294 -292l-76 75l165 163h-871z" />
    <glyph glyph-name="arrowlong.up" horiz-adv-x="724" 
d="M416 -219h-108v871l-163 -165l-75 76l292 294l292 -294l-75 -76l-163 165v-871z" />
    <glyph glyph-name="arrowlong.down" horiz-adv-x="724" 
d="M308 823h108v-871l163 165l75 -76l-292 -294l-292 294l75 76l163 -165v871z" />
    <glyph glyph-name="arrowlong.leftup" horiz-adv-x="940" 
d="M870 -23l-77 -77l-616 616l2 -232l-107 1l-2 414l415 -1v-107l-231 1z" />
    <glyph glyph-name="arrowlong.leftdown" horiz-adv-x="940" 
d="M793 699l77 -77l-616 -615l231 1v-107l-415 -1l2 414l107 1l-2 -232z" />
    <glyph glyph-name="arrowlong.rightup" horiz-adv-x="940" 
d="M147 -100l-77 77l616 615l-231 -1v107l415 1l-2 -414l-107 -1l2 232z" />
    <glyph glyph-name="arrowlong.rightdown" horiz-adv-x="940" 
d="M70 622l77 77l616 -616l-2 232l107 -1l2 -414l-415 1v107l231 -1z" />
    <glyph glyph-name="ornm1" horiz-adv-x="666" 
d="M240 390q0 -19 15 -34h-201q-14 0 -24 10t-10 24t10 24t24 10h200q-14 -14 -14 -34zM437 122h-104q13 13 13 32q0 25 -22 39q22 14 22 39t-22 39q22 14 22 39q0 19 -14 33h63v13h-107q-14 0 -24 10t-10 24t10 24t24 10h149q20 0 35.5 -30t39.5 -30h114v-197h-114
q-25 0 -40.5 -21t-34.5 -24zM332 154q0 -14 -9 -23t-23 -9h-81q-13 0 -22.5 9t-9.5 23t9.5 23t22.5 9h81q14 0 23 -9t9 -23zM332 232q0 -14 -9 -23t-23 -9h-81q-13 0 -22.5 9t-9.5 23t9.5 23t22.5 9h81q14 0 23 -9t9 -23zM332 310q0 -14 -9 -23t-23 -9h-81q-13 0 -22.5 9
t-9.5 23t9.5 23t22.5 9h81q14 0 23 -9t9 -23z" />
    <glyph glyph-name="ornm2" horiz-adv-x="666" 
d="M426 390q0 20 -14 34h200q14 0 24 -10t10 -24t-10 -24t-24 -10h-201q15 15 15 34zM229 122q-19 3 -34.5 24t-40.5 21h-114v197h114q24 0 39.5 30t35.5 30h149q14 0 24 -10t10 -24t-10 -24t-24 -10h-107v-13h63q-14 -14 -14 -33q0 -25 22 -39q-22 -14 -22 -39t22 -39
q-22 -14 -22 -39q0 -19 13 -32h-104zM334 154q0 14 9 23t23 9h81q13 0 22.5 -9t9.5 -23t-9.5 -23t-22.5 -9h-81q-14 0 -23 9t-9 23zM334 232q0 14 9 23t23 9h81q13 0 22.5 -9t9.5 -23t-9.5 -23t-22.5 -9h-81q-14 0 -23 9t-9 23zM334 310q0 14 9 23t23 9h81q13 0 22.5 -9
t9.5 -23t-9.5 -23t-22.5 -9h-81q-14 0 -23 9t-9 23z" />
    <glyph glyph-name="ornm3" horiz-adv-x="1099" 
d="M648 588l-61 12l31 154l61 -12zM519 601h62v-157h-62v157zM452 -78l61 -12l-31 -154l-61 12zM581 -91h-62v157h62v-157zM883 157l12 61l154 -31l-12 -61zM896 286v-62h-157v62h157zM217 353l-12 -61l-154 31l12 61zM204 224v62h157v-62h-157zM855 422l-34 51l130 88
l35 -52zM773 522l44 -44l-111 -111l-44 44zM245 88l34 -51l-130 -88l-35 52zM327 -12l-44 44l111 111l44 -44zM717 -50l51 34l88 -130l-52 -35zM817 32l-44 -44l-111 111l44 44zM383 560l-51 -34l-88 130l52 35zM283 478l44 44l111 -111l-44 -44zM765 527l-51 34l86 132
l52 -34zM651 587l57 -23l-58 -145l-58 23zM335 -17l51 -34l-86 -132l-52 34zM449 -77l-57 23l58 145l58 -23zM822 40l34 51l132 -86l-34 -52zM882 154l-23 -57l-145 58l23 58zM278 470l-34 -51l-132 86l34 52zM218 356l23 57l145 -58l-23 -58zM516 600l-61 -11l-29 155
l60 11zM392 564l57 23l59 -145l-58 -23zM584 -90l61 11l29 -155l-60 -11zM708 -54l-57 -23l-59 145l58 23zM895 289l-11 61l155 29l11 -60zM859 413l23 -57l-145 -59l-23 58zM205 221l11 -61l-155 -29l-11 60zM241 97l-23 57l145 59l23 -58z" />
    <glyph glyph-name="ornm4" horiz-adv-x="1163" 
d="M306 259q0 111 79 190t190 79t190 -79t79 -190t-79 -190t-190 -79t-190 79t-79 190zM387 259q0 -78 55 -133t133 -55t133 55t55 133t-55 133t-133 55t-133 -55t-55 -133zM521 259q0 23 15.5 38.5t38.5 15.5t38.5 -15.5t15.5 -38.5t-15.5 -38.5t-38.5 -15.5t-38.5 15.5
t-15.5 38.5zM494 259q0 -33 24 -57t57 -24t57 24t24 57t-24 57t-57 24t-57 -24t-24 -57zM414 259q0 67 47 114t114 47t114 -47t47 -114t-47 -114t-114 -47t-114 47t-47 114zM172 259q0 23 16 38.5t38 15.5t38 -15.5t16 -38.5t-16 -38.5t-38 -15.5t-38 15.5t-16 38.5zM50 259
q0 23 16 38.5t38 15.5t38 -15.5t16 -38.5t-16 -38.5t-38 -15.5t-38 15.5t-16 38.5zM1005 259q0 23 15.5 38.5t38.5 15.5t38.5 -15.5t15.5 -38.5t-15.5 -38.5t-38.5 -15.5t-38.5 15.5t-15.5 38.5zM883 259q0 23 15.5 38.5t38.5 15.5t38.5 -15.5t15.5 -38.5t-15.5 -38.5
t-38.5 -15.5t-38.5 15.5t-15.5 38.5zM575 662q23 0 38.5 -16t15.5 -38t-15.5 -38t-38.5 -16t-38.5 16t-15.5 38t15.5 38t38.5 16zM575 784q23 0 38.5 -16t15.5 -38t-15.5 -38t-38.5 -16t-38.5 16t-15.5 38t15.5 38t38.5 16zM575 -158q23 0 38.5 -16t15.5 -38t-15.5 -38
t-38.5 -16t-38.5 16t-15.5 38t15.5 38t38.5 16zM575 -36q23 0 38.5 -16t15.5 -38t-15.5 -38t-38.5 -16t-38.5 16t-15.5 38t15.5 38t38.5 16zM113 495q0 23 15.5 38.5t38.5 15.5t38.5 -15.5t15.5 -38.5t-15.5 -38.5t-38.5 -15.5t-38.5 15.5t-15.5 38.5zM219 433
q0 23 15.5 38.5t38.5 15.5t38.5 -15.5t15.5 -38.5t-15.5 -38.5t-38.5 -15.5t-38.5 15.5t-15.5 38.5zM833 78q0 22 15.5 38t38.5 16t38.5 -16t15.5 -38t-15.5 -38t-38.5 -16t-38.5 16t-15.5 38zM939 16q0 22 15.5 38t38.5 16t38.5 -16t15.5 -38t-15.5 -38t-38.5 -16t-38.5 16
t-15.5 38zM113 23q0 23 15.5 38.5t38.5 15.5t38.5 -15.5t15.5 -38.5t-15.5 -38.5t-38.5 -15.5t-38.5 15.5t-15.5 38.5zM219 85q0 23 15.5 38.5t38.5 15.5t38.5 -15.5t15.5 -38.5t-15.5 -38.5t-38.5 -15.5t-38.5 15.5t-15.5 38.5zM823 433q0 23 15.5 38.5t38.5 15.5
t38.5 -15.5t15.5 -38.5t-15.5 -38.5t-38.5 -15.5t-38.5 15.5t-15.5 38.5zM929 495q0 23 15.5 38.5t38.5 15.5t38.5 -15.5t15.5 -38.5t-15.5 -38.5t-38.5 -15.5t-38.5 15.5t-15.5 38.5zM285 667q0 23 15.5 38.5t38.5 15.5t38.5 -15.5t15.5 -38.5t-15.5 -38.5t-38.5 -15.5
t-38.5 15.5t-15.5 38.5zM346 561q0 23 16 38.5t38 15.5t38 -15.5t16 -38.5t-16 -38.5t-38 -15.5t-38 15.5t-16 38.5zM703 -53q0 23 15.5 38.5t38.5 15.5t38.5 -15.5t15.5 -38.5t-15.5 -38.5t-38.5 -15.5t-38.5 15.5t-15.5 38.5zM764 -159q0 23 16 38.5t38 15.5t38 -15.5
t16 -38.5t-16 -38.5t-38 -15.5t-38 15.5t-16 38.5zM285 -149q0 23 15.5 38.5t38.5 15.5t38.5 -15.5t15.5 -38.5t-15.5 -38.5t-38.5 -15.5t-38.5 15.5t-15.5 38.5zM346 -43q0 23 16 38.5t38 15.5t38 -15.5t16 -38.5t-16 -38.5t-38 -15.5t-38 15.5t-16 38.5zM696 561
q0 23 16 38.5t38 15.5t38 -15.5t16 -38.5t-16 -38.5t-38 -15.5t-38 15.5t-16 38.5zM757 667q0 23 15.5 38.5t38.5 15.5t38.5 -15.5t15.5 -38.5t-15.5 -38.5t-38.5 -15.5t-38.5 15.5t-15.5 38.5z" />
    <glyph glyph-name="ornm5" horiz-adv-x="1056" 
d="M226 499l62 62l83 -84q10 8 17 11l-87 217l81 32l87 -216q12 3 15 3v118h88v-118q7 0 19 -4l92 214l79 -35l-91 -213q8 -3 14 -9l83 84l62 -62l-83 -83q6 -9 10 -17l217 87l32 -82l-216 -87q1 -2 1.5 -4.5t1 -5.5t0.5 -5h119v-87h-119q-2 -14 -4 -20l214 -91l-35 -79
l-213 90q-4 -7 -8 -13l83 -83l-62 -62l-83 83q-5 -4 -17 -12l87 -216l-82 -32l-87 216q-1 0 -14 -3v-118h-88v118q-12 2 -20 4l-91 -214l-79 35l90 212q-2 1 -6.5 4.5t-6.5 5.5l-83 -83l-62 62l83 83q-2 2 -6.5 8t-5.5 8l-215 -87l-32 82l215 87q-3 12 -3 15h-118v87h118
q2 14 4 20l-213 92l34 79l212 -91q4 6 10 14zM340 259q0 -78 55 -133t133 -55t133 55t55 133t-55 133t-133 55t-133 -55t-55 -133zM474 259q0 23 16 38.5t38 15.5t38 -15.5t16 -38.5t-16 -38.5t-38 -15.5t-38 15.5t-16 38.5zM447 259q0 -33 24 -57t57 -24t57 24t24 57
t-24 57t-57 24t-57 -24t-24 -57zM367 259q0 67 47 114t114 47t114 -47t47 -114t-47 -114t-114 -47t-114 47t-47 114z" />
    <glyph glyph-name="ornm6" horiz-adv-x="1096" 
d="M227 -124l-61 62l164 164q-6 6 -12 16l-216 -87l-32 81l215 87q-2 10 -3 16h-232v87h232q1 4 2.5 10.5t1.5 9.5l-213 92l34 79l214 -90q1 2 9 13l-164 164l61 61l164 -164q2 2 17 12l-87 215l81 33l87 -216q15 3 16 3v233h87v-233q7 0 19 -4l92 214l79 -35l-89 -214
q4 -2 12 -8l164 164l62 -61l-164 -164q8 -12 11 -18l216 88l32 -81l-215 -87q1 -6 3 -16h232v-87h-232q-2 -12 -4 -19l213 -92l-34 -79l-214 89q-1 -2 -3.5 -6t-4.5 -6l164 -164l-62 -62l-164 164q-4 -3 -17 -12l88 -215l-82 -33l-87 216l-15 -3v-233h-87v233q-14 2 -21 4
l-90 -214l-79 35l89 213q-5 3 -13 9zM360 259q0 -78 55 -133t133 -55t133 55t55 133t-55 133t-133 55t-133 -55t-55 -133zM467 259q0 -33 24 -57t57 -24t57 24t24 57t-24 57t-57 24t-57 -24t-24 -57zM387 259q0 67 47 114t114 47t114 -47t47 -114t-47 -114t-114 -47t-114 47
t-47 114z" />
    <glyph glyph-name="ornm7" horiz-adv-x="1069" 
d="M265 259q0 111 79 190t190 79t190 -79t79 -190t-79 -190t-190 -79t-190 79t-79 190zM346 259q0 -78 55 -133t133 -55t133 55t55 133t-55 133t-133 55t-133 -55t-55 -133zM480 259q0 23 16 38.5t38 15.5t38 -15.5t16 -38.5t-16 -38.5t-38 -15.5t-38 15.5t-16 38.5z
M453 259q0 -33 24 -57t57 -24t57 24t24 57t-24 57t-57 24t-57 -24t-24 -57zM373 259q0 67 47 114t114 47t114 -47t47 -114t-47 -114t-114 -47t-114 47t-47 114zM50 259q0 131 65 242.5t176.5 176.5t242.5 65t242.5 -65t176.5 -176.5t65 -242.5t-65 -242.5t-176.5 -176.5
t-242.5 -65t-242.5 65t-176.5 176.5t-65 242.5zM130 259q0 -167 119 -285.5t285 -118.5t285 118.5t119 285.5t-119 285.5t-285 118.5t-285 -118.5t-119 -285.5zM157 259q0 155 111 266t266 111t266 -111t111 -266t-111 -266t-266 -111t-266 111t-111 266zM238 259
q0 -122 87 -209t209 -87t209 87t87 209t-87 209t-209 87t-209 -87t-87 -209z" />
    <glyph glyph-name="ornm8" horiz-adv-x="1106" 
d="M596 -255h-86v288l-108 -267l-80 32l111 275l-210 -210l-62 62l201 201l-262 -111l-34 81l273 116h-296v86h288l-267 108l32 80l275 -112l-210 211l62 62l201 -201l-111 262l81 34l116 -274v297h86v-288l108 267l80 -32l-112 -276l211 211l62 -62l-201 -201l262 111
l34 -81l-274 -116h297v-86h-288l267 -108l-32 -80l-276 111l211 -210l-62 -62l-201 201l111 -262l-81 -34l-116 273v-296zM371 255q0 -75 53.5 -128.5t128.5 -53.5t128.5 53.5t53.5 128.5t-53.5 128.5t-128.5 53.5t-128.5 -53.5t-53.5 -128.5z" />
    <glyph glyph-name="ornm9" horiz-adv-x="600" 
d="M550 500v-500h-500v500h500z" />
    <glyph glyph-name="zero.alt" horiz-adv-x="562" 
d="M281 676q118 0 183 -91t65 -253t-65 -253t-183 -91t-183 91t-65 253t65 253t183 91zM281 555q-104 0 -104 -223t104 -223t104 223t-104 223z" />
    <glyph glyph-name="one.alt" horiz-adv-x="359" 
d="M45 588q87 45 143 76h93v-664h-142v501q-16 -8 -49.5 -22t-44.5 -19v128z" />
    <glyph glyph-name="two.alt" horiz-adv-x="522" 
d="M181 461l-141 16q-1 89 63 144t154 55q91 0 153 -50.5t62 -137.5q0 -90 -59 -172q-67 -94 -169 -197h252v-119h-434v107q126 131 213 255q53 74 53 127q0 31 -21 49t-50 18q-37 0 -57.5 -25.5t-18.5 -69.5z" />
    <glyph glyph-name="three.alt" horiz-adv-x="519" 
d="M173 281l-73 100l170 166h-225v117h419v-96l-168 -158q82 -3 131 -62t49 -136q0 -96 -68.5 -160t-167.5 -64q-70 0 -126.5 35.5t-86.5 97.5l108 57q37 -70 101 -70q40 0 68 29t28 70t-27 70.5t-68 29.5q-38 0 -64 -26z" />
    <glyph glyph-name="four.alt" horiz-adv-x="554" 
d="M317 664h126v-386h94v-117h-94v-161h-140v161h-279v119q238 309 293 384zM174 278h129v180q-62 -92 -129 -180z" />
    <glyph glyph-name="five.alt" horiz-adv-x="508" 
d="M448 664v-117h-230q-7 -101 -11 -138q35 18 79 18q86 0 138 -60.5t52 -148.5q0 -98 -67 -164t-169 -66q-70 0 -127 35.5t-86 97.5l108 57q36 -70 101 -70q40 0 68 28.5t28 69.5q0 43 -25.5 72t-69.5 29q-49 0 -79 -40l-96 62q19 188 27 335h359z" />
    <glyph glyph-name="six.alt" horiz-adv-x="530" 
d="M266 301q-38 0 -63.5 -28t-25.5 -68q0 -41 25 -69t64 -28q37 0 62.5 28t25.5 69q0 40 -25 68t-63 28zM281 415q14 3 27 3q76 0 132.5 -62.5t56.5 -148.5q0 -92 -68.5 -155.5t-164.5 -63.5q-95 0 -163 64.5t-68 155.5q0 57 35 120q19 37 104.5 172.5t132.5 202.5l115 -68
q-102 -157 -139 -220z" />
    <glyph glyph-name="seven.alt" horiz-adv-x="472" 
d="M455 664v-94q-127 -267 -266 -602l-129 58q57 133 242 519h-292v119h445z" />
    <glyph glyph-name="eight.alt" horiz-adv-x="549" 
d="M136 351q-32 17 -52.5 52.5t-20.5 80.5q0 81 61 136.5t150 55.5t150.5 -55.5t61.5 -136.5q0 -45 -20.5 -80.5t-52.5 -52.5q41 -21 65 -62t24 -94q0 -88 -65.5 -147.5t-162.5 -59.5q-96 0 -161.5 59.5t-65.5 147.5q0 53 24 94t65 62zM205 481q0 -33 20 -55.5t49 -22.5
t49.5 22.5t20.5 55.5q0 32 -20.5 54.5t-49.5 22.5t-49 -22.5t-20 -54.5zM191 196q0 -37 24 -63.5t59 -26.5t59.5 26t24.5 64t-24.5 64t-59.5 26t-59 -26.5t-24 -63.5z" />
    <glyph glyph-name="nine.alt" horiz-adv-x="530" 
d="M264 363q38 0 63 28t25 69t-24.5 68.5t-63.5 27.5q-38 0 -63 -28t-25 -68q0 -41 25 -69t63 -28zM249 249q-9 -2 -28 -2q-76 0 -132 62.5t-56 148.5q0 91 68.5 154.5t164.5 63.5q95 0 163 -64t68 -156q0 -52 -35 -120q-19 -37 -104.5 -172.5t-132.5 -202.5l-115 68
q65 100 139 220z" />
    <glyph glyph-name="a.smcp" horiz-adv-x="608" 
d="M9 0l238 595h126l227 -595h-158l-39 107h-202l-38 -107h-154zM300 393l-58 -170h118l-58 170h-2z" />
    <glyph glyph-name="b.smcp" horiz-adv-x="574" 
d="M73 595h177q84 0 143 -24q105 -41 105 -146q0 -81 -74 -114q46 -15 71.5 -51t25.5 -82q0 -112 -121 -155q-66 -23 -158 -23h-169v595zM215 247v-130h31q64 0 91 11q35 15 35 55q0 30 -23 47t-63 17h-71zM215 477v-119h37q103 0 103 58q0 33 -24 47t-79 14h-37z" />
    <glyph glyph-name="c.smcp" horiz-adv-x="585" 
d="M483 151l72 -99q-82 -64 -190 -64q-143 0 -235.5 86t-92.5 223q0 133 95 221.5t233 88.5q93 0 182 -58l-63 -105q-61 45 -121 45q-77 0 -128 -54t-51 -138q0 -88 48 -139.5t131 -51.5q65 0 120 45z" />
    <glyph glyph-name="d.smcp" horiz-adv-x="631" 
d="M74 595h105q165 0 238 -28q82 -33 131.5 -99.5t49.5 -167.5q0 -113 -58 -185.5t-150 -95.5q-83 -19 -208 -19h-108v595zM217 477v-359q68 1 114 12q120 29 120 163q0 117 -79 157q-53 26 -155 27z" />
    <glyph glyph-name="e.smcp" horiz-adv-x="530" 
d="M469 0h-395v595h395v-118h-252v-114h252v-118h-252v-127h252v-118z" />
    <glyph glyph-name="f.smcp" horiz-adv-x="462" 
d="M420 233h-203v-233h-143v595h346v-118h-203v-126h203v-118z" />
    <glyph glyph-name="g.smcp" horiz-adv-x="684" 
d="M623 355v-241q-41 -57 -109.5 -91.5t-145.5 -34.5q-139 0 -233 85.5t-94 223.5q0 132 95 221t232 89q126 0 229 -95l-83 -93q-63 70 -147 70q-77 0 -128 -54t-51 -138q0 -88 50 -139.5t129 -51.5q68 0 116 41v92h-133v116h273z" />
    <glyph glyph-name="h.smcp" horiz-adv-x="671" 
d="M597 0h-143v248h-237v-248h-143v595h143v-229h237v229h143v-595z" />
    <glyph glyph-name="i.smcp" horiz-adv-x="291" 
d="M217 0h-143v595h143v-595z" />
    <glyph glyph-name="j.smcp" horiz-adv-x="341" 
d="M124 595h143v-436q0 -83 -46 -127q-44 -44 -117 -44q-49 0 -122 29l42 108q36 -19 58 -19q25 0 34 12q8 12 8 48v429z" />
    <glyph glyph-name="k.smcp" horiz-adv-x="593" 
d="M217 0h-143v595h143v-235l190 235h166l-202 -238l213 -357h-167l-142 246l-58 -69v-177z" />
    <glyph glyph-name="l.smcp" horiz-adv-x="467" 
d="M459 0h-385v595h143v-477h242v-118z" />
    <glyph glyph-name="m.smcp" horiz-adv-x="857" 
d="M783 595v-595h-143v394l-154 -394h-119l-150 395v-395h-143v595h214l141 -382h2l141 382h211z" />
    <glyph glyph-name="msmcp.salt" horiz-adv-x="805" 
d="M357 104l-144 306v-410h-139v595h191l137 -303h1l138 303h190v-595h-139v411l-146 -307h-89z" />
    <glyph glyph-name="n.smcp" horiz-adv-x="685" 
d="M477 0l-263 358v-358h-140v595h133l264 -357v357h140v-595h-134z" />
    <glyph glyph-name="o.smcp" horiz-adv-x="716" 
d="M358 607q137 0 229 -90t92 -220t-92 -219.5t-229 -89.5t-229 89.5t-92 219.5t92 220t229 90zM358 489q-76 0 -125 -54t-49 -138t49 -137.5t125 -53.5t125 53.5t49 137.5t-49 138t-125 54z" />
    <glyph glyph-name="p.smcp" horiz-adv-x="538" 
d="M74 595h131q82 0 113 -4q83 -12 139.5 -62t56.5 -126q0 -64 -43 -114.5t-112 -70.5q-40 -12 -124 -13h-18v-205h-143v595zM217 477v-154h21q55 1 79 9q50 16 50 70t-49 69q-22 6 -78 6h-23z" />
    <glyph glyph-name="q.smcp" horiz-adv-x="716" 
d="M590 -71l-90 90q-65 -31 -142 -31q-137 0 -229 89.5t-92 219.5t92 220t229 90t229 -90t92 -220q0 -116 -78 -204l76 -76zM425 270l79 -80q28 49 28 107q0 84 -49 138t-125 54t-125 -54t-49 -138t49 -137.5t125 -53.5q22 0 48 7l-68 69z" />
    <glyph glyph-name="r.smcp" horiz-adv-x="603" 
d="M74 595h173q126 0 196.5 -45.5t70.5 -139.5q0 -57 -32.5 -101.5t-86.5 -65.5l183 -243h-180l-159 220h-22v-220h-143v595zM217 477v-139h14q65 0 100.5 13.5t35.5 53.5q0 43 -28.5 57.5t-97.5 14.5h-24z" />
    <glyph glyph-name="s.smcp" horiz-adv-x="538" 
d="M470 537l-73 -98q-58 50 -122 50q-27 0 -45.5 -13.5t-18.5 -36.5q0 -20 17 -35t33.5 -21.5t54.5 -19.5q30 -11 48 -18t44 -22.5t40.5 -33t25.5 -45t11 -62.5q0 -88 -71 -141t-158 -53q-122 0 -228 98l82 94q40 -38 71.5 -56t73.5 -18q34 0 58.5 18.5t24.5 51.5
q0 22 -18 38.5t-34 23t-57 21.5q-76 28 -118.5 65.5t-42.5 107.5q0 83 59 129t144 46q104 0 199 -70z" />
    <glyph glyph-name="t.smcp" horiz-adv-x="471" 
d="M447 477h-140v-477h-143v477h-140v118h423v-118z" />
    <glyph glyph-name="u.smcp" horiz-adv-x="648" 
d="M72 595h143v-328q0 -161 109 -161t109 161v328h143v-315q0 -292 -254 -292q-250 0 -250 292v315z" />
    <glyph glyph-name="v.smcp" horiz-adv-x="599" 
d="M595 595l-238 -595h-126l-227 595h158l140 -384h2l137 384h154z" />
    <glyph glyph-name="w.smcp" horiz-adv-x="859" 
d="M847 595l-176 -595h-139l-102 386h-2l-110 -386h-144l-162 595h153l92 -361h2l99 361h144l97 -361h2l95 361h151z" />
    <glyph glyph-name="x.smcp" horiz-adv-x="639" 
d="M10 594h177l137 -186l133 186h172l-221 -293l227 -301h-177l-142 192l-138 -192h-174l227 300z" />
    <glyph glyph-name="y.smcp" horiz-adv-x="554" 
d="M346 0h-143v249l-199 346h170l106 -203h2l105 203h163l-204 -354v-241z" />
    <glyph glyph-name="z.smcp" horiz-adv-x="508" 
d="M466 525l-240 -407h262v-118h-451v69l240 408h-237v118h426v-70z" />
    <glyph glyph-name="thorn.smcp" horiz-adv-x="555" 
d="M74 595h143v-97q73 0 101 -4q83 -12 139.5 -62t56.5 -126q0 -64 -43 -114.5t-112 -70.5q-40 -12 -124 -13h-18v-108h-143v595zM217 380v-154h21q55 1 79 9q50 16 50 70t-49 69q-22 6 -78 6h-23z" />
    <glyph glyph-name="agrave.smcp" horiz-adv-x="608" 
d="M9 0l238 595h126l227 -595h-158l-39 107h-202l-38 -107h-154zM300 393l-58 -170h118l-58 170h-2zM290 629l-147 172l96 76l133 -186z" />
    </font>
</defs>
</svg>
