<svg width="48" height="48" viewBox="0 0 48 48" fill="none" xmlns="http://www.w3.org/2000/svg">
<mask id="mask0" mask-type="alpha" maskUnits="userSpaceOnUse" x="0" y="0" width="48" height="48">
<path fill-rule="evenodd" clip-rule="evenodd" d="M24 48C37.2548 48 48 37.2548 48 24C48 10.7452 37.2548 0 24 0C10.7452 0 0 10.7452 0 24C0 37.2548 10.7452 48 24 48Z" fill="white"/>
</mask>
<g mask="url(#mask0)">
<path fill-rule="evenodd" clip-rule="evenodd" d="M33.574 18.9128L8.49535 5.48738L8.36354 5.41565L8.24372 5.52324C5.78738 7.61537 3.78636 10.1618 2.31255 13.1147L2.20471 13.3299L2.42039 13.4374L23.4251 23.91L2.42039 34.3945L2.20471 34.5021L2.31255 34.7173C3.78636 37.6583 5.78738 40.2166 8.24372 42.3087L8.36354 42.4163L8.50733 42.3446L33.562 28.9192L33.6579 28.8474L33.8975 28.704V19.14L33.6579 18.9965L33.574 18.9128Z" fill="url(#paint0_linear)"/>
<mask id="mask1" mask-type="alpha" maskUnits="userSpaceOnUse" x="0" y="0" width="48" height="48">
<path fill-rule="evenodd" clip-rule="evenodd" d="M24 24L2.532 34.74C0.912 31.5 0 27.864 0 24C0 20.136 0.912 16.5 2.532 13.26L24 24ZM24 0C18.06 0 12.636 2.16 8.448 5.724L33.6 19.2V28.8L8.448 42.276C12.636 45.84 18.06 48 24 48C37.26 48 48 37.26 48 24C48 10.74 37.26 0 24 0Z" fill="white"/>
</mask>
<g mask="url(#mask1)">
<path fill-rule="evenodd" clip-rule="evenodd" d="M24 48C37.2548 48 48 37.2548 48 24C48 10.7452 37.2548 0 24 0C10.7452 0 0 10.7452 0 24C0 37.2548 10.7452 48 24 48Z" fill="url(#paint1_linear)"/>
</g>
</g>
<defs>
<linearGradient id="paint0_linear" x1="2.20507" y1="42.4172" x2="33.9095" y2="42.4172" gradientUnits="userSpaceOnUse">
<stop stop-color="#EBF5F7"/>
<stop offset="0.1524" stop-color="#F1F8FA"/>
<stop offset="0.5381" stop-color="#FCFDFE"/>
<stop offset="1" stop-color="white"/>
</linearGradient>
<linearGradient id="paint1_linear" x1="36.7179" y1="55.4778" x2="55.4778" y2="11.2821" gradientUnits="userSpaceOnUse">
<stop offset="0.1" stop-color="#CC0099"/>
<stop offset="0.1989" stop-color="#CF0090"/>
<stop offset="0.3602" stop-color="#D70078"/>
<stop offset="0.5638" stop-color="#E40050"/>
<stop offset="0.7995" stop-color="#F70019"/>
<stop offset="0.9" stop-color="#FF0000"/>
</linearGradient>
</defs>
</svg>
