<?xml version="1.0" encoding="UTF-8"?>
<svg width="32px" height="32px" viewBox="0 0 32 32" version="1.1" xmlns="http://www.w3.org/2000/svg" xmlns:xlink="http://www.w3.org/1999/xlink">
    <!-- Generator: Sketch 51.3 (57544) - http://www.bohemiancoding.com/sketch -->
    <title>Artboard Copy</title>
    <desc>Created with Sketch.</desc>
    <defs>
        <circle id="path-1" cx="12" cy="12" r="12"></circle>
        <linearGradient x1="0.0011342155%" y1="49.9838449%" x2="100.037807%" y2="49.9838449%" id="linearGradient-3">
            <stop stop-color="#EBF5F7" offset="0%"></stop>
            <stop stop-color="#F1F8FA" offset="15.24%"></stop>
            <stop stop-color="#FCFDFE" offset="53.81%"></stop>
            <stop stop-color="#FFFFFF" offset="100%"></stop>
        </linearGradient>
        <path d="M12,12 L1.266,17.37 C0.456,15.75 2.30038211e-12,13.932 2.30038211e-12,12 C2.30038211e-12,10.068 0.456,8.25 1.266,6.63 L12,12 L12,12 Z M12,0 C9.03,0 6.318,1.08 4.224,2.862 L16.8,9.6 L16.8,14.4 L4.224,21.138 C6.318,22.92 9.03,24 12,24 C18.63,24 24,18.63 24,12 C24,5.37 18.63,0 12,0 L12,0 Z" id="path-4"></path>
        <linearGradient x1="30.4584%" y1="96.037125%" x2="69.5416%" y2="3.962875%" id="linearGradient-6">
            <stop stop-color="#CC0099" offset="10%"></stop>
            <stop stop-color="#CF0090" offset="19.89%"></stop>
            <stop stop-color="#D70078" offset="36.02%"></stop>
            <stop stop-color="#E40050" offset="56.38%"></stop>
            <stop stop-color="#F70019" offset="79.95%"></stop>
            <stop stop-color="#FF0000" offset="90%"></stop>
        </linearGradient>
    </defs>
    <g id="Artboard-Copy" stroke="none" stroke-width="1" fill="none" fill-rule="evenodd">
        <g id="Symbol" transform="translate(4.000000, 4.000000)">
            <g id="Clipped">
                <mask id="mask-2" fill="white">
                    <use xlink:href="#path-1"></use>
                </mask>
                <g id="SVGID_7_"></g>
                <g id="Group" mask="url(#mask-2)">
                    <g id="Symbol_2_" transform="translate(1.078394, 2.689873)" fill="url(#linearGradient-3)">
                        <path d="M15.7086116,6.76652404 L3.16928129,0.0537974526 L3.10337941,0.0179324842 L3.04346861,0.0717299368 C1.81529722,1.11779151 0.814786873,2.39099789 0.0778840393,3.86743909 L0.0239643198,3.975034 L0.131803759,4.02883145 L10.6341669,9.26511684 L0.131803759,14.5073797 L0.0239643198,14.5611772 L0.0778840393,14.6687721 C0.814786873,16.1392358 1.81529722,17.4184197 3.04346861,18.4644812 L3.10337941,18.5182787 L3.17527237,18.4824137 L15.7026205,11.7696871 L15.7505492,11.7338222 L15.8703708,11.6620922 L15.8703708,6.88009644 L15.7505492,6.8083665 L15.7086116,6.76652404 L15.7086116,6.76652404 Z" id="Shape"></path>
                    </g>
                    <g id="Clipped">
                        <mask id="mask-5" fill="white">
                            <use xlink:href="#path-4"></use>
                        </mask>
                        <g id="SVGID_10_"></g>
                        <circle id="Oval" fill="url(#linearGradient-6)" mask="url(#mask-5)" cx="12" cy="12" r="12"></circle>
                    </g>
                </g>
            </g>
        </g>
    </g>
</svg>