<svg width="20" height="20" viewBox="0 0 20 20" fill="none" xmlns="http://www.w3.org/2000/svg">
<path fill-rule="evenodd" clip-rule="evenodd" d="M20 10C20 15.4647 15.4551 20 9.99379 20C4.5449 20 0 15.4647 0 10C0 4.53532 4.5325 0 9.98142 0C15.4427 0 20 4.53532 20 10ZM14.848 10.6691C15.071 10.446 15.1824 10.2478 15.1824 9.98755C15.1824 9.73971 15.0833 9.55384 14.848 9.31838L11.5539 6.00984C11.4053 5.86115 11.2072 5.78679 10.9595 5.78679C10.4889 5.78679 10.1298 6.14614 10.1298 6.61703C10.1298 6.85249 10.2412 7.07553 10.3774 7.22422L11.4425 8.27751L12.6313 9.21926L10.3527 9.13252H5.67157C5.16384 9.13252 4.80469 9.49187 4.80469 9.98755C4.80469 10.4832 5.16384 10.8426 5.67157 10.8426H10.3527L12.6437 10.7558L11.4425 11.71L10.3774 12.7509C10.2289 12.8996 10.1298 13.1226 10.1298 13.358C10.1298 13.8289 10.4889 14.2007 10.9595 14.2007C11.2072 14.2007 11.4053 14.1139 11.5539 13.9652L14.848 10.6691Z" fill="#181818"/>
</svg>
