<svg width="100" height="24" viewBox="0 0 100 24" fill="none" xmlns="http://www.w3.org/2000/svg">
<path d="M79.2188 6.53027C82.8752 6.53027 85.4441 8.88719 85.4443 12.332V22.6982H82.332V21.126C81.3046 22.3347 79.7631 23 77.8594 23C74.6561 23 72.0869 20.8846 72.0869 18.0439C72.0869 15.294 74.5957 13.4805 78.4336 13.4805H82.1201V12.0908C82.1201 10.0662 81.4857 9.28035 79.0684 9.28027C76.6206 9.28027 75.9256 10.036 75.835 12.1816H72.5107C72.9338 9.09932 75.5926 6.53044 79.2188 6.53027ZM59.2988 6.83203H63.2881V9.67285H59.2988V18.2256C59.2989 19.2528 59.8428 19.7666 60.8701 19.7666H63.2881V22.8486H61.0518C57.9089 22.8486 55.9141 20.9753 55.9141 18.0439V9.67285H52.6201V6.83203H55.9141V1H59.2988V6.83203ZM52.9355 22.6982H49.1885L47.5869 16.7441H39.6094L38.0078 22.6982H34.4111L40.6973 1H46.7109L52.9355 22.6982ZM69.5469 22.6982H66.1318V1H69.5469V22.6982ZM97.5352 10.6396H94.7246C92.9114 10.6396 92.0654 11.4867 92.0654 13.3604V22.6982H88.6504V6.83203H91.8232V10.0664C93.0018 8.13234 95.0874 6.83247 97.5352 6.53027V10.6396ZM17.7959 5.04492C17.796 5.91869 18.5028 6.6269 19.375 6.62695H21.4814C22.3535 6.6271 23.0603 7.33535 23.0605 8.20898V12.8242C23.0605 13.6981 23.7683 14.4072 24.6406 14.4072H26.7461C27.6184 14.4072 28.3261 15.1154 28.3262 15.9893V22.3193H23.0605V16.1211C23.0604 15.2474 22.3536 14.5392 21.4814 14.5391H19.375C18.5028 14.539 17.7961 13.8307 17.7959 12.957V8.60547C17.7959 7.73154 17.0882 7.02246 16.2158 7.02246H14.1104C13.238 7.02246 12.5303 7.73154 12.5303 8.60547V12.957C12.53 13.8306 11.8232 14.5389 10.9512 14.5391H8.84473C7.97245 14.5391 7.26575 15.2473 7.26562 16.1211V22.3193H2V15.9893C2.00011 15.1156 2.70702 14.4075 3.5791 14.4072H5.68555C6.55791 14.4072 7.26562 13.6981 7.26562 12.8242V8.20898C7.26586 7.33527 7.97252 6.62696 8.84473 6.62695H10.9512C11.8233 6.62676 12.5301 5.91861 12.5303 5.04492V1.74805H17.7959V5.04492ZM16.2158 14.4072C17.0881 14.4072 17.7958 15.1154 17.7959 15.9893V22.3193H12.5303V15.9893C12.5304 15.1154 13.2381 14.4072 14.1104 14.4072H16.2158ZM77.6777 16.0195C76.2575 16.0196 75.5928 16.5634 75.5928 17.6211V18.4668C75.5928 19.736 76.4393 20.3105 78.5547 20.3105C81.0625 20.3105 82.12 19.5247 82.1201 17.6816V16.0195H77.6777ZM40.4248 13.6924H46.7715L44.2021 4.14258H42.9932L40.4248 13.6924Z" fill="#12111D"/>
</svg>
