<svg fill="none" height="40" viewBox="0 0 40 40" width="40" xmlns="http://www.w3.org/2000/svg"><rect fill="#f7f8f8" height="39" rx="7.5" width="39" x=".5" y=".5"/><rect height="39" rx="7.5" stroke="#e2e4e7" width="39" x=".5" y=".5"/><path clip-rule="evenodd" d="m17.75 9h5.3749v3.3654c0 .8921.7221 1.6154 1.6126 1.6154h2.15c.8905 0 1.6124.7232 1.6124 1.6153v4.7116c0 .8921.7221 1.6154 1.6126 1.6154h2.15c.8905 0 1.6124.7232 1.6124 1.6154v6.4615h-5.375v-6.3269c0-.8922-.7219-1.6154-1.6124-1.6154h-2.15c-.8905 0-1.6126-.7232-1.6126-1.6154v-4.4423c0-.8922-.7219-1.6154-1.6124-1.6154h-2.15c-.8905 0-1.6125.7232-1.6125 1.6154v4.4423c0 .8922-.722 1.6154-1.6125 1.6154h-2.15c-.8906 0-1.6125.7232-1.6125 1.6154v6.3269h-5.375l.00002-6.4615c0-.8922.72194-1.6154 1.6125-1.6154h2.14998c.8906 0 1.6125-.7233 1.6125-1.6154v-4.7116c0-.8921.7219-1.6153 1.6125-1.6153h2.15c.8905 0 1.6125-.7233 1.6125-1.6154zm0 14.5385c0-.8922.7219-1.6154 1.6125-1.6154h2.15c.8905 0 1.6124.7232 1.6124 1.6154v6.4615h-5.3749z" fill="#000" fill-rule="evenodd"/></svg>