<svg fill="none" height="40" width="40" xmlns="http://www.w3.org/2000/svg"><rect fill="#f7f8f8" height="40" rx="8" width="40"/><rect height="39" rx="7.5" stroke="#000" stroke-opacity=".12" width="39" x=".5" y=".5"/><path clip-rule="evenodd" d="M17.75 9h5.375v3.365c0 .893.722 1.616 1.613 1.616h2.15c.89 0 1.612.723 1.612 1.615v4.712c0 .892.722 1.615 1.613 1.615h2.15c.89 0 1.612.723 1.612 1.616V30H28.5v-6.327c0-.892-.722-1.615-1.612-1.615h-2.15c-.891 0-1.613-.723-1.613-1.616V16c0-.892-.722-1.615-1.612-1.615h-2.15c-.891 0-1.613.723-1.613 1.615v4.442c0 .893-.722 1.616-1.612 1.616h-2.15c-.891 0-1.613.723-1.613 1.615V30H7v-6.461c0-.893.722-1.616 1.613-1.616h2.15c.89 0 1.612-.723 1.612-1.615v-4.712c0-.892.722-1.615 1.613-1.615h2.15c.89 0 1.612-.723 1.612-1.616zm0 14.539c0-.893.722-1.616 1.613-1.616h2.15c.89 0 1.612.723 1.612 1.615V30H17.75z" fill="#000" fill-rule="evenodd"/></svg>