<svg width="24" height="24" viewBox="0 0 24 24" fill="none" xmlns="http://www.w3.org/2000/svg">
<path fill-rule="evenodd" clip-rule="evenodd" d="M9.60002 3H14.4V6.00537C14.4 6.80209 15.0448 7.44795 15.84 7.44795H17.76C18.5553 7.44795 19.2 8.09382 19.2 8.89053V13.098C19.2 13.8948 19.8448 14.5406 20.6401 14.5406H22.56C23.3553 14.5406 24 15.1865 24 15.9832V21.7535H19.2V16.1035C19.2 15.3067 18.5553 14.6609 17.76 14.6609H15.84C15.0448 14.6609 14.4 14.015 14.4 13.2183V9.25117C14.4 8.45446 13.7553 7.8086 12.9601 7.8086H11.0401C10.2448 7.8086 9.60002 8.45446 9.60002 9.25117V13.2183C9.60002 14.015 8.95531 14.6609 8.16002 14.6609H6.24002C5.44473 14.6609 4.80002 15.3067 4.80002 16.1035V21.7535H0L1.5621e-05 15.9832C1.5621e-05 15.1865 0.644726 14.5406 1.44002 14.5406H3.36002C4.15531 14.5406 4.80002 13.8948 4.80002 13.098V8.89053C4.80002 8.09382 5.44473 7.44795 6.24002 7.44795H8.16002C8.95531 7.44795 9.60002 6.80209 9.60002 6.00537V3ZM9.6 15.9832C9.6 15.1865 10.2447 14.5406 11.04 14.5406H12.96C13.7553 14.5406 14.4 15.1865 14.4 15.9832V21.7535H9.6V15.9832Z" fill="black"/>
</svg>
