<svg width="24" height="25" viewBox="0 0 24 25" fill="none" xmlns="http://www.w3.org/2000/svg">
<g clip-path="url(#clip0_40_122)">
<path fill-rule="evenodd" clip-rule="evenodd" d="M20.9253 3.5747C18.7584 1.36342 15.3791 0.522867 12 0.5C8.6208 0.522867 5.2417 1.36351 3.07488 3.5747C0.863328 5.74188 0.0228666 9.12092 0 12.5001C0.0230474 15.8793 0.863598 19.2585 3.07488 21.4252C5.24152 23.6367 8.6208 24.4772 12 24.5001C15.3792 24.4771 18.7582 23.6367 20.9253 21.4252C23.1366 19.2583 23.9771 15.8792 24 12.5C23.9771 9.12074 23.1366 5.74152 20.9253 3.5747Z" fill="#F71414"/>
<path fill-rule="evenodd" clip-rule="evenodd" d="M13.2397 14.1328C12.9665 14.4092 12.5406 14.5144 12.1146 14.5174C11.9228 14.516 11.7319 14.4925 11.5541 14.4434V11.5903C11.7319 11.5412 11.9228 11.5177 12.1146 11.5165C12.5406 11.5193 12.9665 11.6244 13.2397 11.9009C13.5184 12.1718 13.6244 12.5944 13.6273 13.0168C13.6244 13.4394 13.5185 13.8619 13.2397 14.1328ZM15.5365 9.98875C14.7954 9.23845 13.6395 8.95339 12.4837 8.94553C12.1711 8.94769 11.8586 8.97067 11.5541 9.01717V6.85291H8.82355V17.0882H12.4837C13.6395 17.0803 14.7953 16.7952 15.5365 16.045C16.2929 15.3098 16.5805 14.1634 16.5883 13.0168C16.5805 11.8703 16.2929 10.7238 15.5365 9.98875Z" fill="white"/>
</g>
<defs>
<clipPath id="clip0_40_122">
<rect width="24" height="24" fill="white" transform="translate(0 0.5)"/>
</clipPath>
</defs>
</svg>
