<svg fill="none" height="40" width="40" xmlns="http://www.w3.org/2000/svg"><path d="M0 12.8c0-4.48 0-6.72.872-8.432A8 8 0 0 1 4.368.872C6.08 0 8.32 0 12.8 0h14.4c4.48 0 6.72 0 8.432.872a8 8 0 0 1 3.496 3.496C40 6.08 40 8.32 40 12.8v14.4c0 4.48 0 6.72-.872 8.432a8 8 0 0 1-3.496 3.496C33.92 40 31.68 40 27.2 40H12.8c-4.48 0-6.72 0-8.432-.872a8 8 0 0 1-3.496-3.496C0 33.92 0 31.68 0 27.2z" fill="#f7f8f8"/><path d="M12.8.5h14.4c2.249 0 3.905 0 5.214.107 1.303.107 2.218.316 2.99.71a7.5 7.5 0 0 1 3.279 3.278c.394.773.603 1.688.71 2.991.107 1.31.107 2.966.107 5.214v14.4c0 2.249 0 3.905-.107 5.214-.107 1.303-.316 2.218-.71 2.99a7.5 7.5 0 0 1-3.278 3.279c-.773.394-1.688.603-2.991.71-1.31.107-2.965.107-5.214.107H12.8c-2.248 0-3.905 0-5.214-.107-1.303-.107-2.218-.316-2.99-.71a7.5 7.5 0 0 1-3.279-3.278c-.394-.773-.603-1.688-.71-2.991C.5 31.104.5 29.449.5 27.2V12.8c0-2.248 0-3.905.107-5.214.107-1.303.316-2.218.71-2.99a7.5 7.5 0 0 1 3.278-3.279C5.368.923 6.283.714 7.586.607 8.896.5 10.552.5 12.8.5z" stroke="#000" stroke-opacity=".12"/><g clip-rule="evenodd" fill-rule="evenodd"><path d="M31.9 8.1C29.011 5.15 24.505 4.03 20 4c-4.506.03-9.011 1.151-11.9 4.1C5.15 10.99 4.03 15.495 4 20c.03 4.506 1.151 9.011 4.1 11.9 2.889 2.949 7.394 4.07 11.9 4.1 4.506-.03 9.011-1.151 11.9-4.1 2.949-2.889 4.07-7.394 4.1-11.9-.03-4.506-1.151-9.011-4.1-11.9z" fill="#f71414"/><path d="M21.653 22.177c-.364.369-.932.509-1.5.513a2.908 2.908 0 0 1-.748-.099v-3.804c.237-.065.492-.097.748-.098.568.004 1.136.144 1.5.512.371.361.513.925.517 1.488-.004.564-.145 1.127-.517 1.488zm3.062-5.525c-.988-1-2.53-1.38-4.07-1.391a8.631 8.631 0 0 0-1.24.095v-2.885h-3.64v13.647h4.88c1.54-.01 3.082-.391 4.07-1.391 1.009-.98 1.392-2.51 1.403-4.038-.01-1.528-.394-3.057-1.403-4.037z" fill="#fff"/></g></svg>