<svg fill="none" height="40" viewBox="0 0 40 40" width="40" xmlns="http://www.w3.org/2000/svg"><path d="m12.8.5h14.4c2.2485 0 3.9047.000389 5.2137.107333 1.3031.106467 2.2178.316045 2.9912.710117 1.4112.71905 2.5586 1.86641 3.2776 3.27762.3941.77341.6037 1.68817.7102 2.99126.1069 1.30893.1073 2.96517.1073 5.21367v14.4c0 2.2485-.0004 3.9047-.1073 5.2137-.1065 1.3031-.3161 2.2178-.7102 2.9912-.719 1.4112-1.8664 2.5586-3.2776 3.2776-.7734.3941-1.6881.6037-2.9912.7102-1.309.1069-2.9652.1073-5.2137.1073h-14.4c-2.2485 0-3.90474-.0004-5.21367-.1073-1.30309-.1065-2.21785-.3161-2.99126-.7102-1.41121-.719-2.55857-1.8664-3.27762-3.2776-.394072-.7734-.60365-1.6881-.710117-2.9912-.106944-1.309-.107333-2.9652-.107333-5.2137v-14.4c0-2.2485.000389-3.90474.107333-5.21367.106467-1.30309.316045-2.21785.710117-2.99126.71905-1.41121 1.86641-2.55857 3.27762-3.27762.77341-.394072 1.68817-.60365 2.99126-.710117 1.30893-.106944 2.96517-.107333 5.21367-.107333z" fill="#f7f8f8"/><path d="m12.8.5h14.4c2.2485 0 3.9047.000389 5.2137.107333 1.3031.106467 2.2178.316045 2.9912.710117 1.4112.71905 2.5586 1.86641 3.2776 3.27762.3941.77341.6037 1.68817.7102 2.99126.1069 1.30893.1073 2.96517.1073 5.21367v14.4c0 2.2485-.0004 3.9047-.1073 5.2137-.1065 1.3031-.3161 2.2178-.7102 2.9912-.719 1.4112-1.8664 2.5586-3.2776 3.2776-.7734.3941-1.6881.6037-2.9912.7102-1.309.1069-2.9652.1073-5.2137.1073h-14.4c-2.2485 0-3.90474-.0004-5.21367-.1073-1.30309-.1065-2.21785-.3161-2.99126-.7102-1.41121-.719-2.55857-1.8664-3.27762-3.2776-.394072-.7734-.60365-1.6881-.710117-2.9912-.106944-1.309-.107333-2.9652-.107333-5.2137v-14.4c0-2.2485.000389-3.90474.107333-5.21367.106467-1.30309.316045-2.21785.710117-2.99126.71905-1.41121 1.86641-2.55857 3.27762-3.27762.77341-.394072 1.68817-.60365 2.99126-.710117 1.30893-.106944 2.96517-.107333 5.21367-.107333z" stroke="#e2e4e7"/><g clip-rule="evenodd" fill-rule="evenodd"><path d="m31.9004 8.0996c-2.8892-2.94838-7.395-4.06911-11.9004-4.0996-4.5056.03049-9.0111 1.15134-11.90016 4.0996-2.94874 2.8896-4.06935 7.395-4.09984 11.9006.03073 4.5055 1.15146 9.0111 4.09984 11.9001 2.88886 2.9486 7.39456 4.0693 11.90016 4.0999 4.5056-.0307 9.011-1.1513 11.9004-4.0999 2.9484-2.8893 4.0691-7.3947 4.0996-11.9003-.0305-4.5057-1.1512-9.0113-4.0996-11.9004z" fill="#f71414"/><path d="m21.6528 22.1771c-.3642.3687-.9321.5088-1.5001.5128-.2557-.0018-.5103-.0332-.7473-.0985v-3.8043c.237-.0653.4916-.0967.7473-.0984.568.0039 1.1359.1439 1.5001.5126.3716.3612.513.9246.5168 1.4879-.0038.5634-.145 1.1268-.5168 1.4879zm3.0625-5.5253c-.9882-1.0004-2.5294-1.3805-4.0704-1.391-.4169.0029-.8335.0335-1.2395.0955v-2.8857h-3.6408v13.6471h4.8803c1.541-.0105 3.0821-.3907 4.0704-1.391 1.0085-.9802 1.3919-2.5088 1.4023-4.0375-.0104-1.5286-.3938-3.0574-1.4023-4.0374z" fill="#fff"/></g></svg>