<svg width="237" height="28" viewBox="0 0 237 28" fill="none" xmlns="http://www.w3.org/2000/svg">
<g clip-path="url(#clip0_1044_4581)">
<path d="M9.05347 16.6372L18.0129 7.66039V16.6372H9.05347ZM3.75683 3.76419C-1.24504 8.77712 -1.25203 16.8985 3.73444 21.9203H11.5106L7.64582 18.0479C4.78342 15.1798 4.78342 10.529 7.64582 7.66085C10.5082 4.79272 15.1496 4.79272 18.0134 7.65945V1.09252C13.3086 -0.98788 7.61177 -0.0970133 3.75683 3.76419ZM61.4756 3.57799H65.2969V0.294053H61.4756V3.57799ZM78.6244 0.294053H82.4555V21.9203H78.6971V19.3672H78.4639C78.2676 19.7606 77.9807 20.1787 77.6095 20.6183C77.2358 21.0579 76.7452 21.4322 76.1309 21.743C75.5199 22.0533 74.7494 22.2064 73.824 22.2069C72.5507 22.2064 71.4131 21.8788 70.4061 21.2255C69.3986 20.5693 68.6043 19.6197 68.0199 18.3737C67.435 17.1277 67.143 15.6143 67.143 13.8335C67.143 12.0527 67.4392 10.508 68.0339 9.26665C68.629 8.02299 69.4322 7.08545 70.4448 6.44659C71.4569 5.81005 72.5885 5.49179 73.8338 5.49179C74.7834 5.49179 75.5651 5.65232 76.1771 5.97292C76.7886 6.29352 77.2741 6.67712 77.6332 7.12419C77.9924 7.57125 78.2699 7.99125 78.4663 8.38745H78.6239V0.294053H78.6244ZM78.7046 13.8092C78.7046 12.7597 78.5586 11.8492 78.2676 11.0741C77.9761 10.2994 77.5465 9.69692 76.9807 9.26945C76.415 8.83965 75.7186 8.62592 74.8954 8.62592C74.0721 8.62592 73.3343 8.84712 72.7638 9.29139C72.1934 9.73612 71.7638 10.3479 71.4775 11.1277C71.1883 11.9099 71.0451 12.8035 71.0451 13.8092C71.0451 14.8149 71.1906 15.7258 71.4821 16.5177C71.7736 17.3097 72.2079 17.9341 72.7811 18.3881C73.3539 18.8427 74.06 19.0685 74.8982 19.0685L74.893 19.0709C75.7018 19.0709 76.3912 18.8497 76.9616 18.4101C77.5325 17.9705 77.9649 17.3559 78.2606 16.5663C78.5567 15.7767 78.7046 14.8587 78.7046 13.8092ZM31.5539 12.7331H40.9686V9.44912H31.5539V3.57799H41.6971V0.294053H27.6379V21.9203H41.782V18.6364H31.5539V12.7335V12.7331ZM58.7377 9.26199C59.3324 10.5057 59.6286 12.0261 59.6286 13.8288C59.6286 15.6315 59.3375 17.1225 58.7522 18.3685C58.1668 19.6145 57.373 20.5647 56.3655 21.2203C55.3604 21.8765 54.2195 22.2017 52.9448 22.2017C52.0152 22.2017 51.2452 22.0463 50.6337 21.7379C50.0222 21.4294 49.5316 21.0528 49.1626 20.6132C48.7937 20.1736 48.5068 19.7559 48.303 19.3625H48.1454V28.0005H44.3263V5.70132H48.0847V8.38279H48.3058C48.5022 7.98939 48.7816 7.56892 49.1384 7.11952C49.4975 6.67245 49.9831 6.28885 50.595 5.96825C51.2069 5.64765 51.9886 5.48759 52.9378 5.48759C54.1906 5.48759 55.3221 5.80585 56.3319 6.44239C57.3422 7.07892 58.1435 8.01879 58.7377 9.26245V9.26199ZM55.7368 13.8139C55.7368 12.8007 55.5936 11.9117 55.3049 11.1319C55.0157 10.3498 54.5861 9.73752 54.018 9.29559C53.4471 8.85085 52.7358 8.63012 51.8865 8.63012C51.0372 8.63012 50.3762 8.84385 49.8081 9.27365C49.2377 9.70345 48.8077 10.3059 48.5143 11.0783C48.2228 11.8534 48.0773 12.7639 48.0773 13.8134L48.0721 13.8111C48.0721 14.8601 48.2228 15.7785 48.5213 16.5681C48.8198 17.3577 49.2522 17.9723 49.8203 18.4119C50.386 18.8515 51.0754 19.0727 51.8837 19.0727C52.692 19.0727 53.4355 18.8469 54.0059 18.3928C54.5768 17.9383 55.0064 17.3167 55.2997 16.5224C55.5913 15.7305 55.7368 14.827 55.7368 13.8139ZM61.4733 21.9199H65.2942V5.70132H61.4733V21.9203V21.9199ZM217.216 6.20859C216.383 5.73025 215.407 5.48945 214.288 5.48945C213.077 5.48945 212.062 5.75919 211.244 6.29352C210.423 6.82785 209.825 7.54932 209.455 8.45792H209.262V5.70085H205.611V21.9199H209.432V12.4171C209.432 11.6373 209.578 10.9719 209.87 10.4226C210.163 9.87379 210.566 9.45099 211.083 9.15932C211.601 8.86812 212.193 8.72205 212.863 8.72205C213.849 8.72205 214.621 9.02819 215.179 9.64045C215.737 10.2527 216.019 11.1002 216.019 12.1861V21.9194H219.838V11.5935C219.846 10.2989 219.62 9.19619 219.159 8.28759C218.698 7.38179 218.052 6.68692 217.217 6.20812L217.216 6.20859ZM98.7941 10.0031C99.1873 11.0353 99.3837 12.2622 99.3837 13.6832V14.8564H88.0945C88.1043 15.7599 88.2769 16.535 88.6095 17.1832C88.9541 17.8561 89.435 18.3709 90.054 18.7255C90.6729 19.0825 91.3986 19.2599 92.2321 19.2599C92.7853 19.2599 93.2881 19.1796 93.7373 19.0219C94.1887 18.8641 94.5796 18.6285 94.9094 18.32C95.2401 18.0092 95.49 17.6251 95.6598 17.1687H99.2503C99.0176 18.4903 98.4784 19.4666 97.7937 20.1904C97.7624 20.2245 97.7307 20.2585 97.6995 20.2898C97.1099 20.8703 96.3884 21.3272 95.5311 21.6623C94.5553 22.0459 93.4359 22.2381 92.1762 22.2381C90.5521 22.2381 89.1486 21.8979 87.9709 21.218C86.7909 20.5404 85.8856 19.5735 85.2517 18.3251C84.6183 17.0763 84.3025 15.5755 84.3025 13.9067C84.3025 12.2379 84.6206 10.7707 85.2568 9.50745C85.8954 8.24419 86.7867 7.25812 87.9322 6.55112C89.0805 5.84179 90.428 5.48945 91.9747 5.48945C92.9751 5.48945 93.9196 5.64999 94.8105 5.97059C95.699 6.28885 96.4882 6.78445 97.1747 7.45225C97.8594 8.12285 98.401 8.97265 98.7941 10.0026V10.0031ZM95.7233 12.279C95.7163 11.5477 95.5581 10.8944 95.2475 10.3213C94.9392 9.74545 94.5068 9.29372 93.956 8.96332C93.4024 8.63292 92.7615 8.46772 92.0283 8.46772C91.2466 8.46772 90.5619 8.65485 89.9695 9.03099C89.38 9.40759 88.921 9.90039 88.5955 10.5103C88.3016 11.0545 88.1365 11.6425 88.1001 12.2785H95.7237L95.7233 12.279ZM186.205 9.47105C186.841 10.7315 187.159 12.1987 187.159 13.875C187.159 15.5513 186.841 17.0157 186.205 18.2691C185.569 19.5226 184.668 20.4965 183.508 21.1937C182.348 21.8909 180.976 22.2381 179.393 22.2381C177.81 22.2381 176.436 21.8909 175.275 21.1937C174.115 20.4965 173.217 19.5226 172.578 18.2691C171.942 17.0157 171.624 15.5485 171.624 13.875C171.624 12.2015 171.942 10.732 172.578 9.47105C173.217 8.21292 174.115 7.23385 175.275 6.53665C176.436 5.83945 177.81 5.48992 179.393 5.48992C180.975 5.48992 182.348 5.83992 183.508 6.53665C184.668 7.23385 185.569 8.21292 186.205 9.47105ZM183.287 13.8652C183.287 12.8717 183.144 11.9729 182.86 11.1665C182.573 10.3601 182.144 9.71885 181.566 9.24005C180.991 8.76172 180.291 8.52092 179.412 8.52092C178.533 8.52092 177.803 8.76125 177.222 9.24005C176.642 9.71839 176.21 10.3601 175.926 11.1665C175.639 11.9729 175.496 12.8791 175.496 13.8652C175.496 14.8513 175.639 15.7454 175.926 16.5471C176.21 17.3512 176.642 17.9901 177.222 18.4637C177.803 18.9397 178.553 19.1777 179.412 19.1777C180.272 19.1777 180.991 18.9397 181.566 18.4637C182.144 17.9901 182.573 17.3512 182.86 16.5471C183.144 15.7454 183.287 14.8587 183.287 13.8652ZM168.432 11.6159C167.83 11.1226 167.15 10.7147 166.395 10.3918C165.637 10.0661 164.851 9.81125 164.035 9.61945L162.008 9.11405C161.566 9.00719 161.126 8.87839 160.69 8.72299C160.252 8.56759 159.857 8.37579 159.498 8.14712C159.138 7.91892 158.854 7.63705 158.648 7.30665C158.439 6.97625 158.335 6.58519 158.335 6.13579C158.342 5.59165 158.503 5.11052 158.811 4.68819C159.122 4.26539 159.568 3.93265 160.151 3.68485C160.736 3.43939 161.435 3.31572 162.251 3.31572C163.414 3.31572 164.358 3.57332 165.086 4.08572C165.814 4.60045 166.227 5.31725 166.324 6.24032H170.095C170.073 5.02325 169.73 3.94479 169.07 3.00492C168.407 2.06505 167.499 1.32912 166.341 0.79712C165.183 0.264653 163.817 5.29205e-05 162.304 5.29205e-05C160.791 5.29205e-05 159.436 0.264653 158.24 0.796653C157.045 1.32865 156.099 2.07205 155.407 3.02919C154.714 3.98865 154.367 5.10352 154.367 6.37892C154.367 7.92639 154.882 9.16725 155.914 10.1001C156.943 11.033 158.349 11.7274 160.131 12.1866L162.588 12.8208C163.362 13.0177 164.04 13.2408 164.62 13.4914C165.2 13.7415 165.654 14.05 165.977 14.4191C166.3 14.7883 166.465 15.2549 166.472 15.8182C166.465 16.4375 166.28 16.9793 165.914 17.4408C165.547 17.9 165.042 18.2593 164.399 18.5169C163.755 18.7745 162.971 18.9033 162.156 18.9033C161.34 18.9033 160.602 18.7792 159.944 18.5342C159.286 18.2864 158.755 17.9149 158.346 17.4142C157.939 16.9139 157.706 16.2872 157.65 15.534C157.65 15.534 157.627 15.3347 157.65 14.8564H153.797C153.775 15.3189 153.797 15.534 153.797 15.534C153.853 16.9695 154.229 18.1889 154.921 19.1875C155.613 20.1885 156.579 20.9487 157.812 21.4686C159.048 21.9908 160.456 22.2507 162.187 22.2507C163.918 22.2507 165.394 21.981 166.616 21.442C167.837 20.9053 168.771 20.1545 169.417 19.1927C170.066 18.2332 170.388 17.1183 170.388 15.8504C170.388 14.9152 170.213 14.099 169.862 13.4018C169.51 12.7046 169.034 12.1096 168.432 11.6163V11.6159ZM237 0.294053V21.9203H233.241V19.3672H233.008C232.812 19.7606 232.527 20.1787 232.154 20.6179C231.782 21.0575 231.29 21.4341 230.678 21.7425C230.064 22.0533 229.294 22.2064 228.364 22.2064C227.092 22.2064 225.951 21.8811 224.946 21.225C223.938 20.5717 223.144 19.6192 222.56 18.3732C221.977 17.1272 221.686 15.6357 221.686 13.8335C221.686 12.0312 221.982 10.508 222.576 9.26665C223.172 8.02299 223.975 7.08312 224.987 6.44659C226.002 5.81005 227.131 5.48945 228.377 5.48945C229.326 5.48945 230.108 5.64999 230.72 5.97059C231.331 6.29119 231.817 6.67479 232.176 7.12185C232.535 7.56892 232.812 7.98892 233.009 8.38512H233.169V0.294053H237ZM233.241 13.812C233.241 12.7625 233.096 11.852 232.804 11.0769C232.51 10.3022 232.081 9.70205 231.515 9.27225C230.949 8.84245 230.284 8.62825 229.432 8.62825C228.58 8.62825 227.869 8.84945 227.298 9.29139C226.73 9.73612 226.301 10.3479 226.012 11.1301C225.723 11.9122 225.579 12.7965 225.579 13.8115C225.579 14.8265 225.725 15.7281 226.016 16.5201C226.308 17.312 226.742 17.9364 227.315 18.3905C227.888 18.8445 228.623 19.0709 229.432 19.0709C230.241 19.0709 230.93 18.852 231.501 18.4124C232.069 17.9705 232.503 17.3582 232.797 16.5686C233.094 15.779 233.241 14.8611 233.241 13.8115V13.812ZM199.246 15.1019C199.246 15.9251 199.076 16.6101 198.736 17.1543C198.394 17.7007 197.959 18.1114 197.433 18.3858C196.903 18.6602 196.359 18.796 195.797 18.796C194.881 18.796 194.143 18.495 193.58 17.8874C193.017 17.2826 192.735 16.4664 192.735 15.4388V5.70132H188.914V16.0296C188.914 17.3241 189.142 18.4292 189.601 19.3406C190.058 20.2515 190.694 20.9464 191.507 21.4224C192.318 21.8961 193.257 22.1341 194.318 22.1341C195.538 22.1341 196.562 21.8447 197.394 21.2693C198.23 20.6911 198.829 19.9477 199.196 19.0396H199.364V21.9203H203.068V5.70132H199.247V15.1019H199.246ZM118.964 5.48759C117.789 5.48759 116.774 5.75732 115.92 6.29632C115.065 6.83532 114.458 7.55445 114.099 8.45559H113.929C113.618 7.54232 113.087 6.81852 112.329 6.28652C111.572 5.75452 110.63 5.48992 109.547 5.48992C108.464 5.48992 107.53 5.75219 106.75 6.27672C105.97 6.80125 105.41 7.52785 105.072 8.45792H104.883V5.70085H101.232V21.9199H105.055V12.0555C105.055 11.3877 105.189 10.7997 105.456 10.2966C105.723 9.79119 106.082 9.40245 106.532 9.12339C106.981 8.84432 107.481 8.70572 108.029 8.70572C108.838 8.70572 109.496 8.95585 109.998 9.45612C110.5 9.95639 110.753 10.6242 110.753 11.4623V21.9194H114.499V11.7997C114.499 10.8865 114.759 10.1407 115.276 9.56719C115.793 8.99365 116.512 8.70712 117.435 8.70712C118.209 8.70712 118.865 8.94045 119.399 9.40899C119.933 9.87799 120.2 10.6163 120.2 11.6219V21.9189H124.031V11.0316C124.031 9.22185 123.557 7.84472 122.616 6.90205C121.674 5.95705 120.455 5.48572 118.964 5.48572L118.964 5.48759ZM126.575 21.9203H130.396V5.70132H126.575V21.9203ZM126.578 3.57845H130.399V0.294053H126.578V3.57799V3.57845ZM137.983 9.20412C138.575 8.78365 139.26 8.57505 140.041 8.57505C140.964 8.57505 141.699 8.83732 142.253 9.36185C142.806 9.88639 143.156 10.5374 143.304 11.32H146.956C146.871 10.1515 146.526 9.12899 145.921 8.25212C145.317 7.37525 144.506 6.69765 143.489 6.21419C142.471 5.73072 141.306 5.49039 139.991 5.49039C138.407 5.49039 137.038 5.84505 135.88 6.55205C134.725 7.25905 133.828 8.24512 133.195 9.50839C132.561 10.774 132.246 12.2361 132.246 13.8759C132.246 15.5158 132.556 16.9657 133.18 18.2215C133.804 19.4773 134.692 20.4611 135.851 21.1727C137.009 21.8844 138.395 22.2391 140.015 22.2391L140.01 22.2367C141.369 22.2367 142.549 21.9889 143.557 21.4933C144.564 20.9977 145.359 20.308 145.943 19.4237C146.526 18.5421 146.864 17.5243 146.956 16.3777H143.304C143.19 16.9629 142.984 17.4585 142.68 17.8669C142.377 18.2747 142.004 18.5883 141.556 18.8021C141.11 19.0181 140.605 19.125 140.042 19.125C139.248 19.125 138.556 18.9113 137.969 18.4861C137.381 18.061 136.925 17.4515 136.602 16.6596C136.279 15.8677 136.116 14.9035 136.116 13.8129C136.116 12.7223 136.281 11.7848 136.606 11.005C136.932 10.2252 137.393 9.62505 137.983 9.20505V9.20412Z" fill="white"/>
</g>
<defs>
<clipPath id="clip0_1044_4581">
<rect width="237" height="28" fill="white"/>
</clipPath>
</defs>
</svg>
