<svg width="24" height="25" viewBox="0 0 24 25" fill="none" xmlns="http://www.w3.org/2000/svg">
<path d="M8.65117 6.71829C8.65117 6.92699 8.63317 7.27603 8.42355 7.50182C8.19682 7.71142 7.84695 7.72851 7.63643 7.72851H5.39737C4.75058 7.72851 4.36556 7.72851 4.10378 7.76359C3.96345 7.78068 3.78893 7.84995 3.70077 7.88504C3.66569 7.90303 3.66568 7.88504 3.68278 7.86705L8.7924 2.69627C8.8104 2.67918 8.8275 2.67918 8.8104 2.71426C8.7744 2.80152 8.7051 2.97514 8.6871 3.11457C8.65207 3.37545 8.65208 3.75868 8.65208 4.40278V6.71829H8.65117ZM13.4099 22.353C12.8162 21.9706 12.5014 21.466 12.3781 21.1529C12.2523 20.8491 12.1869 20.5237 12.1856 20.1948C12.1856 18.7501 13.3757 17.5654 14.8447 17.5654C14.9479 17.5648 15.0503 17.5846 15.1458 17.6238C15.2414 17.6628 15.3282 17.7205 15.4014 17.7934C15.4745 17.8662 15.5326 17.9527 15.5721 18.0481C15.6117 18.1434 15.632 18.2457 15.6319 18.3489C15.6319 18.6458 15.4745 18.8886 15.2298 19.0281C15.1369 19.0781 15.0367 19.1133 14.9329 19.1325C14.8447 19.1505 14.5128 19.1846 14.3554 19.3241C14.1799 19.4635 14.0405 19.6902 14.0405 19.934C14.0405 20.1949 14.1449 20.4378 14.3194 20.6132C14.6342 20.9263 15.0553 21.0999 15.5095 21.0999C15.7915 21.1008 16.0709 21.0462 16.3318 20.939C16.5926 20.8319 16.8298 20.6744 17.0297 20.4756C17.2296 20.2767 17.3884 20.0404 17.4969 19.7802C17.6055 19.5199 17.6616 19.2408 17.6622 18.9588C17.6622 17.8974 16.9444 16.9563 15.9998 16.539C15.8595 16.4688 15.6319 16.4166 15.4222 16.3644C15.2485 16.329 15.0737 16.2999 14.8979 16.2772C14.1629 16.1899 12.3251 15.616 12.2027 13.9968C12.2027 13.9968 11.6602 16.4346 10.5763 17.0958C10.4479 17.1582 10.3126 17.205 10.1732 17.2353C10.0158 17.2694 9.84037 17.2874 9.78825 17.2874C8.02147 17.3918 6.14942 16.8349 4.85493 15.5116C4.85493 15.5116 3.97964 14.7974 3.52535 12.7949C3.4201 12.3074 3.2105 11.4366 3.08726 10.6179C3.03509 10.3229 3.01799 10.0962 3 9.88752C3 9.0338 3.52535 8.4599 4.19015 8.3726H7.75875C8.37135 8.3726 8.7213 8.21607 8.94893 8.00735C9.24578 7.72851 9.31597 7.3282 9.31597 6.85772V3.18384C9.4041 2.53974 9.9816 2 10.838 2H11.2581C11.4335 2 11.6431 2.01799 11.8357 2.03509C11.976 2.05308 12.0983 2.08726 12.308 2.13943C13.3757 2.40031 13.6034 3.4798 13.6034 3.4798C13.6034 3.4798 15.6148 3.82794 16.6295 4.00156C17.5921 4.17698 19.9715 4.33351 20.4257 6.71829C21.4935 12.3946 20.8458 17.8965 20.7937 17.8965C20.0416 23.2588 15.5626 22.998 15.5626 22.998C14.6 22.998 13.8831 22.6849 13.4099 22.3539V22.353ZM17.4347 10.9499C16.8571 10.8977 16.3668 11.1235 16.1923 11.5589C16.1572 11.6462 16.1221 11.7505 16.1392 11.8018C16.1572 11.8549 16.1923 11.8719 16.2274 11.8899C16.437 11.9943 16.7869 12.0465 17.2943 12.0987C17.8016 12.1508 18.1516 12.1859 18.3792 12.1508C18.4143 12.1508 18.4493 12.1329 18.4844 12.0816C18.5195 12.0294 18.5024 11.9241 18.5024 11.8377C18.4313 11.3502 18.0122 11.0192 17.4347 10.9499Z" fill="#00A82D"/>
</svg>
