<svg fill="none" height="40" viewBox="0 0 40 40" width="40" xmlns="http://www.w3.org/2000/svg"><rect fill="#f8f6f2" height="39" rx="7.5" width="39" x=".5" y=".5"/><rect height="39" rx="7.5" stroke="#c8c8c8" width="39" x=".5" y=".5"/><path d="m15.9967 12.8417c0 .2584-.0223.6905-.2818.9701-.2807.2595-.7139.2806-.9746.2806h-2.7721c-.8008 0-1.2775 0-1.6016.0435-.1738.0211-.38983.1069-.49898.1503-.04344.0223-.04344 0-.02228-.0222l6.32616-6.40195c.0223-.02116.0435-.02116.0223.02227-.0446.10804-.1304.323-.1526.49563-.0434.32299-.0434.79745-.0434 1.59491v2.86684zm5.8918 19.3572c-.7351-.4734-1.1249-1.0982-1.2776-1.4858-.1557-.3762-.2367-.779-.2382-1.1862 0-1.7887 1.4734-3.2554 3.2922-3.2554.1278-.0008.2545.0237.3727.0722.1183.0484.2259.1198.3165.2099.0905.0902.1624.1974.2113.3155.0491.118.0742.2446.074.3724 0 .3676-.1949.6682-.4978.8409-.115.0619-.2391.1055-.3676.1292-.1091.0223-.5201.0645-.715.2373-.2172.1726-.3898.4532-.3898.7551 0 .3229.1292.6237.3452.8409.3899.3876.9112.6025 1.4736.6025.349.0011.695-.0664 1.018-.1991.3229-.1326.6166-.3276.8641-.5738s.4441-.5388.5784-.861c.1345-.3222.2039-.6677.2047-1.0169 0-1.3142-.8888-2.4792-2.0582-2.996-.1737-.0869-.4556-.1514-.7151-.2161-.215-.0439-.4316-.0799-.6492-.108-.91-.108-3.1854-.8186-3.337-2.8234 0 0-.6715 3.0184-2.0136 3.837-.1588.0771-.3264.1351-.499.1726-.1949.0422-.4121.0645-.4766.0645-2.1874.1293-4.5052-.5602-6.1079-2.1985 0 0-1.0837-.8843-1.64616-3.3636-.13031-.6036-.38982-1.6817-.5424-2.6953-.0646-.3653-.08576-.646-.10804-.9043 0-1.057.65044-1.7675 1.4735-1.8756h4.4183c.7584 0 1.1917-.1938 1.4735-.4522.3676-.3453.4545-.8409.4545-1.4234v-4.54859c.1091-.79746.8241-1.46571 1.8844-1.46571h.5201c.2172 0 .4767.02228.7151.04344.1737.02228.3252.0646.5847.12919 1.322.32299 1.6038 1.6595 1.6038 1.6595s2.4904.43104 3.7467.64599c1.1918.21719 4.1376.41098 4.7001 3.36358 1.322 7.0278.5201 13.8396.4555 13.8396-.9311 6.6391-6.4766 6.3162-6.4766 6.3162-1.1917 0-2.0793-.3876-2.6651-.7975zm4.983-14.1181c-.7151-.0646-1.3221.215-1.5381.754-.0435.1081-.0869.2373-.0658.3008.0223.0656.0657.0868.1091.1091.2596.1291.6928.1938 1.321.2584.6281.0645 1.0614.108 1.3432.0645.0434 0 .0868-.0222.1303-.0857.0434-.0646.0223-.1949.0223-.3018-.0881-.6036-.6071-1.0135-1.322-1.0993z" fill="#00a82d"/></svg>