<svg fill="none" height="40" width="40" xmlns="http://www.w3.org/2000/svg"><rect fill="#f8f6f2" height="40" rx="8" width="40"/><rect height="39" rx="7.5" stroke="#000" stroke-opacity=".12" width="39" x=".5" y=".5"/><path d="M15.997 12.842c0 .258-.023.69-.282.97-.28.26-.714.28-.975.28h-2.772c-.8 0-1.277 0-1.601.044-.174.021-.39.107-.5.15-.043.022-.043 0-.022-.022l6.326-6.402c.023-.021.044-.021.023.022-.045.108-.13.323-.153.496-.043.323-.043.797-.043 1.595v2.867zm5.892 19.357c-.736-.474-1.125-1.098-1.278-1.486a3.132 3.132 0 0 1-.238-1.186c0-1.789 1.473-3.256 3.292-3.256a.966.966 0 0 1 .974.97.952.952 0 0 1-.497.841c-.115.062-.24.106-.368.13-.11.022-.52.064-.715.237-.217.172-.39.453-.39.755 0 .323.13.624.345.84.39.388.912.603 1.474.603a2.657 2.657 0 0 0 2.665-2.65c0-1.315-.889-2.48-2.058-2.996-.174-.087-.456-.152-.715-.217a9.02 9.02 0 0 0-.65-.108c-.91-.108-3.185-.818-3.336-2.823 0 0-.672 3.018-2.014 3.837a2.224 2.224 0 0 1-.499.173 3.034 3.034 0 0 1-.476.064c-2.188.13-4.506-.56-6.108-2.198 0 0-1.084-.885-1.647-3.364-.13-.604-.39-1.682-.542-2.695-.065-.366-.086-.646-.108-.905 0-1.057.65-1.767 1.474-1.875h4.418c.758 0 1.192-.194 1.473-.452.368-.346.455-.841.455-1.424V8.466C16.929 7.668 17.644 7 18.704 7h.52c.217 0 .477.022.715.043.174.023.326.065.585.13 1.322.323 1.604 1.66 1.604 1.66s2.49.43 3.747.645c1.191.217 4.137.411 4.7 3.364 1.322 7.027.52 13.84.455 13.84-.93 6.638-6.476 6.316-6.476 6.316-1.192 0-2.08-.388-2.665-.798zm4.983-14.118c-.716-.065-1.323.215-1.539.754-.043.108-.086.237-.065.3.022.066.065.087.109.11.26.129.693.193 1.32.258.629.065 1.062.108 1.344.065.043 0 .087-.023.13-.086.044-.065.023-.195.023-.302-.089-.604-.608-1.013-1.322-1.1z" fill="#00a82d"/></svg>