<svg width="48" height="48" xmlns="http://www.w3.org/2000/svg"><path d="M12.387 9.361c0 .232-.02.62-.253.871-.252.233-.641.252-.875.252H8.77c-.719 0-1.147 0-1.438.039-.156.019-.35.096-.448.135-.039.02-.039 0-.02-.02l5.68-5.748c.02-.019.039-.019.02.02-.04.097-.117.29-.137.445-.039.29-.039.716-.039 1.432v2.574zm5.29 17.38c-.66-.425-1.01-.986-1.147-1.334a2.812 2.812 0 0 1-.214-1.065c0-1.606 1.323-2.923 2.956-2.923a.87.87 0 0 1 .875.871c0 .33-.175.6-.447.755a1.127 1.127 0 0 1-.33.116c-.098.02-.467.058-.642.213-.195.155-.35.407-.35.678 0 .29.116.56.31.755.35.348.818.541 1.323.541a2.385 2.385 0 0 0 2.393-2.38c0-1.18-.798-2.226-1.848-2.69-.156-.078-.409-.136-.642-.194a8.063 8.063 0 0 0-.583-.097c-.817-.097-2.86-.735-2.996-2.535 0 0-.603 2.71-1.808 3.445a1.996 1.996 0 0 1-.448.155c-.175.038-.37.058-.428.058-1.964.116-4.045-.503-5.484-1.974 0 0-.973-.794-1.478-3.02-.117-.542-.35-1.51-.487-2.42-.058-.328-.077-.58-.097-.812 0-.949.584-1.587 1.323-1.684h3.967c.681 0 1.07-.174 1.323-.406.33-.31.408-.755.408-1.278V5.432c.098-.716.74-1.316 1.692-1.316h.467c.195 0 .428.02.642.039.156.02.292.058.525.116 1.187.29 1.44 1.49 1.44 1.49s2.236.387 3.364.58c1.07.195 3.715.369 4.22 3.02 1.187 6.31.467 12.426.409 12.426-.836 5.961-5.815 5.671-5.815 5.671-1.07 0-1.867-.348-2.393-.716zm4.474-12.676c-.642-.058-1.187.193-1.381.677-.039.097-.078.213-.059.27.02.059.059.078.098.098.233.116.622.174 1.186.232.564.058.953.097 1.206.058.039 0 .078-.02.117-.077.039-.058.02-.175.02-.271-.079-.542-.545-.91-1.187-.987z" fill="#00A82D"/></svg>