<svg width="64" height="64" xmlns="http://www.w3.org/2000/svg"><path d="M12.3873 9.3613c0 .2322-.0195.6193-.2529.871-.2528.2322-.6418.2516-.8752.2516H8.7697c-.7196 0-1.1475 0-1.4392.0387-.1556.0193-.3501.0968-.4474.1355-.0389.0193-.0389 0-.0194-.0194l5.6792-5.7484c.0194-.0193.0388-.0193.0194.0194-.0389.0968-.1167.2903-.1361.4451-.039.2904-.039.7162-.039 1.4323v2.5742zm5.2902 17.3806c-.6613-.4258-1.0114-.987-1.1476-1.3354-.1361-.329-.2139-.6968-.2139-1.0646 0-1.6064 1.3226-2.9225 2.9563-2.9225.4862 0 .8752.387.8752.871 0 .329-.175.6-.4473.7548-.0973.058-.2334.0967-.3307.116-.0972.0194-.4667.0582-.6418.213-.1945.1548-.35.4064-.35.6774 0 .2903.1166.5613.3111.7549.3501.3483.8169.5419 1.3226.5419 1.3225 0 2.3922-1.0645 2.3922-2.3807 0-1.1806-.7974-2.2258-1.8477-2.6903-.1556-.0774-.4084-.1355-.6418-.1935-.2917-.058-.564-.0968-.5835-.0968-.8168-.0968-2.859-.7355-2.9951-2.5355 0 0-.603 2.7097-1.8088 3.4452-.1167.058-.2723.1161-.4474.1548-.175.0387-.3695.058-.4278.058-1.9644.1162-4.0455-.5031-5.4847-1.9741 0 0-.9725-.7936-1.4782-3.0194-.1167-.542-.35-1.5096-.4862-2.4193-.0584-.329-.0778-.5807-.0973-.813 0-.9483.5835-1.587 1.3226-1.6838h3.9677c.6807 0 1.0697-.1742 1.3225-.4065.3306-.3096.4084-.7548.4084-1.2774V5.4323c.0973-.7162.7391-1.3162 1.6921-1.3162h.4668c.1945 0 .4279.0194.6418.0387.1556.0194.2918.0581.5252.1162 1.1864.2903 1.4392 1.4903 1.4392 1.4903s2.2367.387 3.3647.5806c1.0697.1936 3.7148.3678 4.2205 3.0194 1.1864 6.3097.4668 12.4258.4084 12.4258-.8363 5.9613-5.8153 5.671-5.8153 5.671-1.0697 0-1.8671-.3484-2.3922-.7162zm4.4733-12.6774c-.6418-.058-1.1864.1936-1.381.6774-.0388.0968-.0777.213-.0583.271.0195.058.0584.0774.0973.0968.2334.1161.6224.1742 1.1864.2322.564.0581.953.0968 1.2058.0581.039 0 .0778-.0194.1167-.0774.039-.058.0195-.1742.0195-.271-.0778-.542-.5446-.9097-1.1864-.987z" fill="#00A82D"/></svg>