<svg width="32" height="32" viewBox="0 0 32 32" fill="none" xmlns="http://www.w3.org/2000/svg">
<path d="M11.5349 8.29105C11.5349 8.56932 11.5109 9.0347 11.2314 9.33576C10.9291 9.61523 10.4626 9.63802 10.1819 9.63802H7.1965C6.33411 9.63802 5.82075 9.63802 5.47171 9.68479C5.2846 9.70758 5.05191 9.79994 4.93436 9.84672C4.88758 9.87071 4.88758 9.84672 4.91037 9.82273L11.7232 2.92836C11.7472 2.90557 11.77 2.90557 11.7472 2.95235C11.6992 3.0687 11.6068 3.30019 11.5828 3.4861C11.5361 3.83394 11.5361 4.3449 11.5361 5.2037V8.29105H11.5349ZM17.8799 29.1373C17.0883 28.6275 16.6685 27.9546 16.5041 27.5372C16.3364 27.1321 16.2492 26.6983 16.2475 26.2598C16.2475 24.3335 17.8343 22.7539 19.793 22.7539C19.9306 22.7531 20.0671 22.7795 20.1944 22.8317C20.3218 22.8838 20.4376 22.9607 20.5352 23.0578C20.6327 23.1549 20.7101 23.2703 20.7628 23.3975C20.8156 23.5246 20.8427 23.6609 20.8425 23.7986C20.8425 24.1944 20.6326 24.5182 20.3064 24.7041C20.1825 24.7708 20.0489 24.8178 19.9105 24.8433C19.793 24.8673 19.3504 24.9128 19.1405 25.0988C18.9066 25.2847 18.7207 25.5869 18.7207 25.912C18.7207 26.2598 18.8598 26.5837 19.0925 26.8176C19.5123 27.235 20.0737 27.4665 20.6794 27.4665C21.0553 27.4677 21.4279 27.3949 21.7757 27.252C22.1235 27.1092 22.4397 26.8992 22.7063 26.6341C22.9728 26.369 23.1845 26.0539 23.3292 25.7069C23.474 25.3599 23.5488 24.9878 23.5496 24.6118C23.5496 23.1965 22.5925 21.9418 21.3331 21.3853C21.146 21.2917 20.8425 21.2222 20.563 21.1526C20.3314 21.1053 20.0982 21.0665 19.8638 21.0363C18.8838 20.9199 16.4334 20.1547 16.2702 17.9957C16.2702 17.9957 15.547 21.2462 14.1017 22.1278C13.9306 22.2109 13.7502 22.2733 13.5643 22.3137C13.3544 22.3592 13.1205 22.3832 13.051 22.3832C10.6953 22.5224 8.19923 21.7799 6.47324 20.0155C6.47324 20.0155 5.30619 19.0632 4.70047 16.3932C4.56014 15.7432 4.28067 14.5821 4.11635 13.4906C4.04678 13.0972 4.02399 12.7949 4 12.5167C4 11.3784 4.70047 10.6132 5.58686 10.4968H10.345C11.1618 10.4968 11.6284 10.2881 11.9319 10.0098C12.3277 9.63802 12.4213 9.10427 12.4213 8.47696V3.57846C12.5388 2.71966 13.3088 2 14.4507 2H15.0108C15.2447 2 15.5242 2.02399 15.7809 2.04678C15.968 2.07077 16.1311 2.11635 16.4106 2.18591C17.8343 2.53375 18.1378 3.97307 18.1378 3.97307C18.1378 3.97307 20.8197 4.43726 22.1727 4.66875C23.4561 4.90264 26.6286 5.11134 27.2343 8.29105C28.658 15.8595 27.7944 23.1953 27.7249 23.1953C26.7221 30.3451 20.7501 29.9973 20.7501 29.9973C19.4667 29.9973 18.5108 29.5799 17.8799 29.1385V29.1373ZM23.2462 13.9332C22.4761 13.8636 21.8224 14.1647 21.5898 14.7452C21.543 14.8616 21.4962 15.0007 21.519 15.0691C21.543 15.1398 21.5897 15.1626 21.6365 15.1866C21.916 15.3257 22.3826 15.3953 23.0591 15.4649C23.7355 15.5344 24.2021 15.5812 24.5056 15.5344C24.5524 15.5344 24.5991 15.5105 24.6459 15.4421C24.6927 15.3725 24.6699 15.2322 24.6699 15.117C24.5751 14.467 24.0162 14.0256 23.2462 13.9332V13.9332Z" fill="#00A82D"/>
</svg>
