<svg width="107" height="16" viewBox="0 0 107 16" fill="none" xmlns="http://www.w3.org/2000/svg">
<path fill-rule="evenodd" clip-rule="evenodd" d="M40.5 2.5V13.5H51.5V2.5H40.5ZM40 1C39.4477 1 39 1.44772 39 2V14C39 14.5523 39.4477 15 40 15H52C52.5523 15 53 14.5523 53 14V2C53 1.44772 52.5523 1 52 1H40Z" fill="#B1B1B0"/>
<path fill-rule="evenodd" clip-rule="evenodd" d="M46 9.5C46.8284 9.5 47.5 8.82843 47.5 8C47.5 7.17157 46.8284 6.5 46 6.5C45.1716 6.5 44.5 7.17157 44.5 8C44.5 8.82843 45.1716 9.5 46 9.5ZM46 11C47.6569 11 49 9.65685 49 8C49 6.34315 47.6569 5 46 5C44.3431 5 43 6.34315 43 8C43 9.65685 44.3431 11 46 11Z" fill="#B1B1B0"/>
<path fill-rule="evenodd" clip-rule="evenodd" d="M57.5 11.1632V4.83682C56.3175 5.39855 55.5 6.6038 55.5 8C55.5 9.3962 56.3175 10.6015 57.5 11.1632ZM57.5 12.7711C55.4714 12.134 54 10.2388 54 8C54 5.76118 55.4714 3.86603 57.5 3.2289C57.9735 3.08018 58.4774 3 59 3V13C58.4774 13 57.9735 12.9198 57.5 12.7711Z" fill="#B1B1B0"/>
<path d="M0 9.38452C0 13.0514 2.90544 16 6.5 16C10.0946 16 13 13.0514 13 9.38452C13 8.97814 12.7206 8.68517 12.3016 8.68517C11.9105 8.68517 11.659 8.97814 11.659 9.38452C11.659 12.2953 9.35888 14.6297 6.5 14.6297C3.65044 14.6297 1.34098 12.2953 1.34098 9.38452C1.34098 6.48317 3.65044 4.14884 6.5 4.14884C6.99356 4.14884 7.42193 4.17719 7.81303 4.26226L5.84814 6.22799C5.71776 6.3603 5.65258 6.53041 5.65258 6.70052C5.65258 7.08801 5.94126 7.38099 6.31375 7.38099C6.51862 7.38099 6.67693 7.31483 6.78867 7.19197L9.74069 4.20555C9.87107 4.07324 9.92693 3.91257 9.92693 3.71411C9.92693 3.53455 9.86174 3.35499 9.74069 3.23213L6.78867 0.207912C6.67693 0.0756013 6.50931 0 6.30444 0C5.94126 0 5.65258 0.311868 5.65258 0.699355C5.65258 0.878911 5.71776 1.04902 5.83883 1.18133L7.54298 2.88246C7.20773 2.81631 6.85386 2.78795 6.5 2.78795C2.90544 2.78795 0 5.7271 0 9.38452Z" fill="#B1B1B0"/>
<path fill-rule="evenodd" clip-rule="evenodd" d="M95.212 13.7851C95.0831 13.9226 94.9112 14 94.7135 14C94.3095 14 94 13.6905 94 13.2865C94 13.0888 94.086 12.9169 94.2063 12.7794L99.0055 7.99603L94.2063 3.22063C94.086 3.08309 94 2.90257 94 2.71346C94 2.30945 94.3095 2 94.7135 2C94.9112 2 95.0831 2.07735 95.212 2.20629L100.524 7.49283C100.662 7.62178 100.739 7.81089 100.739 8C100.739 8.18911 100.662 8.36103 100.524 8.50717L95.212 13.7851ZM101.212 13.7851C101.083 13.9226 100.911 14 100.713 14C100.309 14 100 13.6905 100 13.2865C100 13.0888 100.086 12.9169 100.206 12.7794L105.006 7.99603L100.206 3.22063C100.086 3.08309 100 2.90257 100 2.71346C100 2.30945 100.309 2 100.713 2C100.911 2 101.083 2.07735 101.212 2.20629L106.524 7.49283C106.662 7.62178 106.739 7.81089 106.739 8C106.739 8.18911 106.662 8.36103 106.524 8.50717L101.212 13.7851Z" fill="#B1B1B0"/>
</svg>
