<svg width="24" height="25" viewBox="0 0 24 25" fill="none" xmlns="http://www.w3.org/2000/svg">
<g clip-path="url(#clip0_38_91)">
<path d="M7.03007 0.160219C5.75327 0.220459 4.88135 0.424219 4.11911 0.723739C3.33023 1.03118 2.66159 1.44374 1.99631 2.11142C1.33103 2.7791 0.921354 3.44822 0.616074 4.2383C0.320634 5.00222 0.120474 5.87486 0.0640737 7.15238C0.00767372 8.4299 -0.00480629 8.84054 0.00143371 12.0993C0.00767371 15.358 0.0220737 15.7665 0.0839937 17.0466C0.144954 18.3232 0.347994 19.1949 0.647514 19.9573C0.955434 20.7462 1.36751 21.4146 2.03543 22.0801C2.70335 22.7457 3.37199 23.1544 4.16399 23.4601C4.92719 23.7551 5.80007 23.9562 7.07735 24.0121C8.35463 24.0681 8.76575 24.081 12.0235 24.0748C15.2813 24.0685 15.6914 24.0541 16.9714 23.9934C18.2513 23.9327 19.1184 23.7282 19.8811 23.4301C20.67 23.1215 21.3389 22.7101 22.0039 22.042C22.669 21.3738 23.0784 20.7042 23.3834 19.9137C23.6791 19.1505 23.88 18.2776 23.9354 17.0013C23.9914 15.7204 24.0046 15.3114 23.9983 12.0532C23.9921 8.79494 23.9774 8.38646 23.9167 7.10678C23.856 5.8271 23.6527 4.95806 23.3534 4.1951C23.045 3.40622 22.6334 2.7383 21.9658 2.0723C21.2981 1.4063 20.628 0.997099 19.8377 0.692779C19.074 0.397339 18.2016 0.195979 16.9243 0.140779C15.647 0.0855791 15.2359 0.0714191 11.977 0.0776591C8.71799 0.0838991 8.30999 0.0978191 7.03007 0.160219ZM7.17023 21.8533C6.00023 21.8025 5.36495 21.6081 4.94159 21.4453C4.38095 21.2293 3.98159 20.9682 3.55967 20.5504C3.13775 20.1325 2.87855 19.7317 2.65967 19.1723C2.49527 18.7489 2.29727 18.1144 2.24255 16.9444C2.18303 15.6798 2.17055 15.3001 2.16359 12.0964C2.15663 8.89262 2.16887 8.51342 2.22431 7.24838C2.27423 6.07934 2.46983 5.44334 2.63231 5.02022C2.84831 4.45886 3.10847 4.06022 3.52727 3.63854C3.94607 3.21686 4.34567 2.95718 4.90559 2.7383C5.32847 2.57318 5.96303 2.37686 7.13255 2.32118C8.39807 2.26118 8.77727 2.24918 11.9806 2.24222C15.1838 2.23526 15.564 2.24726 16.83 2.30294C17.999 2.35382 18.6353 2.5475 19.0579 2.71094C19.6188 2.92694 20.0179 3.18638 20.4396 3.6059C20.8613 4.02542 21.1212 4.42358 21.3401 4.9847C21.5054 5.40638 21.7018 6.0407 21.757 7.21094C21.8172 8.47646 21.8309 8.8559 21.8366 12.0589C21.8424 15.262 21.8311 15.6424 21.7757 16.9069C21.7246 18.0769 21.5306 18.7125 21.3677 19.1363C21.1517 19.6967 20.8913 20.0963 20.4722 20.5177C20.0532 20.9392 19.6541 21.1989 19.0939 21.4177C18.6715 21.5826 18.0362 21.7794 16.8677 21.8351C15.6022 21.8946 15.223 21.9071 12.0185 21.9141C8.81399 21.921 8.43599 21.9081 7.17047 21.8533M16.9529 5.6627C16.9533 5.94752 17.0383 6.22581 17.1969 6.46236C17.3556 6.69892 17.5808 6.88311 17.8441 6.99165C18.1075 7.10018 18.3971 7.12819 18.6763 7.07212C18.9556 7.01605 19.2119 6.87843 19.413 6.67666C19.614 6.47489 19.7507 6.21803 19.8057 5.93858C19.8608 5.65912 19.8317 5.36962 19.7222 5.10668C19.6127 4.84375 19.4277 4.61919 19.1905 4.46142C18.9534 4.30364 18.6748 4.21973 18.39 4.2203C18.0082 4.22106 17.6423 4.37344 17.3728 4.64393C17.1033 4.91442 16.9522 5.28087 16.9529 5.6627ZM5.83847 12.0882C5.84519 15.4914 8.60903 18.244 12.0115 18.2375C15.414 18.231 18.1685 15.4674 18.162 12.0642C18.1555 8.66102 15.391 5.90774 11.988 5.91446C8.58503 5.92118 5.83199 8.6855 5.83847 12.0882ZM7.99991 12.0839C7.99835 11.2928 8.23142 10.5189 8.66965 9.86025C9.10788 9.20157 9.73159 8.68763 10.4619 8.38343C11.1922 8.07923 11.9964 7.99842 12.7726 8.15123C13.5488 8.30404 14.2623 8.6836 14.8229 9.24191C15.3834 9.80022 15.7658 10.5122 15.9217 11.2878C16.0775 12.0635 15.9999 12.8679 15.6986 13.5994C15.3973 14.3309 14.8858 14.9567 14.2289 15.3975C13.572 15.8384 12.7991 16.0745 12.0079 16.0761C11.4826 16.0772 10.9622 15.9748 10.4765 15.7747C9.99073 15.5747 9.54916 15.2809 9.17697 14.9102C8.80478 14.5395 8.50926 14.0991 8.3073 13.6141C8.10534 13.1292 8.00089 12.6092 7.99991 12.0839Z" fill="#181818"/>
</g>
<defs>
<clipPath id="clip0_38_91">
<rect width="24" height="24" fill="white" transform="translate(0 0.0761719)"/>
</clipPath>
</defs>
</svg>
