<svg width="24" height="25" viewBox="0 0 24 25" fill="none" xmlns="http://www.w3.org/2000/svg">
<path fill-rule="evenodd" clip-rule="evenodd" d="M1.77355 6.89113e-05C0.794025 6.89113e-05 0 0.774927 0 1.73019V22.4222C0 23.3778 0.794025 24.1523 1.77355 24.1523H22.2264C23.2059 24.1523 24 23.3778 24 22.4222V1.73019C24 0.774927 23.2059 6.89113e-05 22.2264 6.89113e-05H1.77355ZM7.27515 20.2179V9.3118H3.65016V20.2179H7.27515ZM5.46264 7.82276C6.72674 7.82276 7.51354 6.98529 7.51354 5.9387C7.48999 4.86855 6.72675 4.05432 5.48662 4.05432C4.24662 4.05432 3.43587 4.86855 3.43587 5.9387C3.43587 6.98529 4.2225 7.82276 5.43901 7.82276H5.46264ZM9.28098 20.2179H12.9059V14.1275C12.9059 13.8015 12.9295 13.4759 13.0252 13.2429C13.2873 12.5916 13.8837 11.9171 14.8851 11.9171C16.1968 11.9171 16.7215 12.9173 16.7215 14.3834V20.2179H20.3462V13.9645C20.3462 10.6146 18.5578 9.05588 16.1729 9.05588C14.25 9.05588 13.3878 10.1128 12.906 10.8559V9.3118H9.28107C9.32864 10.3352 9.28098 20.2179 9.28098 20.2179ZM12.906 10.8559V10.8935H12.8818L12.906 10.8559Z" fill="#181818"/>
</svg>
