<svg width="79" height="79" viewBox="0 0 79 79" fill="none" xmlns="http://www.w3.org/2000/svg">
<path d="M39.4043 78.8086C60.9375 78.8086 78.8575 60.9375 78.8575 39.4043C78.8575 17.8711 60.8887 0 39.3555 0C17.8711 0 0 17.8711 0 39.4043C0 60.9375 17.92 78.8086 39.4043 78.8086Z" fill="#181818"/>
<path d="M46.2403 57.7637C47.7051 57.7637 48.7793 56.7383 48.7793 55.2734V23.7793C48.7793 22.3144 47.7051 21.1426 46.1914 21.1426C45.1172 21.1426 44.4336 21.582 43.2129 22.7051L34.668 30.7129C34.5703 30.8105 34.3262 30.8594 34.1797 30.8594H28.4668C25.4395 30.8594 23.9258 32.4219 23.9258 35.6445V43.2617C23.9258 46.4844 25.4395 48.0469 28.4668 48.0469H34.1797C34.3262 48.0469 34.5703 48.0957 34.668 48.1934L43.2129 56.3477C44.2871 57.373 45.1661 57.7637 46.2403 57.7637Z" fill="white"/>
<path d="M54.1992 60.8399C56.0546 62.6954 59.082 62.6954 60.8886 60.8399C62.7929 58.9845 62.7929 56.0548 60.8886 54.1505L24.707 17.9688C22.7538 16.0645 19.8242 16.0645 17.9199 17.9688C16.0644 19.7755 16.0644 22.8517 17.9199 24.6583L54.1992 60.8399Z" fill="#181818"/>
<path d="M56.2007 58.8379C56.9331 59.5703 58.1538 59.5703 58.8863 58.8379C59.6187 58.0566 59.6187 56.9336 58.8863 56.1523L22.6558 19.9707C21.9234 19.1894 20.7027 19.1894 19.9702 19.9707C19.2378 20.7031 19.2378 21.9238 19.9702 22.6562L56.2007 58.8379Z" fill="white"/>
</svg>
