<svg width="24" height="25" viewBox="0 0 24 25" fill="none" xmlns="http://www.w3.org/2000/svg">
<path d="M12 0.0761477C5.37259 0.0761477 0 5.44874 0 12.0761C0 17.1599 3.16298 21.5058 7.62686 23.2543C7.522 22.3049 7.42718 20.8447 7.66847 19.8082C7.88655 18.8717 9.07561 13.8435 9.07561 13.8435C9.07561 13.8435 8.71667 13.1246 8.71667 12.0618C8.71667 10.3932 9.68381 9.14753 10.888 9.14753C11.9118 9.14753 12.4063 9.91616 12.4063 10.8379C12.4063 11.8675 11.7508 13.4068 11.4125 14.8333C11.1298 16.0277 12.0115 17.0017 13.1895 17.0017C15.3223 17.0017 16.9618 14.7529 16.9618 11.5067C16.9618 8.63346 14.8972 6.62462 11.9493 6.62462C8.53489 6.62462 6.53076 9.18559 6.53076 11.8322C6.53076 12.8636 6.92806 13.9696 7.42383 14.5708C7.5219 14.6896 7.53627 14.7937 7.50705 14.915C7.41596 15.294 7.21353 16.109 7.17379 16.2759C7.12145 16.4955 6.99987 16.5421 6.77245 16.4363C5.27373 15.7387 4.33669 13.5475 4.33669 11.7875C4.33669 8.00214 7.08703 4.52577 12.2655 4.52577C16.4283 4.52577 19.6633 7.49211 19.6633 11.4564C19.6633 15.592 17.0557 18.9204 13.4364 18.9204C12.2204 18.9204 11.0773 18.2886 10.686 17.5424C10.686 17.5424 10.0843 19.8336 9.93838 20.3951C9.66748 21.4374 8.93612 22.7439 8.44695 23.5409C9.5697 23.8886 10.7629 24.076 12 24.076C18.6274 24.076 24 18.7035 24 12.0761C24 5.44874 18.6274 0.0761477 12 0.0761477Z" fill="#181818"/>
</svg>
