<svg width="28" height="28" viewBox="0 0 28 28" fill="none" xmlns="http://www.w3.org/2000/svg">
<path d="M13.9913 28C21.6371 28 28 21.6506 28 14C28 6.34945 21.6198 0 13.974 0C6.34549 0 0 6.34945 0 14C0 21.6506 6.36286 28 13.9913 28Z" fill="white" fill-opacity="0.4"/>
<path fill-rule="evenodd" clip-rule="evenodd" d="M8 18.9671C8 19.5868 8.39802 20 9.23385 20H10.806C11.6219 20 12 19.5868 12 18.9671V9.03284C12 8.41314 11.6219 8 10.806 8H9.23385C8.39802 8 8 8.41314 8 9.03284V18.9671ZM16 18.9671C16 19.5868 16.398 20 17.2338 20H18.806C19.6219 20 20 19.5868 20 18.9671V9.03284C20 8.41314 19.6219 8 18.806 8H17.2338C16.398 8 16 8.41314 16 9.03284V18.9671Z" fill="black" fill-opacity="0.8"/>
</svg>
