<svg fill="none" height="40" width="40" xmlns="http://www.w3.org/2000/svg"><rect fill="#000" height="40" rx="8" width="40"/><path d="m32.51 19.725-12.215-6.698V20l6.047 3.397z" fill="gray"/><path d="M32.895 12.78 20.295 6v7.033l6.515 3.569zM20.295 20l-6.038-3.46-6.178 3.589 12.216 6.873z" fill="#fff"/><path d="m8.08 13 5.94-3.405 6.275 3.437-6.038 3.508z" fill="gray"/><path d="m20.293 6-6.275 3.596 6.275 3.436zM14.258 16.54 8.08 13v7.129z" fill="#d4d4d4"/><path d="m20.294 26.998-6.494-3.65L8 26.871 20.294 34z" fill="gray"/><path d="m20.295 26.996 6.046-3.598 6.17 3.465-6.109 3.569z" fill="#fff"/><g fill="#d4d4d4"><path d="m32.512 19.726-6.17 3.671 6.17 3.466zM26.403 30.431l-6.108-3.435V34z"/></g></svg>