<svg fill="none" height="40" viewBox="0 0 40 40" width="40" xmlns="http://www.w3.org/2000/svg"><rect fill="#000" height="40" rx="8" width="40"/><path d="m32.5107 19.7254-12.2158-6.698v6.9725l6.0467 3.3971z" fill="#808080"/><path d="m32.8952 12.7797-12.6003-6.77958.0003 7.03278 6.5152 3.5688z" fill="#fff"/><path d="m20.2948 19.9999-6.0382-3.46-6.1775 3.5888 12.2157 6.8734z" fill="#fff"/><path d="m8.0791 13 5.9415-3.40466 6.2742 3.43626-6.0381 3.5081z" fill="#808080"/><path d="m20.2929 6-6.2753 3.59607 6.2753 3.43573z" fill="#d4d4d4"/><path d="m14.2583 16.5408-6.1792-3.5409v7.1288z" fill="#d4d4d4"/><path d="m20.2942 26.9984-6.4942-3.6503-5.8 3.5231 12.2938 7.1287z" fill="#808080"/><path d="m20.2949 26.9958 6.0459-3.5983 6.1699 3.4651-6.1083 3.5689z" fill="#fff"/><g fill="#d4d4d4"><path d="m32.5117 19.7255-6.1689 3.6715 6.1689 3.4657z"/><path d="m26.4028 30.4314-6.1079-3.4355v7.0041z"/></g></svg>