<svg width="73" height="24" viewBox="0 0 73 24" fill="none" xmlns="http://www.w3.org/2000/svg">
<g clip-path="url(#clip0_1055_1830)">
<path d="M22.0082 11.7646L11.5376 6.02344V11.9999L16.7205 14.9116L22.0082 11.7646Z" fill="#DDD8EE"/>
<path d="M22.3378 5.81106L11.5376 0L11.5378 6.02814L17.1223 9.08706L22.3378 5.81106Z" fill="white"/>
<path d="M11.5375 12L6.36191 9.03418L1.06689 12.1103L11.5375 18.0019V12Z" fill="white"/>
<path d="M1.06689 6.00034L6.15966 3.08203L11.5375 6.0274L6.362 9.03431L1.06689 6.00034Z" fill="#DDD8EE"/>
<path d="M11.5375 0L6.15869 3.08235L11.5375 6.02729V0Z" fill="#ECE8F6"/>
<path d="M6.36338 9.03506L1.06689 6V12.1104L6.36338 9.03506Z" fill="#ECE8F6"/>
<path d="M11.5379 17.9989L5.97142 14.8701L1 17.8899L11.5375 24.0002L11.5379 17.9989Z" fill="#DDD8EE"/>
<path d="M11.5376 17.9964L16.7198 14.9121L22.0082 17.8823L16.7726 20.9413L11.5376 17.9964Z" fill="white"/>
<path d="M22.0084 11.7646L16.7207 14.9117L22.0084 17.8823V11.7646Z" fill="#ECE8F6"/>
<path d="M16.7729 20.9408L11.5376 17.9961V23.9996L16.7729 20.9408Z" fill="#ECE8F6"/>
</g>
<path d="M33.3167 5.50727C34.0786 5.54149 34.7554 5.69515 35.3469 5.96861C36.0272 6.27708 36.5613 6.707 36.9488 7.25811C37.3364 7.80515 37.5365 8.43474 37.5489 9.1463H35.3405C35.2827 8.60752 35.0395 8.18775 34.6108 7.88751C34.1862 7.58739 33.6339 7.43751 32.9538 7.43748C32.4756 7.43748 32.0651 7.50924 31.7229 7.6532C31.3807 7.79716 31.1187 7.99299 30.9373 8.23978C30.7561 8.48649 30.6637 8.76833 30.6595 9.0849C30.6596 9.34794 30.7191 9.57602 30.8385 9.76924C30.9622 9.96256 31.1295 10.1272 31.3398 10.2629C31.55 10.3945 31.7831 10.5061 32.0387 10.5966C32.2942 10.687 32.5517 10.7628 32.8113 10.8244L33.9985 11.1209C34.4767 11.232 34.9366 11.3818 35.3777 11.571C35.823 11.7602 36.221 11.9989 36.5714 12.2868C36.926 12.5748 37.2067 12.9227 37.4129 13.3299C37.6188 13.737 37.7214 14.214 37.7214 14.7608C37.7214 15.5012 37.5322 16.1533 37.1529 16.7168C36.7737 17.2761 36.2253 17.7139 35.5081 18.0306C34.7949 18.3432 33.9308 18.5 32.9166 18.5C31.9313 18.5 31.0758 18.3478 30.3502 18.0435C29.6287 17.7391 29.0633 17.2945 28.6552 16.7104C28.2513 16.1264 28.033 15.4147 28 14.5758H30.257C30.29 15.0157 30.4262 15.3818 30.6652 15.6738C30.9043 15.9658 31.2156 16.1843 31.599 16.3282C31.9865 16.4722 32.4197 16.5439 32.898 16.5439C33.3968 16.5439 33.8339 16.4698 34.2091 16.3218C34.5884 16.1696 34.8856 15.9597 35.0999 15.6924C35.3142 15.421 35.423 15.104 35.4271 14.7422C35.4229 14.4132 35.326 14.1416 35.1364 13.9278C34.9467 13.7099 34.6807 13.5287 34.3387 13.3848C34.0007 13.2368 33.6048 13.1057 33.1514 12.9906L31.7107 12.6197C30.6676 12.3523 29.8427 11.9475 29.2366 11.4045C28.6348 10.8575 28.3337 10.1311 28.3337 9.22629C28.3337 8.48196 28.5363 7.83034 28.9402 7.27104C29.3484 6.71164 29.9028 6.27711 30.6037 5.96861C31.3045 5.65606 32.0983 5.5 32.9846 5.5L33.3167 5.50727Z" fill="white"/>
<path fill-rule="evenodd" clip-rule="evenodd" d="M50.4968 18.3085H48.0478L46.9982 15.193H42.2363L41.1892 18.3085H38.741L43.1992 5.6729H46.0321L50.4968 18.3085ZM42.855 13.3541H46.3795L44.665 8.26402H44.5662L42.855 13.3541Z" fill="white"/>
<path d="M52.4145 5.6729L55.7106 15.6188H55.8401L59.1305 5.6729H61.6532L57.1885 18.3085H54.3557L49.8975 5.6729H52.4145Z" fill="white"/>
<path fill-rule="evenodd" clip-rule="evenodd" d="M68.0713 5.6729C69.0442 5.67292 69.8606 5.84141 70.5202 6.17868C71.1838 6.51589 71.6845 6.98892 72.0225 7.59745C72.3647 8.2021 72.536 8.9081 72.536 9.71429C72.5359 10.5244 72.363 11.2276 72.0168 11.8239C71.6747 12.4161 71.1695 12.8749 70.5016 13.1998C70.4231 13.2375 70.3422 13.2724 70.2595 13.3057L73 18.3085H70.4401L67.9506 13.6814H65.6158V18.3085H63.3215V5.6729H68.0713ZM65.6158 11.781H67.7311C68.3 11.781 68.7661 11.703 69.1289 11.5467C69.4916 11.3864 69.7592 11.1537 69.9323 10.8495C70.1095 10.541 70.1987 10.1625 70.1987 9.71429C70.1987 9.26595 70.1096 8.88291 69.9323 8.56619C69.755 8.24553 69.4851 8.00269 69.1224 7.83822C68.805 7.6907 68.4071 7.60782 67.9287 7.58937L67.719 7.58533H65.6158V11.781Z" fill="white"/>
<defs>
<clipPath id="clip0_1055_1830">
<rect width="24" height="24" fill="white"/>
</clipPath>
</defs>
</svg>
