<svg width="24" height="25" viewBox="0 0 24 25" fill="none" xmlns="http://www.w3.org/2000/svg">
<path d="M21.3823 6.68961C21.3968 6.89961 21.3968 7.10961 21.3968 7.32155C21.3968 13.7793 16.4806 21.227 7.49129 21.227V21.2232C4.83581 21.227 2.23548 20.4664 0 19.0322C0.386129 19.0786 0.774194 19.1019 1.16323 19.1028C3.36387 19.1048 5.50161 18.3664 7.2329 17.0067C5.14161 16.967 3.30774 15.6035 2.6671 13.6128C3.39968 13.7541 4.15452 13.7251 4.87355 13.5286C2.59355 13.068 0.953226 11.0648 0.953226 8.73832C0.953226 8.71703 0.953226 8.69671 0.953226 8.67639C1.63258 9.05477 2.39323 9.26477 3.17129 9.288C1.02387 7.85284 0.361935 4.99606 1.65871 2.76252C4.14 5.81574 7.80097 7.67187 11.731 7.86832C11.3371 6.1709 11.8752 4.39219 13.1448 3.19897C15.1132 1.34864 18.209 1.44348 20.0594 3.4109C21.1539 3.1951 22.2029 2.79348 23.1629 2.22445C22.7981 3.35574 22.0345 4.31671 21.0145 4.92735C21.9832 4.81316 22.9297 4.55381 23.821 4.158C23.1648 5.14123 22.3384 5.99768 21.3823 6.68961Z" fill="#181818"/>
</svg>
