<svg width="80" height="79" viewBox="0 0 80 79" fill="none" xmlns="http://www.w3.org/2000/svg">
<path d="M39.8203 78.8086C61.3535 78.8086 79.2735 60.9375 79.2735 39.4043C79.2735 17.8711 61.3047 0 39.7715 0C18.2871 0 0.416016 17.8711 0.416016 39.4043C0.416016 60.9375 18.336 78.8086 39.8203 78.8086Z" fill="#181818"/>
<path d="M54.1759 53.5645C53.004 52.8809 52.8575 51.416 53.6876 50.2442C55.7384 47.461 56.9103 43.3594 56.9103 39.4043C56.9103 35.2539 55.7384 31.25 53.6876 28.4668C52.9064 27.3926 53.0529 25.9766 54.1759 25.1953C55.2013 24.4629 56.5197 24.7071 57.3009 25.8301C60.0353 29.541 61.4513 34.4239 61.4513 39.4043C61.4513 44.1895 59.9376 49.0723 57.3009 52.9785C56.6173 53.9551 55.299 54.2481 54.1759 53.5645Z" fill="white"/>
<path d="M47.3401 48.3399C46.217 47.5098 45.9729 46.1914 46.8518 44.9707C47.7795 43.5547 48.4143 41.5039 48.4143 39.4043C48.4143 37.2071 47.7795 35.1074 46.8518 33.8379C45.9729 32.666 46.217 31.2989 47.3401 30.4199C48.3166 29.6875 49.7326 30.0293 50.4651 31.0059C52.0276 33.1543 53.0041 36.2793 53.0041 39.4043C53.0041 42.6758 52.0764 45.752 50.4651 47.8028C49.6838 48.7793 48.3166 49.1211 47.3401 48.3399Z" fill="white"/>
<path d="M38.4531 57.2754C37.4278 57.2754 36.5489 56.8848 35.5235 55.9082L27.1739 47.9492C27.0274 47.8516 26.8321 47.8028 26.6856 47.8028H21.1192C18.1895 47.8028 16.627 46.2403 16.627 43.1153V35.7422C16.627 32.5684 18.1895 31.0059 21.1192 31.0059H26.6856C26.8321 31.0059 27.0274 31.0059 27.1739 30.9082L35.5235 23.0957C36.6953 21.9727 37.3789 21.5332 38.3555 21.5332C39.8692 21.5332 40.9434 22.7051 40.9434 24.1211V54.834C40.9434 56.25 39.8692 57.2754 38.4531 57.2754Z" fill="white"/>
</svg>
