<svg width="48" height="48" fill="none" xmlns="http://www.w3.org/2000/svg"><mask id="a" maskUnits="userSpaceOnUse" x="0" y="0" width="48" height="48"><path fill-rule="evenodd" clip-rule="evenodd" d="M24 48c13.2548 0 24-10.7452 24-24S37.2548 0 24 0 0 10.7452 0 24s10.7452 24 24 24z" fill="#fff"/></mask><g mask="url(#a)"><path fill-rule="evenodd" clip-rule="evenodd" d="M33.574 18.9128L8.4954 5.4874l-.1319-.0717-.1198.1075c-2.4563 2.0922-4.4573 4.6386-5.9312 7.5915l-.1078.2152.2157.1075L23.425 23.91 2.4204 34.3945l-.2157.1076.1079.2152c1.4738 2.941 3.4748 5.4993 5.9311 7.5914l.1198.1076.1438-.0717L33.562 28.9192l.0959-.0718.2396-.1434V19.14l-.2396-.1435-.0839-.0837z" fill="url(#paint0_linear)"/><mask id="b" maskUnits="userSpaceOnUse" x="0" y="0" width="48" height="48"><path fill-rule="evenodd" clip-rule="evenodd" d="M24 24L2.532 34.74C.912 31.5 0 27.864 0 24s.912-7.5 2.532-10.74L24 24zm0-24C18.06 0 12.636 2.16 8.448 5.724L33.6 19.2v9.6L8.448 42.276C12.636 45.84 18.06 48 24 48c13.26 0 24-10.74 24-24S37.26 0 24 0z" fill="#fff"/></mask><g mask="url(#b)"><path fill-rule="evenodd" clip-rule="evenodd" d="M24 48c13.2548 0 24-10.7452 24-24S37.2548 0 24 0 0 10.7452 0 24s10.7452 24 24 24z" fill="url(#paint1_linear)"/></g></g><defs><linearGradient id="paint0_linear" x1="2.2051" y1="42.4172" x2="33.9095" y2="42.4172" gradientUnits="userSpaceOnUse"><stop stop-color="#EBF5F7"/><stop offset=".1524" stop-color="#F1F8FA"/><stop offset=".5381" stop-color="#FCFDFE"/><stop offset="1" stop-color="#fff"/></linearGradient><linearGradient id="paint1_linear" x1="36.7179" y1="55.4778" x2="55.4778" y2="11.2821" gradientUnits="userSpaceOnUse"><stop offset=".1" stop-color="#C09"/><stop offset=".1989" stop-color="#CF0090"/><stop offset=".3602" stop-color="#D70078"/><stop offset=".5638" stop-color="#E40050"/><stop offset=".7995" stop-color="#F70019"/><stop offset=".9" stop-color="red"/></linearGradient></defs></svg>