<svg fill="none" height="32" viewBox="0 0 132 32" width="132" xmlns="http://www.w3.org/2000/svg" xmlns:xlink="http://www.w3.org/1999/xlink"><linearGradient id="a" gradientUnits="userSpaceOnUse" x1="2.02196" x2="22.7255" y1="27.8476" y2="27.8476"><stop offset="0" stop-color="#ebf5f7"/><stop offset=".152" stop-color="#f1f8fa"/><stop offset=".538" stop-color="#fcfdfe"/><stop offset="1" stop-color="#fff"/></linearGradient><linearGradient id="b"><stop offset=".1" stop-color="#c09"/><stop offset=".199" stop-color="#cf0090"/><stop offset=".36" stop-color="#d70078"/><stop offset=".564" stop-color="#e40050"/><stop offset=".799" stop-color="#f70019"/><stop offset=".9" stop-color="#f00"/></linearGradient><linearGradient id="c" gradientUnits="userSpaceOnUse" x1="24.8293" x2="37.0994" xlink:href="#b" y1="36.5746" y2="7.33724"/><linearGradient id="d" gradientUnits="userSpaceOnUse" x1="24.8293" x2="37.0995" xlink:href="#b" y1="36.5746" y2="7.33728"/><clipPath id="e"><path d="m0 0h132v32h-132z"/></clipPath><g clip-path="url(#e)"><path clip-rule="evenodd" d="m48.2562 24.9005h-3.3004l-6.2217-16.00045h2.9808l2.2806 6.07185c.9002 2.3929 1.8004 4.8058 2.6405 7.1991.8602-2.4129 1.7403-4.8655 2.6605-7.2788l2.2607-5.99215h2.9407l-6.2417 15.99995zm11.0828-19.40248c0 1.00871-.8201 1.85934-1.9004 1.85934s-1.9004-.85063-1.9004-1.85934c0-1.00872.8201-1.85935 1.9004-1.85935s1.9004.85063 1.9004 1.85935zm-3.3005 19.40198v-15.99995h2.8006v15.99995zm18.9642-10.7787v10.7792h-2.6605v-2.1163c-1.0203 1.6215-3.0208 2.5118-5.4816 2.5118-3.2604 0-5.7213-1.4438-5.7213-4.6085 0-4.1533 4.2012-4.8062 8.5424-5.7552l2.6004-.554v-.0593c0-2.4324-1.6602-3.3819-3.9209-3.3819-2.4808 0-4.2812 1.1472-5.2814 2.0174l-.9202-2.3341c1.2404-.98865 3.401-2.09671 6.3217-2.09671 4.1411-.01911 6.5214 2.17601 6.5214 5.59761zm-2.7206 3.9752v-1.4634l-2.3607.5143c-4.1406.9099-5.9815 1.5031-5.9815 3.52 0 1.484 1.2405 2.2945 3.321 2.2945 2.7205-.0196 5.0212-1.4042 5.0212-4.8654zm21.4651-1.2065c0 5.1229-3.0408 8.406-7.5617 8.406-2.3607 0-4.2411-.8702-5.4816-2.5314v6.8628h-2.8006v-20.72735h2.7006v2.51175c1.2404-1.87892 3.2409-2.90769 5.7413-2.90769 4.4012 0 7.402 3.28309 7.402 8.38589zm-2.8407 0c0-3.6193-2.0205-5.9133-5.0612-5.9133-3.0408 0-5.2614 2.294-5.2614 5.973 0 3.5797 2.1205 5.8937 5.2013 5.8937s5.1213-2.314 5.1213-5.9534zm5.2009 8.0105v-20.64857h2.8011v20.64857zm18.9846-10.7797v10.7797h-2.66v-2.1163c-1.021 1.6215-3.021 2.5118-5.482 2.5118-3.26 0-5.721-1.4438-5.721-4.6085 0-4.1533 4.201-4.8062 8.542-5.7552l2.601-.554v-.0593c0-2.4324-1.661-3.3819-3.921-3.3819-2.481 0-4.282 1.1472-5.282 2.0174l-.92-2.3341c1.24-.98865 3.401-2.09671 6.322-2.09671 4.14-.01911 6.521 2.17551 6.521 5.59711zm-2.72 3.9757v-1.4634l-2.361.5143c-4.141.9099-5.982 1.5031-5.982 3.52 0 1.484 1.241 2.2945 3.321 2.2945 2.721-.0196 5.022-1.4042 5.022-4.8654zm13.363 5.7552c-1.501 3.8175-3.381 5.3206-6.822 6.1316l-.88-2.2353c1.68-.5535 3.181-1.0875 4.301-2.6698l-6.302-16.17815h2.981l2.161 5.75525c.9 2.4129 1.98 5.2804 2.66 7.1594.74-1.9181 1.78-4.7465 2.701-7.1594l2.16-5.75525h2.901l-5.861 14.95215z" fill="#fff" fill-rule="evenodd"/><path d="m22.7307 18.9869v-6.3288l-16.7616-8.8788c-1.62725 1.37779-2.96562 3.06545-3.93761 4.96525l14.31751 7.07825-14.31751 7.0767c.96683 1.9033 2.30596 3.5921 3.93761 4.9658z" fill="url(#a)"/><path clip-rule="evenodd" d="m32.3528 15.8223c0 8.7384-7.1652 15.8224-16.0039 15.8224-3.9605 0-7.58551-1.4224-10.37991-3.7789l16.76161-8.8788v-6.3289l-16.76161-8.87876c2.7944-2.35749 6.41891-3.77934 10.37991-3.77934 8.8387 0 16.0039 7.08394 16.0039 15.8223z" fill="url(#c)" fill-rule="evenodd"/><path d="m2.03144 22.9001 14.31746-7.0777-14.31746-7.07728c-1.111524 2.19268-1.68943 4.61788-1.686458 7.07728 0 2.5442.607105 4.948 1.686458 7.0777z" fill="url(#d)"/></g></svg>