<svg width="24" height="25" viewBox="0 0 24 25" fill="none" xmlns="http://www.w3.org/2000/svg">
<mask id="mask0_40_109" style="mask-type:luminance" maskUnits="userSpaceOnUse" x="1" y="2" width="22" height="21">
<path d="M22.5 12.5C22.5 6.70101 17.799 2 12 2C6.20101 2 1.5 6.70101 1.5 12.5C1.5 18.299 6.20101 23 12 23C17.799 23 22.5 18.299 22.5 12.5Z" fill="white"/>
</mask>
<g mask="url(#mask0_40_109)">
<path d="M12 23C17.799 23 22.5 18.299 22.5 12.5C22.5 6.70101 17.799 2 12 2C6.20101 2 1.5 6.70101 1.5 12.5C1.5 18.299 6.20101 23 12 23Z" fill="url(#paint0_linear_40_109)"/>
<path fill-rule="evenodd" clip-rule="evenodd" d="M16.1915 10.2748L5.21939 4.40094L5.16208 4.36987L5.10958 4.41669C4.02874 5.33681 3.14597 6.4668 2.51476 7.73819L2.46751 7.83225L2.56158 7.87906L11.7513 12.461L2.56158 17.0482L2.46751 17.095L2.51476 17.1891C3.14718 18.4596 4.0296 19.5893 5.10914 20.5105L5.16164 20.5574L5.22464 20.5263L16.1862 14.6524L16.2282 14.6209L16.3332 14.5584V10.3741L16.2282 10.3116L16.1915 10.2748Z" fill="url(#paint1_linear_40_109)"/>
</g>
<defs>
<linearGradient id="paint0_linear_40_109" x1="17.5641" y1="26.2716" x2="25.7716" y2="6.93588" gradientUnits="userSpaceOnUse">
<stop offset="0.1" stop-color="#CC0099"/>
<stop offset="0.199" stop-color="#CF0090"/>
<stop offset="0.36" stop-color="#D70078"/>
<stop offset="0.564" stop-color="#E40050"/>
<stop offset="0.799" stop-color="#F70019"/>
<stop offset="0.9" stop-color="#FF0000"/>
</linearGradient>
<linearGradient id="paint1_linear_40_109" x1="2.46751" y1="20.5578" x2="16.3385" y2="20.5578" gradientUnits="userSpaceOnUse">
<stop stop-color="#EBF5F7"/>
<stop offset="0.152" stop-color="#F1F8FA"/>
<stop offset="0.538" stop-color="#FCFDFE"/>
<stop offset="1" stop-color="white"/>
</linearGradient>
</defs>
</svg>
