<svg width="40" height="40" fill="none" xmlns="http://www.w3.org/2000/svg"><rect width="40" height="40" rx="8" fill="#302F3E"/><mask id="a" style="mask-type:luminance" maskUnits="userSpaceOnUse" x="5" y="5" width="30" height="30"><path d="M35 20c0-8.284-6.716-15-15-15-8.284 0-15 6.716-15 15 0 8.284 6.716 15 15 15 8.284 0 15-6.716 15-15Z" fill="#fff"/></mask><g mask="url(#a)"><path d="M20 35c8.284 0 15-6.716 15-15 0-8.284-6.716-15-15-15-8.284 0-15 6.716-15 15 0 8.284 6.716 15 15 15Z" fill="url(#b)"/><path fill-rule="evenodd" clip-rule="evenodd" d="M25.988 16.821 10.313 8.43l-.082-.044-.075.067a14.98 14.98 0 0 0-3.707 4.745l-.067.134.134.067 13.128 6.545-13.128 6.553-.134.067.067.135a15.06 15.06 0 0 0 3.707 4.745l.075.067.09-.045 15.659-8.391.06-.045.15-.09v-5.977l-.15-.09-.052-.052Z" fill="url(#c)"/></g><defs><linearGradient id="b" x1="27.949" y1="39.674" x2="39.674" y2="12.051" gradientUnits="userSpaceOnUse"><stop offset=".1" stop-color="#C09"/><stop offset=".199" stop-color="#CF0090"/><stop offset=".36" stop-color="#D70078"/><stop offset=".564" stop-color="#E40050"/><stop offset=".799" stop-color="#F70019"/><stop offset=".9" stop-color="red"/></linearGradient><linearGradient id="c" x1="6.382" y1="31.511" x2="26.198" y2="31.511" gradientUnits="userSpaceOnUse"><stop stop-color="#EBF5F7"/><stop offset=".152" stop-color="#F1F8FA"/><stop offset=".538" stop-color="#FCFDFE"/><stop offset="1" stop-color="#fff"/></linearGradient></defs></svg>