<svg width="32" height="32" viewBox="0 0 32 32" fill="none" xmlns="http://www.w3.org/2000/svg">
<g clip-path="url(#clip0_139_2365)">
<circle cx="16" cy="16" r="14" fill="url(#paint0_linear_139_2365)"/>
<path fill-rule="evenodd" clip-rule="evenodd" d="M21.5886 13.0332L6.95918 5.20133L6.88276 5.15991L6.81276 5.22233C5.37164 6.44916 4.19462 7.95581 3.35301 9.651L3.29001 9.77641L3.41543 9.83883L15.6684 15.9481L3.41543 22.0643L3.29001 22.1268L3.35301 22.2522C4.19623 23.9462 5.37279 25.4525 6.81218 26.6808L6.88218 26.7433L6.96618 26.7018L21.5816 18.87L21.6376 18.828L21.7776 18.7446V13.1656L21.6376 13.0822L21.5886 13.0332Z" fill="url(#paint1_linear_139_2365)"/>
</g>
<defs>
<linearGradient id="paint0_linear_139_2365" x1="23.4188" y1="34.3622" x2="34.3622" y2="8.58117" gradientUnits="userSpaceOnUse">
<stop offset="0.1" stop-color="#CC0099"/>
<stop offset="0.199" stop-color="#CF0090"/>
<stop offset="0.36" stop-color="#D70078"/>
<stop offset="0.564" stop-color="#E40050"/>
<stop offset="0.799" stop-color="#F70019"/>
<stop offset="0.9" stop-color="#FF0000"/>
</linearGradient>
<linearGradient id="paint1_linear_139_2365" x1="3.29001" y1="26.7438" x2="21.7846" y2="26.7438" gradientUnits="userSpaceOnUse">
<stop stop-color="#EBF5F7"/>
<stop offset="0.152" stop-color="#F1F8FA"/>
<stop offset="0.538" stop-color="#FCFDFE"/>
<stop offset="1" stop-color="white"/>
</linearGradient>
<clipPath id="clip0_139_2365">
<rect x="2" y="2" width="28" height="28" rx="14" fill="white"/>
</clipPath>
</defs>
</svg>
