<svg width="48" height="48" fill="none" xmlns="http://www.w3.org/2000/svg"><mask id="a" maskUnits="userSpaceOnUse" x="0" y="0" width="48" height="48"><path fill-rule="evenodd" clip-rule="evenodd" d="M24 48c13.255 0 24-10.745 24-24S37.255 0 24 0 0 10.745 0 24s10.745 24 24 24z" fill="#fff"/></mask><g mask="url(#a)"><path fill-rule="evenodd" clip-rule="evenodd" d="M33.574 18.913 8.495 5.487l-.131-.071-.12.107a23.967 23.967 0 0 0-5.931 7.592l-.108.215.215.107L23.425 23.91 2.42 34.395l-.215.107.108.215a24.097 24.097 0 0 0 5.93 7.592l.12.107.144-.071 25.055-13.426.096-.072.24-.143V19.14l-.24-.143-.084-.084z" fill="url(#b)"/><mask id="c" maskUnits="userSpaceOnUse" x="0" y="0" width="48" height="48"><path fill-rule="evenodd" clip-rule="evenodd" d="M24 24 2.532 34.74C.912 31.5 0 27.864 0 24s.912-7.5 2.532-10.74L24 24zm0-24A23.91 23.91 0 0 0 8.448 5.724L33.6 19.2v9.6L8.448 42.276A23.91 23.91 0 0 0 24 48c13.26 0 24-10.74 24-24S37.26 0 24 0z" fill="#fff"/></mask><g mask="url(#c)"><path fill-rule="evenodd" clip-rule="evenodd" d="M24 48c13.255 0 24-10.745 24-24S37.255 0 24 0 0 10.745 0 24s10.745 24 24 24z" fill="url(#d)"/></g></g><defs><linearGradient id="b" x1="2.205" y1="42.417" x2="33.91" y2="42.417" gradientUnits="userSpaceOnUse"><stop stop-color="#EBF5F7"/><stop offset=".152" stop-color="#F1F8FA"/><stop offset=".538" stop-color="#FCFDFE"/><stop offset="1" stop-color="#fff"/></linearGradient><linearGradient id="d" x1="36.718" y1="55.478" x2="55.478" y2="11.282" gradientUnits="userSpaceOnUse"><stop offset=".1" stop-color="#C09"/><stop offset=".199" stop-color="#CF0090"/><stop offset=".36" stop-color="#D70078"/><stop offset=".564" stop-color="#E40050"/><stop offset=".799" stop-color="#F70019"/><stop offset=".9" stop-color="red"/></linearGradient></defs></svg>