<svg width="32" height="32" viewBox="0 0 32 32" fill="none" xmlns="http://www.w3.org/2000/svg">
<g clip-path="url(#clip0_7_6)">
<mask id="mask0_7_6" style="mask-type:alpha" maskUnits="userSpaceOnUse" x="0" y="0" width="32" height="32">
<path fill-rule="evenodd" clip-rule="evenodd" d="M16 32C24.8367 32 32 24.8367 32 16C32 7.16333 24.8367 0 16 0C7.16333 0 0 7.16333 0 16C0 24.8367 7.16333 32 16 32Z" fill="white"/>
</mask>
<g mask="url(#mask0_7_6)">
<path fill-rule="evenodd" clip-rule="evenodd" d="M21.5847 13.0326L6.9553 5.20075L6.87888 5.15933L6.80888 5.22175C5.36776 6.44858 4.19074 7.95523 3.34913 9.65042L3.28613 9.77583L3.41155 9.83825L15.6645 15.9475L3.41155 22.0637L3.28613 22.1262L3.34913 22.2516C4.19235 23.9456 5.36891 25.4519 6.8083 26.6802L6.8783 26.7427L6.9623 26.7012L21.5777 18.8694L21.6337 18.8274L21.7737 18.744V13.165L21.6337 13.0816L21.5847 13.0326V13.0326Z" fill="url(#paint0_linear_7_6)"/>
<mask id="mask1_7_6" style="mask-type:alpha" maskUnits="userSpaceOnUse" x="2" y="2" width="28" height="28">
<path fill-rule="evenodd" clip-rule="evenodd" d="M16 16L3.477 22.265C2.532 20.375 2 18.254 2 16C2 13.746 2.532 11.625 3.477 9.73498L16 16ZM16 1.99998C12.6746 1.99592 9.45727 3.1801 6.928 5.33898L21.6 13.2V18.8L6.928 26.661C9.45727 28.8199 12.6746 30.004 16 30C23.735 30 30 23.735 30 16C30 8.26498 23.735 1.99998 16 1.99998Z" fill="white"/>
</mask>
<g mask="url(#mask1_7_6)">
<path fill-rule="evenodd" clip-rule="evenodd" d="M16 30C23.7321 30 30 23.7321 30 16C30 8.26792 23.7321 2 16 2C8.26792 2 2 8.26792 2 16C2 23.7321 8.26792 30 16 30Z" fill="url(#paint1_linear_7_6)"/>
</g>
</g>
</g>
<defs>
<linearGradient id="paint0_linear_7_6" x1="3.28613" y1="26.7432" x2="21.7807" y2="26.7432" gradientUnits="userSpaceOnUse">
<stop stop-color="#EBF5F7"/>
<stop offset="0.152" stop-color="#F1F8FA"/>
<stop offset="0.538" stop-color="#FCFDFE"/>
<stop offset="1" stop-color="white"/>
</linearGradient>
<linearGradient id="paint1_linear_7_6" x1="23.4188" y1="34.3622" x2="34.3622" y2="8.58117" gradientUnits="userSpaceOnUse">
<stop offset="0.1" stop-color="#CC0099"/>
<stop offset="0.199" stop-color="#CF0090"/>
<stop offset="0.36" stop-color="#D70078"/>
<stop offset="0.564" stop-color="#E40050"/>
<stop offset="0.799" stop-color="#F70019"/>
<stop offset="0.9" stop-color="#FF0000"/>
</linearGradient>
<clipPath id="clip0_7_6">
<rect width="32" height="32" fill="white"/>
</clipPath>
</defs>
</svg>
