<svg fill="none" height="40" viewBox="0 0 40 40" width="40" xmlns="http://www.w3.org/2000/svg" xmlns:xlink="http://www.w3.org/1999/xlink"><linearGradient id="a" gradientUnits="userSpaceOnUse" x1="27.4188" x2="38.3622" y1="38.3622" y2="12.5812"><stop offset=".1" stop-color="#c09"/><stop offset=".199" stop-color="#cf0090"/><stop offset=".36" stop-color="#d70078"/><stop offset=".564" stop-color="#e40050"/><stop offset=".799" stop-color="#f70019"/><stop offset=".9" stop-color="#f00"/></linearGradient><linearGradient id="b" gradientUnits="userSpaceOnUse" x1="7.29004" x2="25.7846" y1="30.7438" y2="30.7438"><stop offset="0" stop-color="#ebf5f7"/><stop offset=".152" stop-color="#f1f8fa"/><stop offset=".538" stop-color="#fcfdfe"/><stop offset="1" stop-color="#fff"/></linearGradient><mask id="c" height="28" maskUnits="userSpaceOnUse" width="28" x="6" y="6"><path d="m34 20c0-7.732-6.268-14-14-14s-14 6.268-14 14 6.268 14 14 14 14-6.268 14-14z" fill="#fff"/></mask><rect fill="#262a31" height="40" rx="8" width="40"/><g mask="url(#c)"><path d="m20 34c7.732 0 14-6.268 14-14s-6.268-14-14-14-14 6.268-14 14 6.268 14 14 14z" fill="url(#a)"/><path clip-rule="evenodd" d="m25.5886 17.0332-14.6294-7.83187-.0764-.04142-.07.06242c-1.44113 1.22687-2.61815 2.73347-3.45976 4.42867l-.063.1254.12542.0624 12.25294 6.1093-12.25294 6.1162-.12542.0625.063.1254c.84322 1.694 2.01978 3.2003 3.45916 4.4286l.07.0625.084-.0415 14.6154-7.8318.056-.042.14-.0834v-5.579l-.14-.0834z" fill="url(#b)" fill-rule="evenodd"/></g></svg>